<?xml version="1.0" encoding="UTF-8" standalone="no"?>
<svg width="512px" height="512px" viewBox="0 0 512 512" version="1.1" xmlns="http://www.w3.org/2000/svg" xmlns:xlink="http://www.w3.org/1999/xlink">
    <title>collapse</title>
    <description>Created with Sketch.</description>
    <defs></defs>
    <g id="Page-1" stroke="none" stroke-width="1" fill="none" fill-rule="evenodd">
        <g id="collapse">
            <path d="M312.451139,261.671159 L417.320835,261.671159 C420.444376,261.671159 423,259.121343 423,256.004901 C423,252.888459 420.444376,250.338642 417.320835,250.338642 L323.575253,250.338642 L312.451139,250.338642 L359.517215,197.64244 C361.575913,195.234281 361.788881,191.905354 359.588205,189.709679 C357.387529,187.514004 353.554093,187.372347 351.495396,189.638851 C351.495396,189.638851 295.271666,251.25941 294.703749,251.967692 C294.135833,252.675974 293,253.950882 293,256.004901 C293,258.05892 294.135833,259.475484 294.703749,260.04211 C295.271666,260.608736 351.495396,322.370951 351.495396,322.370951 C352.560239,323.433374 354.05102,324 355.5418,324 C357.032581,324 358.452372,323.433374 359.588205,322.370951 C361.788882,320.175276 361.717892,316.704693 359.588205,314.367361 L312.451139,261.671159 Z" id="r" fill="#000000"></path>
            <rect id="frame" stroke="#000000" stroke-width="20" stroke-linejoin="round" x="44" y="106" width="425" height="300"></rect>
        </g>
    </g>
</svg>
