<?xml version="1.0" standalone="no"?><!DOCTYPE svg PUBLIC "-//W3C//DTD SVG 1.1//EN" "http://www.w3.org/Graphics/SVG/1.1/DTD/svg11.dtd"><svg width="100px" height="100px" viewBox="0 0 512 512" version="1.1" xmlns="http://www.w3.org/2000/svg" xmlns:xlink="http://www.w3.org/1999/xlink" xml:space="preserve" style="fill-rule:evenodd;clip-rule:evenodd;stroke-linejoin:round;stroke-miterlimit:1.41421;"><g><path d="M441.441,256.338l-96.137,0c-11.715,0 -22.105,7.546 -25.697,18.706c-9.523,29.519 -36.747,49.334 -67.711,49.334c-30.975,0 -58.188,-19.815 -67.711,-49.334c-3.603,-11.16 -13.982,-18.706 -25.708,-18.706l-96.137,0c-14.916,0 -27.015,12.082 -27.015,27.015l0,154.072c0,14.906 12.099,27.004 27.015,27.004l379.101,0c14.933,0 27.015,-12.098 27.015,-27.004l0,-154.072c0,-14.933 -12.082,-27.015 -27.015,-27.015Z" style="fill:#000;fill-rule:nonzero;"/><path d="M246.223,270.738c1.356,1.9 3.575,3.037 5.909,3.037l0.017,0c2.35,0 4.536,-1.137 5.909,-3.065l74.713,-105.078c1.571,-2.219 1.763,-5.118 0.527,-7.546c-1.235,-2.427 -3.745,-3.932 -6.464,-3.932l-35.143,0l0,-94.396c0,-4.037 -3.257,-7.283 -7.266,-7.283l-65.058,0c-4.02,0 -7.266,3.246 -7.266,7.283l0,94.396l-35.171,0c-2.718,0 -5.212,1.532 -6.447,3.932c-1.258,2.428 -1.044,5.327 0.538,7.546l75.202,105.106Z" style="fill:#000;fill-rule:nonzero;"/></g></svg>
