<?xml version="1.0" encoding="UTF-8" standalone="no"?>
<svg width="512px" height="512px" viewBox="0 0 512 512" version="1.1" xmlns="http://www.w3.org/2000/svg" xmlns:xlink="http://www.w3.org/1999/xlink">
    <title>expand</title>
    <description>Created with Sketch.</description>
    <defs></defs>
    <g id="Page-1" stroke="none" stroke-width="1" fill="none" fill-rule="evenodd">
        <g id="expand">
            <path d="M397.548861,261.671159 L292.679165,261.671159 C289.555624,261.671159 287,259.121343 287,256.004901 C287,252.888459 289.555624,250.338642 292.679165,250.338642 L386.424747,250.338642 L397.548861,250.338642 L350.482785,197.64244 C348.424087,195.234281 348.211119,191.905354 350.411795,189.709679 C352.612471,187.514004 356.445907,187.372347 358.504604,189.638851 C358.504604,189.638851 414.728334,251.25941 415.296251,251.967692 C415.864167,252.675974 417,253.950882 417,256.004901 C417,258.05892 415.864167,259.475484 415.296251,260.04211 C414.728334,260.608736 358.504604,322.370951 358.504604,322.370951 C357.439761,323.433374 355.94898,324 354.4582,324 C352.967419,324 351.547628,323.433374 350.411795,322.370951 C348.211118,320.175276 348.282108,316.704693 350.411795,314.367361 L397.548861,261.671159 Z" id="r" fill="#000000"></path>
            <rect id="frame" stroke="#000000" stroke-width="20" stroke-linejoin="round" x="44" y="106" width="425" height="300"></rect>
        </g>
    </g>
</svg>
