<?xml version="1.0" encoding="UTF-8" standalone="no"?>
<!-- Created with Inkscape (http://www.inkscape.org/) -->

<svg
   xmlns:dc="http://purl.org/dc/elements/1.1/"
   xmlns:cc="http://creativecommons.org/ns#"
   xmlns:rdf="http://www.w3.org/1999/02/22-rdf-syntax-ns#"
   xmlns:svg="http://www.w3.org/2000/svg"
   xmlns="http://www.w3.org/2000/svg"
   xmlns:xlink="http://www.w3.org/1999/xlink"
   xmlns:sodipodi="http://sodipodi.sourceforge.net/DTD/sodipodi-0.dtd"
   xmlns:inkscape="http://www.inkscape.org/namespaces/inkscape"
   width="900.40002"
   height="310.57001"
   id="svg2"
   version="1.1"
   inkscape:version="0.48.2 r9819"
   sodipodi:docname="controlling-build.svg">
  <defs
     id="defs4">
    <linearGradient
       inkscape:collect="always"
       id="linearGradient5513">
      <stop
         style="stop-color:#000000;stop-opacity:1;"
         offset="0"
         id="stop5515" />
      <stop
         style="stop-color:#000000;stop-opacity:0;"
         offset="1"
         id="stop5517" />
    </linearGradient>
    <marker
       inkscape:stockid="Arrow1Mend"
       orient="auto"
       refY="0"
       refX="0"
       id="Arrow1Mend"
       style="overflow:visible">
      <path
         id="path3886"
         d="M 0,0 5,-5 -12.5,0 5,5 0,0 z"
         style="fill-rule:evenodd;stroke:#000000;stroke-width:1pt"
         transform="matrix(-0.4,0,0,-0.4,-4,0)"
         inkscape:connector-curvature="0" />
    </marker>
    <marker
       inkscape:stockid="Arrow2Lend"
       orient="auto"
       refY="0"
       refX="0"
       id="Arrow2Lend"
       style="overflow:visible">
      <path
         id="path3898"
         style="fill-rule:evenodd;stroke-width:0.625;stroke-linejoin:round"
         d="M 8.7185878,4.0337352 -2.2072895,0.01601326 8.7185884,-4.0017078 c -1.7454984,2.3720609 -1.7354408,5.6174519 -6e-7,8.035443 z"
         transform="matrix(-1.1,0,0,-1.1,-1.1,0)"
         inkscape:connector-curvature="0" />
    </marker>
    <linearGradient
       inkscape:collect="always"
       xlink:href="#linearGradient5513"
       id="linearGradient5519"
       x1="-104.35545"
       y1="220.96759"
       x2="-242.31973"
       y2="325.20728"
       gradientUnits="userSpaceOnUse" />
  </defs>
  <sodipodi:namedview
     id="base"
     pagecolor="#ffffff"
     bordercolor="#666666"
     borderopacity="1.0"
     inkscape:pageopacity="0.0"
     inkscape:pageshadow="2"
     inkscape:zoom="1.2316748"
     inkscape:cx="306.49325"
     inkscape:cy="155.285"
     inkscape:document-units="px"
     inkscape:current-layer="layer1"
     showgrid="true"
     inkscape:snap-grids="false"
     inkscape:window-width="1596"
     inkscape:window-height="861"
     inkscape:window-x="284"
     inkscape:window-y="763"
     inkscape:window-maximized="0"
     fit-margin-top="0"
     fit-margin-left="0"
     fit-margin-right="0"
     fit-margin-bottom="0"
     inkscape:snap-global="true"
     showguides="true"
     inkscape:guide-bbox="true">
    <inkscape:grid
       type="xygrid"
       id="grid3039"
       empspacing="5"
       visible="true"
       enabled="true"
       snapvisiblegridlinesonly="true"
       originx="128.48318px"
       originy="-568.24046px" />
  </sodipodi:namedview>
  <metadata
     id="metadata7">
    <rdf:RDF>
      <cc:Work
         rdf:about="">
        <dc:format>image/svg+xml</dc:format>
        <dc:type
           rdf:resource="http://purl.org/dc/dcmitype/StillImage" />
        <dc:title />
      </cc:Work>
    </rdf:RDF>
  </metadata>
  <g
     inkscape:label="Layer 1"
     inkscape:groupmode="layer"
     id="layer1"
     transform="translate(128.48318,-173.5517)">
    <path
       inkscape:connector-curvature="3"
       inkscape:connector-type="orthogonal"
       id="path4815"
       d="m -12.851321,457.7093 0,0"
       style="fill:none;stroke:#000000;stroke-width:1px;stroke-linecap:butt;stroke-linejoin:miter;stroke-opacity:1;display:inline" />
    <path
       sodipodi:nodetypes="cc"
       inkscape:connector-curvature="0"
       id="path17892"
       d="m 23.19561,447.37919 c -0.5741,-20.09357 0.754211,-55.95658 -24.9072745,-55.95658"
       style="fill:none;stroke:#000000;stroke-width:1px;stroke-linecap:butt;stroke-linejoin:miter;stroke-opacity:1" />
    <rect
       inkscape:transform-center-y="175.41181"
       inkscape:transform-center-x="-154.38924"
       inkscape:connector-avoid="true"
       rx="24.050842"
       y="177.3851"
       x="-7.9762192"
       height="249.62451"
       width="131.93262"
       id="rect6289"
       style="fill:none;stroke:none">
      <desc
         id="desc6291">to push connector lines around</desc>
    </rect>
    <path
       sodipodi:nodetypes="csc"
       style="fill:none;stroke:#000000;stroke-width:1px;stroke-linecap:butt;stroke-linejoin:miter;stroke-opacity:1"
       d="m 22.383707,447.37919 c -0.22918,-8.02138 -6.703326,-16.13824 -19.1015562,-16.13824 -21.9998198,0 -13.8310988,0 -20.0148588,0"
       id="path17894"
       inkscape:connector-curvature="0" />
    <rect
       inkscape:connector-avoid="true"
       rx="2.1890156"
       y="447.36215"
       x="-115"
       height="20"
       width="780.00739"
       id="rect4809"
       style="fill:#ffffff;fill-opacity:1;fill-rule:evenodd;stroke:#000000;stroke-opacity:1" />
    <path
       style="fill:none;stroke:#000000;stroke-width:1px;stroke-linecap:butt;stroke-linejoin:miter;stroke-opacity:1"
       d="m 40.385751,447.36217 c 0,-20 1.00771,-17.47855 10.09124,-17.47855"
       id="path17629"
       inkscape:connector-curvature="0" />
    <path
       inkscape:connector-curvature="0"
       id="path17631"
       d="m 40.385751,447.36217 c 0,-20 -9.32612,-54.79517 10.09124,-54.79517"
       style="fill:none;stroke:#000000;stroke-width:1px;stroke-linecap:butt;stroke-linejoin:miter;stroke-opacity:1"
       sodipodi:nodetypes="cc" />
    <path
       sodipodi:nodetypes="cc"
       style="fill:none;stroke:#000000;stroke-width:1px;stroke-linecap:butt;stroke-linejoin:miter;stroke-opacity:1"
       d="m 40.385751,447.36217 c 0,-20 -8.75202,-92.11179 10.09124,-92.11179"
       id="path17633"
       inkscape:connector-curvature="0" />
    <rect
       inkscape:connector-avoid="true"
       style="fill:#76c5d9;fill-rule:evenodd;stroke:none;fill-opacity:1"
       id="rect4811"
       width="288.36298"
       height="20"
       x="50.022781"
       y="419.63159"
       rx="1.6144793" />
    <path
       inkscape:connector-curvature="0"
       id="path17635"
       d="m 40.385751,447.36217 c 0,-20 -9.90023,-130.00251 10.09124,-130.00251"
       style="fill:none;stroke:#000000;stroke-width:1px;stroke-linecap:butt;stroke-linejoin:miter;stroke-opacity:1"
       sodipodi:nodetypes="cc" />
    <rect
       rx="1.6144793"
       y="382.30267"
       x="50.022781"
       height="20"
       width="190.7709"
       id="rect7388"
       style="fill:#76c5d9;fill-rule:evenodd;stroke:none;fill-opacity:1"
       inkscape:connector-avoid="true" />
    <path
       style="fill:none;stroke:#000000;stroke-width:1px;stroke-linecap:butt;stroke-linejoin:miter;stroke-opacity:1"
       d="m 351.20427,447.37919 c -0.5741,-20.09357 -5.74101,-17.79716 -14.35254,-17.79716"
       id="path17637"
       inkscape:connector-curvature="0"
       sodipodi:nodetypes="cc" />
    <path
       inkscape:connector-curvature="0"
       id="path17639"
       d="m 351.20427,447.37919 c -0.34507,-12.07758 -1.83191,-55.51552 -26.40868,-55.51552 -21.99982,0 -78.78331,0 -84.96707,0"
       style="fill:none;stroke:#000000;stroke-width:1px;stroke-linecap:butt;stroke-linejoin:miter;stroke-opacity:1"
       sodipodi:nodetypes="csc" />
    <path
       sodipodi:nodetypes="csc"
       style="fill:none;stroke:#000000;stroke-width:1px;stroke-linecap:butt;stroke-linejoin:miter;stroke-opacity:1"
       d="m 351.20427,447.37919 c -0.44082,-15.42879 -1.12348,-91.3806 -26.40868,-91.3806 -37.1855,0 -180.68815,0 -184.28669,0"
       id="path17641"
       inkscape:connector-curvature="0" />
    <path
       inkscape:connector-curvature="0"
       id="path17643"
       d="m 351.20427,447.37919 c -0.27754,-9.714 -0.72366,-130.01468 -26.40868,-130.01468 -61.09033,0 -198.33931,0 -206.34641,0"
       style="fill:none;stroke:#000000;stroke-width:1px;stroke-linecap:butt;stroke-linejoin:miter;stroke-opacity:1"
       sodipodi:nodetypes="csc" />
    <rect
       rx="1.6144793"
       y="-364.97379"
       x="-143.28192"
       height="20"
       width="93.259132"
       id="rect8241"
       style="fill:#e580ff;fill-opacity:1;fill-rule:evenodd;stroke:none"
       inkscape:connector-avoid="true"
       transform="scale(-1,-1)" />
    <rect
       transform="scale(-1,-1)"
       inkscape:connector-avoid="true"
       style="fill:#e580ff;fill-opacity:1;fill-rule:evenodd;stroke:none"
       id="rect8243"
       width="71.095985"
       height="20"
       x="-121.11877"
       y="-327.64487"
       rx="1.6144793" />
    <path
       inkscape:connector-curvature="0"
       id="path17884"
       d="m -93.578184,447.36217 c 0,-20 1.00771,-17.47855 10.09124,-17.47855"
       style="fill:none;stroke:#000000;stroke-width:1px;stroke-linecap:butt;stroke-linejoin:miter;stroke-opacity:1" />
    <path
       sodipodi:nodetypes="cc"
       style="fill:none;stroke:#000000;stroke-width:1px;stroke-linecap:butt;stroke-linejoin:miter;stroke-opacity:1"
       d="m -93.578184,447.36217 c 0,-20 -9.326116,-54.79517 10.09124,-54.79517"
       id="path17886"
       inkscape:connector-curvature="0" />
    <rect
       rx="1.6144793"
       y="419.63159"
       x="-83.941154"
       height="20"
       width="75.644478"
       id="rect17888"
       style="fill:#ff9955;fill-rule:evenodd;stroke:none;fill-opacity:1"
       inkscape:connector-avoid="true" />
    <rect
       inkscape:connector-avoid="true"
       style="fill:#ff9955;fill-rule:evenodd;stroke:none;fill-opacity:1"
       id="rect17890"
       width="82.787857"
       height="20"
       x="-83.941154"
       y="382.30267"
       rx="1.6144793" />
    <path
       style="fill:none;stroke:#000000;stroke-width:1px;stroke-linecap:butt;stroke-linejoin:miter;stroke-opacity:1"
       d="m 409.80145,447.36217 c 0,-20 1.00771,-17.47855 10.09124,-17.47855"
       id="path17902"
       inkscape:connector-curvature="0" />
    <path
       inkscape:connector-curvature="0"
       id="path17904"
       d="m 409.80145,447.36217 c 0,-20 -9.32612,-54.79517 10.09124,-54.79517"
       style="fill:none;stroke:#000000;stroke-width:1px;stroke-linecap:butt;stroke-linejoin:miter;stroke-opacity:1"
       sodipodi:nodetypes="cc" />
    <rect
       inkscape:connector-avoid="true"
       style="fill:#5fd35f;fill-opacity:1;fill-rule:evenodd;stroke:none"
       id="rect17906"
       width="160.89424"
       height="20"
       x="419.43851"
       y="419.63159"
       rx="1.6144793" />
    <rect
       rx="1.6144793"
       y="382.30267"
       x="419.43851"
       height="20"
       width="82.787857"
       id="rect17908"
       style="fill:#ff9955;fill-opacity:1;fill-rule:evenodd;stroke:none"
       inkscape:connector-avoid="true" />
    <rect
       inkscape:connector-avoid="true"
       style="fill:#5fd35f;fill-opacity:1;fill-rule:evenodd;stroke:none"
       id="rect17910"
       width="132.31393"
       height="20"
       x="419.43851"
       y="382.30267"
       rx="1.6144793" />
    <rect
       transform="scale(-1,-1)"
       inkscape:connector-avoid="true"
       style="fill:#5fd35f;fill-opacity:1;fill-rule:evenodd;stroke:none"
       id="rect17912"
       width="171.20197"
       height="19.999969"
       x="-591.45215"
       y="-364.97379"
       rx="1.6144793" />
    <path
       sodipodi:nodetypes="cc"
       style="fill:none;stroke:#000000;stroke-width:1px;stroke-linecap:butt;stroke-linejoin:miter;stroke-opacity:1"
       d="m 409.80145,447.36217 c 0,-20 -9.32612,-92.14269 10.09124,-92.14269"
       id="path17914"
       inkscape:connector-curvature="0" />
    <path
       style="fill:none;stroke:#000000;stroke-width:1px;stroke-linecap:butt;stroke-linejoin:miter;stroke-opacity:1"
       d="m 749.38613,272.41058 c 0,-34.91181 -1.6238,-91.74499 -30.04039,-91.74499"
       id="path18436"
       inkscape:connector-curvature="0"
       transform="translate(-128.48318,173.5517)" />
    <path
       transform="translate(-128.48318,173.5517)"
       inkscape:connector-curvature="0"
       id="path18438"
       d="m 749.38613,272.41058 c 0,-20.29756 2.43571,-52.77366 -72.25933,-52.77366"
       style="fill:none;stroke:#000000;stroke-width:1px;stroke-linecap:butt;stroke-linejoin:miter;stroke-opacity:1"
       sodipodi:nodetypes="cc" />
    <path
       sodipodi:nodetypes="cc"
       style="fill:none;stroke:#000000;stroke-width:1px;stroke-linecap:butt;stroke-linejoin:miter;stroke-opacity:1"
       d="m 749.38613,272.41058 c 0,-16.23805 -22.73327,-15.42614 -39.78322,-15.42614"
       id="path18440"
       inkscape:connector-curvature="0"
       transform="translate(-128.48318,173.5517)" />
    <g
       style="font-size:18px;font-style:normal;font-variant:normal;font-weight:normal;font-stretch:normal;line-height:125%;letter-spacing:0px;word-spacing:0px;fill:#000000;fill-opacity:1;stroke:none;font-family:Bitstream Vera Sans;-inkscape-font-specification:Bitstream Vera Sans"
       id="text18442">
      <path
         d="m -98.108902,453.86215 0,1.17578 c -0.355475,-0.19595 -0.713222,-0.34179 -1.073242,-0.4375 -0.355474,-0.10025 -0.7155,-0.15038 -1.080076,-0.15039 -0.81576,10e-6 -1.44922,0.25977 -1.90039,0.7793 -0.45118,0.51498 -0.67676,1.23959 -0.67676,2.17383 0,0.93425 0.22558,1.66113 0.67676,2.18066 0.45117,0.51498 1.08463,0.77246 1.90039,0.77246 0.364576,0 0.724602,-0.0478 1.080076,-0.14355 0.36002,-0.10026 0.717767,-0.24837 1.073242,-0.44434 l 0,1.16211 c -0.350918,0.16406 -0.715501,0.28711 -1.09375,0.36914 -0.373703,0.082 -0.772466,0.12305 -1.196288,0.12305 -1.153,0 -2.06901,-0.36231 -2.74805,-1.08692 -0.67904,-0.7246 -1.01855,-1.70214 -1.01855,-2.93261 0,-1.2487 0.34179,-2.23079 1.02539,-2.94629 0.68815,-0.71549 1.62923,-1.07324 2.82324,-1.07324 0.387365,0 0.76562,0.041 1.134766,0.12304 0.369134,0.0775 0.726881,0.19597 1.073242,0.35547"
         style="font-size:14px"
         id="path12535" />
      <path
         d="m -92.940933,454.45004 c -0.674483,10e-6 -1.207686,0.26433 -1.59961,0.79297 -0.391929,0.5241 -0.587892,1.24415 -0.58789,2.16016 -2e-6,0.91602 0.193682,1.63835 0.581054,2.16699 0.391924,0.52409 0.927406,0.78613 1.606446,0.78613 0.669917,0 1.200841,-0.26432 1.592773,-0.79297 0.391921,-0.52864 0.587884,-1.24869 0.587891,-2.16015 -7e-6,-0.9069 -0.19597,-1.62467 -0.587891,-2.15332 -0.391932,-0.5332 -0.922856,-0.7998 -1.592773,-0.79981 m 0,-1.0664 c 1.093744,0 1.952793,0.35547 2.577148,1.0664 0.624342,0.71095 0.936516,1.69532 0.936524,2.95313 -8e-6,1.25326 -0.312182,2.23763 -0.936524,2.95312 -0.624355,0.71094 -1.483404,1.06641 -2.577148,1.06641 -1.098311,0 -1.959638,-0.35547 -2.583985,-1.06641 -0.619792,-0.71549 -0.929688,-1.69986 -0.929687,-2.95312 -10e-7,-1.25781 0.309895,-2.24218 0.929687,-2.95313 0.624347,-0.71093 1.485674,-1.0664 2.583985,-1.0664"
         style="font-size:14px"
         id="path12537" />
      <path
         d="m -80.984879,456.60336 0,4.6211 -1.257812,0 0,-4.58008 c -6e-6,-0.72461 -0.141282,-1.26692 -0.423828,-1.62695 -0.282558,-0.36002 -0.706386,-0.54004 -1.271485,-0.54004 -0.67904,0 -1.214521,0.21647 -1.606445,0.64941 -0.39193,0.43295 -0.587893,1.02312 -0.58789,1.77051 l 0,4.32715 -1.264649,0 0,-7.65625 1.264649,0 0,1.18945 c 0.300778,-0.46028 0.653968,-0.80435 1.05957,-1.03223 0.410152,-0.22785 0.881831,-0.34179 1.415039,-0.34179 0.879551,0 1.544915,0.27344 1.996094,0.82031 0.451164,0.54232 0.67675,1.34213 0.676757,2.39941"
         style="font-size:14px"
         id="path12539" />
      <path
         d="m -77.218277,451.39438 0,2.17383 2.59082,0 0,0.97754 -2.59082,0 0,4.15625 c -3e-6,0.62435 0.08431,1.02539 0.25293,1.20312 0.173174,0.17774 0.521806,0.2666 1.045898,0.2666 l 1.291992,0 0,1.05274 -1.291992,0 c -0.970706,0 -1.640627,-0.18002 -2.009765,-0.54004 -0.369143,-0.36458 -0.553713,-1.02539 -0.553711,-1.98242 l 0,-4.15625 -0.922852,0 0,-0.97754 0.922852,0 0,-2.17383 1.264648,0"
         style="font-size:14px"
         id="path12541" />
      <path
         d="m -68.5298,454.74399 c -0.141282,-0.082 -0.29623,-0.14127 -0.464844,-0.17774 -0.164068,-0.041 -0.346359,-0.0615 -0.546875,-0.0615 -0.710942,1e-5 -1.257816,0.23243 -1.640625,0.69727 -0.378258,0.46029 -0.567386,1.12337 -0.567383,1.98925 l 0,4.03321 -1.264648,0 0,-7.65625 1.264648,0 0,1.18945 c 0.26432,-0.46484 0.608395,-0.80891 1.032227,-1.03223 0.423824,-0.22785 0.938797,-0.34179 1.544921,-0.34179 0.08658,0 0.182287,0.007 0.28711,0.0205 0.104812,0.009 0.221023,0.0251 0.348633,0.0479 l 0.0068,1.29199"
         style="font-size:14px"
         id="path12543" />
      <path
         d="m -64.530777,454.45004 c -0.674483,10e-6 -1.207685,0.26433 -1.599609,0.79297 -0.39193,0.5241 -0.587893,1.24415 -0.587891,2.16016 -2e-6,0.91602 0.193683,1.63835 0.581055,2.16699 0.391924,0.52409 0.927405,0.78613 1.606445,0.78613 0.669917,0 1.200841,-0.26432 1.592773,-0.79297 0.391921,-0.52864 0.587885,-1.24869 0.587891,-2.16015 -6e-6,-0.9069 -0.19597,-1.62467 -0.587891,-2.15332 -0.391932,-0.5332 -0.922856,-0.7998 -1.592773,-0.79981 m 0,-1.0664 c 1.093745,0 1.952793,0.35547 2.577148,1.0664 0.624342,0.71095 0.936516,1.69532 0.936524,2.95313 -8e-6,1.25326 -0.312182,2.23763 -0.936524,2.95312 -0.624355,0.71094 -1.483403,1.06641 -2.577148,1.06641 -1.09831,0 -1.959638,-0.35547 -2.583984,-1.06641 -0.619793,-0.71549 -0.929689,-1.69986 -0.929688,-2.95312 -10e-7,-1.25781 0.309895,-2.24218 0.929688,-2.95313 0.624346,-0.71093 1.485674,-1.0664 2.583984,-1.0664"
         style="font-size:14px"
         id="path12545" />
      <path
         d="m -58.93898,450.58774 1.257812,0 0,10.63672 -1.257812,0 0,-10.63672"
         style="font-size:14px"
         id="path12547" />
      <path
         d="m -55.056168,450.58774 1.257813,0 0,10.63672 -1.257813,0 0,-10.63672"
         style="font-size:14px"
         id="path12549" />
      <path
         d="m -51.173355,453.56821 1.257812,0 0,7.65625 -1.257812,0 0,-7.65625 m 0,-2.98047 1.257812,0 0,1.59277 -1.257812,0 0,-1.59277"
         style="font-size:14px"
         id="path12551" />
      <path
         d="m -40.926285,456.60336 0,4.6211 -1.257812,0 0,-4.58008 c -7e-6,-0.72461 -0.141283,-1.26692 -0.423828,-1.62695 -0.282558,-0.36002 -0.706386,-0.54004 -1.271485,-0.54004 -0.67904,0 -1.214522,0.21647 -1.606445,0.64941 -0.39193,0.43295 -0.587893,1.02312 -0.587891,1.77051 l 0,4.32715 -1.264648,0 0,-7.65625 1.264648,0 0,1.18945 c 0.300779,-0.46028 0.653968,-0.80435 1.059571,-1.03223 0.410152,-0.22785 0.881831,-0.34179 1.415039,-0.34179 0.879551,0 1.544915,0.27344 1.996093,0.82031 0.451165,0.54232 0.676751,1.34213 0.676758,2.39941"
         style="font-size:14px"
         id="path12553" />
      <path
         d="m -33.365738,457.30746 c -6e-6,-0.91145 -0.189134,-1.61783 -0.567383,-2.11914 -0.373703,-0.50129 -0.90007,-0.75194 -1.579101,-0.75195 -0.674483,10e-6 -1.20085,0.25066 -1.579102,0.75195 -0.3737,0.50131 -0.560549,1.20769 -0.560547,2.11914 -2e-6,0.90691 0.186847,1.61101 0.560547,2.11231 0.378252,0.5013 0.904619,0.75195 1.579102,0.75195 0.679031,0 1.205398,-0.25065 1.579101,-0.75195 0.378249,-0.5013 0.567377,-1.2054 0.567383,-2.11231 m 1.257813,2.9668 c -8e-6,1.30339 -0.289396,2.27181 -0.868164,2.90527 -0.578783,0.63802 -1.465175,0.95703 -2.65918,0.95704 -0.442061,-1e-5 -0.859053,-0.0342 -1.250977,-0.10254 -0.391929,-0.0638 -0.772463,-0.16407 -1.141601,-0.30078 l 0,-1.22364 c 0.369138,0.20052 0.733721,0.34863 1.09375,0.44434 0.360023,0.0957 0.726884,0.14355 1.100586,0.14355 0.824865,0 1.442377,-0.21647 1.852539,-0.64941 0.41015,-0.42839 0.615228,-1.0778 0.615234,-1.94824 l 0,-0.62207 c -0.259772,0.45117 -0.592454,0.78841 -0.998047,1.01172 -0.405604,0.2233 -0.890955,0.33496 -1.456054,0.33496 -0.938806,0 -1.695315,-0.35775 -2.269532,-1.07325 -0.57422,-0.71549 -0.861329,-1.6634 -0.861328,-2.84375 -10e-7,-1.18489 0.287108,-2.13508 0.861328,-2.85058 0.574217,-0.71549 1.330726,-1.07324 2.269532,-1.07324 0.565099,0 1.05045,0.11166 1.456054,0.33496 0.405593,0.22331 0.738275,0.56055 0.998047,1.01172 l 0,-1.16211 1.257813,0 0,6.70605"
         style="font-size:14px"
         id="path12555" />
      <path
         d="m -19.56398,457.40317 c -7e-6,-0.92513 -0.191413,-1.64974 -0.574219,-2.17383 -0.378261,-0.52864 -0.90007,-0.79296 -1.56543,-0.79297 -0.665368,10e-6 -1.189456,0.26433 -1.572265,0.79297 -0.378258,0.52409 -0.567386,1.2487 -0.567383,2.17383 -3e-6,0.92513 0.189125,1.65202 0.567383,2.18066 0.382809,0.52409 0.906897,0.78614 1.572265,0.78613 0.66536,1e-5 1.187169,-0.26204 1.56543,-0.78613 0.382806,-0.52864 0.574212,-1.25553 0.574219,-2.18066 m -4.279297,-2.67285 c 0.26432,-0.45573 0.597002,-0.79297 0.998047,-1.01172 0.405595,-0.2233 0.888667,-0.33496 1.449219,-0.33496 0.929681,0 1.683912,0.36914 2.262695,1.10742 0.583325,0.73829 0.874992,1.70899 0.875,2.91211 -8e-6,1.20313 -0.291675,2.17383 -0.875,2.91211 -0.578783,0.73828 -1.333014,1.10742 -2.262695,1.10742 -0.560552,0 -1.043624,-0.10938 -1.449219,-0.32813 -0.401045,-0.2233 -0.733727,-0.56282 -0.998047,-1.01855 l 0,1.14844 -1.264648,0 0,-10.63672 1.264648,0 0,4.14258"
         style="font-size:14px"
         id="path12557" />
      <path
         d="m -16.303238,458.20297 0,-4.63476 1.257813,0 0,4.58691 c -3e-6,0.72461 0.141273,1.26921 0.423828,1.63379 0.282549,0.36003 0.706376,0.54004 1.271484,0.54004 0.679032,0 1.214513,-0.21647 1.606445,-0.64942 0.396479,-0.43294 0.594721,-1.0231 0.594727,-1.7705 l 0,-4.34082 1.2578125,0 0,7.65625 -1.2578125,0 0,-1.17578 c -0.305345,0.46484 -0.660813,0.81119 -1.066406,1.03906 -0.401047,0.22331 -0.868169,0.33496 -1.401367,0.33496 -0.879561,0 -1.547203,-0.27344 -2.00293,-0.82031 -0.455731,-0.54688 -0.683595,-1.34668 -0.683594,-2.39942"
         style="font-size:14px"
         id="path12559" />
      <path
         d="m -7.2866364,453.56821 1.2578125,0 0,7.65625 -1.2578125,0 0,-7.65625 m 0,-2.98047 1.2578125,0 0,1.59277 -1.2578125,0 0,-1.59277"
         style="font-size:14px"
         id="path12561" />
      <path
         d="m -3.4038239,450.58774 1.2578125,0 0,10.63672 -1.2578125,0 0,-10.63672"
         style="font-size:14px"
         id="path12563" />
      <path
         d="m 5.5170746,454.73032 0,-4.14258 1.2578125,0 0,10.63672 -1.2578125,0 0,-1.14844 c -0.264329,0.45573 -0.5992896,0.79525 -1.0048828,1.01855 -0.4010466,0.21875 -0.8841191,0.32813 -1.4492188,0.32813 -0.9251332,0 -1.6793642,-0.36914 -2.26269529,-1.10742 -0.5787771,-0.73828 -0.86816483,-1.70898 -0.86816406,-2.91211 -7.7e-7,-1.20312 0.28938696,-2.17382 0.86816406,-2.91211 0.58333109,-0.73828 1.33756209,-1.10742 2.26269529,-1.10742 0.5650997,0 1.0481722,0.11166 1.4492188,0.33496 0.4055932,0.21875 0.7405538,0.55599 1.0048828,1.01172 m -4.2861328,2.67285 c -2.1e-6,0.92513 0.1891253,1.65202 0.5673828,2.18066 0.3828095,0.52409 0.9068975,0.78614 1.5722656,0.78613 0.6653597,1e-5 1.1894477,-0.26204 1.5722656,-0.78613 0.3828064,-0.52864 0.5742124,-1.25553 0.5742188,-2.18066 -6.4e-6,-0.92513 -0.1914124,-1.64974 -0.5742188,-2.17383 -0.3828179,-0.52864 -0.9069059,-0.79296 -1.5722656,-0.79297 -0.6653681,10e-6 -1.1894561,0.26433 -1.5722656,0.79297 -0.3782575,0.52409 -0.5673849,1.2487 -0.5673828,2.17383"
         style="font-size:14px"
         id="path12565" />
    </g>
  </g>
</svg>
