<?xml version="1.0" encoding="UTF-8" standalone="no"?>
<!-- Created with Inkscape (http://www.inkscape.org/) -->

<svg
   xmlns:dc="http://purl.org/dc/elements/1.1/"
   xmlns:cc="http://creativecommons.org/ns#"
   xmlns:rdf="http://www.w3.org/1999/02/22-rdf-syntax-ns#"
   xmlns:svg="http://www.w3.org/2000/svg"
   xmlns="http://www.w3.org/2000/svg"
   xmlns:xlink="http://www.w3.org/1999/xlink"
   xmlns:sodipodi="http://sodipodi.sourceforge.net/DTD/sodipodi-0.dtd"
   xmlns:inkscape="http://www.inkscape.org/namespaces/inkscape"
   width="900.40002"
   height="310.57001"
   id="svg2"
   version="1.1"
   inkscape:version="0.48.2 r9819"
   sodipodi:docname="dependent.svg">
  <defs
     id="defs4">
    <linearGradient
       inkscape:collect="always"
       id="linearGradient5513">
      <stop
         style="stop-color:#000000;stop-opacity:1;"
         offset="0"
         id="stop5515" />
      <stop
         style="stop-color:#000000;stop-opacity:0;"
         offset="1"
         id="stop5517" />
    </linearGradient>
    <marker
       inkscape:stockid="Arrow1Mend"
       orient="auto"
       refY="0"
       refX="0"
       id="Arrow1Mend"
       style="overflow:visible">
      <path
         id="path3886"
         d="M 0,0 5,-5 -12.5,0 5,5 0,0 z"
         style="fill-rule:evenodd;stroke:#000000;stroke-width:1pt"
         transform="matrix(-0.4,0,0,-0.4,-4,0)"
         inkscape:connector-curvature="0" />
    </marker>
    <marker
       inkscape:stockid="Arrow2Lend"
       orient="auto"
       refY="0"
       refX="0"
       id="Arrow2Lend"
       style="overflow:visible">
      <path
         id="path3898"
         style="fill-rule:evenodd;stroke-width:0.625;stroke-linejoin:round"
         d="M 8.7185878,4.0337352 -2.2072895,0.01601326 8.7185884,-4.0017078 c -1.7454984,2.3720609 -1.7354408,5.6174519 -6e-7,8.035443 z"
         transform="matrix(-1.1,0,0,-1.1,-1.1,0)"
         inkscape:connector-curvature="0" />
    </marker>
    <linearGradient
       inkscape:collect="always"
       xlink:href="#linearGradient5513"
       id="linearGradient5519"
       x1="-104.35545"
       y1="220.96759"
       x2="-242.31973"
       y2="325.20728"
       gradientUnits="userSpaceOnUse" />
  </defs>
  <sodipodi:namedview
     id="base"
     pagecolor="#ffffff"
     bordercolor="#666666"
     borderopacity="1.0"
     inkscape:pageopacity="0.0"
     inkscape:pageshadow="2"
     inkscape:zoom="1.1505013"
     inkscape:cx="295.0783"
     inkscape:cy="155.285"
     inkscape:document-units="px"
     inkscape:current-layer="layer1"
     showgrid="true"
     inkscape:snap-grids="true"
     inkscape:window-width="1596"
     inkscape:window-height="861"
     inkscape:window-x="80"
     inkscape:window-y="702"
     inkscape:window-maximized="0"
     fit-margin-top="0"
     fit-margin-left="0"
     fit-margin-right="0"
     fit-margin-bottom="0"
     inkscape:snap-nodes="false"
     inkscape:snap-to-guides="false">
    <inkscape:grid
       type="xygrid"
       id="grid3039"
       empspacing="5"
       visible="true"
       enabled="true"
       snapvisiblegridlinesonly="true"
       originx="128.48318px"
       originy="-568.24046px" />
  </sodipodi:namedview>
  <metadata
     id="metadata7">
    <rdf:RDF>
      <cc:Work
         rdf:about="">
        <dc:format>image/svg+xml</dc:format>
        <dc:type
           rdf:resource="http://purl.org/dc/dcmitype/StillImage" />
        <dc:title />
      </cc:Work>
    </rdf:RDF>
  </metadata>
  <g
     inkscape:label="Layer 1"
     inkscape:groupmode="layer"
     id="layer1"
     transform="translate(128.48318,-173.5517)">
    <path
       sodipodi:type="star"
       style="fill:#ffff00;fill-opacity:1;stroke:#fa9c13;stroke-opacity:1"
       id="path4847"
       sodipodi:sides="5"
       sodipodi:cx="-1"
       sodipodi:cy="-19.451782"
       sodipodi:r1="9.4423094"
       sodipodi:r2="5.315073"
       sodipodi:arg1="-0.51477966"
       sodipodi:arg2="0.11353887"
       inkscape:flatsided="false"
       inkscape:rounded="0"
       inkscape:randomized="0"
       d="m 7.2185977,-24.100638 -2.9377464,5.251027 1.6801595,5.777604 -5.90183729,-1.171306 -4.97562991,3.383305 -0.7097897,-5.974935 -4.7552679,-3.686607 5.4631632,-2.521406 2.0367127,-5.661752 4.0862102,4.416619 z"
       transform="translate(-106.33314,242.82171)"
       inkscape:transform-center-x="0.29691494"
       inkscape:transform-center-y="0.72855058" />
    <g
       style="font-size:12px;font-style:normal;font-variant:normal;font-weight:normal;font-stretch:normal;text-align:start;line-height:125%;letter-spacing:0px;word-spacing:0px;writing-mode:lr-tb;text-anchor:start;fill:#5f5f5f;fill-opacity:1;stroke:none;font-family:Waree;-inkscape-font-specification:Waree"
       id="text5231">
      <path
         d="m -88.20507,221.18602 0,1.00781 c -0.304694,-0.16796 -0.611334,-0.29296 -0.919922,-0.375 -0.304692,-0.0859 -0.613286,-0.1289 -0.925782,-0.1289 -0.699222,0 -1.24219,0.22266 -1.628906,0.66796 -0.386721,0.44142 -0.58008,1.06251 -0.580078,1.86329 -2e-6,0.80078 0.193357,1.42383 0.580078,1.86914 0.386716,0.4414 0.929684,0.66211 1.628906,0.66211 0.312496,0 0.62109,-0.041 0.925782,-0.12305 0.308588,-0.0859 0.615228,-0.21289 0.919922,-0.38086 l 0,0.99609 c -0.300787,0.14063 -0.613287,0.2461 -0.9375,0.31641 -0.320318,0.0703 -0.662114,0.10547 -1.025391,0.10547 -0.988284,0 -1.77344,-0.31055 -2.355469,-0.93164 -0.582032,-0.62109 -0.873047,-1.45898 -0.873047,-2.51367 0,-1.07031 0.292968,-1.91211 0.878907,-2.52539 0.589841,-0.61328 1.396481,-0.91992 2.419921,-0.91993 0.332027,1e-5 0.656246,0.0352 0.972657,0.10547 0.316401,0.0664 0.623041,0.16798 0.919922,0.30469"
         style=""
         id="path12493" />
      <path
         d="m -83.775383,221.68993 c -0.578128,0 -1.035159,0.22656 -1.371094,0.67968 -0.335939,0.44923 -0.503908,1.06641 -0.503906,1.85157 -2e-6,0.78515 0.166014,1.40429 0.498047,1.85742 0.335935,0.44922 0.794919,0.67383 1.376953,0.67383 0.574215,0 1.029292,-0.22657 1.365234,-0.67969 0.335933,-0.45312 0.503901,-1.07031 0.503907,-1.85156 -6e-6,-0.77734 -0.167974,-1.39258 -0.503907,-1.84571 -0.335942,-0.45702 -0.791019,-0.68554 -1.365234,-0.68554 m 0,-0.91407 c 0.937495,1e-5 1.673823,0.3047 2.208984,0.91407 0.53515,0.60938 0.802728,1.45313 0.802735,2.53125 -7e-6,1.07422 -0.267585,1.91797 -0.802735,2.53125 -0.535161,0.60937 -1.271489,0.91406 -2.208984,0.91406 -0.941409,0 -1.679689,-0.30469 -2.214844,-0.91406 -0.531251,-0.61328 -0.796875,-1.45703 -0.796875,-2.53125 0,-1.07812 0.265624,-1.92187 0.796875,-2.53125 0.535155,-0.60937 1.273435,-0.91406 2.214844,-0.91407"
         style=""
         id="path12495" />
      <path
         d="m -73.873039,222.19383 c 0.269524,-0.48437 0.59179,-0.84179 0.966797,-1.07226 0.374992,-0.23047 0.816398,-0.3457 1.324218,-0.34571 0.683585,1e-5 1.210928,0.24024 1.582032,0.72071 0.371083,0.47656 0.55663,1.15625 0.55664,2.03906 l 0,3.96094 -1.083984,0 0,-3.92578 c -10e-6,-0.62891 -0.111338,-1.0957 -0.333984,-1.4004 -0.222666,-0.30468 -0.562509,-0.45702 -1.019532,-0.45703 -0.558601,1e-5 -1.000007,0.18556 -1.324218,0.55664 -0.324226,0.3711 -0.486335,0.87696 -0.486329,1.51758 l 0,3.70899 -1.083984,0 0,-3.92578 c -5e-6,-0.63281 -0.111333,-1.09961 -0.333984,-1.4004 -0.222661,-0.30468 -0.566411,-0.45702 -1.03125,-0.45703 -0.550785,1e-5 -0.988285,0.18751 -1.3125,0.5625 -0.324221,0.3711 -0.486331,0.87501 -0.486328,1.51172 l 0,3.70899 -1.083985,0 0,-6.5625 1.083985,0 0,1.01953 c 0.246091,-0.40234 0.541012,-0.69921 0.884765,-0.89063 0.343747,-0.1914 0.751949,-0.2871 1.22461,-0.28711 0.476557,1e-5 0.880854,0.1211 1.21289,0.36328 0.335932,0.2422 0.583978,0.59376 0.744141,1.05469"
         style=""
         id="path12497" />
      <path
         d="m -62.177727,222.19383 c 0.269525,-0.48437 0.59179,-0.84179 0.966797,-1.07226 0.374993,-0.23047 0.816398,-0.3457 1.324219,-0.34571 0.683584,1e-5 1.210928,0.24024 1.582031,0.72071 0.371083,0.47656 0.55663,1.15625 0.556641,2.03906 l 0,3.96094 -1.083985,0 0,-3.92578 c -9e-6,-0.62891 -0.111337,-1.0957 -0.333984,-1.4004 -0.222665,-0.30468 -0.562509,-0.45702 -1.019531,-0.45703 -0.558602,1e-5 -1.000007,0.18556 -1.324219,0.55664 -0.324225,0.3711 -0.486335,0.87696 -0.486328,1.51758 l 0,3.70899 -1.083984,0 0,-3.92578 c -6e-6,-0.63281 -0.111334,-1.09961 -0.333985,-1.4004 -0.222661,-0.30468 -0.566411,-0.45702 -1.03125,-0.45703 -0.550785,1e-5 -0.988284,0.18751 -1.3125,0.5625 -0.324221,0.3711 -0.48633,0.87501 -0.486328,1.51172 l 0,3.70899 -1.083984,0 0,-6.5625 1.083984,0 0,1.01953 c 0.246091,-0.40234 0.541013,-0.69921 0.884766,-0.89063 0.343746,-0.1914 0.751949,-0.2871 1.224609,-0.28711 0.476558,1e-5 0.880854,0.1211 1.212891,0.36328 0.335931,0.2422 0.583978,0.59376 0.74414,1.05469"
         style=""
         id="path12499" />
      <path
         d="m -55.591789,220.93407 1.078125,0 0,6.5625 -1.078125,0 0,-6.5625 m 0,-2.55469 1.078125,0 0,1.36523 -1.078125,0 0,-1.36523"
         style=""
         id="path12501" />
      <path
         d="m -51.197258,219.07079 0,1.86328 2.220703,0 0,0.83789 -2.220703,0 0,3.5625 c -2e-6,0.53516 0.07226,0.8789 0.216797,1.03125 0.148435,0.15234 0.447263,0.22851 0.896484,0.22851 l 1.107422,0 0,0.90235 -1.107422,0 c -0.832033,0 -1.406252,-0.1543 -1.722656,-0.46289 -0.316408,-0.3125 -0.47461,-0.87891 -0.474609,-1.69922 l 0,-3.5625 -0.791016,0 0,-0.83789 0.791016,0 0,-1.86328 1.083984,0"
         style=""
         id="path12503" />
    </g>
    <g
       id="g8289"
       transform="translate(24.965404,48.632619)">
      <rect
         style="fill:#ff9955;fill-rule:evenodd;stroke:none"
         id="rect8283"
         width="503.82306"
         height="20"
         x="-100"
         y="202.36217"
         rx="4.8850002"
         inkscape:connector-avoid="true" />
      <g
         style="font-size:14px;font-style:normal;font-weight:normal;line-height:125%;letter-spacing:0px;word-spacing:0px;fill:#000000;fill-opacity:1;stroke:none;font-family:Bitstream Vera Sans"
         id="text8285">
        <path
           d="m -88.18457,214.50572 c -7e-6,-0.92512 -0.191413,-1.64973 -0.574219,-2.17383 -0.378261,-0.52864 -0.900071,-0.79296 -1.56543,-0.79296 -0.665368,0 -1.189456,0.26432 -1.572265,0.79296 -0.378258,0.5241 -0.567386,1.24871 -0.567383,2.17383 -3e-6,0.92514 0.189125,1.65202 0.567383,2.18067 0.382809,0.52409 0.906897,0.78613 1.572265,0.78613 0.665359,0 1.187169,-0.26204 1.56543,-0.78613 0.382806,-0.52865 0.574212,-1.25553 0.574219,-2.18067 m -4.279297,-2.67285 c 0.26432,-0.45572 0.597002,-0.79296 0.998047,-1.01172 0.405595,-0.2233 0.888667,-0.33495 1.449218,-0.33496 0.929682,1e-5 1.683913,0.36915 2.262696,1.10742 0.583325,0.73829 0.874992,1.70899 0.875,2.91211 -8e-6,1.20313 -0.291675,2.17383 -0.875,2.91211 -0.578783,0.73828 -1.333014,1.10742 -2.262696,1.10742 -0.560551,0 -1.043623,-0.10937 -1.449218,-0.32812 -0.401045,-0.22331 -0.733727,-0.56283 -0.998047,-1.01856 l 0,1.14844 -1.264649,0 0,-10.63672 1.264649,0 0,4.14258"
           style=""
           id="path12474" />
        <path
           d="m -84.793945,207.69029 1.257812,0 0,10.63672 -1.257812,0 0,-10.63672"
           style=""
           id="path12476" />
        <path
           d="m -75.873047,211.83287 0,-4.14258 1.257813,0 0,10.63672 -1.257813,0 0,-1.14844 c -0.264329,0.45573 -0.599289,0.79525 -1.004883,1.01856 -0.401046,0.21875 -0.884119,0.32812 -1.449218,0.32812 -0.925134,0 -1.679365,-0.36914 -2.262696,-1.10742 -0.578777,-0.73828 -0.868165,-1.70898 -0.868164,-2.91211 -10e-7,-1.20312 0.289387,-2.17382 0.868164,-2.91211 0.583331,-0.73827 1.337562,-1.10741 2.262696,-1.10742 0.565099,1e-5 1.048172,0.11166 1.449218,0.33496 0.405594,0.21876 0.740554,0.556 1.004883,1.01172 m -4.286133,2.67285 c -2e-6,0.92514 0.189126,1.65202 0.567383,2.18067 0.38281,0.52409 0.906898,0.78613 1.572266,0.78613 0.665359,0 1.189447,-0.26204 1.572265,-0.78613 0.382807,-0.52865 0.574213,-1.25553 0.574219,-2.18067 -6e-6,-0.92512 -0.191412,-1.64973 -0.574219,-2.17383 -0.382818,-0.52864 -0.906906,-0.79296 -1.572265,-0.79296 -0.665368,0 -1.189456,0.26432 -1.572266,0.79296 -0.378257,0.5241 -0.567385,1.24871 -0.567383,2.17383"
           style=""
           id="path12478" />
        <path
           d="m -72.660156,213.9315 3.68457,0 0,1.1211 -3.68457,0 0,-1.1211"
           style=""
           id="path12480" />
        <path
           d="m -67.697266,210.67076 1.257813,0 1.572266,5.97461 1.565429,-5.97461 1.483399,0 1.572265,5.97461 1.56543,-5.97461 1.257812,0 -2.002929,7.65625 -1.483399,0 -1.647461,-6.27539 -1.654296,6.27539 -1.483399,0 -2.00293,-7.65625"
           style=""
           id="path12482" />
        <path
           d="m -55.508789,210.67076 1.257812,0 0,7.65625 -1.257812,0 0,-7.65625 m 0,-2.98047 1.257812,0 0,1.59278 -1.257812,0 0,-1.59278"
           style=""
           id="path12484" />
        <path
           d="m -45.261719,213.70592 0,4.62109 -1.257812,0 0,-4.58008 c -7e-6,-0.7246 -0.141283,-1.26692 -0.423828,-1.62695 -0.282558,-0.36002 -0.706386,-0.54003 -1.271485,-0.54004 -0.67904,1e-5 -1.214521,0.21648 -1.606445,0.64941 -0.39193,0.43295 -0.587893,1.02312 -0.587891,1.77051 l 0,4.32715 -1.264648,0 0,-7.65625 1.264648,0 0,1.18945 c 0.300779,-0.46028 0.653968,-0.80435 1.059571,-1.03222 0.410152,-0.22786 0.881831,-0.34179 1.415039,-0.3418 0.879551,1e-5 1.544915,0.27345 1.996093,0.82031 0.451165,0.54233 0.676751,1.34213 0.676758,2.39942"
           style=""
           id="path12486" />
        <path
           d="m -38.37793,212.82408 c 0.660801,0.14128 1.175775,0.43523 1.544922,0.88184 0.373691,0.44662 0.560539,0.99805 0.560547,1.65429 -8e-6,1.00717 -0.346362,1.78646 -1.039062,2.33789 -0.692715,0.55144 -1.677089,0.82715 -2.953125,0.82715 -0.428389,0 -0.870446,-0.0433 -1.326172,-0.12988 -0.451174,-0.082 -0.918296,-0.20736 -1.401367,-0.37598 l 0,-1.333 c 0.382811,0.2233 0.802081,0.39192 1.257812,0.50586 0.455726,0.11393 0.931963,0.17089 1.428711,0.17089 0.865881,0 1.524409,-0.17089 1.975586,-0.51269 0.455723,-0.3418 0.683587,-0.83854 0.683594,-1.49024 -7e-6,-0.60155 -0.211921,-1.07096 -0.635743,-1.4082 -0.419276,-0.34179 -1.004887,-0.51269 -1.756835,-0.51269 l -1.189454,0 0,-1.13477 1.244141,0 c 0.679032,1e-5 1.198562,-0.13443 1.558594,-0.40332 0.36002,-0.27343 0.540033,-0.66536 0.540039,-1.17578 -6e-6,-0.52408 -0.186855,-0.92512 -0.560547,-1.20313 -0.369146,-0.28254 -0.90007,-0.42382 -1.592773,-0.42382 -0.378259,0 -0.783858,0.041 -1.216797,0.12304 -0.432945,0.082 -0.909182,0.20965 -1.428711,0.38281 l 0,-1.23046 c 0.524086,-0.14583 1.013995,-0.2552 1.469726,-0.32813 0.460283,-0.0729 0.893226,-0.10936 1.298828,-0.10937 1.048172,1e-5 1.877599,0.23926 2.488282,0.71777 0.610669,0.47397 0.916008,1.11654 0.916015,1.92773 -7e-6,0.56512 -0.161791,1.04363 -0.485351,1.43555 -0.323575,0.38738 -0.783861,0.65626 -1.38086,0.80664"
           style=""
           id="path12488" />
        <path
           d="m -32.458008,217.1649 4.819336,0 0,1.16211 -6.480469,0 0,-1.16211 c 0.524087,-0.54231 1.237303,-1.2692 2.139649,-2.18066 0.906897,-0.91601 1.476558,-1.50618 1.708984,-1.77051 0.442052,-0.49674 0.749669,-0.91601 0.922852,-1.25781 0.177728,-0.34635 0.266595,-0.68587 0.266601,-1.01856 -6e-6,-0.54231 -0.191412,-0.98436 -0.574218,-1.32617 -0.378261,-0.34179 -0.872726,-0.51269 -1.483399,-0.51269 -0.432946,0 -0.890954,0.0752 -1.374023,0.22558 -0.478518,0.1504 -0.991213,0.37827 -1.538086,0.6836 l 0,-1.39454 c 0.555988,-0.22329 1.075518,-0.39191 1.558594,-0.50586 0.483069,-0.11392 0.925126,-0.17088 1.326171,-0.17089 1.057287,1e-5 1.900385,0.26433 2.529297,0.79296 0.628899,0.52866 0.943352,1.23504 0.94336,2.11915 -8e-6,0.41927 -0.07976,0.81804 -0.239258,1.19628 -0.154955,0.37371 -0.439786,0.81577 -0.854492,1.32618 -0.113939,0.13216 -0.476243,0.51497 -1.086914,1.14843 -0.610682,0.62891 -1.472009,1.51075 -2.583985,2.64551"
           style=""
           id="path12490" />
      </g>
    </g>
    <g
       id="g8326"
       transform="translate(24.965404,102.06993)">
      <rect
         inkscape:connector-avoid="true"
         rx="4.8850002"
         y="202.36217"
         x="-100"
         height="20"
         width="182.50882"
         id="rect8328"
         style="fill:#ff9955;fill-rule:evenodd;stroke:none" />
      <g
         style="font-size:14px;font-style:normal;font-weight:normal;line-height:125%;letter-spacing:0px;word-spacing:0px;fill:#000000;fill-opacity:1;stroke:none;font-family:Bitstream Vera Sans"
         id="text8330">
        <path
           d="m -88.18457,214.50572 c -7e-6,-0.92512 -0.191413,-1.64973 -0.574219,-2.17383 -0.378261,-0.52864 -0.900071,-0.79296 -1.56543,-0.79296 -0.665368,0 -1.189456,0.26432 -1.572265,0.79296 -0.378258,0.5241 -0.567386,1.24871 -0.567383,2.17383 -3e-6,0.92514 0.189125,1.65202 0.567383,2.18067 0.382809,0.52409 0.906897,0.78613 1.572265,0.78613 0.665359,0 1.187169,-0.26204 1.56543,-0.78613 0.382806,-0.52865 0.574212,-1.25553 0.574219,-2.18067 m -4.279297,-2.67285 c 0.26432,-0.45572 0.597002,-0.79296 0.998047,-1.01172 0.405595,-0.2233 0.888667,-0.33495 1.449218,-0.33496 0.929682,1e-5 1.683913,0.36915 2.262696,1.10742 0.583325,0.73829 0.874992,1.70899 0.875,2.91211 -8e-6,1.20313 -0.291675,2.17383 -0.875,2.91211 -0.578783,0.73828 -1.333014,1.10742 -2.262696,1.10742 -0.560551,0 -1.043623,-0.10937 -1.449218,-0.32812 -0.401045,-0.22331 -0.733727,-0.56283 -0.998047,-1.01856 l 0,1.14844 -1.264649,0 0,-10.63672 1.264649,0 0,4.14258"
           style=""
           id="path12455" />
        <path
           d="m -84.793945,207.69029 1.257812,0 0,10.63672 -1.257812,0 0,-10.63672"
           style=""
           id="path12457" />
        <path
           d="m -75.873047,211.83287 0,-4.14258 1.257813,0 0,10.63672 -1.257813,0 0,-1.14844 c -0.264329,0.45573 -0.599289,0.79525 -1.004883,1.01856 -0.401046,0.21875 -0.884119,0.32812 -1.449218,0.32812 -0.925134,0 -1.679365,-0.36914 -2.262696,-1.10742 -0.578777,-0.73828 -0.868165,-1.70898 -0.868164,-2.91211 -10e-7,-1.20312 0.289387,-2.17382 0.868164,-2.91211 0.583331,-0.73827 1.337562,-1.10741 2.262696,-1.10742 0.565099,1e-5 1.048172,0.11166 1.449218,0.33496 0.405594,0.21876 0.740554,0.556 1.004883,1.01172 m -4.286133,2.67285 c -2e-6,0.92514 0.189126,1.65202 0.567383,2.18067 0.38281,0.52409 0.906898,0.78613 1.572266,0.78613 0.665359,0 1.189447,-0.26204 1.572265,-0.78613 0.382807,-0.52865 0.574213,-1.25553 0.574219,-2.18067 -6e-6,-0.92512 -0.191412,-1.64973 -0.574219,-2.17383 -0.382818,-0.52864 -0.906906,-0.79296 -1.572265,-0.79296 -0.665368,0 -1.189456,0.26432 -1.572266,0.79296 -0.378257,0.5241 -0.567385,1.24871 -0.567383,2.17383"
           style=""
           id="path12459" />
        <path
           d="m -72.660156,213.9315 3.68457,0 0,1.1211 -3.68457,0 0,-1.1211"
           style=""
           id="path12461" />
        <path
           d="m -66.96582,207.69029 1.257812,0 0,10.63672 -1.257812,0 0,-10.63672"
           style=""
           id="path12463" />
        <path
           d="m -63.083008,210.67076 1.257813,0 0,7.65625 -1.257813,0 0,-7.65625 m 0,-2.98047 1.257813,0 0,1.59278 -1.257813,0 0,-1.59278"
           style=""
           id="path12465" />
        <path
           d="m -52.835937,213.70592 0,4.62109 -1.257813,0 0,-4.58008 c -6e-6,-0.7246 -0.141282,-1.26692 -0.423828,-1.62695 -0.282558,-0.36002 -0.706386,-0.54003 -1.271484,-0.54004 -0.679041,1e-5 -1.214522,0.21648 -1.606446,0.64941 -0.39193,0.43295 -0.587893,1.02312 -0.58789,1.77051 l 0,4.32715 -1.264649,0 0,-7.65625 1.264649,0 0,1.18945 c 0.300778,-0.46028 0.653968,-0.80435 1.05957,-1.03222 0.410152,-0.22786 0.881831,-0.34179 1.415039,-0.3418 0.879551,1e-5 1.544915,0.27345 1.996094,0.82031 0.451164,0.54233 0.67675,1.34213 0.676758,2.39942"
           style=""
           id="path12467" />
        <path
           d="m -50.443359,215.30553 0,-4.63477 1.257812,0 0,4.58692 c -2e-6,0.72461 0.141274,1.2692 0.423828,1.63378 0.282549,0.36003 0.706377,0.54004 1.271485,0.54004 0.679031,0 1.214512,-0.21647 1.606445,-0.64941 0.396478,-0.43294 0.59472,-1.02311 0.594727,-1.77051 l 0,-4.34082 1.257812,0 0,7.65625 -1.257812,0 0,-1.17578 c -0.305345,0.46484 -0.660813,0.8112 -1.066407,1.03906 -0.401046,0.22331 -0.868168,0.33496 -1.401367,0.33496 -0.87956,0 -1.547203,-0.27343 -2.00293,-0.82031 -0.45573,-0.54687 -0.683595,-1.34668 -0.683593,-2.39941"
           style=""
           id="path12469" />
        <path
           d="m -35.0625,210.67076 -2.768555,3.72559 2.91211,3.93066 -1.483399,0 -2.228515,-3.00781 -2.228516,3.00781 -1.483398,0 2.973632,-4.00586 -2.720703,-3.65039 1.483399,0 2.030273,2.72754 2.030274,-2.72754 1.483398,0"
           style=""
           id="path12471" />
      </g>
      <g
         transform="translate(-153.44858,71.48177)"
         style="font-size:18px;font-style:normal;font-variant:normal;font-weight:normal;font-stretch:normal;line-height:125%;letter-spacing:0px;word-spacing:0px;fill:#000000;fill-opacity:1;stroke:none;font-family:Bitstream Vera Sans;-inkscape-font-specification:Bitstream Vera Sans"
         id="text16322" />
      <rect
         style="fill:#76c5d9;fill-rule:evenodd;stroke:none;fill-opacity:1"
         id="rect16334"
         width="111.82893"
         height="20"
         x="423.03101"
         y="202.36217"
         rx="4.8850002"
         inkscape:connector-avoid="true" />
      <g
         style="font-size:14px;font-style:normal;font-weight:normal;line-height:125%;letter-spacing:0px;word-spacing:0px;fill:#000000;fill-opacity:1;stroke:none;font-family:Bitstream Vera Sans"
         id="text16336">
        <path
           d="m 430.59448,208.49693 0,2.17383 2.59082,0 0,0.97754 -2.59082,0 0,4.15625 c 0,0.62435 0.0843,1.02539 0.25293,1.20313 0.17318,0.17773 0.52181,0.2666 1.0459,0.2666 l 1.29199,0 0,1.05273 -1.29199,0 c -0.97071,0 -1.64063,-0.18001 -2.00977,-0.54004 -0.36914,-0.36458 -0.55371,-1.02539 -0.55371,-1.98242 l 0,-4.15625 -0.92285,0 0,-0.97754 0.92285,0 0,-2.17383 1.26465,0"
           style=""
           id="path12435" />
        <path
           d="m 439.72729,210.89635 0,1.18945 c -0.35547,-0.18229 -0.72461,-0.319 -1.10742,-0.41016 -0.38281,-0.0911 -0.7793,-0.13671 -1.18945,-0.13671 -0.62435,0 -1.09375,0.0957 -1.4082,0.2871 -0.3099,0.19142 -0.46485,0.47853 -0.46485,0.86133 0,0.29167 0.11165,0.52182 0.33496,0.69043 0.22331,0.16407 0.6722,0.3213 1.34668,0.47168 l 0.43067,0.0957 c 0.89322,0.19141 1.52668,0.46256 1.90039,0.81347 0.37825,0.34636 0.56737,0.83171 0.56738,1.45606 -10e-6,0.71094 -0.28256,1.27376 -0.84766,1.68847 -0.56055,0.41472 -1.33301,0.62207 -2.31738,0.62207 -0.41016,0 -0.83854,-0.041 -1.28515,-0.12304 -0.44206,-0.0775 -0.90919,-0.19597 -1.40137,-0.35547 l 0,-1.29883 c 0.46484,0.24154 0.92285,0.42383 1.37402,0.54687 0.45117,0.1185 0.89779,0.17774 1.33985,0.17774 0.59244,0 1.04817,-0.10026 1.36718,-0.30078 0.31901,-0.20508 0.47851,-0.49219 0.47852,-0.86133 -10e-6,-0.34179 -0.11622,-0.60384 -0.34863,-0.78613 -0.22787,-0.18229 -0.73145,-0.35775 -1.51075,-0.52637 l -0.4375,-0.10254 c -0.7793,-0.16406 -1.34212,-0.41471 -1.68847,-0.75195 -0.34636,-0.34179 -0.51953,-0.80892 -0.51953,-1.40137 0,-0.72005 0.2552,-1.27603 0.76562,-1.66797 0.51042,-0.39192 1.23502,-0.58788 2.17383,-0.58789 0.46484,1e-5 0.90234,0.0342 1.3125,0.10254 0.41015,0.0684 0.7884,0.17091 1.13476,0.30762"
           style=""
           id="path12437" />
        <path
           d="m 443.39136,208.49693 0,2.17383 2.59082,0 0,0.97754 -2.59082,0 0,4.15625 c -1e-5,0.62435 0.0843,1.02539 0.25293,1.20313 0.17317,0.17773 0.5218,0.2666 1.0459,0.2666 l 1.29199,0 0,1.05273 -1.29199,0 c -0.97071,0 -1.64063,-0.18001 -2.00977,-0.54004 -0.36914,-0.36458 -0.55371,-1.02539 -0.55371,-1.98242 l 0,-4.15625 -0.92285,0 0,-0.97754 0.92285,0 0,-2.17383 1.26465,0"
           style=""
           id="path12439" />
        <path
           d="m 447.00757,213.9315 3.68457,0 0,1.1211 -3.68457,0 0,-1.1211"
           style=""
           id="path12441" />
        <path
           d="m 452.7019,207.69029 1.25782,0 0,10.63672 -1.25782,0 0,-10.63672"
           style=""
           id="path12443" />
        <path
           d="m 456.58472,210.67076 1.25781,0 0,7.65625 -1.25781,0 0,-7.65625 m 0,-2.98047 1.25781,0 0,1.59278 -1.25781,0 0,-1.59278"
           style=""
           id="path12445" />
        <path
           d="m 466.83179,213.70592 0,4.62109 -1.25782,0 0,-4.58008 c 0,-0.7246 -0.14128,-1.26692 -0.42382,-1.62695 -0.28256,-0.36002 -0.70639,-0.54003 -1.27149,-0.54004 -0.67904,1e-5 -1.21452,0.21648 -1.60644,0.64941 -0.39193,0.43295 -0.5879,1.02312 -0.58789,1.77051 l 0,4.32715 -1.26465,0 0,-7.65625 1.26465,0 0,1.18945 c 0.30077,-0.46028 0.65396,-0.80435 1.05957,-1.03222 0.41015,-0.22786 0.88183,-0.34179 1.41504,-0.3418 0.87955,1e-5 1.54491,0.27345 1.99609,0.82031 0.45116,0.54233 0.67675,1.34213 0.67676,2.39942"
           style=""
           id="path12447" />
        <path
           d="m 469.22437,215.30553 0,-4.63477 1.25781,0 0,4.58692 c 0,0.72461 0.14127,1.2692 0.42383,1.63378 0.28254,0.36003 0.70637,0.54004 1.27148,0.54004 0.67903,0 1.21451,-0.21647 1.60645,-0.64941 0.39647,-0.43294 0.59472,-1.02311 0.59472,-1.77051 l 0,-4.34082 1.25781,0 0,7.65625 -1.25781,0 0,-1.17578 c -0.30534,0.46484 -0.66081,0.8112 -1.0664,1.03906 -0.40105,0.22331 -0.86817,0.33496 -1.40137,0.33496 -0.87956,0 -1.5472,-0.27343 -2.00293,-0.82031 -0.45573,-0.54687 -0.6836,-1.34668 -0.68359,-2.39941"
           style=""
           id="path12449" />
        <path
           d="m 484.60522,210.67076 -2.76855,3.72559 2.91211,3.93066 -1.4834,0 -2.22851,-3.00781 -2.22852,3.00781 -1.4834,0 2.97363,-4.00586 -2.7207,-3.65039 1.4834,0 2.03027,2.72754 2.03028,-2.72754 1.48339,0"
           style=""
           id="path12451" />
      </g>
      <g
         style="font-size:18px;font-style:normal;font-variant:normal;font-weight:normal;font-stretch:normal;line-height:125%;letter-spacing:0px;word-spacing:0px;fill:#000000;fill-opacity:1;stroke:none;font-family:Bitstream Vera Sans;-inkscape-font-specification:Bitstream Vera Sans"
         id="text16340" />
    </g>
    <g
       transform="translate(547.99641,48.632619)"
       id="g16326">
      <rect
         inkscape:connector-avoid="true"
         rx="4.8850002"
         y="202.36217"
         x="-100"
         height="20"
         width="292.39807"
         id="rect16328"
         style="fill:#76c5d9;fill-rule:evenodd;stroke:none;fill-opacity:1" />
      <g
         style="font-size:14px;font-style:normal;font-weight:normal;line-height:125%;letter-spacing:0px;word-spacing:0px;fill:#000000;fill-opacity:1;stroke:none;font-family:Bitstream Vera Sans"
         id="text16330">
        <path
           d="m -92.436523,208.49693 0,2.17383 2.59082,0 0,0.97754 -2.59082,0 0,4.15625 c -3e-6,0.62435 0.08431,1.02539 0.252929,1.20313 0.173174,0.17773 0.521807,0.2666 1.045899,0.2666 l 1.291992,0 0,1.05273 -1.291992,0 c -0.970706,0 -1.640628,-0.18001 -2.009766,-0.54004 -0.369142,-0.36458 -0.553712,-1.02539 -0.553711,-1.98242 l 0,-4.15625 -0.922851,0 0,-0.97754 0.922851,0 0,-2.17383 1.264649,0"
           style=""
           id="path12415" />
        <path
           d="m -83.303711,210.89635 0,1.18945 c -0.355475,-0.18229 -0.724615,-0.319 -1.107422,-0.41016 -0.382817,-0.0911 -0.779301,-0.13671 -1.189453,-0.13671 -0.624352,0 -1.093753,0.0957 -1.408203,0.2871 -0.309898,0.19142 -0.464846,0.47853 -0.464844,0.86133 -2e-6,0.29167 0.111652,0.52182 0.334961,0.69043 0.223305,0.16407 0.672198,0.3213 1.34668,0.47168 l 0.430664,0.0957 c 0.893224,0.19141 1.526687,0.46256 1.900391,0.81347 0.378248,0.34636 0.567376,0.83171 0.567382,1.45606 -6e-6,0.71094 -0.282558,1.27376 -0.847656,1.68847 -0.560552,0.41472 -1.333012,0.62207 -2.317383,0.62207 -0.410159,0 -0.838544,-0.041 -1.285156,-0.12304 -0.442059,-0.0775 -0.909181,-0.19597 -1.401367,-0.35547 l 0,-1.29883 c 0.464842,0.24154 0.92285,0.42383 1.374023,0.54687 0.45117,0.1185 0.897784,0.17774 1.339844,0.17774 0.592444,0 1.048173,-0.10026 1.367188,-0.30078 0.319005,-0.20508 0.47851,-0.49219 0.478515,-0.86133 -5e-6,-0.34179 -0.116216,-0.60384 -0.348633,-0.78613 -0.227869,-0.18229 -0.731449,-0.35775 -1.510742,-0.52637 l -0.4375,-0.10254 c -0.779299,-0.16406 -1.342124,-0.41471 -1.688476,-0.75195 -0.346356,-0.34179 -0.519533,-0.80892 -0.519532,-1.40137 -10e-7,-0.72005 0.255208,-1.27603 0.765625,-1.66797 0.510415,-0.39192 1.235024,-0.58788 2.173828,-0.58789 0.46484,1e-5 0.90234,0.0342 1.3125,0.10254 0.410151,0.0684 0.788406,0.17091 1.134766,0.30762"
           style=""
           id="path12417" />
        <path
           d="m -79.639648,208.49693 0,2.17383 2.59082,0 0,0.97754 -2.59082,0 0,4.15625 c -3e-6,0.62435 0.08431,1.02539 0.252929,1.20313 0.173174,0.17773 0.521807,0.2666 1.045899,0.2666 l 1.291992,0 0,1.05273 -1.291992,0 c -0.970706,0 -1.640628,-0.18001 -2.009766,-0.54004 -0.369142,-0.36458 -0.553712,-1.02539 -0.553711,-1.98242 l 0,-4.15625 -0.922851,0 0,-0.97754 0.922851,0 0,-2.17383 1.264649,0"
           style=""
           id="path12419" />
        <path
           d="m -76.023437,213.9315 3.68457,0 0,1.1211 -3.68457,0 0,-1.1211"
           style=""
           id="path12421" />
        <path
           d="m -71.060547,210.67076 1.257813,0 1.572265,5.97461 1.56543,-5.97461 1.483398,0 1.572266,5.97461 1.56543,-5.97461 1.257812,0 -2.002929,7.65625 -1.483399,0 -1.647461,-6.27539 -1.654297,6.27539 -1.483398,0 -2.00293,-7.65625"
           style=""
           id="path12423" />
        <path
           d="m -58.87207,210.67076 1.257812,0 0,7.65625 -1.257812,0 0,-7.65625 m 0,-2.98047 1.257812,0 0,1.59278 -1.257812,0 0,-1.59278"
           style=""
           id="path12425" />
        <path
           d="m -48.625,213.70592 0,4.62109 -1.257812,0 0,-4.58008 c -7e-6,-0.7246 -0.141283,-1.26692 -0.423829,-1.62695 -0.282557,-0.36002 -0.706385,-0.54003 -1.271484,-0.54004 -0.679041,1e-5 -1.214522,0.21648 -1.606445,0.64941 -0.39193,0.43295 -0.587893,1.02312 -0.587891,1.77051 l 0,4.32715 -1.264648,0 0,-7.65625 1.264648,0 0,1.18945 c 0.300778,-0.46028 0.653968,-0.80435 1.05957,-1.03222 0.410153,-0.22786 0.881832,-0.34179 1.415039,-0.3418 0.879552,1e-5 1.544916,0.27345 1.996094,0.82031 0.451165,0.54233 0.67675,1.34213 0.676758,2.39942"
           style=""
           id="path12427" />
        <path
           d="m -41.741211,212.82408 c 0.660801,0.14128 1.175774,0.43523 1.544922,0.88184 0.37369,0.44662 0.560539,0.99805 0.560547,1.65429 -8e-6,1.00717 -0.346362,1.78646 -1.039063,2.33789 -0.692714,0.55144 -1.677088,0.82715 -2.953125,0.82715 -0.428388,0 -0.870445,-0.0433 -1.326172,-0.12988 -0.451173,-0.082 -0.918295,-0.20736 -1.401367,-0.37598 l 0,-1.333 c 0.382811,0.2233 0.802082,0.39192 1.257813,0.50586 0.455726,0.11393 0.931963,0.17089 1.428711,0.17089 0.86588,0 1.524408,-0.17089 1.975586,-0.51269 0.455723,-0.3418 0.683587,-0.83854 0.683593,-1.49024 -6e-6,-0.60155 -0.21192,-1.07096 -0.635742,-1.4082 -0.419276,-0.34179 -1.004887,-0.51269 -1.756836,-0.51269 l -1.189453,0 0,-1.13477 1.244141,0 c 0.679031,1e-5 1.198562,-0.13443 1.558594,-0.40332 0.36002,-0.27343 0.540032,-0.66536 0.540039,-1.17578 -7e-6,-0.52408 -0.186855,-0.92512 -0.560547,-1.20313 -0.369146,-0.28254 -0.90007,-0.42382 -1.592774,-0.42382 -0.378259,0 -0.783857,0.041 -1.216797,0.12304 -0.432945,0.082 -0.909181,0.20965 -1.428711,0.38281 l 0,-1.23046 c 0.524087,-0.14583 1.013995,-0.2552 1.469727,-0.32813 0.460283,-0.0729 0.893225,-0.10936 1.298828,-0.10937 1.048172,1e-5 1.877598,0.23926 2.488281,0.71777 0.61067,0.47397 0.916008,1.11654 0.916016,1.92773 -8e-6,0.56512 -0.161791,1.04363 -0.485352,1.43555 -0.323574,0.38738 -0.78386,0.65626 -1.380859,0.80664"
           style=""
           id="path12429" />
        <path
           d="m -35.821289,217.1649 4.819336,0 0,1.16211 -6.480469,0 0,-1.16211 c 0.524087,-0.54231 1.237303,-1.2692 2.139649,-2.18066 0.906897,-0.91601 1.476557,-1.50618 1.708984,-1.77051 0.442052,-0.49674 0.749669,-0.91601 0.922852,-1.25781 0.177728,-0.34635 0.266595,-0.68587 0.266601,-1.01856 -6e-6,-0.54231 -0.191412,-0.98436 -0.574219,-1.32617 -0.37826,-0.34179 -0.872726,-0.51269 -1.483398,-0.51269 -0.432946,0 -0.890954,0.0752 -1.374024,0.22558 -0.478517,0.1504 -0.991212,0.37827 -1.538085,0.6836 l 0,-1.39454 c 0.555987,-0.22329 1.075518,-0.39191 1.558593,-0.50586 0.48307,-0.11392 0.925127,-0.17088 1.326172,-0.17089 1.057287,1e-5 1.900385,0.26433 2.529297,0.79296 0.628899,0.52866 0.943352,1.23504 0.943359,2.11915 -7e-6,0.41927 -0.07976,0.81804 -0.239257,1.19628 -0.154955,0.37371 -0.439786,0.81577 -0.854493,1.32618 -0.113938,0.13216 -0.476242,0.51497 -1.086914,1.14843 -0.610681,0.62891 -1.472009,1.51075 -2.583984,2.64551"
           style=""
           id="path12431" />
      </g>
    </g>
    <rect
       style="opacity:0.30603446;fill:none;stroke:#000000;stroke-width:1;stroke-miterlimit:4;stroke-opacity:1;stroke-dasharray:3, 3;stroke-dashoffset:0"
       id="rect16864"
       width="515.30011"
       height="96.188797"
       x="48.237644"
       y="66.570816"
       transform="translate(-128.48318,173.5517)" />
    <rect
       y="240.12251"
       x="441.71643"
       height="97.107986"
       width="308.19287"
       id="rect16866"
       style="opacity:0.30603446;fill:none;stroke:#000000;stroke-width:1;stroke-miterlimit:4;stroke-opacity:1;stroke-dasharray:3, 3;stroke-dashoffset:0" />
    <g
       style="font-size:16px;font-style:normal;font-variant:normal;font-weight:normal;font-stretch:normal;line-height:125%;letter-spacing:0px;word-spacing:0px;fill:#616161;fill-opacity:1;stroke:none;font-family:Bitstream Vera Sans;-inkscape-font-specification:Bitstream Vera Sans"
       id="text16868">
      <path
         d="m 374.74207,327.03937 c -1e-5,-1.05729 -0.21876,-1.88541 -0.65625,-2.48438 -0.4323,-0.60416 -1.02866,-0.90624 -1.78907,-0.90625 -0.76042,1e-5 -1.35938,0.30209 -1.79687,0.90625 -0.4323,0.59897 -0.64844,1.42709 -0.64844,2.48438 0,1.05729 0.21614,1.88802 0.64844,2.49219 0.43749,0.59895 1.03645,0.89843 1.79687,0.89843 0.76041,0 1.35677,-0.29948 1.78907,-0.89843 0.43749,-0.60417 0.65624,-1.4349 0.65625,-2.49219 m -4.89063,-3.05469 c 0.30208,-0.52083 0.68229,-0.90624 1.14063,-1.15625 0.46353,-0.2552 1.01562,-0.3828 1.65625,-0.38281 1.06249,10e-6 1.92447,0.42188 2.58593,1.26562 0.66666,0.84376 0.99999,1.95313 1,3.32813 -10e-6,1.375 -0.33334,2.48437 -1,3.32812 -0.66146,0.84375 -1.52344,1.26563 -2.58593,1.26563 -0.64063,0 -1.19272,-0.125 -1.65625,-0.375 -0.45834,-0.25521 -0.83855,-0.64323 -1.14063,-1.16406 l 0,1.3125 -1.44531,0 0,-12.15625 1.44531,0 0,4.73437"
         style=""
         id="path12398" />
      <path
         d="m 378.46863,327.95343 0,-5.29687 1.4375,0 0,5.24218 c 0,0.82813 0.16145,1.45053 0.48437,1.86719 0.32292,0.41146 0.80729,0.61719 1.45313,0.61719 0.77603,0 1.38801,-0.2474 1.83594,-0.74219 0.45311,-0.49479 0.67968,-1.16927 0.67968,-2.02344 l 0,-4.96093 1.4375,0 0,8.75 -1.4375,0 0,-1.34375 c -0.34896,0.53125 -0.75521,0.92708 -1.21875,1.1875 -0.45834,0.2552 -0.99219,0.38281 -1.60156,0.38281 -1.00521,0 -1.76823,-0.3125 -2.28906,-0.9375 -0.52084,-0.625 -0.78125,-1.53906 -0.78125,-2.74219"
         style=""
         id="path12400" />
      <path
         d="m 388.77332,322.65656 1.4375,0 0,8.75 -1.4375,0 0,-8.75 m 0,-3.40625 1.4375,0 0,1.82031 -1.4375,0 0,-1.82031"
         style=""
         id="path12402" />
      <path
         d="m 393.21082,319.25031 1.4375,0 0,12.15625 -1.4375,0 0,-12.15625"
         style=""
         id="path12404" />
      <path
         d="m 403.40613,323.98468 0,-4.73437 1.4375,0 0,12.15625 -1.4375,0 0,-1.3125 c -0.30209,0.52083 -0.6849,0.90885 -1.14844,1.16406 -0.45834,0.25 -1.01042,0.375 -1.65625,0.375 -1.05729,0 -1.91927,-0.42188 -2.58594,-1.26563 -0.66146,-0.84375 -0.99219,-1.95312 -0.99218,-3.32812 -1e-5,-1.375 0.33072,-2.48437 0.99218,-3.32813 0.66667,-0.84374 1.52865,-1.26561 2.58594,-1.26562 0.64583,10e-6 1.19791,0.12761 1.65625,0.38281 0.46354,0.25001 0.84635,0.63542 1.14844,1.15625 m -4.89844,3.05469 c 0,1.05729 0.21614,1.88802 0.64844,2.49219 0.43749,0.59895 1.03645,0.89843 1.79687,0.89843 0.76041,0 1.35937,-0.29948 1.79688,-0.89843 0.43749,-0.60417 0.65624,-1.4349 0.65625,-2.49219 -1e-5,-1.05729 -0.21876,-1.88541 -0.65625,-2.48438 -0.43751,-0.60416 -1.03647,-0.90624 -1.79688,-0.90625 -0.76042,1e-5 -1.35938,0.30209 -1.79687,0.90625 -0.4323,0.59897 -0.64844,1.42709 -0.64844,2.48438"
         style=""
         id="path12406" />
      <path
         d="m 413.38269,322.91437 0,1.35937 c -0.40626,-0.20832 -0.82813,-0.36457 -1.26562,-0.46875 -0.43751,-0.10416 -0.89063,-0.15624 -1.35938,-0.15625 -0.71354,1e-5 -1.25,0.10939 -1.60937,0.32813 -0.35417,0.21875 -0.53126,0.54688 -0.53125,0.98437 -1e-5,0.33334 0.1276,0.59636 0.38281,0.78907 0.2552,0.1875 0.76822,0.36719 1.53906,0.53906 l 0.49219,0.10937 c 1.02083,0.21876 1.74478,0.52865 2.17187,0.92969 0.43229,0.39584 0.64843,0.95052 0.64844,1.66406 -1e-5,0.8125 -0.32292,1.45573 -0.96875,1.92969 -0.64063,0.47396 -1.52344,0.71094 -2.64844,0.71094 -0.46875,0 -0.95833,-0.0469 -1.46875,-0.14063 -0.50521,-0.0885 -1.03906,-0.22396 -1.60156,-0.40625 l 0,-1.48437 c 0.53125,0.27604 1.05469,0.48437 1.57031,0.625 0.51562,0.13542 1.02604,0.20312 1.53125,0.20312 0.67708,0 1.19791,-0.11458 1.5625,-0.34375 0.36458,-0.23437 0.54687,-0.5625 0.54688,-0.98437 -1e-5,-0.39062 -0.13282,-0.6901 -0.39844,-0.89844 -0.26042,-0.20833 -0.83594,-0.40885 -1.72656,-0.60156 l -0.5,-0.11719 c -0.89063,-0.1875 -1.53386,-0.47395 -1.92969,-0.85937 -0.39583,-0.39062 -0.59375,-0.92448 -0.59375,-1.60157 0,-0.82291 0.29167,-1.45832 0.875,-1.90625 0.58333,-0.44791 1.41146,-0.67186 2.48438,-0.67187 0.53124,10e-6 1.03124,0.0391 1.5,0.11719 0.46874,0.0781 0.90103,0.19532 1.29687,0.35156"
         style=""
         id="path12408" />
      <path
         d="m 423.63269,326.67218 0,0.70313 -6.60937,0 c 0.0625,0.98958 0.35937,1.74479 0.89062,2.26562 0.53645,0.51563 1.28125,0.77344 2.23438,0.77344 0.55207,0 1.08593,-0.0677 1.60156,-0.20313 0.52082,-0.13541 1.03645,-0.33854 1.54687,-0.60937 l 0,1.35937 c -0.51563,0.21875 -1.04428,0.38542 -1.58593,0.5 -0.54168,0.11459 -1.09116,0.17188 -1.64844,0.17188 -1.39584,0 -2.50261,-0.40625 -3.32031,-1.21875 -0.81251,-0.8125 -1.21876,-1.91146 -1.21875,-3.29688 -1e-5,-1.43228 0.38541,-2.5677 1.15625,-3.40625 0.77603,-0.84374 1.8203,-1.26561 3.13281,-1.26562 1.17707,10e-6 2.10676,0.38021 2.78906,1.14062 0.68749,0.75522 1.03124,1.78386 1.03125,3.08594 m -1.4375,-0.42187 c -0.0104,-0.78646 -0.23178,-1.41406 -0.66406,-1.88282 -0.42709,-0.46874 -0.9948,-0.70311 -1.70313,-0.70312 -0.80208,10e-6 -1.44531,0.22657 -1.92968,0.67969 -0.47917,0.45313 -0.75522,1.09115 -0.82813,1.91406 l 5.125,-0.008"
         style=""
         id="path12410" />
      <path
         d="m 427.41394,320.17218 0,2.48438 2.96094,0 0,1.11718 -2.96094,0 0,4.75 c 0,0.71355 0.0963,1.17188 0.28906,1.375 0.19792,0.20313 0.59635,0.30469 1.19532,0.30469 l 1.47656,0 0,1.20313 -1.47656,0 c -1.10938,0 -1.87501,-0.20573 -2.29688,-0.61719 -0.42188,-0.41667 -0.63281,-1.17188 -0.63281,-2.26563 l 0,-4.75 -1.05469,0 0,-1.11718 1.05469,0 0,-2.48438 1.44531,0"
         style=""
         id="path12412" />
    </g>
    <g
       style="font-size:16px;font-style:normal;font-variant:normal;font-weight:normal;font-stretch:normal;line-height:125%;letter-spacing:0px;word-spacing:0px;fill:#616161;fill-opacity:1;stroke:none;font-family:Bitstream Vera Sans;-inkscape-font-specification:Bitstream Vera Sans"
       id="text16872">
      <path
         d="m 688.51831,327.03937 c -1e-5,-1.05729 -0.21876,-1.88541 -0.65625,-2.48438 -0.4323,-0.60416 -1.02865,-0.90624 -1.78906,-0.90625 -0.76042,1e-5 -1.35938,0.30209 -1.79688,0.90625 -0.43229,0.59897 -0.64844,1.42709 -0.64843,2.48438 -10e-6,1.05729 0.21614,1.88802 0.64843,2.49219 0.4375,0.59895 1.03646,0.89843 1.79688,0.89843 0.76041,0 1.35676,-0.29948 1.78906,-0.89843 0.43749,-0.60417 0.65624,-1.4349 0.65625,-2.49219 m -4.89062,-3.05469 c 0.30208,-0.52083 0.68228,-0.90624 1.14062,-1.15625 0.46354,-0.2552 1.01562,-0.3828 1.65625,-0.38281 1.06249,10e-6 1.92447,0.42188 2.58594,1.26562 0.66666,0.84376 0.99999,1.95313 1,3.32813 -10e-6,1.375 -0.33334,2.48437 -1,3.32812 -0.66147,0.84375 -1.52345,1.26563 -2.58594,1.26563 -0.64063,0 -1.19271,-0.125 -1.65625,-0.375 -0.45834,-0.25521 -0.83854,-0.64323 -1.14062,-1.16406 l 0,1.3125 -1.44532,0 0,-12.15625 1.44532,0 0,4.73437"
         style=""
         id="path12381" />
      <path
         d="m 692.24487,327.95343 0,-5.29687 1.4375,0 0,5.24218 c 0,0.82813 0.16146,1.45053 0.48438,1.86719 0.32291,0.41146 0.80729,0.61719 1.45312,0.61719 0.77604,0 1.38802,-0.2474 1.83594,-0.74219 0.45312,-0.49479 0.67968,-1.16927 0.67969,-2.02344 l 0,-4.96093 1.4375,0 0,8.75 -1.4375,0 0,-1.34375 c -0.34897,0.53125 -0.75522,0.92708 -1.21875,1.1875 -0.45834,0.2552 -0.99219,0.38281 -1.60156,0.38281 -1.00522,0 -1.76824,-0.3125 -2.28907,-0.9375 -0.52083,-0.625 -0.78125,-1.53906 -0.78125,-2.74219"
         style=""
         id="path12383" />
      <path
         d="m 702.54956,322.65656 1.4375,0 0,8.75 -1.4375,0 0,-8.75 m 0,-3.40625 1.4375,0 0,1.82031 -1.4375,0 0,-1.82031"
         style=""
         id="path12385" />
      <path
         d="m 706.98706,319.25031 1.4375,0 0,12.15625 -1.4375,0 0,-12.15625"
         style=""
         id="path12387" />
      <path
         d="m 717.18237,323.98468 0,-4.73437 1.4375,0 0,12.15625 -1.4375,0 0,-1.3125 c -0.30209,0.52083 -0.6849,0.90885 -1.14843,1.16406 -0.45834,0.25 -1.01043,0.375 -1.65625,0.375 -1.0573,0 -1.91928,-0.42188 -2.58594,-1.26563 -0.66146,-0.84375 -0.99219,-1.95312 -0.99219,-3.32812 0,-1.375 0.33073,-2.48437 0.99219,-3.32813 0.66666,-0.84374 1.52864,-1.26561 2.58594,-1.26562 0.64582,10e-6 1.19791,0.12761 1.65625,0.38281 0.46353,0.25001 0.84634,0.63542 1.14843,1.15625 m -4.89843,3.05469 c -10e-6,1.05729 0.21614,1.88802 0.64843,2.49219 0.4375,0.59895 1.03646,0.89843 1.79688,0.89843 0.76041,0 1.35937,-0.29948 1.79687,-0.89843 0.4375,-0.60417 0.65625,-1.4349 0.65625,-2.49219 0,-1.05729 -0.21875,-1.88541 -0.65625,-2.48438 -0.4375,-0.60416 -1.03646,-0.90624 -1.79687,-0.90625 -0.76042,1e-5 -1.35938,0.30209 -1.79688,0.90625 -0.43229,0.59897 -0.64844,1.42709 -0.64843,2.48438"
         style=""
         id="path12389" />
      <path
         d="m 727.15894,322.91437 0,1.35937 c -0.40626,-0.20832 -0.82814,-0.36457 -1.26563,-0.46875 -0.4375,-0.10416 -0.89063,-0.15624 -1.35937,-0.15625 -0.71355,1e-5 -1.25001,0.10939 -1.60938,0.32813 -0.35417,0.21875 -0.53125,0.54688 -0.53125,0.98437 0,0.33334 0.1276,0.59636 0.38281,0.78907 0.25521,0.1875 0.76823,0.36719 1.53907,0.53906 l 0.49218,0.10937 c 1.02083,0.21876 1.74479,0.52865 2.17188,0.92969 0.43228,0.39584 0.64843,0.95052 0.64844,1.66406 -10e-6,0.8125 -0.32293,1.45573 -0.96875,1.92969 -0.64064,0.47396 -1.52345,0.71094 -2.64844,0.71094 -0.46876,0 -0.95834,-0.0469 -1.46875,-0.14063 -0.50521,-0.0885 -1.03907,-0.22396 -1.60156,-0.40625 l 0,-1.48437 c 0.53124,0.27604 1.05468,0.48437 1.57031,0.625 0.51562,0.13542 1.02604,0.20312 1.53125,0.20312 0.67708,0 1.19791,-0.11458 1.5625,-0.34375 0.36458,-0.23437 0.54687,-0.5625 0.54687,-0.98437 0,-0.39062 -0.13282,-0.6901 -0.39843,-0.89844 -0.26043,-0.20833 -0.83595,-0.40885 -1.72657,-0.60156 l -0.5,-0.11719 c -0.89062,-0.1875 -1.53385,-0.47395 -1.92968,-0.85937 -0.39584,-0.39062 -0.59376,-0.92448 -0.59375,-1.60157 -10e-6,-0.82291 0.29166,-1.45832 0.875,-1.90625 0.58333,-0.44791 1.41145,-0.67186 2.48437,-0.67187 0.53125,10e-6 1.03125,0.0391 1.5,0.11719 0.46874,0.0781 0.90104,0.19532 1.29688,0.35156"
         style=""
         id="path12391" />
      <path
         d="m 737.40894,326.67218 0,0.70313 -6.60938,0 c 0.0625,0.98958 0.35937,1.74479 0.89063,2.26562 0.53645,0.51563 1.28124,0.77344 2.23437,0.77344 0.55208,0 1.08593,-0.0677 1.60156,-0.20313 0.52083,-0.13541 1.03645,-0.33854 1.54688,-0.60937 l 0,1.35937 c -0.51564,0.21875 -1.04428,0.38542 -1.58594,0.5 -0.54167,0.11459 -1.09115,0.17188 -1.64844,0.17188 -1.39583,0 -2.5026,-0.40625 -3.32031,-1.21875 -0.8125,-0.8125 -1.21875,-1.91146 -1.21875,-3.29688 0,-1.43228 0.38542,-2.5677 1.15625,-3.40625 0.77604,-0.84374 1.82031,-1.26561 3.13281,-1.26562 1.17708,10e-6 2.10677,0.38021 2.78907,1.14062 0.68749,0.75522 1.03124,1.78386 1.03125,3.08594 m -1.4375,-0.42187 c -0.0104,-0.78646 -0.23178,-1.41406 -0.66407,-1.88282 -0.42709,-0.46874 -0.99479,-0.70311 -1.70312,-0.70312 -0.80209,10e-6 -1.44532,0.22657 -1.92969,0.67969 -0.47917,0.45313 -0.75521,1.09115 -0.82812,1.91406 l 5.125,-0.008"
         style=""
         id="path12393" />
      <path
         d="m 741.19019,320.17218 0,2.48438 2.96093,0 0,1.11718 -2.96093,0 0,4.75 c -10e-6,0.71355 0.0963,1.17188 0.28906,1.375 0.19791,0.20313 0.59635,0.30469 1.19531,0.30469 l 1.47656,0 0,1.20313 -1.47656,0 c -1.10938,0 -1.875,-0.20573 -2.29687,-0.61719 -0.42188,-0.41667 -0.63282,-1.17188 -0.63282,-2.26563 l 0,-4.75 -1.05468,0 0,-1.11718 1.05468,0 0,-2.48438 1.44532,0"
         style=""
         id="path12395" />
    </g>
  </g>
</svg>
