<?xml version="1.0" encoding="UTF-8" standalone="no"?>
<!-- Created with Inkscape (http://www.inkscape.org/) -->

<svg
   xmlns:dc="http://purl.org/dc/elements/1.1/"
   xmlns:cc="http://creativecommons.org/ns#"
   xmlns:rdf="http://www.w3.org/1999/02/22-rdf-syntax-ns#"
   xmlns:svg="http://www.w3.org/2000/svg"
   xmlns="http://www.w3.org/2000/svg"
   xmlns:xlink="http://www.w3.org/1999/xlink"
   xmlns:sodipodi="http://sodipodi.sourceforge.net/DTD/sodipodi-0.dtd"
   xmlns:inkscape="http://www.inkscape.org/namespaces/inkscape"
   width="595.40204"
   height="310.56982"
   id="svg2"
   version="1.1"
   inkscape:version="0.48.2 r9819"
   sodipodi:docname="job.svg">
  <defs
     id="defs4">
    <linearGradient
       inkscape:collect="always"
       id="linearGradient5513">
      <stop
         style="stop-color:#000000;stop-opacity:1;"
         offset="0"
         id="stop5515" />
      <stop
         style="stop-color:#000000;stop-opacity:0;"
         offset="1"
         id="stop5517" />
    </linearGradient>
    <marker
       inkscape:stockid="Arrow1Mend"
       orient="auto"
       refY="0"
       refX="0"
       id="Arrow1Mend"
       style="overflow:visible">
      <path
         id="path3886"
         d="M 0,0 5,-5 -12.5,0 5,5 0,0 z"
         style="fill-rule:evenodd;stroke:#000000;stroke-width:1pt"
         transform="matrix(-0.4,0,0,-0.4,-4,0)"
         inkscape:connector-curvature="0" />
    </marker>
    <marker
       inkscape:stockid="Arrow2Lend"
       orient="auto"
       refY="0"
       refX="0"
       id="Arrow2Lend"
       style="overflow:visible">
      <path
         id="path3898"
         style="fill-rule:evenodd;stroke-width:0.625;stroke-linejoin:round"
         d="M 8.7185878,4.0337352 -2.2072895,0.01601326 8.7185884,-4.0017078 c -1.7454984,2.3720609 -1.7354408,5.6174519 -6e-7,8.035443 z"
         transform="matrix(-1.1,0,0,-1.1,-1.1,0)"
         inkscape:connector-curvature="0" />
    </marker>
    <linearGradient
       inkscape:collect="always"
       xlink:href="#linearGradient5513"
       id="linearGradient5519"
       x1="-104.35545"
       y1="220.96759"
       x2="-242.31973"
       y2="325.20728"
       gradientUnits="userSpaceOnUse" />
  </defs>
  <sodipodi:namedview
     id="base"
     pagecolor="#ffffff"
     bordercolor="#666666"
     borderopacity="1.0"
     inkscape:pageopacity="0.0"
     inkscape:pageshadow="2"
     inkscape:zoom="1.8659661"
     inkscape:cx="297.1651"
     inkscape:cy="155.28491"
     inkscape:document-units="px"
     inkscape:current-layer="layer1"
     showgrid="true"
     inkscape:snap-grids="true"
     inkscape:window-width="1596"
     inkscape:window-height="861"
     inkscape:window-x="156"
     inkscape:window-y="496"
     inkscape:window-maximized="0"
     fit-margin-top="0"
     fit-margin-left="0"
     fit-margin-right="0"
     fit-margin-bottom="0"
     inkscape:snap-global="true">
    <inkscape:grid
       type="xygrid"
       id="grid3039"
       empspacing="5"
       visible="true"
       enabled="true"
       snapvisiblegridlinesonly="true"
       originx="128.48318px"
       originy="-568.24046px" />
  </sodipodi:namedview>
  <metadata
     id="metadata7">
    <rdf:RDF>
      <cc:Work
         rdf:about="">
        <dc:format>image/svg+xml</dc:format>
        <dc:type
           rdf:resource="http://purl.org/dc/dcmitype/StillImage" />
        <dc:title />
      </cc:Work>
    </rdf:RDF>
  </metadata>
  <g
     inkscape:label="Layer 1"
     inkscape:groupmode="layer"
     id="layer1"
     transform="translate(128.48318,-173.55188)">
    <rect
       style="fill:#ff9955;fill-rule:evenodd;stroke:none"
       id="rect3058"
       width="560"
       height="50.000011"
       x="-110"
       y="272.36215"
       rx="4.3780313"
       inkscape:connector-avoid="true" />
    <rect
       style="opacity:0.30603446;fill:#ffffff;fill-opacity:1;stroke:none"
       id="rect6379"
       width="140"
       height="50.000011"
       x="-30.000008"
       y="272.36215" />
    <g
       style="font-size:16px;font-style:normal;font-variant:normal;font-weight:normal;font-stretch:normal;text-align:center;line-height:125%;letter-spacing:0px;word-spacing:0px;writing-mode:lr-tb;text-anchor:middle;fill:#000000;fill-opacity:1;stroke:none;font-family:Bitstream Vera Sans;-inkscape-font-specification:Bitstream Vera Sans"
       id="text7169">
      <path
         d="m -89.601562,291.68637 0,1.35938 c -0.406257,-0.20833 -0.828132,-0.36458 -1.265625,-0.46875 -0.437506,-0.10416 -0.89063,-0.15625 -1.359375,-0.15625 -0.713546,0 -1.250004,0.10938 -1.609375,0.32812 -0.35417,0.21876 -0.531253,0.54688 -0.53125,0.98438 -3e-6,0.33334 0.127601,0.59636 0.382812,0.78906 0.255205,0.1875 0.768226,0.36719 1.539063,0.53906 l 0.492187,0.10938 c 1.020828,0.21875 1.744785,0.52865 2.171875,0.92968 0.432284,0.39584 0.64843,0.95053 0.648438,1.66407 -8e-6,0.8125 -0.322924,1.45573 -0.96875,1.92968 -0.640631,0.47396 -1.523443,0.71094 -2.648438,0.71094 -0.468753,0 -0.958336,-0.0469 -1.46875,-0.14062 -0.50521,-0.0885 -1.039064,-0.22396 -1.601562,-0.40625 l 0,-1.48438 c 0.531248,0.27604 1.054685,0.48438 1.570312,0.625 0.515622,0.13542 1.026038,0.20313 1.53125,0.20313 0.677079,0 1.197912,-0.11459 1.5625,-0.34375 0.364577,-0.23438 0.546869,-0.5625 0.546875,-0.98438 -6e-6,-0.39062 -0.132818,-0.6901 -0.398437,-0.89844 -0.260423,-0.20833 -0.835943,-0.40885 -1.726563,-0.60156 l -0.5,-0.11719 c -0.890628,-0.18749 -1.533856,-0.47395 -1.929687,-0.85937 -0.395835,-0.39062 -0.593751,-0.92448 -0.59375,-1.60156 -10e-7,-0.82291 0.291665,-1.45833 0.875,-1.90625 0.58333,-0.44791 1.411455,-0.67187 2.484375,-0.67188 0.531245,10e-6 1.031244,0.0391 1.5,0.11719 0.468743,0.0781 0.901034,0.19532 1.296875,0.35156"
         style=""
         id="path11705" />
      <path
         d="m -87.867187,291.42856 1.523437,0 2.734375,7.34375 2.734375,-7.34375 1.523438,0 -3.28125,8.75 -1.953125,0 -3.28125,-8.75"
         style=""
         id="path11707" />
      <path
         d="m -70.09375,294.89731 0,5.28125 -1.4375,0 0,-5.23438 c -7e-6,-0.82812 -0.161466,-1.44791 -0.484375,-1.85937 -0.322923,-0.41145 -0.807298,-0.61718 -1.453125,-0.61719 -0.776046,10e-6 -1.388025,0.2474 -1.835937,0.74219 -0.44792,0.4948 -0.671878,1.16927 -0.671875,2.02344 l 0,4.94531 -1.445313,0 0,-8.75 1.445313,0 0,1.35937 c 0.343746,-0.52603 0.747392,-0.91926 1.210937,-1.17968 0.468745,-0.26041 1.007807,-0.39062 1.617188,-0.39063 1.005201,10e-6 1.765617,0.31251 2.28125,0.9375 0.515616,0.6198 0.773428,1.53386 0.773437,2.74219"
         style=""
         id="path11709" />
      <path
         d="m -62.265625,296.72543 0,-5.29687 1.4375,0 0,5.24219 c -3e-6,0.82812 0.161455,1.45052 0.484375,1.86718 0.322913,0.41146 0.807288,0.61719 1.453125,0.61719 0.776036,0 1.388015,-0.24739 1.835938,-0.74219 0.453117,-0.49479 0.67968,-1.16926 0.679687,-2.02343 l 0,-4.96094 1.4375,0 0,8.75 -1.4375,0 0,-1.34375 c -0.348965,0.53125 -0.755215,0.92708 -1.21875,1.1875 -0.458339,0.25521 -0.992193,0.38281 -1.601562,0.38281 -1.005212,0 -1.768232,-0.3125 -2.289063,-0.9375 -0.520835,-0.625 -0.781251,-1.53906 -0.78125,-2.74219"
         style=""
         id="path11711" />
      <path
         d="m -50.570312,298.86606 0,4.64062 -1.445313,0 0,-12.07812 1.445313,0 0,1.32812 c 0.30208,-0.52082 0.682288,-0.90624 1.140625,-1.15625 0.463537,-0.2552 1.015619,-0.3828 1.65625,-0.38281 1.062493,10e-6 1.924471,0.42188 2.585937,1.26563 0.666658,0.84375 0.999991,1.95313 1,3.32812 -9e-6,1.375 -0.333342,2.48438 -1,3.32813 -0.661466,0.84375 -1.523444,1.26562 -2.585937,1.26562 -0.640631,0 -1.192713,-0.125 -1.65625,-0.375 -0.458337,-0.25521 -0.838545,-0.64323 -1.140625,-1.16406 m 4.890625,-3.05469 c -8e-6,-1.05729 -0.218758,-1.88541 -0.65625,-2.48437 -0.432299,-0.60416 -1.028652,-0.90625 -1.789063,-0.90625 -0.760421,0 -1.359379,0.30209 -1.796875,0.90625 -0.432295,0.59896 -0.64844,1.42708 -0.648437,2.48437 -3e-6,1.0573 0.216142,1.88802 0.648437,2.49219 0.437496,0.59896 1.036454,0.89844 1.796875,0.89844 0.760411,0 1.356764,-0.29948 1.789063,-0.89844 0.437492,-0.60417 0.656242,-1.43489 0.65625,-2.49219"
         style=""
         id="path11713" />
    </g>
    <g
       style="font-size:16px;font-style:normal;font-variant:normal;font-weight:normal;font-stretch:normal;text-align:start;line-height:125%;letter-spacing:0px;word-spacing:0px;writing-mode:lr-tb;text-anchor:start;fill:#000000;fill-opacity:1;stroke:none;font-family:Bitstream Vera Sans;-inkscape-font-specification:Bitstream Vera Sans"
       id="text7173">
      <path
         d="m 7.8046875,293.94809 0,1.34375 c -0.4062574,-0.22395 -0.8151112,-0.39062 -1.2265625,-0.5 -0.4062562,-0.11458 -0.8177141,-0.17187 -1.234375,-0.17188 -0.9322961,1e-5 -1.6562537,0.29689 -2.171875,0.89063 -0.5156277,0.58855 -0.7734399,1.41667 -0.7734375,2.48437 -2.4e-6,1.06772 0.2578098,1.89844 0.7734375,2.49219 0.5156213,0.58855 1.2395789,0.88282 2.171875,0.88281 0.4166609,1e-5 0.8281188,-0.0547 1.234375,-0.16406 0.4114513,-0.11458 0.8203051,-0.28385 1.2265625,-0.50781 l 0,1.32812 c -0.4010491,0.1875 -0.8177153,0.32813 -1.25,0.42188 -0.4270895,0.0937 -0.8828182,0.14062 -1.3671875,0.14062 -1.3177122,0 -2.3645862,-0.41406 -3.140625,-1.24218 -0.7760429,-0.82813 -1.16406338,-1.94531 -1.1640625,-3.35157 -8.8e-7,-1.42707 0.3906237,-2.54947 1.171875,-3.36718 0.7864555,-0.8177 1.8619753,-1.22656 3.2265625,-1.22657 0.4427026,1e-5 0.8749938,0.0469 1.296875,0.14063 0.421868,0.0885 0.8307218,0.22397 1.2265625,0.40625"
         style=""
         id="path11686" />
      <path
         d="m 13.710938,294.61996 c -0.770838,1e-5 -1.380212,0.3021 -1.828125,0.90625 -0.44792,0.59897 -0.671878,1.42189 -0.671875,2.46875 -3e-6,1.04688 0.221351,1.8724 0.664062,2.47657 0.447913,0.59896 1.059892,0.89844 1.835938,0.89843 0.765619,1e-5 1.372389,-0.30208 1.820312,-0.90625 0.44791,-0.60416 0.671868,-1.42708 0.671875,-2.46875 -7e-6,-1.03645 -0.223965,-1.85676 -0.671875,-2.46093 -0.447923,-0.60937 -1.054693,-0.91406 -1.820312,-0.91407 m 0,-1.21875 c 1.249993,1e-5 2.231763,0.40626 2.945312,1.21875 0.713533,0.81251 1.070304,1.93751 1.070312,3.375 -8e-6,1.4323 -0.356779,2.5573 -1.070312,3.375 -0.713549,0.8125 -1.695319,1.21875 -2.945312,1.21875 -1.255212,0 -2.239586,-0.40625 -2.953125,-1.21875 -0.708335,-0.8177 -1.0625014,-1.9427 -1.0625005,-3.375 -9e-7,-1.43749 0.3541655,-2.56249 1.0625005,-3.375 0.713539,-0.81249 1.697913,-1.21874 2.953125,-1.21875"
         style=""
         id="path11688" />
      <path
         d="m 27.375,297.0809 0,5.28125 -1.4375,0 0,-5.23437 c -7e-6,-0.82812 -0.161466,-1.44791 -0.484375,-1.85938 -0.322923,-0.41145 -0.807298,-0.61718 -1.453125,-0.61719 -0.776046,1e-5 -1.388025,0.24741 -1.835938,0.74219 -0.447919,0.4948 -0.671877,1.16928 -0.671875,2.02344 l 0,4.94531 -1.445312,0 0,-8.75 1.445312,0 0,1.35938 c 0.343747,-0.52604 0.747393,-0.91927 1.210938,-1.17969 0.468745,-0.26041 1.007807,-0.39062 1.617187,-0.39063 1.005202,1e-5 1.765618,0.31251 2.28125,0.9375 0.515617,0.6198 0.773429,1.53387 0.773438,2.74219"
         style=""
         id="path11690" />
      <path
         d="m 34.6875,290.2059 0,1.19531 -1.375,0 c -0.515629,2e-5 -0.875004,0.10418 -1.078125,0.3125 -0.19792,0.20835 -0.296878,0.58335 -0.296875,1.125 l 0,0.77344 2.367187,0 0,1.11719 -2.367187,0 0,7.63281 -1.445313,0 0,-7.63281 -1.375,0 0,-1.11719 1.375,0 0,-0.60937 c -1e-6,-0.97395 0.226561,-1.68228 0.679688,-2.125 0.453122,-0.44791 1.171871,-0.67187 2.15625,-0.67188 l 1.359375,0"
         style=""
         id="path11692" />
      <path
         d="m 35.882812,293.61215 1.4375,0 0,8.75 -1.4375,0 0,-8.75 m 0,-3.40625 1.4375,0 0,1.82031 -1.4375,0 0,-1.82031"
         style=""
         id="path11694" />
      <path
         d="m 46.078125,297.88559 c -7e-6,-1.04166 -0.216153,-1.84895 -0.648438,-2.42188 -0.427089,-0.5729 -1.028651,-0.85936 -1.804687,-0.85937 -0.770837,1e-5 -1.372399,0.28647 -1.804688,0.85937 -0.427085,0.57293 -0.640627,1.38022 -0.640625,2.42188 -2e-6,1.03646 0.21354,1.84115 0.640625,2.41406 0.432289,0.57292 1.033851,0.85938 1.804688,0.85938 0.776036,0 1.377598,-0.28646 1.804687,-0.85938 0.432285,-0.57291 0.648431,-1.3776 0.648438,-2.41406 m 1.4375,3.39062 c -9e-6,1.48959 -0.330738,2.59636 -0.992188,3.32032 -0.661465,0.72916 -1.674485,1.09374 -3.039062,1.09375 -0.505213,-10e-6 -0.981775,-0.0391 -1.429688,-0.11719 -0.447919,-0.0729 -0.882814,-0.1875 -1.304687,-0.34375 l 0,-1.39844 c 0.421873,0.22917 0.838539,0.39844 1.25,0.50781 0.411455,0.10938 0.830725,0.16406 1.257812,0.16407 0.942703,-10e-6 1.648432,-0.2474 2.117188,-0.74219 0.468743,-0.48958 0.703118,-1.23177 0.703125,-2.22656 l 0,-0.71094 c -0.296882,0.51563 -0.67709,0.90104 -1.140625,1.15625 -0.463547,0.25521 -1.018234,0.38281 -1.664063,0.38281 -1.07292,0 -1.937502,-0.40885 -2.59375,-1.22656 -0.656251,-0.81771 -0.984375,-1.90104 -0.984375,-3.25 0,-1.35416 0.328124,-2.4401 0.984375,-3.25781 0.656248,-0.8177 1.52083,-1.22656 2.59375,-1.22657 0.645829,1e-5 1.200516,0.12762 1.664063,0.38282 0.463535,0.25521 0.843743,0.64063 1.140625,1.15625 l 0,-1.32813 1.4375,0 0,7.66406"
         style=""
         id="path11696" />
      <path
         d="m 50.328125,298.90903 0,-5.29688 1.4375,0 0,5.24219 c -3e-6,0.82813 0.161455,1.45052 0.484375,1.86719 0.322913,0.41146 0.807288,0.61719 1.453125,0.61718 0.776036,1e-5 1.388015,-0.24739 1.835937,-0.74218 0.453118,-0.49479 0.679681,-1.16927 0.679688,-2.02344 l 0,-4.96094 1.4375,0 0,8.75 -1.4375,0 0,-1.34375 c -0.348965,0.53125 -0.755215,0.92709 -1.21875,1.1875 -0.458339,0.25521 -0.992193,0.38281 -1.601563,0.38281 -1.005211,0 -1.768231,-0.3125 -2.289062,-0.9375 -0.520835,-0.62499 -0.781251,-1.53906 -0.78125,-2.74218"
         style=""
         id="path11698" />
      <path
         d="m 65.703125,294.9559 c -0.161465,-0.0937 -0.338548,-0.16145 -0.53125,-0.20312 -0.187506,-0.0469 -0.395839,-0.0703 -0.625,-0.0703 -0.812505,1e-5 -1.437504,0.26564 -1.875,0.79688 -0.432295,0.52605 -0.64844,1.28386 -0.648438,2.27344 l 0,4.60937 -1.445312,0 0,-8.75 1.445312,0 0,1.35938 c 0.302081,-0.53124 0.695309,-0.92447 1.179688,-1.17969 0.48437,-0.26041 1.072912,-0.39062 1.765625,-0.39063 0.09895,1e-5 0.208327,0.008 0.328125,0.0234 0.119785,0.0104 0.252598,0.0287 0.398437,0.0547 l 0.0078,1.47656"
         style=""
         id="path11700" />
      <path
         d="m 74.367187,297.62778 0,0.70312 -6.609375,0 c 0.0625,0.98959 0.359373,1.7448 0.890625,2.26563 0.536455,0.51562 1.281246,0.77344 2.234375,0.77343 0.552078,1e-5 1.085931,-0.0677 1.601563,-0.20312 0.520826,-0.13542 1.03645,-0.33854 1.546875,-0.60938 l 0,1.35938 c -0.515633,0.21875 -1.044278,0.38542 -1.585938,0.5 -0.541673,0.11458 -1.091151,0.17187 -1.648437,0.17187 -1.395837,0 -2.502607,-0.40625 -3.320313,-1.21875 -0.812501,-0.81249 -1.21875,-1.91145 -1.21875,-3.29687 0,-1.43229 0.385416,-2.5677 1.15625,-3.40625 0.776039,-0.84374 1.820309,-1.26562 3.132813,-1.26563 1.177077,1e-5 2.106764,0.38022 2.789062,1.14063 0.687492,0.75521 1.031242,1.78386 1.03125,3.08594 m -1.4375,-0.42188 c -0.01042,-0.78645 -0.231778,-1.41405 -0.664062,-1.88281 -0.42709,-0.46874 -0.994798,-0.70312 -1.703125,-0.70313 -0.802088,1e-5 -1.445316,0.22657 -1.929688,0.67969 -0.479169,0.45313 -0.75521,1.09115 -0.828125,1.91406 l 5.125,-0.008"
         style=""
         id="path11702" />
    </g>
    <g
       style="font-size:16px;font-style:normal;font-variant:normal;font-weight:normal;font-stretch:normal;text-align:start;line-height:125%;letter-spacing:0px;word-spacing:0px;writing-mode:lr-tb;text-anchor:start;fill:#000000;fill-opacity:1;stroke:none;font-family:Bitstream Vera Sans;-inkscape-font-specification:Bitstream Vera Sans"
       id="text7177">
      <path
         d="m 266.03516,296.25671 c 0.35936,-0.64582 0.78905,-1.12238 1.28906,-1.42968 0.49999,-0.30729 1.08853,-0.46093 1.76562,-0.46094 0.91145,1e-5 1.61457,0.32032 2.10938,0.96094 0.49478,0.63542 0.74217,1.54167 0.74219,2.71875 l 0,5.28125 -1.44532,0 0,-5.23438 c -10e-6,-0.83853 -0.14845,-1.46093 -0.44531,-1.86719 -0.29689,-0.40624 -0.75001,-0.60936 -1.35937,-0.60937 -0.74481,1e-5 -1.33335,0.2474 -1.76563,0.74219 -0.4323,0.49479 -0.64844,1.16927 -0.64844,2.02343 l 0,4.94532 -1.44531,0 0,-5.23438 c -10e-6,-0.84374 -0.14844,-1.46614 -0.44531,-1.86719 -0.29688,-0.40624 -0.75522,-0.60936 -1.375,-0.60937 -0.73438,1e-5 -1.31771,0.25001 -1.75,0.75 -0.4323,0.4948 -0.64844,1.16667 -0.64844,2.01562 l 0,4.94532 -1.44531,0 0,-8.75 1.44531,0 0,1.35937 c 0.32812,-0.53645 0.72135,-0.93228 1.17969,-1.1875 0.45833,-0.2552 1.0026,-0.3828 1.63281,-0.38281 0.63541,1e-5 1.17447,0.16147 1.61719,0.48437 0.44791,0.32293 0.77864,0.79168 0.99219,1.40625"
         style=""
         id="path11677" />
      <path
         d="m 278.79297,298.92859 c -1.16146,0 -1.96615,0.13282 -2.41406,0.39844 -0.44792,0.26563 -0.67188,0.71875 -0.67188,1.35937 0,0.51042 0.16667,0.91667 0.5,1.21875 0.33854,0.29688 0.79687,0.44531 1.375,0.44531 0.79687,0 1.43489,-0.28124 1.91406,-0.84375 0.48437,-0.5677 0.72656,-1.32031 0.72657,-2.25781 l 0,-0.32031 -1.42969,0 m 2.86719,-0.59375 0,4.99219 -1.4375,0 0,-1.32813 c -0.32814,0.53125 -0.73699,0.92448 -1.22657,1.17969 -0.48958,0.25 -1.08854,0.375 -1.79687,0.375 -0.89584,0 -1.60938,-0.25 -2.14063,-0.75 -0.52604,-0.50521 -0.78906,-1.17969 -0.78906,-2.02344 0,-0.98437 0.32812,-1.72656 0.98438,-2.22656 0.66145,-0.5 1.64583,-0.75 2.95312,-0.75 l 2.01563,0 0,-0.14063 c -1e-5,-0.66145 -0.21876,-1.17186 -0.65625,-1.53125 -0.4323,-0.36457 -1.04168,-0.54686 -1.82813,-0.54687 -0.5,1e-5 -0.98698,0.0599 -1.46094,0.17969 -0.47396,0.1198 -0.92969,0.29948 -1.36718,0.53906 l 0,-1.32813 c 0.52604,-0.20311 1.03645,-0.35415 1.53125,-0.45312 0.49478,-0.10416 0.97655,-0.15624 1.44531,-0.15625 1.26562,1e-5 2.21093,0.32813 2.83594,0.98437 0.62499,0.65626 0.93749,1.65105 0.9375,2.98438"
         style=""
         id="path11679" />
      <path
         d="m 284.57422,291.17078 1.44531,0 0,7.17968 4.28906,-3.77343 1.83594,0 -4.64062,4.09375 4.83593,4.65625 -1.875,0 -4.44531,-4.27344 0,4.27344 -1.44531,0 0,-12.15625"
         style=""
         id="path11681" />
      <path
         d="m 300.83203,298.59265 0,0.70313 -6.60937,0 c 0.0625,0.98958 0.35937,1.74479 0.89062,2.26562 0.53646,0.51563 1.28125,0.77344 2.23438,0.77344 0.55207,0 1.08593,-0.0677 1.60156,-0.20313 0.52082,-0.13541 1.03645,-0.33854 1.54687,-0.60937 l 0,1.35937 c -0.51563,0.21875 -1.04427,0.38542 -1.58593,0.5 -0.54168,0.11459 -1.09116,0.17188 -1.64844,0.17188 -1.39584,0 -2.50261,-0.40625 -3.32031,-1.21875 -0.81251,-0.8125 -1.21875,-1.91146 -1.21875,-3.29688 0,-1.43228 0.38541,-2.5677 1.15625,-3.40625 0.77604,-0.84374 1.8203,-1.26561 3.13281,-1.26562 1.17708,1e-5 2.10676,0.38022 2.78906,1.14062 0.68749,0.75522 1.03124,1.78386 1.03125,3.08594 m -1.4375,-0.42187 c -0.0104,-0.78646 -0.23178,-1.41406 -0.66406,-1.88282 -0.42709,-0.46874 -0.9948,-0.70311 -1.70313,-0.70312 -0.80208,1e-5 -1.44531,0.22657 -1.92968,0.67969 -0.47917,0.45313 -0.75521,1.09115 -0.82813,1.91406 l 5.125,-0.008"
         style=""
         id="path11683" />
    </g>
    <path
       id="path7210"
       style="fill:none;stroke:#000000;stroke-width:0.96325439px;stroke-linecap:butt;stroke-linejoin:miter;stroke-opacity:1"
       d="m 450.78744,268.73479 c 1.50076,-16.57999 -3.91979,-34.91878 -23.33609,-34.7487 -59.94331,0.52506 -82.72465,17.3805 -128.46158,17.54422 -43.3694,0.15526 -125.61357,-8.67398 -128.15313,-37.91137 m -279.86088,54.04138 c -1.50076,-16.57999 3.91979,-34.91878 23.336096,-34.74871 59.9433,0.52506 82.7246381,17.38051 128.461578,17.54423 43.369395,0.15525 125.437556,-7.81925 127.977116,-37.05663"
       inkscape:connector-curvature="0"
       sodipodi:nodetypes="cssccssc" />
    <g
       style="font-size:28px;font-style:normal;font-weight:normal;text-align:center;line-height:125%;letter-spacing:0px;word-spacing:0px;text-anchor:middle;fill:#000000;fill-opacity:1;stroke:none;font-family:Bitstream Vera Sans"
       id="text7213">
      <path
         d="m 151.97137,190.93379 2.51563,0 0,15.58594 c -1e-5,1.95052 -0.3737,3.36328 -1.12109,4.23828 -0.73829,0.875 -1.9323,1.3125 -3.58204,1.3125 l -0.95703,0 0,-2.13281 0.66993,0 c 0.95703,-1e-5 1.60872,-0.22331 1.95507,-0.66992 0.34635,-0.43751 0.51953,-1.35352 0.51953,-2.74805 l 0,-15.58594 m 0,-5.96094 2.51563,0 0,3.18555 -2.51563,0 0,-3.18555"
         style=""
         id="path11670" />
      <path
         d="m 165.67059,192.69746 c -1.34896,2e-5 -2.41537,0.52866 -3.19922,1.58594 -0.78385,1.04819 -1.17578,2.48829 -1.17578,4.32031 0,1.83204 0.38737,3.2767 1.16211,4.33399 0.78385,1.04818 1.85481,1.57227 3.21289,1.57226 1.33984,1e-5 2.40168,-0.52864 3.18555,-1.58593 0.78384,-1.05729 1.17577,-2.49739 1.17578,-4.32032 -1e-5,-1.81379 -0.39194,-3.24933 -1.17578,-4.30664 -0.78387,-1.06639 -1.84571,-1.59959 -3.18555,-1.59961 m 0,-2.13281 c 2.18749,2e-5 3.90559,0.71095 5.1543,2.13281 1.24868,1.42189 1.87303,3.39064 1.87305,5.90625 -2e-5,2.50652 -0.62437,4.47527 -1.87305,5.90625 -1.24871,1.42188 -2.96681,2.13282 -5.1543,2.13282 -2.19662,0 -3.91927,-0.71094 -5.16797,-2.13282 -1.23958,-1.43098 -1.85937,-3.39973 -1.85937,-5.90625 0,-2.51561 0.61979,-4.48436 1.85937,-5.90625 1.2487,-1.42186 2.97135,-2.13279 5.16797,-2.13281"
         style=""
         id="path11672" />
      <path
         d="m 187.84637,198.60371 c -1e-5,-1.85025 -0.38282,-3.29946 -1.14843,-4.34765 -0.75653,-1.05728 -1.80014,-1.58593 -3.13086,-1.58594 -1.33074,1e-5 -2.37892,0.52866 -3.14453,1.58594 -0.75652,1.04819 -1.13477,2.4974 -1.13477,4.34765 0,1.85027 0.37825,3.30404 1.13477,4.36133 0.76561,1.04818 1.81379,1.57227 3.14453,1.57227 1.33072,0 2.37433,-0.52409 3.13086,-1.57227 0.76561,-1.05729 1.14842,-2.51106 1.14843,-4.36133 m -8.55859,-5.3457 c 0.52864,-0.91144 1.194,-1.58592 1.99609,-2.02344 0.81119,-0.4466 1.77734,-0.6699 2.89844,-0.66992 1.85937,2e-5 3.36783,0.7383 4.52539,2.21485 1.16665,1.47657 1.74999,3.41797 1.75,5.82421 -10e-6,2.40626 -0.58335,4.34766 -1.75,5.82422 -1.15756,1.47657 -2.66602,2.21485 -4.52539,2.21485 -1.1211,0 -2.08725,-0.21875 -2.89844,-0.65625 -0.80209,-0.44662 -1.46745,-1.12565 -1.99609,-2.03711 l 0,2.29687 -2.5293,0 0,-21.27344 2.5293,0 0,8.28516"
         style=""
         id="path11674" />
    </g>
    <g
       id="g8081"
       transform="translate(0,6)">
      <rect
         style="fill:#ff9955;fill-rule:evenodd;stroke:none"
         id="rect7243"
         width="240"
         height="20.000011"
         x="-110"
         y="342.36215"
         rx="4.3780313"
         inkscape:connector-avoid="true" />
      <g
         style="font-size:14px;font-style:normal;font-weight:normal;line-height:125%;letter-spacing:0px;word-spacing:0px;fill:#000000;fill-opacity:1;stroke:none;font-family:Bitstream Vera Sans"
         id="text7245">
        <path
           d="m -92.676369,353.7601 c -7e-6,-0.92512 -0.191413,-1.64973 -0.574218,-2.17383 -0.378262,-0.52864 -0.900071,-0.79296 -1.56543,-0.79297 -0.665369,1e-5 -1.189457,0.26433 -1.572266,0.79297 -0.378258,0.5241 -0.567385,1.24871 -0.567383,2.17383 -2e-6,0.92513 0.189125,1.65202 0.567383,2.18067 0.382809,0.52409 0.906897,0.78613 1.572266,0.78613 0.665359,0 1.187168,-0.26204 1.56543,-0.78613 0.382805,-0.52865 0.574211,-1.25554 0.574218,-2.18067 m -4.279297,-2.67285 c 0.264321,-0.45572 0.597002,-0.79296 0.998047,-1.01172 0.405595,-0.2233 0.888668,-0.33495 1.449219,-0.33496 0.929682,1e-5 1.683913,0.36915 2.262695,1.10742 0.583326,0.73829 0.874992,1.70899 0.875,2.91211 -8e-6,1.20313 -0.291674,2.17383 -0.875,2.91211 -0.578782,0.73828 -1.333013,1.10742 -2.262695,1.10742 -0.560551,0 -1.043624,-0.10937 -1.449219,-0.32812 -0.401045,-0.22331 -0.733726,-0.56283 -0.998047,-1.01856 l 0,1.14844 -1.264648,0 0,-10.63672 1.264648,0 0,4.14258"
           id="path11659"
           inkscape:connector-curvature="0" />
        <path
           d="m -89.415627,354.55991 0,-4.63477 1.257813,0 0,4.58691 c -2e-6,0.72462 0.141273,1.26921 0.423828,1.63379 0.282549,0.36003 0.706377,0.54004 1.271484,0.54004 0.679032,0 1.214513,-0.21647 1.606446,-0.64941 0.396478,-0.43294 0.59472,-1.02311 0.594726,-1.77051 l 0,-4.34082 1.257813,0 0,7.65625 -1.257813,0 0,-1.17578 c -0.305344,0.46484 -0.660813,0.8112 -1.066406,1.03906 -0.401046,0.22331 -0.868168,0.33496 -1.401367,0.33496 -0.87956,0 -1.547203,-0.27343 -2.00293,-0.82031 -0.45573,-0.54687 -0.683595,-1.34668 -0.683594,-2.39941"
           id="path11661"
           inkscape:connector-curvature="0" />
        <path
           d="m -80.399025,349.92514 1.257813,0 0,7.65625 -1.257813,0 0,-7.65625 m 0,-2.98047 1.257813,0 0,1.59278 -1.257813,0 0,-1.59278"
           id="path11663"
           inkscape:connector-curvature="0" />
        <path
           d="m -76.516212,346.94467 1.257812,0 0,10.63672 -1.257812,0 0,-10.63672"
           id="path11665"
           inkscape:connector-curvature="0" />
        <path
           d="m -67.595314,351.08725 0,-4.14258 1.257812,0 0,10.63672 -1.257812,0 0,-1.14844 c -0.264329,0.45573 -0.59929,0.79525 -1.004883,1.01856 -0.401046,0.21875 -0.884119,0.32812 -1.449219,0.32812 -0.925133,0 -1.679364,-0.36914 -2.262695,-1.10742 -0.578777,-0.73828 -0.868165,-1.70898 -0.868164,-2.91211 -1e-6,-1.20312 0.289387,-2.17382 0.868164,-2.91211 0.583331,-0.73827 1.337562,-1.10741 2.262695,-1.10742 0.5651,1e-5 1.048173,0.11166 1.449219,0.33496 0.405593,0.21876 0.740554,0.556 1.004883,1.01172 m -4.286133,2.67285 c -2e-6,0.92513 0.189126,1.65202 0.567383,2.18067 0.382809,0.52409 0.906897,0.78613 1.572266,0.78613 0.665359,0 1.189447,-0.26204 1.572265,-0.78613 0.382807,-0.52865 0.574213,-1.25554 0.574219,-2.18067 -6e-6,-0.92512 -0.191412,-1.64973 -0.574219,-2.17383 -0.382818,-0.52864 -0.906906,-0.79296 -1.572265,-0.79297 -0.665369,1e-5 -1.189457,0.26433 -1.572266,0.79297 -0.378257,0.5241 -0.567385,1.24871 -0.567383,2.17383"
           id="path11667"
           inkscape:connector-curvature="0" />
      </g>
    </g>
    <g
       id="g8056"
       transform="translate(0.50820923,1.219251)">
      <rect
         inkscape:connector-avoid="true"
         rx="4.3780313"
         y="347.14291"
         x="169.49179"
         height="20"
         width="130"
         id="rect8013"
         style="fill:#76c5d9;fill-opacity:1;fill-rule:evenodd;stroke:none" />
      <g
         style="font-size:14px;font-style:normal;font-weight:normal;line-height:125%;letter-spacing:0px;word-spacing:0px;fill:#000000;fill-opacity:1;stroke:none;font-family:Bitstream Vera Sans"
         id="text8015">
        <path
           d="m 182.56348,352.53207 0,2.17383 2.59082,0 0,0.97754 -2.59082,0 0,4.15625 c -1e-5,0.62435 0.0843,1.02539 0.25293,1.20313 0.17317,0.17773 0.5218,0.2666 1.04589,0.2666 l 1.292,0 0,1.05273 -1.292,0 c -0.9707,0 -1.64062,-0.18001 -2.00976,-0.54004 -0.36914,-0.36458 -0.55371,-1.02539 -0.55371,-1.98242 l 0,-4.15625 -0.92285,0 0,-0.97754 0.92285,0 0,-2.17383 1.26465,0"
           id="path11650"
           inkscape:connector-curvature="0" />
        <path
           d="m 193.36426,358.21957 0,0.61524 -5.78321,0 c 0.0547,0.86589 0.31446,1.52669 0.7793,1.98242 0.4694,0.45117 1.12109,0.67676 1.95508,0.67676 0.48307,0 0.95019,-0.0593 1.40137,-0.17774 0.45572,-0.11848 0.90689,-0.29622 1.35351,-0.5332 l 0,1.18945 c -0.45118,0.19141 -0.91374,0.33724 -1.38769,0.4375 -0.47397,0.10026 -0.95476,0.15039 -1.44239,0.15039 -1.22135,0 -2.18978,-0.35546 -2.90527,-1.0664 -0.71094,-0.71094 -1.06641,-1.67253 -1.06641,-2.88477 0,-1.25325 0.33724,-2.24674 1.01172,-2.98047 0.67904,-0.73827 1.59277,-1.10741 2.74121,-1.10742 1.02995,1e-5 1.84342,0.33269 2.44043,0.99805 0.60156,0.66081 0.90234,1.56088 0.90235,2.70019 m -1.25781,-0.36914 c -0.009,-0.68814 -0.20281,-1.2373 -0.58106,-1.64746 -0.3737,-0.41015 -0.87045,-0.61523 -1.49023,-0.61523 -0.70183,0 -1.26466,0.19825 -1.68848,0.59472 -0.41927,0.39649 -0.66081,0.95476 -0.72461,1.67481 l 4.48438,-0.007"
           id="path11652"
           inkscape:connector-curvature="0" />
        <path
           d="m 200.30957,354.93149 0,1.18945 c -0.35547,-0.18228 -0.72461,-0.319 -1.10742,-0.41016 -0.38282,-0.0911 -0.7793,-0.13671 -1.18945,-0.13671 -0.62436,0 -1.09376,0.0957 -1.40821,0.28711 -0.3099,0.19141 -0.46484,0.47852 -0.46484,0.86132 0,0.29168 0.11165,0.52182 0.33496,0.69043 0.2233,0.16407 0.6722,0.3213 1.34668,0.47168 l 0.43066,0.0957 c 0.89323,0.19141 1.52669,0.46257 1.90039,0.81347 0.37825,0.34636 0.56738,0.83171 0.56739,1.45606 -1e-5,0.71094 -0.28256,1.27376 -0.84766,1.68847 -0.56055,0.41472 -1.33301,0.62207 -2.31738,0.62207 -0.41016,0 -0.83855,-0.041 -1.28516,-0.12304 -0.44206,-0.0775 -0.90918,-0.19597 -1.40137,-0.35547 l 0,-1.29883 c 0.46485,0.24154 0.92285,0.42383 1.37403,0.54688 0.45117,0.11849 0.89778,0.17773 1.33984,0.17773 0.59245,0 1.04817,-0.10026 1.36719,-0.30078 0.319,-0.20508 0.47851,-0.49219 0.47851,-0.86133 0,-0.34179 -0.11621,-0.60384 -0.34863,-0.78613 -0.22787,-0.18229 -0.73145,-0.35775 -1.51074,-0.52637 l -0.4375,-0.10254 c -0.7793,-0.16406 -1.34212,-0.41471 -1.68848,-0.75195 -0.34635,-0.34179 -0.51953,-0.80892 -0.51953,-1.40137 0,-0.72004 0.25521,-1.27603 0.76563,-1.66797 0.51041,-0.39192 1.23502,-0.58788 2.17382,-0.58789 0.46484,10e-6 0.90234,0.0342 1.3125,0.10254 0.41016,0.0684 0.78841,0.17091 1.13477,0.30762"
           id="path11654"
           inkscape:connector-curvature="0" />
        <path
           d="m 203.97363,352.53207 0,2.17383 2.59082,0 0,0.97754 -2.59082,0 0,4.15625 c 0,0.62435 0.0843,1.02539 0.25293,1.20313 0.17318,0.17773 0.52181,0.2666 1.0459,0.2666 l 1.29199,0 0,1.05273 -1.29199,0 c -0.97071,0 -1.64063,-0.18001 -2.00976,-0.54004 -0.36915,-0.36458 -0.55372,-1.02539 -0.55372,-1.98242 l 0,-4.15625 -0.92285,0 0,-0.97754 0.92285,0 0,-2.17383 1.26465,0"
           id="path11656"
           inkscape:connector-curvature="0" />
      </g>
    </g>
    <g
       id="g8066"
       transform="translate(0,-13.999988)">
      <rect
         inkscape:connector-avoid="true"
         rx="4.3780313"
         y="402.36215"
         x="-110"
         height="20"
         width="130"
         id="rect8032"
         style="fill:#5fd35f;fill-opacity:1;fill-rule:evenodd;stroke:none" />
      <g
         style="font-size:14px;font-style:normal;font-weight:normal;line-height:125%;letter-spacing:0px;word-spacing:0px;fill:#000000;fill-opacity:1;stroke:none;font-family:Bitstream Vera Sans"
         id="text8034">
        <path
           d="m -92.662697,410.21909 0,1.17578 c -0.355475,-0.19596 -0.713222,-0.34179 -1.073242,-0.4375 -0.355474,-0.10026 -0.7155,-0.15039 -1.080078,-0.15039 -0.815759,0 -1.449222,0.25977 -1.900391,0.77929 -0.451174,0.51498 -0.67676,1.23959 -0.676758,2.17383 -2e-6,0.93425 0.225584,1.66114 0.676758,2.18067 0.451169,0.51497 1.084632,0.77246 1.900391,0.77246 0.364578,0 0.724604,-0.0478 1.080078,-0.14356 0.36002,-0.10026 0.717767,-0.24837 1.073242,-0.44433 l 0,1.16211 c -0.350918,0.16406 -0.715501,0.2871 -1.09375,0.36914 -0.373703,0.082 -0.772466,0.12304 -1.196289,0.12304 -1.152998,0 -2.069013,-0.3623 -2.748047,-1.08691 -0.679037,-0.72461 -1.018555,-1.70215 -1.018554,-2.93262 -10e-7,-1.24869 0.341795,-2.23079 1.02539,-2.94629 0.688149,-0.71549 1.629229,-1.07323 2.823242,-1.07324 0.387365,1e-5 0.76562,0.041 1.134766,0.12305 0.369134,0.0775 0.726882,0.19597 1.073242,0.35547"
           id="path11629"
           inkscape:connector-curvature="0" />
        <path
           d="m -86.025002,411.10092 c -0.141281,-0.082 -0.296229,-0.14127 -0.464843,-0.17773 -0.164068,-0.041 -0.346359,-0.0615 -0.546875,-0.0615 -0.710942,10e-6 -1.257816,0.23243 -1.640625,0.69727 -0.378258,0.46029 -0.567386,1.12338 -0.567383,1.98926 l 0,4.0332 -1.264649,0 0,-7.65625 1.264649,0 0,1.18945 c 0.26432,-0.46483 0.608395,-0.80891 1.032226,-1.03222 0.423825,-0.22786 0.938798,-0.34179 1.544922,-0.3418 0.08658,1e-5 0.182287,0.007 0.28711,0.0205 0.104812,0.009 0.221023,0.0251 0.348633,0.0478 l 0.0068,1.29199"
           id="path11631"
           inkscape:connector-curvature="0" />
        <path
           d="m -81.506447,418.29233 c -0.355473,0.91145 -0.701827,1.50618 -1.039062,1.78418 -0.337243,0.27799 -0.788414,0.41699 -1.353516,0.41699 l -1.004883,0 0,-1.05273 0.738281,0 c 0.346352,-10e-6 0.615232,-0.082 0.806641,-0.2461 0.191404,-0.16406 0.403317,-0.55143 0.635742,-1.16211 l 0.225586,-0.57422 -3.096679,-7.5332 1.333007,0 2.392578,5.98828 2.392579,-5.98828 1.333007,0 -3.363281,8.36719"
           id="path11633"
           inkscape:connector-curvature="0" />
        <path
           d="m -75.190041,416.43295 0,4.06055 -1.264648,0 0,-10.56836 1.264648,0 0,1.16211 c 0.264321,-0.45572 0.597002,-0.79296 0.998047,-1.01172 0.405595,-0.2233 0.888668,-0.33495 1.449219,-0.33496 0.929682,1e-5 1.683913,0.36915 2.262695,1.10742 0.583326,0.73829 0.874992,1.70899 0.875,2.91211 -8e-6,1.20313 -0.291674,2.17383 -0.875,2.91211 -0.578782,0.73828 -1.333013,1.10742 -2.262695,1.10742 -0.560551,0 -1.043624,-0.10937 -1.449219,-0.32812 -0.401045,-0.22331 -0.733726,-0.56283 -0.998047,-1.01856 m 4.279297,-2.67285 c -7e-6,-0.92512 -0.191413,-1.64973 -0.574218,-2.17383 -0.378262,-0.52864 -0.900071,-0.79296 -1.56543,-0.79297 -0.665369,1e-5 -1.189457,0.26433 -1.572266,0.79297 -0.378258,0.5241 -0.567385,1.24871 -0.567383,2.17383 -2e-6,0.92513 0.189125,1.65202 0.567383,2.18067 0.382809,0.52409 0.906897,0.78613 1.572266,0.78613 0.665359,0 1.187168,-0.26204 1.56543,-0.78613 0.382805,-0.52865 0.574211,-1.25554 0.574218,-2.18067"
           id="path11635"
           inkscape:connector-curvature="0" />
        <path
           d="m -66.275978,407.75131 0,2.17383 2.59082,0 0,0.97754 -2.59082,0 0,4.15625 c -3e-6,0.62435 0.08431,1.02539 0.25293,1.20312 0.173174,0.17774 0.521806,0.26661 1.045898,0.26661 l 1.291992,0 0,1.05273 -1.291992,0 c -0.970706,0 -1.640627,-0.18001 -2.009766,-0.54004 -0.369142,-0.36458 -0.553712,-1.02539 -0.553711,-1.98242 l 0,-4.15625 -0.922851,0 0,-0.97754 0.922851,0 0,-2.17383 1.264649,0"
           id="path11637"
           inkscape:connector-curvature="0" />
        <path
           d="m -59.057228,410.80698 c -0.674483,0 -1.207685,0.26433 -1.599609,0.79297 -0.39193,0.52409 -0.587893,1.24414 -0.587891,2.16015 -2e-6,0.91602 0.193683,1.63835 0.581055,2.16699 0.391924,0.52409 0.927405,0.78614 1.606445,0.78614 0.669917,0 1.200841,-0.26433 1.592773,-0.79297 0.391921,-0.52865 0.587885,-1.2487 0.587891,-2.16016 -6e-6,-0.90689 -0.19597,-1.62467 -0.587891,-2.15332 -0.391932,-0.5332 -0.922856,-0.7998 -1.592773,-0.7998 m 0,-1.06641 c 1.093745,1e-5 1.952793,0.35548 2.577148,1.06641 0.624342,0.71094 0.936516,1.69531 0.936524,2.95312 -8e-6,1.25326 -0.312182,2.23763 -0.936524,2.95313 -0.624355,0.71093 -1.483403,1.0664 -2.577148,1.0664 -1.098311,0 -1.959638,-0.35547 -2.583984,-1.0664 -0.619793,-0.7155 -0.929689,-1.69987 -0.929688,-2.95313 -10e-7,-1.25781 0.309895,-2.24218 0.929688,-2.95312 0.624346,-0.71093 1.485673,-1.0664 2.583984,-1.06641"
           id="path11639"
           inkscape:connector-curvature="0" />
        <path
           d="m -44.127541,410.15073 0,1.18945 c -0.355474,-0.18229 -0.724614,-0.319 -1.107421,-0.41016 -0.382818,-0.0911 -0.779302,-0.13671 -1.189454,-0.13672 -0.624352,1e-5 -1.093752,0.0957 -1.408203,0.28711 -0.309898,0.19142 -0.464845,0.47853 -0.464843,0.86133 -2e-6,0.29167 0.111651,0.52182 0.33496,0.69043 0.223305,0.16407 0.672198,0.3213 1.34668,0.47168 l 0.430664,0.0957 c 0.893224,0.19141 1.526687,0.46257 1.900391,0.81348 0.378249,0.34636 0.567376,0.83171 0.567383,1.45606 -7e-6,0.71093 -0.282559,1.27376 -0.847657,1.68847 -0.560552,0.41472 -1.333012,0.62207 -2.317382,0.62207 -0.41016,0 -0.838545,-0.041 -1.285157,-0.12304 -0.442059,-0.0775 -0.909181,-0.19597 -1.401367,-0.35547 l 0,-1.29883 c 0.464843,0.24154 0.92285,0.42383 1.374024,0.54687 0.451169,0.11849 0.897783,0.17774 1.339843,0.17774 0.592444,0 1.048173,-0.10026 1.367188,-0.30078 0.319005,-0.20508 0.47851,-0.49219 0.478515,-0.86133 -5e-6,-0.3418 -0.116216,-0.60384 -0.348632,-0.78613 -0.22787,-0.18229 -0.73145,-0.35775 -1.510743,-0.52637 l -0.4375,-0.10254 c -0.779299,-0.16406 -1.342124,-0.41471 -1.688476,-0.75195 -0.346355,-0.3418 -0.519532,-0.80892 -0.519531,-1.40137 -10e-7,-0.72005 0.255207,-1.27604 0.765625,-1.66797 0.510414,-0.39192 1.235023,-0.58788 2.173828,-0.58789 0.464839,1e-5 0.902339,0.0342 1.3125,0.10254 0.410151,0.0684 0.788405,0.17091 1.134765,0.30762"
           id="path11641"
           inkscape:connector-curvature="0" />
        <path
           d="m -41.707619,409.92514 1.257813,0 0,7.65625 -1.257813,0 0,-7.65625 m 0,-2.98047 1.257813,0 0,1.59278 -1.257813,0 0,-1.59278"
           id="path11643"
           inkscape:connector-curvature="0" />
        <path
           d="m -32.78672,413.6644 c -7e-6,-0.91146 -0.189134,-1.61783 -0.567383,-2.11914 -0.373703,-0.5013 -0.90007,-0.75195 -1.579102,-0.75196 -0.674482,1e-5 -1.200849,0.25066 -1.579101,0.75196 -0.3737,0.50131 -0.560549,1.20768 -0.560547,2.11914 -2e-6,0.9069 0.186847,1.611 0.560547,2.1123 0.378252,0.50131 0.904619,0.75196 1.579101,0.75196 0.679032,0 1.205399,-0.25065 1.579102,-0.75196 0.378249,-0.5013 0.567376,-1.2054 0.567383,-2.1123 m 1.257812,2.9668 c -7e-6,1.30338 -0.289395,2.2718 -0.868164,2.90527 -0.578782,0.63802 -1.465174,0.95703 -2.65918,0.95703 -0.44206,0 -0.859052,-0.0342 -1.250976,-0.10254 -0.39193,-0.0638 -0.772463,-0.16406 -1.141602,-0.30078 l 0,-1.22363 c 0.369139,0.20052 0.733722,0.34863 1.09375,0.44433 0.360023,0.0957 0.726885,0.14356 1.100586,0.14356 0.824865,0 1.442378,-0.21648 1.852539,-0.64942 0.41015,-0.42838 0.615228,-1.0778 0.615235,-1.94824 l 0,-0.62207 c -0.259772,0.45117 -0.592454,0.78841 -0.998047,1.01172 -0.405604,0.22331 -0.890955,0.33496 -1.456055,0.33496 -0.938805,0 -1.695315,-0.35775 -2.269531,-1.07324 -0.57422,-0.71549 -0.861329,-1.66341 -0.861328,-2.84375 -10e-7,-1.18489 0.287108,-2.13509 0.861328,-2.85059 0.574216,-0.71549 1.330726,-1.07323 2.269531,-1.07324 0.5651,1e-5 1.050451,0.11166 1.456055,0.33496 0.405593,0.22332 0.738275,0.56055 0.998047,1.01172 l 0,-1.16211 1.257812,0 0,6.70606"
           id="path11645"
           inkscape:connector-curvature="0" />
        <path
           d="m -22.57383,412.9603 0,4.62109 -1.257812,0 0,-4.58008 c -7e-6,-0.7246 -0.141282,-1.26692 -0.423828,-1.62695 -0.282558,-0.36002 -0.706386,-0.54003 -1.271485,-0.54004 -0.67904,1e-5 -1.214521,0.21648 -1.606445,0.64941 -0.39193,0.43295 -0.587893,1.02312 -0.587891,1.77051 l 0,4.32715 -1.264648,0 0,-7.65625 1.264648,0 0,1.18945 c 0.300779,-0.46028 0.653969,-0.80435 1.059571,-1.03222 0.410152,-0.22786 0.881831,-0.34179 1.415039,-0.3418 0.879551,1e-5 1.544915,0.27345 1.996094,0.82031 0.451164,0.54233 0.67675,1.34213 0.676757,2.39942"
           id="path11647"
           inkscape:connector-curvature="0" />
      </g>
    </g>
    <g
       id="g8071"
       transform="translate(0,-3.999988)">
      <rect
         style="fill:#e580ff;fill-opacity:1;fill-rule:evenodd;stroke:none"
         id="rect8038"
         width="190"
         height="20"
         x="-110"
         y="432.36215"
         rx="4.3780313"
         inkscape:connector-avoid="true" />
      <g
         style="font-size:14px;font-style:normal;font-weight:normal;line-height:125%;letter-spacing:0px;word-spacing:0px;fill:#000000;fill-opacity:1;stroke:none;font-family:Bitstream Vera Sans"
         id="text8040">
        <path
           d="m -98.172462,436.94467 1.257812,0 0,10.63672 -1.257812,0 0,-10.63672"
           id="path11620"
           inkscape:connector-curvature="0" />
        <path
           d="m -93.872658,446.41928 2.25586,0 0,-7.78613 -2.454102,0.49219 0,-1.25782 2.44043,-0.49218 1.380859,0 0,9.04394 2.255859,0 0,1.16211 -5.878906,0 0,-1.16211"
           id="path11622"
           inkscape:connector-curvature="0" />
        <path
           d="m -82.244728,438.28452 c -0.710941,0 -1.246423,0.35092 -1.606445,1.05273 -0.355472,0.69727 -0.533206,1.74773 -0.533204,3.15137 -2e-6,1.39909 0.177732,2.44954 0.533204,3.15136 0.360022,0.69727 0.895504,1.0459 1.606445,1.0459 0.71549,0 1.250971,-0.34863 1.606445,-1.0459 0.36002,-0.70182 0.540033,-1.75227 0.540039,-3.15136 -6e-6,-1.40364 -0.180019,-2.4541 -0.540039,-3.15137 -0.355474,-0.70181 -0.890955,-1.05273 -1.606445,-1.05273 m 0,-1.09375 c 1.143875,1e-5 2.016595,0.45346 2.618164,1.36035 0.606112,0.90235 0.909172,2.21485 0.90918,3.9375 -8e-6,1.7181 -0.303068,3.0306 -0.90918,3.9375 -0.601569,0.90234 -1.474289,1.35351 -2.618164,1.35351 -1.143884,0 -2.018883,-0.45117 -2.625,-1.35351 -0.601564,-0.9069 -0.902345,-2.2194 -0.902344,-3.9375 -1e-6,-1.72265 0.30078,-3.03515 0.902344,-3.9375 0.606117,-0.90689 1.481116,-1.36034 2.625,-1.36035"
           id="path11624"
           inkscape:connector-curvature="0" />
        <path
           d="m -70.097267,442.9603 0,4.62109 -1.257813,0 0,-4.58008 c -6e-6,-0.7246 -0.141282,-1.26692 -0.423828,-1.62695 -0.282558,-0.36002 -0.706385,-0.54003 -1.271484,-0.54004 -0.679041,1e-5 -1.214522,0.21648 -1.606445,0.64941 -0.39193,0.43295 -0.587894,1.02312 -0.587891,1.77051 l 0,4.32715 -1.264649,0 0,-7.65625 1.264649,0 0,1.18945 c 0.300778,-0.46028 0.653968,-0.80435 1.05957,-1.03222 0.410152,-0.22786 0.881832,-0.34179 1.415039,-0.3418 0.879552,1e-5 1.544916,0.27345 1.996094,0.82031 0.451164,0.54233 0.67675,1.34213 0.676758,2.39942"
           id="path11626"
           inkscape:connector-curvature="0" />
      </g>
    </g>
    <g
       id="g8076"
       transform="translate(280,-33.999988)">
      <rect
         inkscape:connector-avoid="true"
         rx="4.3780313"
         y="462.36215"
         x="-110"
         height="20"
         width="100"
         id="rect8044"
         style="fill:#7b57ff;fill-opacity:1;fill-rule:evenodd;stroke:none" />
      <g
         style="font-size:14px;font-style:normal;font-weight:normal;line-height:125%;letter-spacing:0px;word-spacing:0px;fill:#000000;fill-opacity:1;stroke:none;font-family:Bitstream Vera Sans"
         id="text8046">
        <path
           d="m -98.302345,474.55991 0,-4.63477 1.257812,0 0,4.58691 c -2e-6,0.72462 0.141274,1.26921 0.423828,1.63379 0.282549,0.36003 0.706377,0.54004 1.271485,0.54004 0.679031,0 1.214513,-0.21647 1.606445,-0.64941 0.396478,-0.43294 0.59472,-1.02311 0.594727,-1.77051 l 0,-4.34082 1.257812,0 0,7.65625 -1.257812,0 0,-1.17578 c -0.305345,0.46484 -0.660813,0.8112 -1.066407,1.03906 -0.401046,0.22331 -0.868168,0.33496 -1.401367,0.33496 -0.87956,0 -1.547203,-0.27343 -2.00293,-0.82031 -0.45573,-0.54687 -0.683594,-1.34668 -0.683593,-2.39941"
           id="path11607"
           inkscape:connector-curvature="0" />
        <path
           d="m -88.068947,476.43295 0,4.06055 -1.264648,0 0,-10.56836 1.264648,0 0,1.16211 c 0.26432,-0.45572 0.597002,-0.79296 0.998047,-1.01172 0.405595,-0.2233 0.888667,-0.33495 1.449219,-0.33496 0.929681,1e-5 1.683912,0.36915 2.262695,1.10742 0.583326,0.73829 0.874992,1.70899 0.875,2.91211 -8e-6,1.20313 -0.291674,2.17383 -0.875,2.91211 -0.578783,0.73828 -1.333014,1.10742 -2.262695,1.10742 -0.560552,0 -1.043624,-0.10937 -1.449219,-0.32812 -0.401045,-0.22331 -0.733727,-0.56283 -0.998047,-1.01856 m 4.279297,-2.67285 c -7e-6,-0.92512 -0.191413,-1.64973 -0.574219,-2.17383 -0.378261,-0.52864 -0.90007,-0.79296 -1.565429,-0.79297 -0.665369,1e-5 -1.189457,0.26433 -1.572266,0.79297 -0.378258,0.5241 -0.567385,1.24871 -0.567383,2.17383 -2e-6,0.92513 0.189125,1.65202 0.567383,2.18067 0.382809,0.52409 0.906897,0.78613 1.572266,0.78613 0.665359,0 1.187168,-0.26204 1.565429,-0.78613 0.382806,-0.52865 0.574212,-1.25554 0.574219,-2.18067"
           id="path11609"
           inkscape:connector-curvature="0" />
        <path
           d="m -80.399025,466.94467 1.257813,0 0,10.63672 -1.257813,0 0,-10.63672"
           id="path11611"
           inkscape:connector-curvature="0" />
        <path
           d="m -73.549416,470.80698 c -0.674482,0 -1.207685,0.26433 -1.599609,0.79297 -0.391929,0.52409 -0.587893,1.24414 -0.587891,2.16015 -2e-6,0.91602 0.193683,1.63835 0.581055,2.16699 0.391924,0.52409 0.927405,0.78614 1.606445,0.78614 0.669917,0 1.200841,-0.26433 1.592774,-0.79297 0.391921,-0.52865 0.587884,-1.2487 0.58789,-2.16016 -6e-6,-0.90689 -0.195969,-1.62467 -0.58789,-2.15332 -0.391933,-0.5332 -0.922857,-0.7998 -1.592774,-0.7998 m 0,-1.06641 c 1.093745,1e-5 1.952794,0.35548 2.577149,1.06641 0.624341,0.71094 0.936515,1.69531 0.936523,2.95312 -8e-6,1.25326 -0.312182,2.23763 -0.936523,2.95313 -0.624355,0.71093 -1.483404,1.0664 -2.577149,1.0664 -1.09831,0 -1.959637,-0.35547 -2.583984,-1.0664 -0.619793,-0.7155 -0.929688,-1.69987 -0.929687,-2.95313 -10e-7,-1.25781 0.309894,-2.24218 0.929687,-2.95312 0.624347,-0.71093 1.485674,-1.0664 2.583984,-1.06641"
           id="path11613"
           inkscape:connector-curvature="0" />
        <path
           d="m -64.478127,473.73276 c -1.016279,0 -1.72038,0.11621 -2.112304,0.34863 -0.39193,0.23243 -0.587893,0.62891 -0.587891,1.18945 -2e-6,0.44662 0.145831,0.80209 0.4375,1.06641 0.296221,0.25977 0.697263,0.38965 1.203125,0.38965 0.697261,0 1.255529,-0.24609 1.674805,-0.73828 0.423822,-0.49675 0.635736,-1.15527 0.635742,-1.97559 l 0,-0.28027 -1.250977,0 m 2.50879,-0.51953 0,4.36816 -1.257813,0 0,-1.16211 c -0.287115,0.46485 -0.644862,0.80892 -1.073242,1.03223 -0.42839,0.21875 -0.952478,0.32812 -1.572266,0.32812 -0.783857,0 -1.408205,-0.21875 -1.873047,-0.65625 -0.460287,-0.44205 -0.69043,-1.03222 -0.690429,-1.77051 -10e-7,-0.86132 0.287108,-1.51073 0.861328,-1.94824 0.578774,-0.43749 1.440101,-0.65624 2.583984,-0.65625 l 1.763672,0 0,-0.12304 c -6e-6,-0.57877 -0.191412,-1.02539 -0.574219,-1.33985 -0.37826,-0.319 -0.911463,-0.47851 -1.599609,-0.47851 -0.437504,0 -0.86361,0.0524 -1.27832,0.15722 -0.414716,0.10483 -0.813479,0.26205 -1.196289,0.47168 l 0,-1.16211 c 0.460284,-0.17772 0.906898,-0.30989 1.339843,-0.39648 0.43294,-0.0911 0.854489,-0.13671 1.264649,-0.13672 1.107416,1e-5 1.934564,0.28712 2.481445,0.86133 0.546868,0.57422 0.820305,1.44467 0.820313,2.61133"
           id="path11615"
           inkscape:connector-curvature="0" />
        <path
           d="m -54.333595,471.08725 0,-4.14258 1.257812,0 0,10.63672 -1.257812,0 0,-1.14844 c -0.264329,0.45573 -0.59929,0.79525 -1.004883,1.01856 -0.401047,0.21875 -0.884119,0.32812 -1.449219,0.32812 -0.925133,0 -1.679364,-0.36914 -2.262695,-1.10742 -0.578777,-0.73828 -0.868165,-1.70898 -0.868164,-2.91211 -10e-7,-1.20312 0.289387,-2.17382 0.868164,-2.91211 0.583331,-0.73827 1.337562,-1.10741 2.262695,-1.10742 0.5651,1e-5 1.048172,0.11166 1.449219,0.33496 0.405593,0.21876 0.740554,0.556 1.004883,1.01172 m -4.286133,2.67285 c -2e-6,0.92513 0.189125,1.65202 0.567383,2.18067 0.382809,0.52409 0.906897,0.78613 1.572265,0.78613 0.66536,0 1.189448,-0.26204 1.572266,-0.78613 0.382806,-0.52865 0.574212,-1.25554 0.574219,-2.18067 -7e-6,-0.92512 -0.191413,-1.64973 -0.574219,-2.17383 -0.382818,-0.52864 -0.906906,-0.79296 -1.572266,-0.79297 -0.665368,1e-5 -1.189456,0.26433 -1.572265,0.79297 -0.378258,0.5241 -0.567385,1.24871 -0.567383,2.17383"
           id="path11617"
           inkscape:connector-curvature="0" />
      </g>
    </g>
    <g
       id="g8061"
       transform="translate(0,-33.999988)">
      <rect
         inkscape:connector-avoid="true"
         rx="4.3780313"
         y="422.36215"
         x="170"
         height="20"
         width="280"
         id="rect8050"
         style="fill:#ef6f6f;fill-opacity:1;fill-rule:evenodd;stroke:none" />
      <g
         style="font-size:14px;font-style:normal;font-weight:normal;line-height:125%;letter-spacing:0px;word-spacing:0px;fill:#000000;fill-opacity:1;stroke:none;font-family:Bitstream Vera Sans"
         id="text8052">
        <path
           d="m 182.5795,433.7601 c 0,0.92513 0.18912,1.65202 0.56738,2.18067 0.38281,0.52409 0.9069,0.78613 1.57227,0.78613 0.66536,0 1.18944,-0.26204 1.57226,-0.78613 0.38281,-0.52865 0.57421,-1.25554 0.57422,-2.18067 -1e-5,-0.92512 -0.19141,-1.64973 -0.57422,-2.17383 -0.38282,-0.52864 -0.9069,-0.79296 -1.57226,-0.79297 -0.66537,1e-5 -1.18946,0.26433 -1.57227,0.79297 -0.37826,0.5241 -0.56738,1.24871 -0.56738,2.17383 m 4.28613,2.67285 c -0.26433,0.45573 -0.59929,0.79525 -1.00488,1.01856 -0.40105,0.21875 -0.88412,0.32812 -1.44922,0.32812 -0.92513,0 -1.67936,-0.36914 -2.2627,-1.10742 -0.57877,-0.73828 -0.86816,-1.70898 -0.86816,-2.91211 0,-1.20312 0.28939,-2.17382 0.86816,-2.91211 0.58334,-0.73827 1.33757,-1.10741 2.2627,-1.10742 0.5651,1e-5 1.04817,0.11166 1.44922,0.33496 0.40559,0.21876 0.74055,0.556 1.00488,1.01172 l 0,-1.16211 1.25781,0 0,10.56836 -1.25781,0 0,-4.06055"
           id="path11594"
           inkscape:connector-curvature="0" />
        <path
           d="m 194.19376,433.73276 c -1.01628,0 -1.72038,0.11621 -2.11231,0.34863 -0.39193,0.23243 -0.58789,0.62891 -0.58789,1.18945 0,0.44662 0.14583,0.80209 0.4375,1.06641 0.29622,0.25977 0.69726,0.38965 1.20313,0.38965 0.69726,0 1.25552,-0.24609 1.6748,-0.73828 0.42382,-0.49675 0.63574,-1.15527 0.63574,-1.97559 l 0,-0.28027 -1.25097,0 m 2.50879,-0.51953 0,4.36816 -1.25782,0 0,-1.16211 c -0.28711,0.46485 -0.64486,0.80892 -1.07324,1.03223 -0.42839,0.21875 -0.95248,0.32812 -1.57227,0.32812 -0.78385,0 -1.4082,-0.21875 -1.87304,-0.65625 -0.46029,-0.44205 -0.69043,-1.03222 -0.69043,-1.77051 0,-0.86132 0.28711,-1.51073 0.86133,-1.94824 0.57877,-0.43749 1.4401,-0.65624 2.58398,-0.65625 l 1.76367,0 0,-0.12304 c 0,-0.57877 -0.19141,-1.02539 -0.57422,-1.33985 -0.37826,-0.319 -0.91146,-0.47851 -1.59961,-0.47851 -0.4375,0 -0.86361,0.0524 -1.27832,0.15722 -0.41471,0.10483 -0.81347,0.26205 -1.19628,0.47168 l 0,-1.16211 c 0.46028,-0.17772 0.90689,-0.30989 1.33984,-0.39648 0.43294,-0.0911 0.85449,-0.13671 1.26465,-0.13672 1.10741,1e-5 1.93456,0.28712 2.48144,0.86133 0.54687,0.57422 0.82031,1.44467 0.82032,2.61133"
           id="path11596"
           inkscape:connector-curvature="0" />
        <path
           d="m 205.00137,427.75131 0,2.17383 2.59082,0 0,0.97754 -2.59082,0 0,4.15625 c 0,0.62435 0.0843,1.02539 0.25293,1.20312 0.17318,0.17774 0.52181,0.26661 1.0459,0.26661 l 1.29199,0 0,1.05273 -1.29199,0 c -0.9707,0 -1.64063,-0.18001 -2.00976,-0.54004 -0.36915,-0.36458 -0.55372,-1.02539 -0.55372,-1.98242 l 0,-4.15625 -0.92285,0 0,-0.97754 0.92285,0 0,-2.17383 1.26465,0"
           id="path11598"
           inkscape:connector-curvature="0" />
        <path
           d="m 215.80215,433.43881 0,0.61524 -5.7832,0 c 0.0547,0.86588 0.31445,1.52669 0.7793,1.98242 0.4694,0.45117 1.12109,0.67676 1.95508,0.67676 0.48306,0 0.95019,-0.0593 1.40136,-0.17774 0.45573,-0.11849 0.9069,-0.29622 1.35352,-0.5332 l 0,1.18945 c -0.45118,0.19141 -0.91374,0.33724 -1.3877,0.4375 -0.47396,0.10026 -0.95475,0.15039 -1.44238,0.15039 -1.22136,0 -2.18978,-0.35547 -2.90527,-1.0664 -0.71094,-0.71094 -1.06641,-1.67253 -1.06641,-2.88477 0,-1.25325 0.33724,-2.24674 1.01172,-2.98047 0.67903,-0.73827 1.59277,-1.10741 2.74121,-1.10742 1.02994,1e-5 1.84342,0.33269 2.44043,0.99805 0.60156,0.66081 0.90234,1.56087 0.90234,2.70019 m -1.25781,-0.36914 c -0.009,-0.68814 -0.2028,-1.2373 -0.58105,-1.64746 -0.37371,-0.41015 -0.87045,-0.61523 -1.49024,-0.61523 -0.70182,0 -1.26465,0.19825 -1.68847,0.59472 -0.41928,0.39649 -0.66081,0.95476 -0.72461,1.67481 l 4.48437,-0.007"
           id="path11600"
           inkscape:connector-curvature="0" />
        <path
           d="m 222.74747,430.15073 0,1.18945 c -0.35548,-0.18229 -0.72462,-0.319 -1.10742,-0.41016 -0.38282,-0.0911 -0.77931,-0.13671 -1.18946,-0.13672 -0.62435,1e-5 -1.09375,0.0957 -1.4082,0.28711 -0.3099,0.19142 -0.46485,0.47853 -0.46484,0.86133 -1e-5,0.29167 0.11165,0.52182 0.33496,0.69043 0.2233,0.16407 0.67219,0.3213 1.34668,0.47168 l 0.43066,0.0957 c 0.89322,0.19141 1.52669,0.46257 1.90039,0.81348 0.37825,0.34636 0.56738,0.83171 0.56738,1.45606 0,0.71093 -0.28256,1.27376 -0.84765,1.68847 -0.56056,0.41472 -1.33302,0.62207 -2.31739,0.62207 -0.41016,0 -0.83854,-0.041 -1.28515,-0.12304 -0.44206,-0.0775 -0.90918,-0.19597 -1.40137,-0.35547 l 0,-1.29883 c 0.46484,0.24154 0.92285,0.42383 1.37402,0.54687 0.45117,0.11849 0.89779,0.17774 1.33985,0.17774 0.59244,0 1.04817,-0.10026 1.36719,-0.30078 0.319,-0.20508 0.47851,-0.49219 0.47851,-0.86133 0,-0.3418 -0.11622,-0.60384 -0.34863,-0.78613 -0.22787,-0.18229 -0.73145,-0.35775 -1.51074,-0.52637 l -0.4375,-0.10254 c -0.7793,-0.16406 -1.34213,-0.41471 -1.68848,-0.75195 -0.34636,-0.3418 -0.51953,-0.80892 -0.51953,-1.40137 0,-0.72005 0.25521,-1.27604 0.76562,-1.66797 0.51042,-0.39192 1.23503,-0.58788 2.17383,-0.58789 0.46484,1e-5 0.90234,0.0342 1.3125,0.10254 0.41015,0.0684 0.78841,0.17091 1.13477,0.30762"
           id="path11602"
           inkscape:connector-curvature="0" />
        <path
           d="m 226.41153,427.75131 0,2.17383 2.59082,0 0,0.97754 -2.59082,0 0,4.15625 c 0,0.62435 0.0843,1.02539 0.25293,1.20312 0.17317,0.17774 0.52181,0.26661 1.0459,0.26661 l 1.29199,0 0,1.05273 -1.29199,0 c -0.97071,0 -1.64063,-0.18001 -2.00977,-0.54004 -0.36914,-0.36458 -0.55371,-1.02539 -0.55371,-1.98242 l 0,-4.15625 -0.92285,0 0,-0.97754 0.92285,0 0,-2.17383 1.26465,0"
           id="path11604"
           inkscape:connector-curvature="0" />
      </g>
    </g>
    <path
       style="fill:none;stroke:#000000;stroke-width:1px;stroke-linecap:butt;stroke-linejoin:miter;stroke-opacity:1;marker-end:url(#Arrow2Lend)"
       d="m 68.80383,474.36216 200,0"
       id="path3224"
       inkscape:connector-curvature="0" />
    <g
       style="font-size:14px;font-style:normal;font-variant:normal;font-weight:normal;font-stretch:normal;text-align:center;line-height:125%;letter-spacing:0px;word-spacing:0px;text-anchor:middle;fill:#000000;fill-opacity:1;stroke:none;font-family:Bitstream Vera Sans;-inkscape-font-specification:Bitstream Vera Sans"
       id="text4190">
      <path
         d="m 156.14752,461.61206 0,2.17383 2.59082,0 0,0.97754 -2.59082,0 0,4.15625 c 0,0.62435 0.0843,1.02539 0.25293,1.20312 0.17318,0.17774 0.52181,0.26661 1.0459,0.2666 l 1.29199,0 0,1.05274 -1.29199,0 c -0.97071,0 -1.64063,-0.18001 -2.00977,-0.54004 -0.36914,-0.36458 -0.55371,-1.02539 -0.55371,-1.98242 l 0,-4.15625 -0.92285,0 0,-0.97754 0.92285,0 0,-2.17383 1.26465,0"
         style=""
         id="path4195" />
      <path
         d="m 160.39948,463.78589 1.25781,0 0,7.65625 -1.25781,0 0,-7.65625 m 0,-2.98047 1.25781,0 0,1.59277 -1.25781,0 0,-1.59277"
         style=""
         id="path4197" />
      <path
         d="m 170.24323,465.25562 c 0.31444,-0.5651 0.69042,-0.98209 1.12792,-1.25098 0.4375,-0.26887 0.95247,-0.40331 1.54493,-0.40332 0.79751,1e-5 1.41275,0.28028 1.8457,0.84082 0.43293,0.55599 0.6494,1.34896 0.64941,2.3789 l 0,4.6211 -1.26464,0 0,-4.58008 c -2e-5,-0.73372 -0.1299,-1.27831 -0.38965,-1.63379 -0.25978,-0.35546 -0.65626,-0.53319 -1.18946,-0.5332 -0.6517,1e-5 -1.16667,0.21648 -1.54492,0.64941 -0.37826,0.43295 -0.56739,1.02312 -0.56738,1.77051 l 0,4.32715 -1.26465,0 0,-4.58008 c -1e-5,-0.73828 -0.12989,-1.28287 -0.38965,-1.63379 -0.25977,-0.35546 -0.66081,-0.53319 -1.20312,-0.5332 -0.64258,1e-5 -1.153,0.21875 -1.53125,0.65625 -0.37826,0.43295 -0.56739,1.02084 -0.56739,1.76367 l 0,4.32715 -1.26464,0 0,-7.65625 1.26464,0 0,1.18945 c 0.28711,-0.46939 0.63119,-0.81575 1.03223,-1.03906 0.40104,-0.2233 0.87728,-0.33495 1.42871,-0.33496 0.55599,1e-5 1.02767,0.14128 1.41504,0.42383 0.39192,0.28256 0.68131,0.69271 0.86817,1.23047"
         style=""
         id="path4199" />
      <path
         d="m 184.47565,467.29956 0,0.61523 -5.78321,0 c 0.0547,0.86589 0.31445,1.5267 0.7793,1.98243 0.4694,0.45117 1.12109,0.67676 1.95508,0.67675 0.48307,1e-5 0.95019,-0.0592 1.40137,-0.17773 0.45572,-0.11849 0.90689,-0.29622 1.35351,-0.5332 l 0,1.18945 c -0.45118,0.19141 -0.91374,0.33724 -1.38769,0.4375 -0.47397,0.10026 -0.95476,0.15039 -1.44239,0.15039 -1.22135,0 -2.18978,-0.35547 -2.90527,-1.06641 -0.71094,-0.71093 -1.06641,-1.67252 -1.06641,-2.88476 0,-1.25325 0.33724,-2.24674 1.01172,-2.98047 0.67904,-0.73827 1.59277,-1.10741 2.74121,-1.10742 1.02995,1e-5 1.84342,0.33269 2.44043,0.99805 0.60156,0.66081 0.90234,1.56087 0.90235,2.70019 m -1.25782,-0.36914 c -0.009,-0.68815 -0.2028,-1.2373 -0.58105,-1.64746 -0.3737,-0.41015 -0.87045,-0.61523 -1.49023,-0.61524 -0.70183,1e-5 -1.26466,0.19825 -1.68848,0.59473 -0.41927,0.39649 -0.66081,0.95476 -0.72461,1.67481 l 4.48437,-0.007"
         style=""
         id="path4201" />
    </g>
  </g>
</svg>
