<?xml version="1.0" encoding="UTF-8" standalone="no"?>
<!-- Created with Inkscape (http://www.inkscape.org/) -->

<svg
   xmlns:dc="http://purl.org/dc/elements/1.1/"
   xmlns:cc="http://creativecommons.org/ns#"
   xmlns:rdf="http://www.w3.org/1999/02/22-rdf-syntax-ns#"
   xmlns:svg="http://www.w3.org/2000/svg"
   xmlns="http://www.w3.org/2000/svg"
   xmlns:sodipodi="http://sodipodi.sourceforge.net/DTD/sodipodi-0.dtd"
   xmlns:inkscape="http://www.inkscape.org/namespaces/inkscape"
   width="900.95001"
   height="400"
   id="svg2"
   version="1.1"
   inkscape:version="0.48.2 r9819"
   sodipodi:docname="multiple-flocks.svg">
  <defs
     id="defs4" />
  <sodipodi:namedview
     id="base"
     pagecolor="#ffffff"
     bordercolor="#666666"
     borderopacity="1.0"
     inkscape:pageopacity="0.0"
     inkscape:pageshadow="2"
     inkscape:zoom="1.5716743"
     inkscape:cx="348.95553"
     inkscape:cy="200"
     inkscape:document-units="px"
     inkscape:current-layer="layer1"
     showgrid="true"
     inkscape:snap-grids="false"
     inkscape:window-width="1903"
     inkscape:window-height="1103"
     inkscape:window-x="125"
     inkscape:window-y="519"
     inkscape:window-maximized="0"
     fit-margin-top="0"
     fit-margin-left="0"
     fit-margin-right="0"
     fit-margin-bottom="0">
    <inkscape:grid
       type="xygrid"
       id="grid3039"
       empspacing="5"
       visible="true"
       enabled="true"
       snapvisiblegridlinesonly="true"
       originx="131.24452px"
       originy="-579.80223px" />
  </sodipodi:namedview>
  <metadata
     id="metadata7">
    <rdf:RDF>
      <cc:Work
         rdf:about="">
        <dc:format>image/svg+xml</dc:format>
        <dc:type
           rdf:resource="http://purl.org/dc/dcmitype/StillImage" />
        <dc:title />
      </cc:Work>
    </rdf:RDF>
  </metadata>
  <g
     inkscape:label="Layer 1"
     inkscape:groupmode="layer"
     id="layer1"
     transform="translate(131.24452,-72.559932)">
    <path
       style="fill:none;stroke:#000000;stroke-width:1.13872123px;stroke-linecap:butt;stroke-linejoin:miter;stroke-opacity:1"
       d="m -12.037766,184.03571 c 9.0176418,0 9.6867088,-21.25858 19.3542479,-21.25858"
       id="path18780"
       inkscape:connector-curvature="0"
       sodipodi:nodetypes="cc" />
    <path
       sodipodi:nodetypes="cc"
       inkscape:connector-curvature="0"
       id="path18782"
       d="m -12.037766,184.03571 c 9.0176418,0 9.6867088,21.79441 19.3542479,21.79441"
       style="fill:none;stroke:#000000;stroke-width:1.13872123px;stroke-linecap:butt;stroke-linejoin:miter;stroke-opacity:1" />
    <path
       style="fill:none;stroke:#000000;stroke-width:1.13872123px;stroke-linecap:butt;stroke-linejoin:miter;stroke-opacity:1"
       d="m 62.291065,205.88759 c 6.130522,0 25.776055,3.76191 33.996522,3.76191"
       id="path18784"
       inkscape:connector-curvature="0" />
    <path
       inkscape:connector-curvature="0"
       id="path18786"
       d="m 62.291065,205.88759 c 16.719604,0 59.911915,32.74256 110.349365,32.74256"
       style="fill:none;stroke:#000000;stroke-width:1.13872123px;stroke-linecap:butt;stroke-linejoin:miter;stroke-opacity:1"
       sodipodi:nodetypes="cc" />
    <path
       style="fill:none;stroke:#000000;stroke-width:1.13872123px;stroke-linecap:butt;stroke-linejoin:miter;stroke-opacity:1"
       d="m 61.455085,162.97394 c 9.056452,0 14.350993,16.85893 22.989455,16.85893"
       id="path18788"
       inkscape:connector-curvature="0" />
    <path
       inkscape:connector-curvature="0"
       id="path18790"
       d="m 61.455085,162.97394 c 9.056452,0 21.178164,-13.09703 29.816629,-13.09703"
       style="fill:none;stroke:#000000;stroke-width:1.13872123px;stroke-linecap:butt;stroke-linejoin:miter;stroke-opacity:1"
       sodipodi:nodetypes="cc" />
    <path
       style="fill:none;stroke:#000000;stroke-width:1.13872123px;stroke-linecap:butt;stroke-linejoin:miter;stroke-opacity:1"
       d="m 230.04442,150.01625 c 11.70372,0 8.91712,-11.42507 23.12878,-11.42507"
       id="path18792"
       inkscape:connector-curvature="0" />
    <path
       inkscape:connector-curvature="0"
       id="path18794"
       d="m 230.04442,150.01625 c 11.70372,0 11.98237,11.14639 26.19403,11.14639"
       style="fill:none;stroke:#000000;stroke-width:1.13872123px;stroke-linecap:butt;stroke-linejoin:miter;stroke-opacity:1"
       sodipodi:nodetypes="cc" />
    <path
       style="fill:none;stroke:#000000;stroke-width:1.13872123px;stroke-linecap:butt;stroke-linejoin:miter;stroke-opacity:1"
       d="m 349.03226,152.52419 c -8.91712,0 -12.26104,8.91712 -23.12878,8.91712"
       id="path18796"
       inkscape:connector-curvature="0" />
    <path
       inkscape:connector-curvature="0"
       id="path18798"
       d="m 349.03226,152.52419 c -8.91712,0 -13.09702,-13.93301 -23.96476,-13.93301"
       style="fill:none;stroke:#000000;stroke-width:1.13872123px;stroke-linecap:butt;stroke-linejoin:miter;stroke-opacity:1"
       sodipodi:nodetypes="cc" />
    <path
       style="fill:none;stroke:#000000;stroke-width:1.13872123px;stroke-linecap:butt;stroke-linejoin:miter;stroke-opacity:1"
       d="m 197.16253,209.37083 c 13.09703,0 61.02655,0 69.94367,0"
       id="path18800"
       inkscape:connector-curvature="0" />
    <path
       style="fill:none;stroke:#000000;stroke-width:1.13872123px;stroke-linecap:butt;stroke-linejoin:miter;stroke-opacity:1"
       d="m 271.60659,238.5512 c 6.68785,0.27867 9.47445,0.27867 16.16228,0.27867"
       id="path18802"
       inkscape:connector-curvature="0" />
    <path
       style="fill:none;stroke:#000000;stroke-width:1.13872123px;stroke-linecap:butt;stroke-linejoin:miter;stroke-opacity:1"
       d="m 306.67594,207.97754 c 7.52381,0 15.32629,0 19.22754,0"
       id="path18804"
       inkscape:connector-curvature="0" />
    <path
       style="fill:none;stroke:#000000;stroke-width:1.13872123px;stroke-linecap:butt;stroke-linejoin:miter;stroke-opacity:1"
       d="m 376.34095,151.40954 c 13.37568,0 36.50446,40.12705 55.73201,40.12705"
       id="path19314"
       inkscape:connector-curvature="0" />
    <path
       inkscape:connector-curvature="0"
       id="path19316"
       d="m 350.1469,207.97754 c 13.37568,0 62.69851,-16.44095 81.92606,-16.44095"
       style="fill:none;stroke:#000000;stroke-width:1.13872123px;stroke-linecap:butt;stroke-linejoin:miter;stroke-opacity:1"
       sodipodi:nodetypes="cc" />
    <path
       sodipodi:nodetypes="cc"
       style="fill:none;stroke:#000000;stroke-width:1.13872123px;stroke-linecap:butt;stroke-linejoin:miter;stroke-opacity:1"
       d="m 371.32507,238.90881 c 13.37568,0 41.52034,-47.37222 60.74789,-47.37222"
       id="path19318"
       inkscape:connector-curvature="0" />
    <path
       style="fill:none;stroke:#000000;stroke-width:1.13872123px;stroke-linecap:butt;stroke-linejoin:miter;stroke-opacity:1"
       d="m 462.27137,114.05184 c 11.58413,0 19.73591,16.30358 30.46196,16.30358"
       id="path19320"
       inkscape:connector-curvature="0" />
    <path
       inkscape:connector-curvature="0"
       id="path19322"
       d="m 462.27137,114.05184 c 11.58413,0 50.19787,-15.445505 60.92391,-15.445505"
       style="fill:none;stroke:#000000;stroke-width:1.13872123px;stroke-linecap:butt;stroke-linejoin:miter;stroke-opacity:1"
       sodipodi:nodetypes="cc" />
    <path
       sodipodi:nodetypes="csc"
       style="fill:none;stroke:#000000;stroke-width:1.13872123px;stroke-linecap:butt;stroke-linejoin:miter;stroke-opacity:1"
       d="m 462.27137,114.05184 c 8.35654,0 93.11676,3.85436 144.15863,3.85436 20.10022,0 30.1601,12.02018 35.18079,12.02018"
       id="path19324"
       inkscape:connector-curvature="0" />
    <path
       inkscape:connector-curvature="0"
       id="path19326"
       d="m 462.27137,114.05184 c 6.38687,0 93.01218,-4.74947 142.94884,-4.74947 43.03246,0 43.86268,-12.412202 60.41691,-12.412202"
       style="fill:none;stroke:#000000;stroke-width:1.13872123px;stroke-linecap:butt;stroke-linejoin:miter;stroke-opacity:1"
       sodipodi:nodetypes="csc" />
    <path
       sodipodi:nodetypes="csc"
       style="fill:none;stroke:#000000;stroke-width:1.13872123px;stroke-linecap:butt;stroke-linejoin:miter;stroke-opacity:1"
       d="m 462.27137,114.05184 c 16.09695,0 13.212,20.13835 34.18723,32.41074 18.03267,10.55072 49.31739,13.49672 65.77948,13.49672"
       id="path19328"
       inkscape:connector-curvature="0" />
    <path
       style="fill:none;stroke:#000000;stroke-width:1.13872123px;stroke-linecap:butt;stroke-linejoin:miter;stroke-opacity:1"
       d="m 364.44986,114.48087 c 28.31675,0 28.31675,0.42905 28.31675,0.42905"
       id="path19332"
       inkscape:connector-curvature="0" />
    <path
       style="fill:none;stroke:#000000;stroke-width:1.13872123px;stroke-linecap:butt;stroke-linejoin:miter;stroke-opacity:1"
       d="m -92.9255,340.89811 c 13.729334,0 16.303583,-19.73592 25.7425,-19.73592"
       id="path19334"
       inkscape:connector-curvature="0" />
    <path
       inkscape:connector-curvature="0"
       id="path19336"
       d="m -92.9255,340.89811 c 13.729334,0 17.590708,17.5907 27.029625,17.5907"
       style="fill:none;stroke:#000000;stroke-width:1.13872123px;stroke-linecap:butt;stroke-linejoin:miter;stroke-opacity:1"
       sodipodi:nodetypes="cc" />
    <path
       style="fill:none;stroke:#000000;stroke-width:1.13872123px;stroke-linecap:butt;stroke-linejoin:miter;stroke-opacity:1"
       d="m -12.69471,322.87836 c 9.8679636,0 17.1616636,0 28.316754,0"
       id="path19338"
       inkscape:connector-curvature="0" />
    <path
       style="fill:none;stroke:#000000;stroke-width:1.13872123px;stroke-linecap:butt;stroke-linejoin:miter;stroke-opacity:1"
       d="m -13.552793,357.4985 c 19.7359165,0 19.7359165,0.42903 19.7359165,0.42903"
       id="path19340"
       inkscape:connector-curvature="0" />
    <path
       style="fill:none;stroke:#000000;stroke-width:1.13872123px;stroke-linecap:butt;stroke-linejoin:miter;stroke-opacity:1"
       d="m 69.252243,358.70333 c 10.297,0 23.3642,-7.69992 28.7365,-7.69992"
       id="path19342"
       inkscape:connector-curvature="0" />
    <path
       inkscape:connector-curvature="0"
       id="path19344"
       d="m 69.252243,358.70333 c 10.297,0 22.93516,18.90067 28.30747,18.90067"
       style="fill:none;stroke:#000000;stroke-width:1.13872123px;stroke-linecap:butt;stroke-linejoin:miter;stroke-opacity:1"
       sodipodi:nodetypes="cc" />
    <path
       style="fill:none;stroke:#000000;stroke-width:1.13872123px;stroke-linecap:butt;stroke-linejoin:miter;stroke-opacity:1"
       d="m 78.691153,322.87836 c 6.22111,0 16.51811,4.93397 25.098947,4.93397"
       id="path19346"
       inkscape:connector-curvature="0" />
    <path
       inkscape:connector-curvature="0"
       id="path19348"
       d="m 78.691153,322.87836 c 6.22111,0 16.51811,-20.80853 25.098947,-20.80853"
       style="fill:none;stroke:#000000;stroke-width:1.13872123px;stroke-linecap:butt;stroke-linejoin:miter;stroke-opacity:1"
       sodipodi:nodetypes="cc" />
    <path
       sodipodi:nodetypes="cc"
       style="fill:none;stroke:#000000;stroke-width:1.13872123px;stroke-linecap:butt;stroke-linejoin:miter;stroke-opacity:1"
       d="m 78.691153,322.87836 c 6.22111,0 16.51811,-44.40581 25.098947,-44.40581"
       id="path19350"
       inkscape:connector-curvature="0" />
    <path
       style="fill:none;stroke:#000000;stroke-width:1.13872123px;stroke-linecap:butt;stroke-linejoin:miter;stroke-opacity:1"
       d="m 129.96164,278.04351 c 19.95044,0 19.95044,0 19.95044,0"
       id="path19352"
       inkscape:connector-curvature="0" />
    <path
       inkscape:connector-curvature="0"
       id="path19354"
       d="m 129.74713,301.6408 c 19.95043,0 19.95043,0 19.95043,0"
       style="fill:none;stroke:#000000;stroke-width:1.13872123px;stroke-linecap:butt;stroke-linejoin:miter;stroke-opacity:1" />
    <path
       style="fill:none;stroke:#000000;stroke-width:1.13872123px;stroke-linecap:butt;stroke-linejoin:miter;stroke-opacity:1"
       d="m 129.74713,328.4559 c 19.95043,0 19.95043,0 19.95043,0"
       id="path19356"
       inkscape:connector-curvature="0" />
    <path
       inkscape:connector-curvature="0"
       id="path19358"
       d="m 123.74055,351.62415 c 19.95043,0 19.95043,0 19.95043,0"
       style="fill:none;stroke:#000000;stroke-width:1.13872123px;stroke-linecap:butt;stroke-linejoin:miter;stroke-opacity:1" />
    <path
       style="fill:none;stroke:#000000;stroke-width:1.13872123px;stroke-linecap:butt;stroke-linejoin:miter;stroke-opacity:1"
       d="m 123.52602,376.7231 c 19.95043,0 19.95043,0 19.95043,0"
       id="path19360"
       inkscape:connector-curvature="0" />
    <path
       style="fill:none;stroke:#000000;stroke-width:1.13872123px;stroke-linecap:butt;stroke-linejoin:miter;stroke-opacity:1"
       d="m 129.74713,301.6408 c 19.95043,0 19.95043,0 19.95043,0"
       id="path19362"
       inkscape:connector-curvature="0" />
    <path
       style="fill:none;stroke:#000000;stroke-width:1.13872123px;stroke-linecap:butt;stroke-linejoin:miter;stroke-opacity:1"
       d="m 175.28384,302.40327 c 24.76083,0 108.70609,0 129.23947,0"
       id="path19368"
       inkscape:connector-curvature="0" />
    <path
       inkscape:connector-curvature="0"
       id="path19370"
       d="m 175.28384,277.64244 c 24.76083,0 108.70609,24.76083 129.23947,24.76083"
       style="fill:none;stroke:#000000;stroke-width:1.13872123px;stroke-linecap:butt;stroke-linejoin:miter;stroke-opacity:1"
       sodipodi:nodetypes="cc" />
    <path
       sodipodi:nodetypes="cc"
       style="fill:none;stroke:#000000;stroke-width:1.13872123px;stroke-linecap:butt;stroke-linejoin:miter;stroke-opacity:1"
       d="m 175.28384,328.97588 c 24.76083,0 108.70609,-26.57261 129.23947,-26.57261"
       id="path19372"
       inkscape:connector-curvature="0" />
    <path
       style="fill:none;stroke:#000000;stroke-width:1.13872123px;stroke-linecap:butt;stroke-linejoin:miter;stroke-opacity:1"
       d="m 169.84853,351.32103 c 7.85099,0 10.26669,11.47453 18.11768,11.47453"
       id="path19374"
       inkscape:connector-curvature="0" />
    <path
       inkscape:connector-curvature="0"
       id="path19376"
       d="m 169.84853,377.28971 c 7.85099,0 10.26669,-14.49415 18.11768,-14.49415"
       style="fill:none;stroke:#000000;stroke-width:1.13872123px;stroke-linecap:butt;stroke-linejoin:miter;stroke-opacity:1"
       sodipodi:nodetypes="cc" />
    <path
       inkscape:connector-curvature="0"
       id="path19378"
       d="m 390.3398,301.94276 c 19.95044,0 19.95044,0 19.95044,0"
       style="fill:none;stroke:#000000;stroke-width:1.13872123px;stroke-linecap:butt;stroke-linejoin:miter;stroke-opacity:1" />
    <path
       style="fill:none;stroke:#000000;stroke-width:1.13872123px;stroke-linecap:butt;stroke-linejoin:miter;stroke-opacity:1"
       d="m 292.50431,363.24092 c 19.95044,0 30.51909,0 30.51909,0"
       id="path19380"
       inkscape:connector-curvature="0"
       sodipodi:nodetypes="cc" />
    <path
       style="fill:none;stroke:#000000;stroke-width:1.13872123px;stroke-linecap:butt;stroke-linejoin:miter;stroke-opacity:1"
       d="m 368.60817,422.00176 c 9.96473,0 22.94906,0 31.40398,0"
       id="path19382"
       inkscape:connector-curvature="0" />
    <path
       style="fill:none;stroke:#000000;stroke-width:1.13872123px;stroke-linecap:butt;stroke-linejoin:miter;stroke-opacity:1"
       d="m 467.95347,422.60569 c 12.38041,0 35.9334,0 43.48243,0"
       id="path19384"
       inkscape:connector-curvature="0" />
    <path
       inkscape:connector-curvature="0"
       id="path19386"
       d="m 467.95347,422.60569 c 12.38041,0 35.9334,-22.34514 43.48243,-22.34514"
       style="fill:none;stroke:#000000;stroke-width:1.13872123px;stroke-linecap:butt;stroke-linejoin:miter;stroke-opacity:1"
       sodipodi:nodetypes="cc" />
    <path
       sodipodi:nodetypes="cc"
       style="fill:none;stroke:#000000;stroke-width:1.13872123px;stroke-linecap:butt;stroke-linejoin:miter;stroke-opacity:1"
       d="m 467.95347,422.60569 c 12.38041,0 35.9334,19.6275 43.48243,19.6275"
       id="path19388"
       inkscape:connector-curvature="0" />
    <path
       style="fill:none;stroke:#000000;stroke-width:1.13872123px;stroke-linecap:butt;stroke-linejoin:miter;stroke-opacity:1"
       d="m 566.69484,399.95857 c 9.96472,0 11.47453,12.07846 24.15691,12.07846"
       id="path19390"
       inkscape:connector-curvature="0" />
    <path
       inkscape:connector-curvature="0"
       id="path19392"
       d="m 556.42815,421.39783 c 9.96472,0 21.74122,-9.3608 34.4236,-9.3608"
       style="fill:none;stroke:#000000;stroke-width:1.13872123px;stroke-linecap:butt;stroke-linejoin:miter;stroke-opacity:1"
       sodipodi:nodetypes="cc" />
    <path
       style="fill:none;stroke:#000000;stroke-width:1.13872123px;stroke-linecap:butt;stroke-linejoin:miter;stroke-opacity:1"
       d="m 577.8674,441.62925 c 7.24709,0 26.27065,0 32.30987,0"
       id="path19394"
       inkscape:connector-curvature="0" />
    <path
       style="fill:none;stroke:#000000;stroke-width:1.13872123px;stroke-linecap:butt;stroke-linejoin:miter;stroke-opacity:1"
       d="m 680.53428,411.73507 c 9.96473,0 18.49978,17.54405 30.38718,17.54405"
       id="path19396"
       inkscape:connector-curvature="0" />
    <path
       inkscape:connector-curvature="0"
       id="path19398"
       d="m 685.96959,442.83708 c 9.96473,0 13.06447,-13.55796 24.95187,-13.55796"
       style="fill:none;stroke:#000000;stroke-width:1.13872123px;stroke-linecap:butt;stroke-linejoin:miter;stroke-opacity:1"
       sodipodi:nodetypes="cc" />
    <rect
       inkscape:connector-avoid="true"
       rx="2.7636907"
       y="155.23744"
       x="6.058805"
       height="15.203067"
       width="56.342472"
       id="rect4809"
       style="fill:#ff9955;fill-rule:evenodd;stroke:none" />
    <rect
       inkscape:connector-avoid="true"
       style="fill:#ef6f6f;fill-opacity:1;fill-rule:evenodd;stroke:none"
       id="rect4811"
       width="132.92996"
       height="15.203303"
       x="431.07553"
       y="184.07794"
       rx="2.0383232" />
    <rect
       inkscape:connector-avoid="true"
       style="fill:#76c5d9;fill-rule:evenodd;stroke:none;fill-opacity:1"
       id="rect7390"
       width="120.33887"
       height="15.203303"
       x="318.89151"
       y="355.60693"
       rx="2.0383232" />
    <rect
       rx="2.0383232"
       y="294.3783"
       x="407.20135"
       height="15.203303"
       width="102.35166"
       id="rect7392"
       style="fill:#76c5d9;fill-rule:evenodd;stroke:none;fill-opacity:1"
       inkscape:connector-avoid="true" />
    <rect
       inkscape:connector-avoid="true"
       style="fill:#76c5d9;fill-rule:evenodd;stroke:none;fill-opacity:1"
       id="rect7394"
       width="81.693497"
       height="15.203307"
       x="83.801262"
       y="171.60115"
       rx="2.0383232" />
    <rect
       inkscape:connector-avoid="true"
       style="fill:#76c5d9;fill-rule:evenodd;stroke:none;fill-opacity:1"
       id="rect7398"
       width="142.24963"
       height="15.203307"
       x="90.133873"
       y="142.35097"
       rx="2.0383232" />
    <rect
       rx="2.0383232"
       y="-370.81024"
       x="-294.92688"
       height="15.203303"
       width="107.84917"
       id="rect8241"
       style="fill:#e580ff;fill-opacity:1;fill-rule:evenodd;stroke:none"
       inkscape:connector-avoid="true"
       transform="scale(-1,-1)" />
    <rect
       transform="scale(-1,-1)"
       inkscape:connector-avoid="true"
       style="fill:#76c5d9;fill-opacity:1;fill-rule:evenodd;stroke:none"
       id="rect8243"
       width="89.760582"
       height="15.203302"
       x="-393.21323"
       y="-309.5816"
       rx="2.0383232" />
    <rect
       transform="scale(-1,-1)"
       inkscape:connector-avoid="true"
       style="fill:#e580ff;fill-opacity:1;fill-rule:evenodd;stroke:none"
       id="rect8247"
       width="74.497353"
       height="15.203303"
       x="-326.92279"
       y="-146.11821"
       rx="2.0383232" />
    <rect
       rx="2.0383232"
       y="-309.5816"
       x="-131.5011"
       height="15.203303"
       width="28.709885"
       id="rect8251"
       style="fill:#5fd35f;fill-opacity:1;fill-rule:evenodd;stroke:none"
       inkscape:connector-avoid="true"
       transform="scale(-1,-1)" />
    <rect
       transform="scale(-1,-1)"
       inkscape:connector-avoid="true"
       style="fill:#5fd35f;fill-opacity:1;fill-rule:evenodd;stroke:none"
       id="rect8259"
       width="28.709885"
       height="15.203303"
       x="-176.95203"
       y="-309.5816"
       rx="2.0383232" />
    <rect
       transform="scale(-1,-1)"
       inkscape:connector-avoid="true"
       style="fill:#5fd35f;fill-opacity:1;fill-rule:evenodd;stroke:none"
       id="rect8263"
       width="28.709885"
       height="15.203303"
       x="-131.5011"
       y="-286.05612"
       rx="2.0383232" />
    <rect
       rx="2.0383232"
       y="-286.05612"
       x="-176.95203"
       height="15.203303"
       width="28.709885"
       id="rect8265"
       style="fill:#5fd35f;fill-opacity:1;fill-rule:evenodd;stroke:none"
       inkscape:connector-avoid="true"
       transform="scale(-1,-1)" />
    <rect
       style="fill:#ff9955;fill-rule:evenodd;stroke:none"
       id="rect8288"
       width="56.342472"
       height="15.202665"
       x="6.058805"
       y="198.06442"
       rx="2.7636907"
       inkscape:connector-avoid="true" />
    <rect
       inkscape:connector-avoid="true"
       style="fill:#76c5d9;fill-rule:evenodd;stroke:none;fill-opacity:1"
       id="rect8290"
       width="102.35166"
       height="15.203303"
       x="95.856148"
       y="201.96342"
       rx="2.0383232" />
    <rect
       inkscape:connector-avoid="true"
       style="fill:#76c5d9;fill-rule:evenodd;stroke:none;fill-opacity:1"
       id="rect8292"
       width="102.35166"
       height="15.203303"
       x="172.18156"
       y="230.82504"
       rx="2.0383232" />
    <rect
       inkscape:connector-avoid="true"
       rx="2.7636907"
       y="314.22733"
       x="-68.686317"
       height="15.202665"
       width="56.342472"
       id="rect8294"
       style="fill:#ff9955;fill-rule:evenodd;stroke:none" />
    <rect
       style="fill:#ff9955;fill-rule:evenodd;stroke:none"
       id="rect8296"
       width="56.342472"
       height="15.202665"
       x="-67.786926"
       y="350.14893"
       rx="2.7636907"
       inkscape:connector-avoid="true" />
    <rect
       inkscape:connector-avoid="true"
       rx="2.7636907"
       y="392.5582"
       x="511.22574"
       height="15.202665"
       width="56.342472"
       id="rect8298"
       style="fill:#ff9955;fill-rule:evenodd;stroke:none" />
    <rect
       style="fill:#ff9955;fill-rule:evenodd;stroke:none"
       id="rect8300"
       width="46.449497"
       height="15.202665"
       x="511.22574"
       y="413.51859"
       rx="2.7636907"
       inkscape:connector-avoid="true" />
    <rect
       inkscape:connector-avoid="true"
       rx="2.7636907"
       y="433.97562"
       x="511.22574"
       height="15.202665"
       width="67.134819"
       id="rect8302"
       style="fill:#ff9955;fill-rule:evenodd;stroke:none" />
    <rect
       rx="2.0383232"
       y="314.71082"
       x="14.571552"
       height="15.20329"
       width="64.93914"
       id="rect8306"
       style="fill:#76c5d9;fill-rule:evenodd;stroke:none;fill-opacity:1"
       inkscape:connector-avoid="true" />
    <rect
       inkscape:connector-avoid="true"
       style="fill:#76c5d9;fill-rule:evenodd;stroke:none;fill-opacity:1"
       id="rect8308"
       width="68.101753"
       height="15.20329"
       x="3.341831"
       y="350.14893"
       rx="2.0383232" />
    <rect
       rx="2.0383232"
       y="-168.46272"
       x="-327.82214"
       height="15.203303"
       width="74.497353"
       id="rect8310"
       style="fill:#e580ff;fill-opacity:1;fill-rule:evenodd;stroke:none"
       inkscape:connector-avoid="true"
       transform="scale(-1,-1)" />
    <rect
       transform="scale(-1,-1)"
       inkscape:connector-avoid="true"
       style="fill:#e580ff;fill-opacity:1;fill-rule:evenodd;stroke:none"
       id="rect8312"
       width="85.289726"
       height="15.203303"
       x="-372.96835"
       y="-245.46623"
       rx="2.0383232" />
    <rect
       transform="scale(-1,-1)"
       inkscape:connector-avoid="true"
       style="fill:#e580ff;fill-opacity:1;fill-rule:evenodd;stroke:none"
       id="rect8314"
       width="42.120312"
       height="15.203303"
       x="-308.3537"
       y="-215.84492"
       rx="2.0383232" />
    <rect
       transform="scale(-1,-1)"
       inkscape:connector-avoid="true"
       style="fill:#5fd35f;fill-opacity:1;fill-rule:evenodd;stroke:none"
       id="rect8316"
       width="28.709885"
       height="15.203303"
       x="-125.01553"
       y="-358.92572"
       rx="2.0383232" />
    <rect
       rx="2.0383232"
       y="-358.92572"
       x="-170.46646"
       height="15.203303"
       width="28.709885"
       id="rect8318"
       style="fill:#5fd35f;fill-opacity:1;fill-rule:evenodd;stroke:none"
       inkscape:connector-avoid="true"
       transform="scale(-1,-1)" />
    <rect
       rx="2.0383232"
       y="-335.40027"
       x="-131.5011"
       height="15.203303"
       width="28.709885"
       id="rect8320"
       style="fill:#5fd35f;fill-opacity:1;fill-rule:evenodd;stroke:none"
       inkscape:connector-avoid="true"
       transform="scale(-1,-1)" />
    <rect
       transform="scale(-1,-1)"
       inkscape:connector-avoid="true"
       style="fill:#5fd35f;fill-opacity:1;fill-rule:evenodd;stroke:none"
       id="rect8322"
       width="28.709885"
       height="15.203303"
       x="-176.95203"
       y="-335.40027"
       rx="2.0383232" />
    <rect
       rx="2.0383232"
       y="-384.06329"
       x="-125.01553"
       height="15.203303"
       width="28.709885"
       id="rect8324"
       style="fill:#5fd35f;fill-opacity:1;fill-rule:evenodd;stroke:none"
       inkscape:connector-avoid="true"
       transform="scale(-1,-1)" />
    <rect
       transform="scale(-1,-1)"
       inkscape:connector-avoid="true"
       style="fill:#5fd35f;fill-opacity:1;fill-rule:evenodd;stroke:none"
       id="rect8326"
       width="28.709885"
       height="15.203303"
       x="-170.46646"
       y="-384.06329"
       rx="2.0383232" />
    <rect
       transform="scale(-1,-1)"
       inkscape:connector-avoid="true"
       style="fill:#e580ff;fill-opacity:1;fill-rule:evenodd;stroke:none"
       id="rect8328"
       width="91.171471"
       height="15.203303"
       x="-681.18182"
       y="-419.75626"
       rx="2.0383232" />
    <rect
       rx="2.0383232"
       y="-449.17886"
       x="-686.99274"
       height="15.203263"
       width="76.781738"
       id="rect8330"
       style="fill:#e580ff;fill-opacity:1;fill-rule:evenodd;stroke:none"
       inkscape:connector-avoid="true"
       transform="scale(-1,-1)" />
    <rect
       rx="2.0383232"
       y="-215.30545"
       x="-351.04306"
       height="15.203303"
       width="28.709885"
       id="rect8332"
       style="fill:#5fd35f;fill-opacity:1;fill-rule:evenodd;stroke:none"
       inkscape:connector-avoid="true"
       transform="scale(-1,-1)" />
    <rect
       transform="scale(-1,-1)"
       inkscape:connector-avoid="true"
       style="fill:#5fd35f;fill-opacity:1;fill-rule:evenodd;stroke:none"
       id="rect8334"
       width="28.709885"
       height="15.203303"
       x="-377.08575"
       y="-158.92044"
       rx="2.0383232" />
    <rect
       inkscape:connector-avoid="true"
       rx="2.7636907"
       y="413.89597"
       x="398.19507"
       height="15.202665"
       width="71.631622"
       id="rect8336"
       style="fill:#ff9955;fill-rule:evenodd;stroke:none" />
    <rect
       style="fill:#ff9955;fill-rule:evenodd;stroke:none"
       id="rect8338"
       width="71.631622"
       height="15.202665"
       x="391.84467"
       y="106.68182"
       rx="2.7636907"
       inkscape:connector-avoid="true" />
    <rect
       rx="2.0383232"
       y="-335.40027"
       x="-176.95203"
       height="15.203303"
       width="28.709885"
       id="rect8354"
       style="fill:#5fd35f;fill-opacity:1;fill-rule:evenodd;stroke:none"
       inkscape:connector-avoid="true"
       transform="scale(-1,-1)" />
    <rect
       rx="2.0383232"
       y="122.68416"
       x="491.17239"
       height="15.203303"
       width="102.35166"
       id="rect8373"
       style="fill:#76c5d9;fill-rule:evenodd;stroke:none;fill-opacity:1"
       inkscape:connector-avoid="true" />
    <rect
       inkscape:connector-avoid="true"
       style="fill:#76c5d9;fill-rule:evenodd;stroke:none;fill-opacity:1"
       id="rect8375"
       width="102.35166"
       height="15.203303"
       x="521.75073"
       y="91.029472"
       rx="2.0383232" />
    <rect
       rx="2.0383232"
       y="152.47685"
       x="561.32269"
       height="15.203303"
       width="65.477829"
       id="rect8377"
       style="fill:#76c5d9;fill-rule:evenodd;stroke:none;fill-opacity:1"
       inkscape:connector-avoid="true" />
    <rect
       rx="2.0383232"
       y="120.82213"
       x="640.46649"
       height="15.203313"
       width="91.559319"
       id="rect8379"
       style="fill:#76c5d9;fill-rule:evenodd;stroke:none;fill-opacity:1"
       inkscape:connector-avoid="true" />
    <rect
       inkscape:connector-avoid="true"
       style="fill:#76c5d9;fill-rule:evenodd;stroke:none;fill-opacity:1"
       id="rect8381"
       width="69.974632"
       height="15.203303"
       x="662.9505"
       y="89.167435"
       rx="2.0383232" />
    <rect
       transform="scale(-1,-1)"
       inkscape:connector-avoid="true"
       style="fill:#7b57ff;fill-opacity:1;fill-rule:evenodd;stroke:none"
       id="rect3931"
       width="28.709885"
       height="15.203303"
       x="-739.08514"
       y="-435.84286"
       rx="2.0383232" />
    <path
       style="fill:none;stroke:#000000;stroke-width:0.79710484;stroke-linecap:butt;stroke-linejoin:miter;stroke-miterlimit:4;stroke-opacity:1;stroke-dasharray:0.79710482, 0.79710482;stroke-dashoffset:0"
       d="m -14.630525,400.6296 c 110.738148,7.70564 221.464025,-4.79453 334.438045,-10.63664 65.21209,-3.37225 116.87547,-2.96253 171.92629,-30.02791 33.775,-24.35131 53.25776,-47.3761 29.64139,-83.45541 -22.91749,-22.93357 -57.59498,-13.06279 -86.1487,-11.47076 -72.6801,7.79373 -134.63275,35.66898 -207.1186,13.05694 -26.70389,-8.04397 -38.79371,-9.42791 -88.34195,-9.42791 -59.514827,0 -68.565317,4.42334 -97.766227,15.31168 -48.8358265,16.56377 -103.061864,7.83953 -150.255853,29.94641 -17.83009,15.29831 -6.5449,41.61887 9.335875,53.63816 23.597745,19.20314 54.287945,29.68419 84.28973,33.06544 z"
       id="path19400"
       inkscape:connector-curvature="0"
       sodipodi:nodetypes="csccccscccc" />
    <path
       style="fill:none;stroke:#000000;stroke-width:0.79710484;stroke-linecap:butt;stroke-linejoin:miter;stroke-miterlimit:4;stroke-opacity:1;stroke-dasharray:0.79710483, 0.79710483;stroke-dashoffset:0"
       d="m 577.86611,189.70785 c -14.56833,-20.14971 -46.45174,-14.2984 -68.80239,-16.2676 -29.26505,-0.44931 -59.14239,11.22759 -87.69681,-0.1253 -17.3265,-4.8869 -26.92062,-17.26692 -40.07858,-28.62888 -46.10015,-28.50404 -106.01802,-16.24709 -157.4338,-19.22908 -65.42132,-0.30679 -128.767888,23.33621 -194.510037,14.90688 -27.0275494,-3.15734 -55.099497,18.42077 -50.176897,47.25971 0.56369,24.38063 19.6817138,47.54821 44.928204,48.1665 30.055959,4.57547 60.889502,0.22574 90.66733,7.37221 80.76087,9.36471 162.23433,4.96996 243.32206,5.55893 27.06081,0.24082 54.75788,-1.99365 79.16008,-14.64217 29.19616,-13.17491 60.13651,-22.66231 92.29597,-24.2541 15.28918,-3.48277 43.77956,-1.15373 48.32487,-20.1171 z"
       id="path19417"
       inkscape:connector-curvature="0"
       sodipodi:nodetypes="ccccccccccccc" />
    <path
       style="fill:none;stroke:#000000;stroke-width:0.79710484;stroke-linecap:butt;stroke-linejoin:miter;stroke-miterlimit:4;stroke-opacity:1;stroke-dasharray:0.79710483, 0.79710483;stroke-dashoffset:0"
       d="m 349.43431,415.97332 c 0.5501,-5.61082 32.14956,-16.96042 91.17439,-16.96042 46.77129,0 61.53418,-10.97931 104.4643,-11.57704 29.21617,-0.40678 87.42546,8.66222 115.45756,11.07038 21.31374,1.831 93.74595,5.82921 93.74595,28.04224 0,48.62702 -188.4352,33.4575 -207.01667,33.4575 -37.4195,0 -74.69771,-15.96382 -106.00927,-15.40818 -72.31387,1.28323 -93.35419,-12.93788 -91.81626,-28.62448 z"
       id="path19440"
       inkscape:connector-curvature="0"
       sodipodi:nodetypes="ssssssss" />
    <path
       sodipodi:type="star"
       style="fill:#ffff00;fill-opacity:1;stroke:#ff0000;stroke-width:0.69999999;stroke-miterlimit:4;stroke-opacity:1;stroke-dasharray:none;stroke-dashoffset:0"
       id="path19461"
       sodipodi:sides="5"
       sodipodi:cx="54.082451"
       sodipodi:cy="117.49872"
       sodipodi:r1="5.3212028"
       sodipodi:r2="2.3618257"
       sodipodi:arg1="-0.89649848"
       sodipodi:arg2="-0.27034645"
       inkscape:flatsided="false"
       inkscape:rounded="0"
       inkscape:randomized="0"
       d="m 57.404738,113.34208 -1.046247,3.52588 2.703797,2.50597 -3.676612,0.0945 -1.547804,3.34585 -1.226024,-3.46746 -3.660392,-0.43813 2.918887,-2.23752 -0.714442,-3.61663 3.029995,2.0846 z"
       transform="translate(-68.254371,66.197291)"
       inkscape:transform-center-x="0.413801"
       inkscape:transform-center-y="0.413801" />
    <path
       inkscape:transform-center-y="0.413801"
       inkscape:transform-center-x="0.413801"
       transform="translate(-147.78738,222.08201)"
       d="m 57.404738,113.34208 -1.046247,3.52588 2.703797,2.50597 -3.676612,0.0945 -1.547804,3.34585 -1.226024,-3.46746 -3.660392,-0.43813 2.918887,-2.23752 -0.714442,-3.61663 3.029995,2.0846 z"
       inkscape:randomized="0"
       inkscape:rounded="0"
       inkscape:flatsided="false"
       sodipodi:arg2="-0.27034645"
       sodipodi:arg1="-0.89649848"
       sodipodi:r2="2.3618257"
       sodipodi:r1="5.3212028"
       sodipodi:cy="117.49872"
       sodipodi:cx="54.082451"
       sodipodi:sides="5"
       id="path19463"
       style="fill:#ffff00;fill-opacity:1;stroke:#ff0000;stroke-width:0.69999999;stroke-miterlimit:4;stroke-opacity:1;stroke-dasharray:none;stroke-dashoffset:0"
       sodipodi:type="star" />
    <path
       sodipodi:type="star"
       style="fill:#ffff00;fill-opacity:1;stroke:#ff0000;stroke-width:0.69999999;stroke-miterlimit:4;stroke-opacity:1;stroke-dasharray:none;stroke-dashoffset:0"
       id="path19465"
       sodipodi:sides="5"
       sodipodi:cx="54.082451"
       sodipodi:cy="117.49872"
       sodipodi:r1="5.3212028"
       sodipodi:r2="2.3618257"
       sodipodi:arg1="-0.89649848"
       sodipodi:arg2="-0.27034645"
       inkscape:flatsided="false"
       inkscape:rounded="0"
       inkscape:randomized="0"
       d="m 57.404738,113.34208 -1.046247,3.52588 2.703797,2.50597 -3.676612,0.0945 -1.547804,3.34585 -1.226024,-3.46746 -3.660392,-0.43813 2.918887,-2.23752 -0.714442,-3.61663 3.029995,2.0846 z"
       transform="translate(312.23158,304.16008)"
       inkscape:transform-center-x="0.413801"
       inkscape:transform-center-y="0.413801" />
    <path
       inkscape:transform-center-y="0.413801"
       inkscape:transform-center-x="0.413801"
       transform="translate(309.68652,-2.5192314)"
       d="m 57.404738,113.34208 -1.046247,3.52588 2.703797,2.50597 -3.676612,0.0945 -1.547804,3.34585 -1.226024,-3.46746 -3.660392,-0.43813 2.918887,-2.23752 -0.714442,-3.61663 3.029995,2.0846 z"
       inkscape:randomized="0"
       inkscape:rounded="0"
       inkscape:flatsided="false"
       sodipodi:arg2="-0.27034645"
       sodipodi:arg1="-0.89649848"
       sodipodi:r2="2.3618257"
       sodipodi:r1="5.3212028"
       sodipodi:cy="117.49872"
       sodipodi:cx="54.082451"
       sodipodi:sides="5"
       id="path19467"
       style="fill:#ffff00;fill-opacity:1;stroke:#ff0000;stroke-width:0.69999999;stroke-miterlimit:4;stroke-opacity:1;stroke-dasharray:none;stroke-dashoffset:0"
       sodipodi:type="star" />
    <path
       style="fill:none;stroke:#000000;stroke-width:0.7;stroke-linecap:butt;stroke-linejoin:miter;stroke-opacity:1;stroke-miterlimit:4;stroke-dasharray:0.7,0.7;stroke-dashoffset:0"
       d="m 353.58875,114.97949 c 0,18.96677 62.58859,10.37839 114.90488,28.8859 11.10268,3.92771 81.92169,31.76741 127.47709,31.76741 60.33336,0 38.50446,-22.76854 94.89967,-29.11317 36.66297,-4.12468 55.56144,1.38954 55.56144,-32.37811 0,-29.23233 -7.85519,-36.292255 -49.92154,-36.904457 -41.3162,-0.601285 -113.26429,5.930035 -139.28787,6.782318 -99.91589,3.272285 -203.63367,6.09187 -203.63367,30.960109 z"
       id="path19469"
       inkscape:connector-curvature="0"
       sodipodi:nodetypes="ssssssss" />
  </g>
</svg>
