<?xml version="1.0" encoding="UTF-8" standalone="no"?>
<!-- Created with Inkscape (http://www.inkscape.org/) -->

<svg
   xmlns:dc="http://purl.org/dc/elements/1.1/"
   xmlns:cc="http://creativecommons.org/ns#"
   xmlns:rdf="http://www.w3.org/1999/02/22-rdf-syntax-ns#"
   xmlns:svg="http://www.w3.org/2000/svg"
   xmlns="http://www.w3.org/2000/svg"
   xmlns:xlink="http://www.w3.org/1999/xlink"
   xmlns:sodipodi="http://sodipodi.sourceforge.net/DTD/sodipodi-0.dtd"
   xmlns:inkscape="http://www.inkscape.org/namespaces/inkscape"
   width="900.40002"
   height="310.57001"
   id="svg2"
   version="1.1"
   inkscape:version="0.48.2 r9819"
   sodipodi:docname="real-world-1.svg">
  <defs
     id="defs4">
    <linearGradient
       inkscape:collect="always"
       id="linearGradient5513">
      <stop
         style="stop-color:#000000;stop-opacity:1;"
         offset="0"
         id="stop5515" />
      <stop
         style="stop-color:#000000;stop-opacity:0;"
         offset="1"
         id="stop5517" />
    </linearGradient>
    <marker
       inkscape:stockid="Arrow1Mend"
       orient="auto"
       refY="0"
       refX="0"
       id="Arrow1Mend"
       style="overflow:visible">
      <path
         id="path3886"
         d="M 0,0 5,-5 -12.5,0 5,5 0,0 z"
         style="fill-rule:evenodd;stroke:#000000;stroke-width:1pt"
         transform="matrix(-0.4,0,0,-0.4,-4,0)"
         inkscape:connector-curvature="0" />
    </marker>
    <marker
       inkscape:stockid="Arrow2Lend"
       orient="auto"
       refY="0"
       refX="0"
       id="Arrow2Lend"
       style="overflow:visible">
      <path
         id="path3898"
         style="fill-rule:evenodd;stroke-width:0.625;stroke-linejoin:round"
         d="M 8.7185878,4.0337352 -2.2072895,0.01601326 8.7185884,-4.0017078 c -1.7454984,2.3720609 -1.7354408,5.6174519 -6e-7,8.035443 z"
         transform="matrix(-1.1,0,0,-1.1,-1.1,0)"
         inkscape:connector-curvature="0" />
    </marker>
    <linearGradient
       inkscape:collect="always"
       xlink:href="#linearGradient5513"
       id="linearGradient5519"
       x1="-104.35545"
       y1="220.96759"
       x2="-242.31973"
       y2="325.20728"
       gradientUnits="userSpaceOnUse" />
  </defs>
  <sodipodi:namedview
     id="base"
     pagecolor="#ffffff"
     bordercolor="#666666"
     borderopacity="1.0"
     inkscape:pageopacity="0.0"
     inkscape:pageshadow="2"
     inkscape:zoom="1.6270546"
     inkscape:cx="450.20001"
     inkscape:cy="155.285"
     inkscape:document-units="px"
     inkscape:current-layer="g8326"
     showgrid="true"
     inkscape:snap-grids="true"
     inkscape:window-width="1596"
     inkscape:window-height="861"
     inkscape:window-x="434"
     inkscape:window-y="699"
     inkscape:window-maximized="0"
     fit-margin-top="0"
     fit-margin-left="0"
     fit-margin-right="0"
     fit-margin-bottom="0"
     inkscape:snap-nodes="false"
     inkscape:snap-to-guides="false">
    <inkscape:grid
       type="xygrid"
       id="grid3039"
       empspacing="5"
       visible="true"
       enabled="true"
       snapvisiblegridlinesonly="true"
       originx="128.48318px"
       originy="-568.24046px" />
  </sodipodi:namedview>
  <metadata
     id="metadata7">
    <rdf:RDF>
      <cc:Work
         rdf:about="">
        <dc:format>image/svg+xml</dc:format>
        <dc:type
           rdf:resource="http://purl.org/dc/dcmitype/StillImage" />
        <dc:title />
      </cc:Work>
    </rdf:RDF>
  </metadata>
  <g
     inkscape:label="Layer 1"
     inkscape:groupmode="layer"
     id="layer1"
     transform="translate(128.48318,-173.55169)">
    <path
       sodipodi:type="star"
       style="fill:#ffff00;fill-opacity:1;stroke:#fa9c13;stroke-opacity:1"
       id="path4847"
       sodipodi:sides="5"
       sodipodi:cx="-1"
       sodipodi:cy="-19.451782"
       sodipodi:r1="9.4423094"
       sodipodi:r2="5.315073"
       sodipodi:arg1="-0.51477966"
       sodipodi:arg2="0.11353887"
       inkscape:flatsided="false"
       inkscape:rounded="0"
       inkscape:randomized="0"
       d="m 7.2185977,-24.100638 -2.9377464,5.251027 1.6801595,5.777604 -5.90183729,-1.171306 -4.97562991,3.383305 -0.7097897,-5.974935 -4.7552679,-3.686607 5.4631632,-2.521406 2.0367127,-5.661752 4.0862102,4.416619 z"
       transform="translate(-106.33314,242.82171)"
       inkscape:transform-center-x="0.29691494"
       inkscape:transform-center-y="0.72855058" />
    <g
       style="font-size:12px;font-style:normal;font-variant:normal;font-weight:normal;font-stretch:normal;text-align:start;line-height:125%;letter-spacing:0px;word-spacing:0px;writing-mode:lr-tb;text-anchor:start;fill:#5f5f5f;fill-opacity:1;stroke:none;font-family:Waree;-inkscape-font-specification:Waree"
       id="text5231">
      <path
         d="m -88.20507,221.18602 0,1.00781 c -0.304694,-0.16796 -0.611334,-0.29296 -0.919922,-0.375 -0.304692,-0.0859 -0.613286,-0.1289 -0.925782,-0.1289 -0.699222,0 -1.24219,0.22266 -1.628906,0.66796 -0.386721,0.44142 -0.58008,1.06251 -0.580078,1.86329 -2e-6,0.80078 0.193357,1.42383 0.580078,1.86914 0.386716,0.4414 0.929684,0.66211 1.628906,0.66211 0.312496,0 0.62109,-0.041 0.925782,-0.12305 0.308588,-0.0859 0.615228,-0.21289 0.919922,-0.38086 l 0,0.99609 c -0.300787,0.14063 -0.613287,0.2461 -0.9375,0.31641 -0.320318,0.0703 -0.662114,0.10547 -1.025391,0.10547 -0.988284,0 -1.77344,-0.31055 -2.355469,-0.93164 -0.582032,-0.62109 -0.873047,-1.45898 -0.873047,-2.51367 0,-1.07031 0.292968,-1.91211 0.878907,-2.52539 0.589841,-0.61328 1.396481,-0.91992 2.419921,-0.91993 0.332027,1e-5 0.656246,0.0352 0.972657,0.10547 0.316401,0.0664 0.623041,0.16798 0.919922,0.30469"
         style=""
         id="path12660" />
      <path
         d="m -83.775383,221.68993 c -0.578128,0 -1.035159,0.22656 -1.371094,0.67968 -0.335939,0.44923 -0.503908,1.06641 -0.503906,1.85157 -2e-6,0.78515 0.166014,1.40429 0.498047,1.85742 0.335935,0.44922 0.794919,0.67383 1.376953,0.67383 0.574215,0 1.029292,-0.22657 1.365234,-0.67969 0.335933,-0.45312 0.503901,-1.07031 0.503907,-1.85156 -6e-6,-0.77734 -0.167974,-1.39258 -0.503907,-1.84571 -0.335942,-0.45702 -0.791019,-0.68554 -1.365234,-0.68554 m 0,-0.91407 c 0.937495,1e-5 1.673823,0.3047 2.208984,0.91407 0.53515,0.60938 0.802728,1.45313 0.802735,2.53125 -7e-6,1.07422 -0.267585,1.91797 -0.802735,2.53125 -0.535161,0.60937 -1.271489,0.91406 -2.208984,0.91406 -0.941409,0 -1.679689,-0.30469 -2.214844,-0.91406 -0.531251,-0.61328 -0.796875,-1.45703 -0.796875,-2.53125 0,-1.07812 0.265624,-1.92187 0.796875,-2.53125 0.535155,-0.60937 1.273435,-0.91406 2.214844,-0.91407"
         style=""
         id="path12662" />
      <path
         d="m -73.873039,222.19383 c 0.269524,-0.48437 0.59179,-0.84179 0.966797,-1.07226 0.374992,-0.23047 0.816398,-0.3457 1.324218,-0.34571 0.683585,1e-5 1.210928,0.24024 1.582032,0.72071 0.371083,0.47656 0.55663,1.15625 0.55664,2.03906 l 0,3.96094 -1.083984,0 0,-3.92578 c -10e-6,-0.62891 -0.111338,-1.0957 -0.333984,-1.4004 -0.222666,-0.30468 -0.562509,-0.45702 -1.019532,-0.45703 -0.558601,1e-5 -1.000007,0.18556 -1.324218,0.55664 -0.324226,0.3711 -0.486335,0.87696 -0.486329,1.51758 l 0,3.70899 -1.083984,0 0,-3.92578 c -5e-6,-0.63281 -0.111333,-1.09961 -0.333984,-1.4004 -0.222661,-0.30468 -0.566411,-0.45702 -1.03125,-0.45703 -0.550785,1e-5 -0.988285,0.18751 -1.3125,0.5625 -0.324221,0.3711 -0.486331,0.87501 -0.486328,1.51172 l 0,3.70899 -1.083985,0 0,-6.5625 1.083985,0 0,1.01953 c 0.246091,-0.40234 0.541012,-0.69921 0.884765,-0.89063 0.343747,-0.1914 0.751949,-0.2871 1.22461,-0.28711 0.476557,1e-5 0.880854,0.1211 1.21289,0.36328 0.335932,0.2422 0.583978,0.59376 0.744141,1.05469"
         style=""
         id="path12664" />
      <path
         d="m -62.177727,222.19383 c 0.269525,-0.48437 0.59179,-0.84179 0.966797,-1.07226 0.374993,-0.23047 0.816398,-0.3457 1.324219,-0.34571 0.683584,1e-5 1.210928,0.24024 1.582031,0.72071 0.371083,0.47656 0.55663,1.15625 0.556641,2.03906 l 0,3.96094 -1.083985,0 0,-3.92578 c -9e-6,-0.62891 -0.111337,-1.0957 -0.333984,-1.4004 -0.222665,-0.30468 -0.562509,-0.45702 -1.019531,-0.45703 -0.558602,1e-5 -1.000007,0.18556 -1.324219,0.55664 -0.324225,0.3711 -0.486335,0.87696 -0.486328,1.51758 l 0,3.70899 -1.083984,0 0,-3.92578 c -6e-6,-0.63281 -0.111334,-1.09961 -0.333985,-1.4004 -0.222661,-0.30468 -0.566411,-0.45702 -1.03125,-0.45703 -0.550785,1e-5 -0.988284,0.18751 -1.3125,0.5625 -0.324221,0.3711 -0.48633,0.87501 -0.486328,1.51172 l 0,3.70899 -1.083984,0 0,-6.5625 1.083984,0 0,1.01953 c 0.246091,-0.40234 0.541013,-0.69921 0.884766,-0.89063 0.343746,-0.1914 0.751949,-0.2871 1.224609,-0.28711 0.476558,1e-5 0.880854,0.1211 1.212891,0.36328 0.335931,0.2422 0.583978,0.59376 0.74414,1.05469"
         style=""
         id="path12666" />
      <path
         d="m -55.591789,220.93407 1.078125,0 0,6.5625 -1.078125,0 0,-6.5625 m 0,-2.55469 1.078125,0 0,1.36523 -1.078125,0 0,-1.36523"
         style=""
         id="path12668" />
      <path
         d="m -51.197258,219.07079 0,1.86328 2.220703,0 0,0.83789 -2.220703,0 0,3.5625 c -2e-6,0.53516 0.07226,0.8789 0.216797,1.03125 0.148435,0.15234 0.447263,0.22851 0.896484,0.22851 l 1.107422,0 0,0.90235 -1.107422,0 c -0.832033,0 -1.406252,-0.1543 -1.722656,-0.46289 -0.316408,-0.3125 -0.47461,-0.87891 -0.474609,-1.69922 l 0,-3.5625 -0.791016,0 0,-0.83789 0.791016,0 0,-1.86328 1.083984,0"
         style=""
         id="path12670" />
    </g>
    <g
       id="g8289"
       transform="translate(24.965404,48.632619)">
      <rect
         style="fill:#ff9955;fill-rule:evenodd;stroke:none"
         id="rect8283"
         width="503.82306"
         height="20"
         x="-100"
         y="202.36217"
         rx="4.8850002"
         inkscape:connector-avoid="true" />
      <g
         style="font-size:14px;font-style:normal;font-weight:normal;line-height:125%;letter-spacing:0px;word-spacing:0px;fill:#000000;fill-opacity:1;stroke:none;font-family:Bitstream Vera Sans"
         id="text8285">
        <path
           d="m -88.18457,214.50572 c -7e-6,-0.92512 -0.191413,-1.64973 -0.574219,-2.17383 -0.378261,-0.52864 -0.900071,-0.79296 -1.56543,-0.79296 -0.665368,0 -1.189456,0.26432 -1.572265,0.79296 -0.378258,0.5241 -0.567386,1.24871 -0.567383,2.17383 -3e-6,0.92514 0.189125,1.65202 0.567383,2.18067 0.382809,0.52409 0.906897,0.78613 1.572265,0.78613 0.665359,0 1.187169,-0.26204 1.56543,-0.78613 0.382806,-0.52865 0.574212,-1.25553 0.574219,-2.18067 m -4.279297,-2.67285 c 0.26432,-0.45572 0.597002,-0.79296 0.998047,-1.01172 0.405595,-0.2233 0.888667,-0.33495 1.449218,-0.33496 0.929682,1e-5 1.683913,0.36915 2.262696,1.10742 0.583325,0.73829 0.874992,1.70899 0.875,2.91211 -8e-6,1.20313 -0.291675,2.17383 -0.875,2.91211 -0.578783,0.73828 -1.333014,1.10742 -2.262696,1.10742 -0.560551,0 -1.043623,-0.10937 -1.449218,-0.32812 -0.401045,-0.22331 -0.733727,-0.56283 -0.998047,-1.01856 l 0,1.14844 -1.264649,0 0,-10.63672 1.264649,0 0,4.14258"
           style=""
           id="path12637" />
        <path
           d="m -84.923828,215.30553 0,-4.63477 1.257812,0 0,4.58692 c -2e-6,0.72461 0.141274,1.2692 0.423829,1.63378 0.282548,0.36003 0.706376,0.54004 1.271484,0.54004 0.679032,0 1.214513,-0.21647 1.606445,-0.64941 0.396478,-0.43294 0.59472,-1.02311 0.594727,-1.77051 l 0,-4.34082 1.257812,0 0,7.65625 -1.257812,0 0,-1.17578 c -0.305345,0.46484 -0.660813,0.8112 -1.066406,1.03906 -0.401047,0.22331 -0.868169,0.33496 -1.401368,0.33496 -0.87956,0 -1.547203,-0.27343 -2.002929,-0.82031 -0.455731,-0.54687 -0.683595,-1.34668 -0.683594,-2.39941"
           style=""
           id="path12639" />
        <path
           d="m -75.907227,210.67076 1.257813,0 0,7.65625 -1.257813,0 0,-7.65625 m 0,-2.98047 1.257813,0 0,1.59278 -1.257813,0 0,-1.59278"
           style=""
           id="path12641" />
        <path
           d="m -72.024414,207.69029 1.257812,0 0,10.63672 -1.257812,0 0,-10.63672"
           style=""
           id="path12643" />
        <path
           d="m -63.103516,211.83287 0,-4.14258 1.257813,0 0,10.63672 -1.257813,0 0,-1.14844 c -0.264329,0.45573 -0.599289,0.79525 -1.004882,1.01856 -0.401047,0.21875 -0.884119,0.32812 -1.449219,0.32812 -0.925133,0 -1.679364,-0.36914 -2.262695,-1.10742 -0.578778,-0.73828 -0.868165,-1.70898 -0.868165,-2.91211 0,-1.20312 0.289387,-2.17382 0.868165,-2.91211 0.583331,-0.73827 1.337562,-1.10741 2.262695,-1.10742 0.5651,1e-5 1.048172,0.11166 1.449219,0.33496 0.405593,0.21876 0.740553,0.556 1.004882,1.01172 m -4.286132,2.67285 c -3e-6,0.92514 0.189125,1.65202 0.567382,2.18067 0.38281,0.52409 0.906898,0.78613 1.572266,0.78613 0.66536,0 1.189448,-0.26204 1.572266,-0.78613 0.382806,-0.52865 0.574212,-1.25553 0.574218,-2.18067 -6e-6,-0.92512 -0.191412,-1.64973 -0.574218,-2.17383 -0.382818,-0.52864 -0.906906,-0.79296 -1.572266,-0.79296 -0.665368,0 -1.189456,0.26432 -1.572266,0.79296 -0.378257,0.5241 -0.567385,1.24871 -0.567382,2.17383"
           style=""
           id="path12645" />
        <path
           d="m -55.433594,213.9315 3.684571,0 0,1.1211 -3.684571,0 0,-1.1211"
           style=""
           id="path12647" />
        <path
           d="m -46.013672,210.67076 1.257813,0 1.572265,5.97461 1.56543,-5.97461 1.483398,0 1.572266,5.97461 1.56543,-5.97461 1.257812,0 -2.002929,7.65625 -1.483399,0 -1.647461,-6.27539 -1.654297,6.27539 -1.483398,0 -2.00293,-7.65625"
           style=""
           id="path12649" />
        <path
           d="m -33.825195,210.67076 1.257812,0 0,7.65625 -1.257812,0 0,-7.65625 m 0,-2.98047 1.257812,0 0,1.59278 -1.257812,0 0,-1.59278"
           style=""
           id="path12651" />
        <path
           d="m -23.578125,213.70592 0,4.62109 -1.257812,0 0,-4.58008 c -7e-6,-0.7246 -0.141283,-1.26692 -0.423829,-1.62695 -0.282557,-0.36002 -0.706385,-0.54003 -1.271484,-0.54004 -0.679041,1e-5 -1.214522,0.21648 -1.606445,0.64941 -0.39193,0.43295 -0.587893,1.02312 -0.587891,1.77051 l 0,4.32715 -1.264648,0 0,-7.65625 1.264648,0 0,1.18945 c 0.300778,-0.46028 0.653968,-0.80435 1.05957,-1.03222 0.410153,-0.22786 0.881832,-0.34179 1.415039,-0.3418 0.879552,1e-5 1.544916,0.27345 1.996094,0.82031 0.451165,0.54233 0.67675,1.34213 0.676758,2.39942"
           style=""
           id="path12653" />
        <path
           d="m -16.694336,212.82408 c 0.660801,0.14128 1.175774,0.43523 1.544922,0.88184 0.37369,0.44662 0.560539,0.99805 0.560547,1.65429 -8e-6,1.00717 -0.346362,1.78646 -1.039063,2.33789 -0.692714,0.55144 -1.677088,0.82715 -2.953125,0.82715 -0.428388,0 -0.870445,-0.0433 -1.326172,-0.12988 -0.451173,-0.082 -0.918295,-0.20736 -1.401367,-0.37598 l 0,-1.333 c 0.382811,0.2233 0.802082,0.39192 1.257813,0.50586 0.455726,0.11393 0.931963,0.17089 1.428711,0.17089 0.86588,0 1.524408,-0.17089 1.975586,-0.51269 0.455723,-0.3418 0.683587,-0.83854 0.683593,-1.49024 -6e-6,-0.60155 -0.21192,-1.07096 -0.635742,-1.4082 -0.419276,-0.34179 -1.004887,-0.51269 -1.756836,-0.51269 l -1.189453,0 0,-1.13477 1.244141,0 c 0.679031,1e-5 1.198562,-0.13443 1.558594,-0.40332 0.36002,-0.27343 0.540032,-0.66536 0.540039,-1.17578 -7e-6,-0.52408 -0.186855,-0.92512 -0.560547,-1.20313 -0.369146,-0.28254 -0.90007,-0.42382 -1.592774,-0.42382 -0.378259,0 -0.783857,0.041 -1.216797,0.12304 -0.432945,0.082 -0.909181,0.20965 -1.428711,0.38281 l 0,-1.23046 c 0.524087,-0.14583 1.013995,-0.2552 1.469727,-0.32813 0.460283,-0.0729 0.893225,-0.10936 1.298828,-0.10937 1.048172,1e-5 1.877598,0.23926 2.488281,0.71777 0.61067,0.47397 0.916008,1.11654 0.916016,1.92773 -8e-6,0.56512 -0.161791,1.04363 -0.485352,1.43555 -0.323574,0.38738 -0.78386,0.65626 -1.380859,0.80664"
           style=""
           id="path12655" />
        <path
           d="m -10.774414,217.1649 4.8193359,0 0,1.16211 -6.4804689,0 0,-1.16211 c 0.524087,-0.54231 1.237303,-1.2692 2.139649,-2.18066 0.9068965,-0.91601 1.4765574,-1.50618 1.7089839,-1.77051 0.442052,-0.49674 0.7496689,-0.91601 0.9228516,-1.25781 0.1777284,-0.34635 0.2665955,-0.68587 0.2666016,-1.01856 -6.1e-6,-0.54231 -0.1914122,-0.98436 -0.5742188,-1.32617 -0.3782603,-0.34179 -0.872726,-0.51269 -1.4833984,-0.51269 -0.4329463,0 -0.8909539,0.0752 -1.3740239,0.22558 -0.478517,0.1504 -0.991212,0.37827 -1.538086,0.6836 l 0,-1.39454 c 0.555988,-0.22329 1.075519,-0.39191 1.558594,-0.50586 0.48307,-0.11392 0.9251269,-0.17088 1.3261721,-0.17089 1.0572867,1e-5 1.9003848,0.26433 2.5292969,0.79296 0.6288991,0.52866 0.9433519,1.23504 0.9433594,2.11915 -7.5e-6,0.41927 -0.07976,0.81804 -0.2392578,1.19628 -0.154955,0.37371 -0.4397855,0.81577 -0.8544922,1.32618 -0.1139386,0.13216 -0.4762429,0.51497 -1.0869141,1.14843 -0.6106817,0.62891 -1.472009,1.51075 -2.5839843,2.64551"
           style=""
           id="path12657" />
      </g>
    </g>
    <g
       id="g8326"
       transform="translate(24.965404,102.06993)">
      <rect
         inkscape:connector-avoid="true"
         rx="4.8850002"
         y="202.36217"
         x="-100"
         height="20"
         width="405.61136"
         id="rect8328"
         style="fill:#ff9955;fill-rule:evenodd;stroke:none" />
      <g
         style="font-size:14px;font-style:normal;font-weight:normal;line-height:125%;letter-spacing:0px;word-spacing:0px;fill:#000000;fill-opacity:1;stroke:none;font-family:Bitstream Vera Sans"
         id="text8330">
        <path
           d="m -88.18457,214.50572 c -7e-6,-0.92512 -0.191413,-1.64973 -0.574219,-2.17383 -0.378261,-0.52864 -0.900071,-0.79296 -1.56543,-0.79296 -0.665368,0 -1.189456,0.26432 -1.572265,0.79296 -0.378258,0.5241 -0.567386,1.24871 -0.567383,2.17383 -3e-6,0.92514 0.189125,1.65202 0.567383,2.18067 0.382809,0.52409 0.906897,0.78613 1.572265,0.78613 0.665359,0 1.187169,-0.26204 1.56543,-0.78613 0.382806,-0.52865 0.574212,-1.25553 0.574219,-2.18067 m -4.279297,-2.67285 c 0.26432,-0.45572 0.597002,-0.79296 0.998047,-1.01172 0.405595,-0.2233 0.888667,-0.33495 1.449218,-0.33496 0.929682,1e-5 1.683913,0.36915 2.262696,1.10742 0.583325,0.73829 0.874992,1.70899 0.875,2.91211 -8e-6,1.20313 -0.291675,2.17383 -0.875,2.91211 -0.578783,0.73828 -1.333014,1.10742 -2.262696,1.10742 -0.560551,0 -1.043623,-0.10937 -1.449218,-0.32812 -0.401045,-0.22331 -0.733727,-0.56283 -0.998047,-1.01856 l 0,1.14844 -1.264649,0 0,-10.63672 1.264649,0 0,4.14258"
           style=""
           id="path12618" />
        <path
           d="m -84.923828,215.30553 0,-4.63477 1.257812,0 0,4.58692 c -2e-6,0.72461 0.141274,1.2692 0.423829,1.63378 0.282548,0.36003 0.706376,0.54004 1.271484,0.54004 0.679032,0 1.214513,-0.21647 1.606445,-0.64941 0.396478,-0.43294 0.59472,-1.02311 0.594727,-1.77051 l 0,-4.34082 1.257812,0 0,7.65625 -1.257812,0 0,-1.17578 c -0.305345,0.46484 -0.660813,0.8112 -1.066406,1.03906 -0.401047,0.22331 -0.868169,0.33496 -1.401368,0.33496 -0.87956,0 -1.547203,-0.27343 -2.002929,-0.82031 -0.455731,-0.54687 -0.683595,-1.34668 -0.683594,-2.39941"
           style=""
           id="path12620" />
        <path
           d="m -75.907227,210.67076 1.257813,0 0,7.65625 -1.257813,0 0,-7.65625 m 0,-2.98047 1.257813,0 0,1.59278 -1.257813,0 0,-1.59278"
           style=""
           id="path12622" />
        <path
           d="m -72.024414,207.69029 1.257812,0 0,10.63672 -1.257812,0 0,-10.63672"
           style=""
           id="path12624" />
        <path
           d="m -63.103516,211.83287 0,-4.14258 1.257813,0 0,10.63672 -1.257813,0 0,-1.14844 c -0.264329,0.45573 -0.599289,0.79525 -1.004882,1.01856 -0.401047,0.21875 -0.884119,0.32812 -1.449219,0.32812 -0.925133,0 -1.679364,-0.36914 -2.262695,-1.10742 -0.578778,-0.73828 -0.868165,-1.70898 -0.868165,-2.91211 0,-1.20312 0.289387,-2.17382 0.868165,-2.91211 0.583331,-0.73827 1.337562,-1.10741 2.262695,-1.10742 0.5651,1e-5 1.048172,0.11166 1.449219,0.33496 0.405593,0.21876 0.740553,0.556 1.004882,1.01172 m -4.286132,2.67285 c -3e-6,0.92514 0.189125,1.65202 0.567382,2.18067 0.38281,0.52409 0.906898,0.78613 1.572266,0.78613 0.66536,0 1.189448,-0.26204 1.572266,-0.78613 0.382806,-0.52865 0.574212,-1.25553 0.574218,-2.18067 -6e-6,-0.92512 -0.191412,-1.64973 -0.574218,-2.17383 -0.382818,-0.52864 -0.906906,-0.79296 -1.572266,-0.79296 -0.665368,0 -1.189456,0.26432 -1.572266,0.79296 -0.378257,0.5241 -0.567385,1.24871 -0.567382,2.17383"
           style=""
           id="path12626" />
        <path
           d="m -55.433594,213.9315 3.684571,0 0,1.1211 -3.684571,0 0,-1.1211"
           style=""
           id="path12628" />
        <path
           d="m -41.084961,209.05748 c -1.002609,1e-5 -1.800134,0.37371 -2.392578,1.12109 -0.587893,0.74741 -0.881838,1.76596 -0.881836,3.05567 -2e-6,1.28516 0.293943,2.30143 0.881836,3.04883 0.592444,0.74739 1.389969,1.12109 2.392578,1.12109 1.002598,0 1.795566,-0.3737 2.378906,-1.12109 0.587882,-0.7474 0.881827,-1.76367 0.881836,-3.04883 -9e-6,-1.28971 -0.293954,-2.30826 -0.881836,-3.05567 -0.58334,-0.74738 -1.376308,-1.12108 -2.378906,-1.12109 m 0,-1.12109 c 1.430983,1e-5 2.574862,0.4808 3.431641,1.44238 0.856761,0.95704 1.285146,2.24219 1.285156,3.85547 -1e-5,1.60873 -0.428395,2.89388 -1.285156,3.85547 -0.856779,0.95703 -2.000658,1.43554 -3.431641,1.43554 -1.435551,0 -2.583987,-0.47851 -3.445312,-1.43554 -0.856772,-0.95703 -1.285157,-2.24219 -1.285157,-3.85547 0,-1.61328 0.428385,-2.89843 1.285157,-3.85547 0.861325,-0.96158 2.009761,-1.44237 3.445312,-1.44238"
           style=""
           id="path12630" />
        <path
           d="m -28.089844,208.45592 0,1.34668 c -0.524095,-0.25065 -1.018561,-0.43749 -1.483398,-0.56055 -0.464849,-0.12304 -0.913742,-0.18456 -1.34668,-0.18457 -0.751957,1e-5 -1.333011,0.14584 -1.743164,0.4375 -0.405601,0.29168 -0.608401,0.70639 -0.608398,1.24414 -3e-6,0.45118 0.134437,0.79298 0.40332,1.02539 0.273434,0.22787 0.788408,0.41244 1.544922,0.55371 l 0.833984,0.1709 c 1.029942,0.19597 1.78873,0.54232 2.276367,1.03906 0.49218,0.49219 0.738274,1.153 0.738282,1.98242 -8e-6,0.98894 -0.33269,1.73861 -0.998047,2.24903 -0.660814,0.51042 -1.631516,0.76562 -2.91211,0.76562 -0.483076,0 -0.99805,-0.0547 -1.544921,-0.16406 -0.54232,-0.10937 -1.105145,-0.27116 -1.688477,-0.48535 l 0,-1.42188 c 0.560545,0.31446 1.109698,0.55144 1.647461,0.71094 0.537757,0.15951 1.066402,0.23926 1.585937,0.23926 0.788407,0 1.396805,-0.15495 1.825196,-0.46484 0.428379,-0.3099 0.642571,-0.75196 0.642578,-1.32618 -7e-6,-0.50129 -0.154955,-0.89322 -0.464844,-1.17578 -0.305344,-0.28255 -0.808925,-0.49446 -1.510742,-0.63574 l -0.84082,-0.16406 c -1.029951,-0.20508 -1.775068,-0.52636 -2.235352,-0.96387 -0.460288,-0.43749 -0.690431,-1.04589 -0.69043,-1.82519 -10e-7,-0.90234 0.316731,-1.61328 0.950196,-2.13282 0.638018,-0.51952 1.515296,-0.77928 2.631836,-0.77929 0.47851,1e-5 0.96614,0.0433 1.46289,0.12988 0.496739,0.0866 1.004876,0.21648 1.524414,0.38965"
           style=""
           id="path12632" />
        <path
           d="m -21.356445,208.12096 1.483398,0 2.536133,3.79394 2.549805,-3.79394 1.483398,0 -3.28125,4.90136 3.5,5.30469 -1.483398,0 -2.871094,-4.34082 -2.891602,4.34082 -1.490234,0 3.643555,-5.44824 -3.178711,-4.75781"
           style=""
           id="path12634" />
      </g>
    </g>
    <g
       transform="translate(74.965404,155.50723)"
       id="g8334">
      <rect
         style="fill:#ff9955;fill-rule:evenodd;stroke:none"
         id="rect8336"
         width="219.24234"
         height="20"
         x="-100"
         y="202.36217"
         rx="4.8850002"
         inkscape:connector-avoid="true" />
      <g
         style="font-size:14px;font-style:normal;font-weight:normal;line-height:125%;letter-spacing:0px;word-spacing:0px;fill:#000000;fill-opacity:1;stroke:none;font-family:Bitstream Vera Sans"
         id="text8338">
        <path
           d="m -88.18457,214.50572 c -7e-6,-0.92512 -0.191413,-1.64973 -0.574219,-2.17383 -0.378261,-0.52864 -0.900071,-0.79296 -1.56543,-0.79296 -0.665368,0 -1.189456,0.26432 -1.572265,0.79296 -0.378258,0.5241 -0.567386,1.24871 -0.567383,2.17383 -3e-6,0.92514 0.189125,1.65202 0.567383,2.18067 0.382809,0.52409 0.906897,0.78613 1.572265,0.78613 0.665359,0 1.187169,-0.26204 1.56543,-0.78613 0.382806,-0.52865 0.574212,-1.25553 0.574219,-2.18067 m -4.279297,-2.67285 c 0.26432,-0.45572 0.597002,-0.79296 0.998047,-1.01172 0.405595,-0.2233 0.888667,-0.33495 1.449218,-0.33496 0.929682,1e-5 1.683913,0.36915 2.262696,1.10742 0.583325,0.73829 0.874992,1.70899 0.875,2.91211 -8e-6,1.20313 -0.291675,2.17383 -0.875,2.91211 -0.578783,0.73828 -1.333014,1.10742 -2.262696,1.10742 -0.560551,0 -1.043623,-0.10937 -1.449218,-0.32812 -0.401045,-0.22331 -0.733727,-0.56283 -0.998047,-1.01856 l 0,1.14844 -1.264649,0 0,-10.63672 1.264649,0 0,4.14258"
           style=""
           id="path12595" />
        <path
           d="m -84.923828,215.30553 0,-4.63477 1.257812,0 0,4.58692 c -2e-6,0.72461 0.141274,1.2692 0.423829,1.63378 0.282548,0.36003 0.706376,0.54004 1.271484,0.54004 0.679032,0 1.214513,-0.21647 1.606445,-0.64941 0.396478,-0.43294 0.59472,-1.02311 0.594727,-1.77051 l 0,-4.34082 1.257812,0 0,7.65625 -1.257812,0 0,-1.17578 c -0.305345,0.46484 -0.660813,0.8112 -1.066406,1.03906 -0.401047,0.22331 -0.868169,0.33496 -1.401368,0.33496 -0.87956,0 -1.547203,-0.27343 -2.002929,-0.82031 -0.455731,-0.54687 -0.683595,-1.34668 -0.683594,-2.39941"
           style=""
           id="path12597" />
        <path
           d="m -75.907227,210.67076 1.257813,0 0,7.65625 -1.257813,0 0,-7.65625 m 0,-2.98047 1.257813,0 0,1.59278 -1.257813,0 0,-1.59278"
           style=""
           id="path12599" />
        <path
           d="m -72.024414,207.69029 1.257812,0 0,10.63672 -1.257812,0 0,-10.63672"
           style=""
           id="path12601" />
        <path
           d="m -63.103516,211.83287 0,-4.14258 1.257813,0 0,10.63672 -1.257813,0 0,-1.14844 c -0.264329,0.45573 -0.599289,0.79525 -1.004882,1.01856 -0.401047,0.21875 -0.884119,0.32812 -1.449219,0.32812 -0.925133,0 -1.679364,-0.36914 -2.262695,-1.10742 -0.578778,-0.73828 -0.868165,-1.70898 -0.868165,-2.91211 0,-1.20312 0.289387,-2.17382 0.868165,-2.91211 0.583331,-0.73827 1.337562,-1.10741 2.262695,-1.10742 0.5651,1e-5 1.048172,0.11166 1.449219,0.33496 0.405593,0.21876 0.740553,0.556 1.004882,1.01172 m -4.286132,2.67285 c -3e-6,0.92514 0.189125,1.65202 0.567382,2.18067 0.38281,0.52409 0.906898,0.78613 1.572266,0.78613 0.66536,0 1.189448,-0.26204 1.572266,-0.78613 0.382806,-0.52865 0.574212,-1.25553 0.574218,-2.18067 -6e-6,-0.92512 -0.191412,-1.64973 -0.574218,-2.17383 -0.382818,-0.52864 -0.906906,-0.79296 -1.572266,-0.79296 -0.665368,0 -1.189456,0.26432 -1.572266,0.79296 -0.378257,0.5241 -0.567385,1.24871 -0.567382,2.17383"
           style=""
           id="path12603" />
        <path
           d="m -55.433594,213.9315 3.684571,0 0,1.1211 -3.684571,0 0,-1.1211"
           style=""
           id="path12605" />
        <path
           d="m -45.227539,208.12096 1.380859,0 0,9.04394 4.969727,0 0,1.16211 -6.350586,0 0,-10.20605"
           style=""
           id="path12607" />
        <path
           d="m -37.489258,210.67076 1.257813,0 0,7.65625 -1.257813,0 0,-7.65625 m 0,-2.98047 1.257813,0 0,1.59278 -1.257813,0 0,-1.59278"
           style=""
           id="path12609" />
        <path
           d="m -27.242187,213.70592 0,4.62109 -1.257813,0 0,-4.58008 c -6e-6,-0.7246 -0.141282,-1.26692 -0.423828,-1.62695 -0.282558,-0.36002 -0.706386,-0.54003 -1.271484,-0.54004 -0.679041,1e-5 -1.214522,0.21648 -1.606446,0.64941 -0.39193,0.43295 -0.587893,1.02312 -0.58789,1.77051 l 0,4.32715 -1.264649,0 0,-7.65625 1.264649,0 0,1.18945 c 0.300778,-0.46028 0.653968,-0.80435 1.05957,-1.03222 0.410152,-0.22786 0.881831,-0.34179 1.415039,-0.3418 0.879551,1e-5 1.544915,0.27345 1.996094,0.82031 0.451164,0.54233 0.67675,1.34213 0.676758,2.39942"
           style=""
           id="path12611" />
        <path
           d="m -24.849609,215.30553 0,-4.63477 1.257812,0 0,4.58692 c -2e-6,0.72461 0.141274,1.2692 0.423828,1.63378 0.282549,0.36003 0.706377,0.54004 1.271485,0.54004 0.679031,0 1.214512,-0.21647 1.606445,-0.64941 0.396478,-0.43294 0.59472,-1.02311 0.594727,-1.77051 l 0,-4.34082 1.257812,0 0,7.65625 -1.257812,0 0,-1.17578 c -0.305345,0.46484 -0.660813,0.8112 -1.066407,1.03906 -0.401046,0.22331 -0.868168,0.33496 -1.401367,0.33496 -0.87956,0 -1.547203,-0.27343 -2.00293,-0.82031 -0.45573,-0.54687 -0.683595,-1.34668 -0.683593,-2.39941"
           style=""
           id="path12613" />
        <path
           d="m -9.46875,210.67076 -2.768555,3.72559 2.9121097,3.93066 -1.4833987,0 -2.228515,-3.00781 -2.228516,3.00781 -1.483398,0 2.973632,-4.00586 -2.720703,-3.65039 1.483399,0 2.030273,2.72754 2.030274,-2.72754 1.483398,0"
           style=""
           id="path12615" />
      </g>
    </g>
    <g
       id="g8342"
       transform="translate(24.965404,208.94454)">
      <rect
         inkscape:connector-avoid="true"
         rx="4.8850002"
         y="202.36217"
         x="-100"
         height="19.384302"
         width="348.91745"
         id="rect8344"
         style="fill:#ff9955;fill-rule:evenodd;stroke:none" />
      <g
         style="font-size:14px;font-style:normal;font-weight:normal;line-height:125%;letter-spacing:0px;word-spacing:0px;fill:#000000;fill-opacity:1;stroke:none;font-family:Bitstream Vera Sans"
         id="text8346">
        <path
           d="m -88.18457,214.50572 c -7e-6,-0.92512 -0.191413,-1.64973 -0.574219,-2.17383 -0.378261,-0.52864 -0.900071,-0.79296 -1.56543,-0.79296 -0.665368,0 -1.189456,0.26432 -1.572265,0.79296 -0.378258,0.5241 -0.567386,1.24871 -0.567383,2.17383 -3e-6,0.92514 0.189125,1.65202 0.567383,2.18067 0.382809,0.52409 0.906897,0.78613 1.572265,0.78613 0.665359,0 1.187169,-0.26204 1.56543,-0.78613 0.382806,-0.52865 0.574212,-1.25553 0.574219,-2.18067 m -4.279297,-2.67285 c 0.26432,-0.45572 0.597002,-0.79296 0.998047,-1.01172 0.405595,-0.2233 0.888667,-0.33495 1.449218,-0.33496 0.929682,1e-5 1.683913,0.36915 2.262696,1.10742 0.583325,0.73829 0.874992,1.70899 0.875,2.91211 -8e-6,1.20313 -0.291675,2.17383 -0.875,2.91211 -0.578783,0.73828 -1.333014,1.10742 -2.262696,1.10742 -0.560551,0 -1.043623,-0.10937 -1.449218,-0.32812 -0.401045,-0.22331 -0.733727,-0.56283 -0.998047,-1.01856 l 0,1.14844 -1.264649,0 0,-10.63672 1.264649,0 0,4.14258"
           style=""
           id="path12568" />
        <path
           d="m -84.923828,215.30553 0,-4.63477 1.257812,0 0,4.58692 c -2e-6,0.72461 0.141274,1.2692 0.423829,1.63378 0.282548,0.36003 0.706376,0.54004 1.271484,0.54004 0.679032,0 1.214513,-0.21647 1.606445,-0.64941 0.396478,-0.43294 0.59472,-1.02311 0.594727,-1.77051 l 0,-4.34082 1.257812,0 0,7.65625 -1.257812,0 0,-1.17578 c -0.305345,0.46484 -0.660813,0.8112 -1.066406,1.03906 -0.401047,0.22331 -0.868169,0.33496 -1.401368,0.33496 -0.87956,0 -1.547203,-0.27343 -2.002929,-0.82031 -0.455731,-0.54687 -0.683595,-1.34668 -0.683594,-2.39941"
           style=""
           id="path12570" />
        <path
           d="m -75.907227,210.67076 1.257813,0 0,7.65625 -1.257813,0 0,-7.65625 m 0,-2.98047 1.257813,0 0,1.59278 -1.257813,0 0,-1.59278"
           style=""
           id="path12572" />
        <path
           d="m -72.024414,207.69029 1.257812,0 0,10.63672 -1.257812,0 0,-10.63672"
           style=""
           id="path12574" />
        <path
           d="m -63.103516,211.83287 0,-4.14258 1.257813,0 0,10.63672 -1.257813,0 0,-1.14844 c -0.264329,0.45573 -0.599289,0.79525 -1.004882,1.01856 -0.401047,0.21875 -0.884119,0.32812 -1.449219,0.32812 -0.925133,0 -1.679364,-0.36914 -2.262695,-1.10742 -0.578778,-0.73828 -0.868165,-1.70898 -0.868165,-2.91211 0,-1.20312 0.289387,-2.17382 0.868165,-2.91211 0.583331,-0.73827 1.337562,-1.10741 2.262695,-1.10742 0.5651,1e-5 1.048172,0.11166 1.449219,0.33496 0.405593,0.21876 0.740553,0.556 1.004882,1.01172 m -4.286132,2.67285 c -3e-6,0.92514 0.189125,1.65202 0.567382,2.18067 0.38281,0.52409 0.906898,0.78613 1.572266,0.78613 0.66536,0 1.189448,-0.26204 1.572266,-0.78613 0.382806,-0.52865 0.574212,-1.25553 0.574218,-2.18067 -6e-6,-0.92512 -0.191412,-1.64973 -0.574218,-2.17383 -0.382818,-0.52864 -0.906906,-0.79296 -1.572266,-0.79296 -0.665368,0 -1.189456,0.26432 -1.572266,0.79296 -0.378257,0.5241 -0.567385,1.24871 -0.567382,2.17383"
           style=""
           id="path12576" />
        <path
           d="m -55.433594,213.9315 3.684571,0 0,1.1211 -3.684571,0 0,-1.1211"
           style=""
           id="path12578" />
        <path
           d="m -41.816406,209.48131 -1.873047,5.0791 3.75293,0 -1.879883,-5.0791 m -0.779297,-1.36035 1.56543,0 3.889648,10.20605 -1.435547,0 -0.929687,-2.61816 -4.600586,0 -0.929688,2.61816 -1.456054,0 3.896484,-10.20605"
           style=""
           id="path12580" />
        <path
           d="m -29.347656,213.70592 0,4.62109 -1.257813,0 0,-4.58008 c -6e-6,-0.7246 -0.141282,-1.26692 -0.423828,-1.62695 -0.282558,-0.36002 -0.706385,-0.54003 -1.271484,-0.54004 -0.679041,1e-5 -1.214522,0.21648 -1.606446,0.64941 -0.391929,0.43295 -0.587893,1.02312 -0.58789,1.77051 l 0,4.32715 -1.264649,0 0,-7.65625 1.264649,0 0,1.18945 c 0.300778,-0.46028 0.653968,-0.80435 1.05957,-1.03222 0.410152,-0.22786 0.881832,-0.34179 1.415039,-0.3418 0.879552,1e-5 1.544916,0.27345 1.996094,0.82031 0.451164,0.54233 0.67675,1.34213 0.676758,2.39942"
           style=""
           id="path12582" />
        <path
           d="m -21.787109,211.83287 0,-4.14258 1.257812,0 0,10.63672 -1.257812,0 0,-1.14844 c -0.264329,0.45573 -0.59929,0.79525 -1.004883,1.01856 -0.401047,0.21875 -0.884119,0.32812 -1.449219,0.32812 -0.925133,0 -1.679364,-0.36914 -2.262695,-1.10742 -0.578777,-0.73828 -0.868165,-1.70898 -0.868164,-2.91211 -10e-7,-1.20312 0.289387,-2.17382 0.868164,-2.91211 0.583331,-0.73827 1.337562,-1.10741 2.262695,-1.10742 0.5651,1e-5 1.048172,0.11166 1.449219,0.33496 0.405593,0.21876 0.740554,0.556 1.004883,1.01172 m -4.286133,2.67285 c -2e-6,0.92514 0.189125,1.65202 0.567383,2.18067 0.382809,0.52409 0.906897,0.78613 1.572265,0.78613 0.66536,0 1.189448,-0.26204 1.572266,-0.78613 0.382806,-0.52865 0.574212,-1.25553 0.574219,-2.18067 -7e-6,-0.92512 -0.191413,-1.64973 -0.574219,-2.17383 -0.382818,-0.52864 -0.906906,-0.79296 -1.572266,-0.79296 -0.665368,0 -1.189456,0.26432 -1.572265,0.79296 -0.378258,0.5241 -0.567385,1.24871 -0.567383,2.17383"
           style=""
           id="path12584" />
        <path
           d="m -13.501953,211.84654 c -0.141282,-0.082 -0.29623,-0.14127 -0.464844,-0.17773 -0.164068,-0.041 -0.346359,-0.0615 -0.546875,-0.0615 -0.710941,1e-5 -1.257816,0.23243 -1.640625,0.69727 -0.378258,0.46029 -0.567385,1.12338 -0.567383,1.98926 l 0,4.0332 -1.264648,0 0,-7.65625 1.264648,0 0,1.18945 c 0.26432,-0.46483 0.608396,-0.80891 1.032227,-1.03222 0.423824,-0.22786 0.938797,-0.34179 1.544922,-0.3418 0.08658,1e-5 0.182286,0.007 0.287109,0.0205 0.104812,0.009 0.221023,0.0251 0.348633,0.0479 l 0.0068,1.29199"
           style=""
           id="path12586" />
        <path
           d="m -9.5029297,211.5526 c -0.6744823,0 -1.2076853,0.26433 -1.5996093,0.79297 -0.391929,0.52409 -0.587893,1.24414 -0.587891,2.16015 -2e-6,0.91602 0.193683,1.63835 0.581055,2.16699 0.391924,0.52409 0.927405,0.78614 1.6064453,0.78614 0.6699169,0 1.2008409,-0.26432 1.5927735,-0.79297 0.3919208,-0.52865 0.5878841,-1.2487 0.5878906,-2.16016 -6.5e-6,-0.90689 -0.1959698,-1.62467 -0.5878906,-2.15332 -0.3919326,-0.53319 -0.9228566,-0.7998 -1.5927735,-0.7998 m 0,-1.06641 c 1.0937446,1e-5 1.9527933,0.35548 2.5771485,1.06641 0.6243414,0.71094 0.9365156,1.69531 0.9365234,2.95312 -7.8e-6,1.25326 -0.312182,2.23763 -0.9365234,2.95313 -0.6243552,0.71093 -1.4834039,1.0664 -2.5771485,1.0664 -1.0983103,0 -1.9596373,-0.35547 -2.5839843,-1.0664 -0.619793,-0.7155 -0.929688,-1.69987 -0.929688,-2.95313 0,-1.25781 0.309895,-2.24218 0.929688,-2.95312 0.624347,-0.71093 1.485674,-1.0664 2.5839843,-1.06641"
           style=""
           id="path12588" />
        <path
           d="m -3.9111328,210.67076 1.2578125,0 0,7.65625 -1.2578125,0 0,-7.65625 m 0,-2.98047 1.2578125,0 0,1.59278 -1.2578125,0 0,-1.59278"
           style=""
           id="path12590" />
        <path
           d="m 5.0097656,211.83287 0,-4.14258 1.2578125,0 0,10.63672 -1.2578125,0 0,-1.14844 c -0.264329,0.45573 -0.5992896,0.79525 -1.0048828,1.01856 -0.4010466,0.21875 -0.884119,0.32812 -1.4492187,0.32812 -0.9251332,0 -1.67936424,-0.36914 -2.26269535,-1.10742 -0.5787771,-0.73828 -0.86816483,-1.70898 -0.86816406,-2.91211 -7.7e-7,-1.20312 0.28938696,-2.17382 0.86816406,-2.91211 0.58333111,-0.73827 1.33756215,-1.10741 2.26269535,-1.10742 0.5650997,1e-5 1.0481721,0.11166 1.4492187,0.33496 0.4055932,0.21876 0.7405538,0.556 1.0048828,1.01172 m -4.28613279,2.67285 c -2.07e-6,0.92514 0.18912535,1.65202 0.56738279,2.18067 0.3828095,0.52409 0.9068975,0.78613 1.5722657,0.78613 0.6653597,0 1.1894477,-0.26204 1.5722656,-0.78613 0.3828063,-0.52865 0.5742124,-1.25553 0.5742187,-2.18067 -6.3e-6,-0.92512 -0.1914124,-1.64973 -0.5742187,-2.17383 -0.3828179,-0.52864 -0.9069059,-0.79296 -1.5722656,-0.79296 -0.6653682,0 -1.1894562,0.26432 -1.5722657,0.79296 -0.37825744,0.5241 -0.56738486,1.24871 -0.56738279,2.17383"
           style=""
           id="path12592" />
      </g>
    </g>
  </g>
</svg>
