<?xml version="1.0" encoding="UTF-8" standalone="no"?>
<!-- Created with Inkscape (http://www.inkscape.org/) -->

<svg
   xmlns:dc="http://purl.org/dc/elements/1.1/"
   xmlns:cc="http://creativecommons.org/ns#"
   xmlns:rdf="http://www.w3.org/1999/02/22-rdf-syntax-ns#"
   xmlns:svg="http://www.w3.org/2000/svg"
   xmlns="http://www.w3.org/2000/svg"
   xmlns:xlink="http://www.w3.org/1999/xlink"
   xmlns:sodipodi="http://sodipodi.sourceforge.net/DTD/sodipodi-0.dtd"
   xmlns:inkscape="http://www.inkscape.org/namespaces/inkscape"
   width="900"
   height="320"
   id="svg2"
   version="1.1"
   inkscape:version="0.48.2 r9819"
   sodipodi:docname="release-process-lines.svg">
  <defs
     id="defs4">
    <inkscape:path-effect
       effect="skeletal"
       id="path-effect3225"
       is_visible="true"
       pattern="M 0,0 1,0"
       copytype="single_stretched"
       prop_scale="1"
       scale_y_rel="false"
       spacing="0"
       normal_offset="0"
       tang_offset="0"
       prop_units="false"
       vertical_pattern="false"
       fuse_tolerance="0" />
    <linearGradient
       inkscape:collect="always"
       id="linearGradient5513">
      <stop
         style="stop-color:#000000;stop-opacity:1;"
         offset="0"
         id="stop5515" />
      <stop
         style="stop-color:#000000;stop-opacity:0;"
         offset="1"
         id="stop5517" />
    </linearGradient>
    <marker
       inkscape:stockid="Arrow1Mend"
       orient="auto"
       refY="0"
       refX="0"
       id="Arrow1Mend"
       style="overflow:visible">
      <path
         id="path3886"
         d="M 0,0 5,-5 -12.5,0 5,5 0,0 z"
         style="fill-rule:evenodd;stroke:#000000;stroke-width:1pt"
         transform="matrix(-0.4,0,0,-0.4,-4,0)"
         inkscape:connector-curvature="0" />
    </marker>
    <marker
       inkscape:stockid="Arrow2Lend"
       orient="auto"
       refY="0"
       refX="0"
       id="Arrow2Lend"
       style="overflow:visible">
      <path
         id="path3898"
         style="fill-rule:evenodd;stroke-width:0.625;stroke-linejoin:round"
         d="M 8.7185878,4.0337352 -2.2072895,0.01601326 8.7185884,-4.0017078 c -1.7454984,2.3720609 -1.7354408,5.6174519 -6e-7,8.035443 z"
         transform="matrix(-1.1,0,0,-1.1,-1.1,0)"
         inkscape:connector-curvature="0" />
    </marker>
    <linearGradient
       inkscape:collect="always"
       xlink:href="#linearGradient5513"
       id="linearGradient5519"
       x1="-104.35545"
       y1="220.96759"
       x2="-242.31973"
       y2="325.20728"
       gradientUnits="userSpaceOnUse" />
  </defs>
  <sodipodi:namedview
     id="base"
     pagecolor="#ffffff"
     bordercolor="#666666"
     borderopacity="1.0"
     inkscape:pageopacity="0.0"
     inkscape:pageshadow="2"
     inkscape:zoom="1.2344444"
     inkscape:cx="450"
     inkscape:cy="160"
     inkscape:document-units="px"
     inkscape:current-layer="layer1"
     showgrid="false"
     inkscape:snap-grids="false"
     inkscape:window-width="1596"
     inkscape:window-height="861"
     inkscape:window-x="271"
     inkscape:window-y="605"
     inkscape:window-maximized="0"
     fit-margin-top="0"
     fit-margin-left="0"
     fit-margin-right="0"
     fit-margin-bottom="0">
    <inkscape:grid
       type="xygrid"
       id="grid3039"
       empspacing="5"
       visible="true"
       enabled="true"
       snapvisiblegridlinesonly="true"
       originx="128.48318px"
       originy="-577.33044px" />
  </sodipodi:namedview>
  <metadata
     id="metadata7">
    <rdf:RDF>
      <cc:Work
         rdf:about="">
        <dc:format>image/svg+xml</dc:format>
        <dc:type
           rdf:resource="http://purl.org/dc/dcmitype/StillImage" />
        <dc:title />
      </cc:Work>
    </rdf:RDF>
  </metadata>
  <g
     inkscape:label="Layer 1"
     inkscape:groupmode="layer"
     id="layer1"
     transform="translate(128.48318,-155.03173)">
    <path
       sodipodi:type="star"
       style="fill:#ffff00;fill-opacity:1;stroke:#fa9c13;stroke-opacity:1"
       id="path4847"
       sodipodi:sides="5"
       sodipodi:cx="-1"
       sodipodi:cy="-19.451782"
       sodipodi:r1="9.4423094"
       sodipodi:r2="5.315073"
       sodipodi:arg1="-0.51477966"
       sodipodi:arg2="0.11353887"
       inkscape:flatsided="false"
       inkscape:rounded="0"
       inkscape:randomized="0"
       d="m 7.2185977,-24.100638 -2.9377464,5.251027 1.6801595,5.777604 -5.90183729,-1.171306 -4.97562991,3.383305 -0.7097897,-5.974935 -4.7552679,-3.686607 5.4631632,-2.521406 2.0367127,-5.661752 4.0862102,4.416619 z"
       transform="translate(-113.77299,191.54057)"
       inkscape:transform-center-x="0.29691494"
       inkscape:transform-center-y="0.72855058" />
    <rect
       style="fill:none;stroke:none"
       id="rect5543"
       width="24.016005"
       height="18.906218"
       x="-109.97622"
       y="455.21548"
       rx="4.3780313"
       inkscape:connector-avoid="true"
       inkscape:transform-center-x="-28.103836"
       inkscape:transform-center-y="13.28545">
      <desc
         id="desc6103">to push connector lines around</desc>
    </rect>
    <rect
       inkscape:connector-avoid="true"
       style="fill:#76c5d9;fill-rule:evenodd;stroke:none;fill-opacity:1"
       id="rect6198"
       width="141.38971"
       height="20"
       x="198.14093"
       y="166.2294"
       rx="1.6144793" />
    <rect
       inkscape:connector-avoid="true"
       y="191.56787"
       x="375.47855"
       height="20"
       width="111.1981"
       id="rect3419"
       style="fill:#5fd35f;fill-rule:evenodd;stroke:none"
       rx="2.4430001" />
    <text
       sodipodi:linespacing="125%"
       id="text3421"
       y="285.52325"
       x="467.97113"
       style="font-size:24px;font-style:normal;font-variant:normal;font-weight:normal;font-stretch:normal;line-height:125%;letter-spacing:0px;word-spacing:0px;fill:#000000;fill-opacity:1;stroke:none;font-family:Waree;-inkscape-font-specification:Waree"
       xml:space="preserve"><tspan
         y="285.52325"
         x="467.97113"
         id="tspan3423"
         sodipodi:role="line" /></text>
    <rect
       inkscape:connector-avoid="true"
       y="280.67569"
       x="673.995"
       height="20"
       width="66.717064"
       id="rect3528"
       style="fill:#7b57ff;fill-rule:evenodd;stroke:none;fill-opacity:1"
       rx="2.4430001" />
    <rect
       style="fill:#7b57ff;fill-rule:evenodd;stroke:none;fill-opacity:1"
       id="rect3530"
       width="61.974079"
       height="20"
       x="643.30719"
       y="190.41104"
       inkscape:connector-avoid="true"
       rx="2.4430001" />
    <rect
       inkscape:connector-avoid="true"
       y="393.52158"
       x="557.48608"
       height="20"
       width="55.596802"
       id="rect3532"
       style="fill:#7b57ff;fill-rule:evenodd;stroke:none;fill-opacity:1"
       rx="2.4425821" />
    <rect
       rx="1.6144793"
       y="196.02461"
       x="201.82693"
       height="20"
       width="83.027916"
       id="rect9751"
       style="fill:#76c5d9;fill-rule:evenodd;stroke:none;fill-opacity:1"
       inkscape:connector-avoid="true" />
    <rect
       rx="2.4425821"
       inkscape:connector-avoid="true"
       y="291.87503"
       x="-74.382286"
       height="20"
       width="127.82543"
       id="rect9755"
       style="fill:#ff9955;fill-rule:evenodd;stroke:none" />
    <rect
       style="fill:#ff9955;fill-rule:evenodd;stroke:none"
       id="rect9757"
       width="146.95279"
       height="20"
       x="-91.92067"
       y="394.91257"
       inkscape:connector-avoid="true"
       rx="2.4425821" />
    <rect
       rx="1.6144793"
       y="263.90857"
       x="84.258293"
       height="20"
       width="175.1781"
       id="rect9759"
       style="fill:#76c5d9;fill-rule:evenodd;stroke:none;fill-opacity:1"
       inkscape:connector-avoid="true" />
    <rect
       inkscape:connector-avoid="true"
       style="fill:#76c5d9;fill-rule:evenodd;stroke:none;fill-opacity:1"
       id="rect9761"
       width="83.642288"
       height="20"
       x="162.27878"
       y="292.16797"
       rx="1.6144793" />
    <rect
       rx="1.6144793"
       y="320.42734"
       x="88.558632"
       height="20"
       width="65.826569"
       id="rect9763"
       style="fill:#76c5d9;fill-rule:evenodd;stroke:none;fill-opacity:1"
       inkscape:connector-avoid="true" />
    <rect
       inkscape:connector-avoid="true"
       style="fill:#76c5d9;fill-rule:evenodd;stroke:none;fill-opacity:1"
       id="rect9765"
       width="175.1781"
       height="20"
       x="95.210052"
       y="365.58774"
       rx="1.6144793" />
    <rect
       inkscape:connector-avoid="true"
       y="398.91257"
       x="308.17905"
       height="20"
       width="82.285408"
       id="rect9773"
       style="fill:#5fd35f;fill-rule:evenodd;stroke:none"
       rx="2.4430001" />
    <rect
       inkscape:connector-avoid="true"
       y="177.8148"
       x="541.77948"
       height="20"
       width="29.048302"
       id="rect9791"
       style="fill:#e580ff;fill-rule:evenodd;stroke:none"
       rx="2.4425821" />
    <rect
       rx="2.4425821"
       style="fill:#e580ff;fill-rule:evenodd;stroke:none"
       id="rect9793"
       width="29.048302"
       height="20"
       x="541.77948"
       y="203.02071"
       inkscape:connector-avoid="true" />
    <rect
       rx="2.4425821"
       style="fill:#e580ff;fill-rule:evenodd;stroke:none"
       id="rect9795"
       width="29.048302"
       height="20"
       x="578.10571"
       y="177.8148"
       inkscape:connector-avoid="true" />
    <rect
       inkscape:connector-avoid="true"
       y="203.02071"
       x="578.10571"
       height="20"
       width="29.048302"
       id="rect9797"
       style="fill:#e580ff;fill-rule:evenodd;stroke:none"
       rx="2.4425821" />
    <rect
       rx="2.4425821"
       style="fill:#e580ff;fill-rule:evenodd;stroke:none"
       id="rect9799"
       width="29.048302"
       height="20"
       x="423.1633"
       y="381.97955"
       inkscape:connector-avoid="true" />
    <rect
       inkscape:connector-avoid="true"
       y="407.18546"
       x="423.1633"
       height="20"
       width="29.048302"
       id="rect9801"
       style="fill:#e580ff;fill-rule:evenodd;stroke:none"
       rx="2.4425821" />
    <rect
       inkscape:connector-avoid="true"
       y="381.97955"
       x="493.59167"
       height="20"
       width="29.048302"
       id="rect9803"
       style="fill:#e580ff;fill-rule:evenodd;stroke:none"
       rx="2.4425821" />
    <rect
       rx="2.4425821"
       style="fill:#e580ff;fill-rule:evenodd;stroke:none"
       id="rect9805"
       width="29.048302"
       height="20"
       x="493.59167"
       y="407.18546"
       inkscape:connector-avoid="true" />
    <path
       style="fill:none;stroke:#000000;stroke-width:1px;stroke-linecap:butt;stroke-linejoin:miter;stroke-opacity:1"
       d="m 13.344316,22.718287 c 0,22.782934 33.44087,27.429983 49.670511,27.429983"
       id="path9829"
       inkscape:connector-curvature="0"
       transform="translate(-128.48318,155.03173)"
       sodipodi:nodetypes="cc" />
    <path
       sodipodi:nodetypes="cc"
       transform="translate(-128.48318,155.03173)"
       inkscape:connector-curvature="0"
       id="path9831"
       d="m 13.344316,22.718287 c 0,22.782934 23.803308,125.288303 40.032949,125.288303"
       style="fill:none;stroke:#000000;stroke-width:1px;stroke-linecap:butt;stroke-linejoin:miter;stroke-opacity:1" />
    <path
       style="fill:none;stroke:#000000;stroke-width:1px;stroke-linecap:butt;stroke-linejoin:miter;stroke-opacity:1"
       d="m 13.344316,22.718287 c 0,22.782934 7.493588,228.336083 23.723229,228.336083"
       id="path9833"
       inkscape:connector-curvature="0"
       transform="translate(-128.48318,155.03173)"
       sodipodi:nodetypes="cc" />
    <path
       style="fill:none;stroke:#000000;stroke-width:1px;stroke-linecap:butt;stroke-linejoin:miter;stroke-opacity:1"
       d="m 293.57496,50.889621 c 16.30972,0 18.53377,-30.395387 32.61944,-30.395387"
       id="path9835"
       inkscape:connector-curvature="0"
       transform="translate(-128.48318,155.03173)" />
    <path
       transform="translate(-128.48318,155.03173)"
       inkscape:connector-curvature="0"
       id="path9837"
       d="m 293.57496,50.889621 c 16.30972,0 22.24052,0 36.32619,0"
       style="fill:none;stroke:#000000;stroke-width:1px;stroke-linecap:butt;stroke-linejoin:miter;stroke-opacity:1"
       sodipodi:nodetypes="cc" />
    <path
       sodipodi:nodetypes="cc"
       style="fill:none;stroke:#000000;stroke-width:1px;stroke-linecap:butt;stroke-linejoin:miter;stroke-opacity:1"
       d="m 293.57496,50.889621 c 16.30972,0 35.58484,31.136738 64.8682,31.136738"
       id="path9839"
       inkscape:connector-curvature="0"
       transform="translate(-128.48318,155.03173)" />
    <rect
       style="fill:#ff9955;fill-rule:evenodd;stroke:none"
       id="rect2985"
       width="232.25977"
       height="20"
       x="-65.781601"
       y="195.56787"
       inkscape:connector-avoid="true"
       rx="2.4425821" />
    <path
       style="fill:none;stroke:#000000;stroke-width:1px;stroke-linecap:butt;stroke-linejoin:miter;stroke-opacity:1"
       d="m 503.74794,46.812191 c -12.60296,0 -22.98188,-25.576606 -35.95552,-25.576606"
       id="path9841"
       inkscape:connector-curvature="0"
       transform="translate(-128.48318,155.03173)" />
    <path
       transform="translate(-128.48318,155.03173)"
       inkscape:connector-curvature="0"
       id="path9845"
       d="m 503.74794,46.812191 c -12.60296,0 -78.21252,4.448106 -91.18616,4.448106"
       style="fill:none;stroke:#000000;stroke-width:1px;stroke-linecap:butt;stroke-linejoin:miter;stroke-opacity:1"
       sodipodi:nodetypes="cc" />
    <path
       sodipodi:nodetypes="cc"
       style="fill:none;stroke:#000000;stroke-width:1px;stroke-linecap:butt;stroke-linejoin:miter;stroke-opacity:1"
       d="m 503.74794,46.812191 c -12.60296,0 -23.35255,34.472818 -45.59308,34.472818"
       id="path9847"
       inkscape:connector-curvature="0"
       transform="translate(-128.48318,155.03173)" />
    <rect
       inkscape:connector-avoid="true"
       style="fill:#76c5d9;fill-rule:evenodd;stroke:none;fill-opacity:1"
       id="rect9753"
       width="100.2293"
       height="20"
       x="230.08633"
       y="225.81984"
       rx="1.6144793" />
    <path
       style="fill:none;stroke:#000000;stroke-width:1px;stroke-linecap:butt;stroke-linejoin:miter;stroke-opacity:1"
       d="m 614.5799,46.812191 c 15.56837,0 43.7397,-14.085667 55.60132,-14.085667"
       id="path9849"
       inkscape:connector-curvature="0"
       transform="translate(-128.48318,155.03173)" />
    <path
       transform="translate(-128.48318,155.03173)"
       inkscape:connector-curvature="0"
       id="path9851"
       d="m 614.5799,46.812191 c 15.56837,0 43.7397,12.602966 55.60132,12.602966"
       style="fill:none;stroke:#000000;stroke-width:1px;stroke-linecap:butt;stroke-linejoin:miter;stroke-opacity:1"
       sodipodi:nodetypes="cc" />
    <path
       sodipodi:nodetypes="csc"
       style="fill:none;stroke:#000000;stroke-width:1px;stroke-linecap:butt;stroke-linejoin:miter;stroke-opacity:1"
       d="m 614.5799,46.812191 c 9.67416,0 51.3329,27.813303 74.55762,27.813303 14.2821,0 13.24974,-16.322363 17.74057,-16.322363"
       id="path9853"
       inkscape:connector-curvature="0"
       transform="translate(-128.48318,155.03173)" />
    <path
       transform="translate(-128.48318,155.03173)"
       inkscape:connector-curvature="0"
       id="path9855"
       d="m 614.5799,46.812191 c 8.70651,0 51.2232,-31.423127 71.68525,-31.423127 17.24192,0 15.01417,17.708136 20.24226,17.708136"
       style="fill:none;stroke:#000000;stroke-width:1px;stroke-linecap:butt;stroke-linejoin:miter;stroke-opacity:1"
       sodipodi:nodetypes="csc" />
    <path
       style="fill:none;stroke:#000000;stroke-width:1px;stroke-linecap:butt;stroke-linejoin:miter;stroke-opacity:1"
       d="m 699.46458,32.726524 c 4.42358,0 -1.79381,11.433788 10.97985,11.433788 16.34862,0 54.89191,1.169177 61.67254,1.169177"
       id="path9857"
       inkscape:connector-curvature="0"
       transform="translate(-128.48318,155.03173)"
       sodipodi:nodetypes="csc" />
    <path
       transform="translate(-128.48318,155.03173)"
       inkscape:connector-curvature="0"
       id="path9859"
       d="m 699.0939,58.673806 c 3.51397,0 -1.47413,-12.456008 9.66903,-12.456008 18.63093,0 55.29996,-0.888309 63.35404,-0.888309"
       style="fill:none;stroke:#000000;stroke-width:1px;stroke-linecap:butt;stroke-linejoin:miter;stroke-opacity:1"
       sodipodi:nodetypes="csc" />
    <path
       sodipodi:nodetypes="cc"
       style="fill:none;stroke:#000000;stroke-width:1px;stroke-linecap:butt;stroke-linejoin:miter;stroke-opacity:1"
       d="m 734.67874,58.673806 c 9.26689,0 24.46459,-13.344317 37.43823,-13.344317"
       id="path9861"
       inkscape:connector-curvature="0"
       transform="translate(-128.48318,155.03173)" />
    <path
       transform="translate(-128.48318,155.03173)"
       inkscape:connector-curvature="0"
       id="path9863"
       d="m 735.79077,31.243822 c 9.26689,0 23.35256,14.085667 36.3262,14.085667"
       style="fill:none;stroke:#000000;stroke-width:1px;stroke-linecap:butt;stroke-linejoin:miter;stroke-opacity:1"
       sodipodi:nodetypes="cc" />
    <path
       style="fill:none;stroke:#000000;stroke-width:1px;stroke-linecap:butt;stroke-linejoin:miter;stroke-opacity:1"
       d="m 181.63097,147.63591 c 11.49094,0 19.27513,-29.65403 31.50742,-29.65403"
       id="path9865"
       inkscape:connector-curvature="0"
       transform="translate(-128.48318,155.03173)"
       sodipodi:nodetypes="cc" />
    <path
       sodipodi:nodetypes="cc"
       transform="translate(-128.48318,155.03173)"
       inkscape:connector-curvature="0"
       id="path9867"
       d="m 181.63097,147.63591 c 11.49094,0 97.48765,-0.74134 109.71994,-0.74134"
       style="fill:none;stroke:#000000;stroke-width:1px;stroke-linecap:butt;stroke-linejoin:miter;stroke-opacity:1" />
    <path
       style="fill:none;stroke:#000000;stroke-width:1px;stroke-linecap:butt;stroke-linejoin:miter;stroke-opacity:1"
       d="m 181.63097,147.63591 c 11.49094,0 23.72323,28.17135 35.95552,28.17135"
       id="path9869"
       inkscape:connector-curvature="0"
       transform="translate(-128.48318,155.03173)"
       sodipodi:nodetypes="cc" />
    <path
       style="fill:none;stroke:#000000;stroke-width:1px;stroke-linecap:butt;stroke-linejoin:miter;stroke-opacity:1"
       d="m 425.9061,138.36903 c -11.12027,0 -26.31796,-19.27513 -38.17958,-19.27513"
       id="path9871"
       inkscape:connector-curvature="0"
       transform="translate(-128.48318,155.03173)" />
    <path
       transform="translate(-128.48318,155.03173)"
       inkscape:connector-curvature="0"
       id="path9873"
       d="m 425.9061,138.36903 c -11.12027,0 -40.40363,9.63756 -52.26525,9.63756"
       style="fill:none;stroke:#000000;stroke-width:1px;stroke-linecap:butt;stroke-linejoin:miter;stroke-opacity:1"
       sodipodi:nodetypes="cc" />
    <path
       sodipodi:nodetypes="csc"
       style="fill:none;stroke:#000000;stroke-width:1px;stroke-linecap:butt;stroke-linejoin:miter;stroke-opacity:1"
       d="m 425.9061,138.36903 c -5.01648,0 -28.94963,14.07109 -54.3853,26.30713 -33.68457,16.20426 -62.90961,11.87244 -89.06611,11.87244"
       id="path9875"
       inkscape:connector-curvature="0"
       transform="translate(-128.48318,155.03173)" />
    <path
       style="fill:none;stroke:#000000;stroke-width:1px;stroke-linecap:butt;stroke-linejoin:miter;stroke-opacity:1"
       d="m 535.62603,137.62768 c 15.19769,0 38.55025,-11.86162 53.37727,-11.86162"
       id="path9877"
       inkscape:connector-curvature="0"
       transform="translate(-128.48318,155.03173)"
       sodipodi:nodetypes="cc" />
    <rect
       rx="2.4430001"
       style="fill:#5fd35f;fill-rule:evenodd;stroke:none"
       id="rect9771"
       width="111.1981"
       height="20"
       x="296.61298"
       y="281.87503"
       inkscape:connector-avoid="true" />
    <path
       transform="translate(-128.48318,155.03173)"
       inkscape:connector-curvature="0"
       id="path9879"
       d="m 535.62603,137.62768 c 15.19769,0 36.3262,13.34431 51.15322,13.34431"
       style="fill:none;stroke:#000000;stroke-width:1px;stroke-linecap:butt;stroke-linejoin:miter;stroke-opacity:1"
       sodipodi:nodetypes="cc" />
    <path
       sodipodi:nodetypes="csc"
       style="fill:none;stroke:#000000;stroke-width:1px;stroke-linecap:butt;stroke-linejoin:miter;stroke-opacity:1"
       d="m 535.62603,137.62768 c 8.08346,0 17.77072,-23.84772 69.29122,-27.0876 45.343,-2.8514 133.19971,14.8553 140.14042,14.8553"
       id="path9881"
       inkscape:connector-curvature="0"
       transform="translate(-128.48318,155.03173)" />
    <path
       transform="translate(-128.48318,155.03173)"
       inkscape:connector-curvature="0"
       id="path9883"
       d="m 535.62603,137.62768 c 8.63971,0 14.25655,24.93934 68.52452,28.86798 41.1922,2.98205 134.1384,-14.78232 140.53644,-14.78232"
       style="fill:none;stroke:#000000;stroke-width:1px;stroke-linecap:butt;stroke-linejoin:miter;stroke-opacity:1"
       sodipodi:nodetypes="csc" />
    <rect
       inkscape:connector-avoid="true"
       y="295.68958"
       x="458.30005"
       height="20"
       width="29.048302"
       id="rect9781"
       style="fill:#e580ff;fill-rule:evenodd;stroke:none"
       rx="2.4425821" />
    <path
       style="fill:none;stroke:#000000;stroke-width:1px;stroke-linecap:butt;stroke-linejoin:miter;stroke-opacity:1"
       d="m 802.51236,136.88633 c -11.86162,0 -21.1285,-11.12027 -29.65404,-11.12027"
       id="path9885"
       inkscape:connector-curvature="0"
       transform="translate(-128.48318,155.03173)" />
    <path
       transform="translate(-128.48318,155.03173)"
       inkscape:connector-curvature="0"
       id="path9887"
       d="m 802.51236,136.88633 c -11.86162,0 -21.1285,14.08566 -29.65404,14.08566"
       style="fill:none;stroke:#000000;stroke-width:1px;stroke-linecap:butt;stroke-linejoin:miter;stroke-opacity:1"
       sodipodi:nodetypes="cc" />
    <rect
       rx="2.4425821"
       style="fill:#e580ff;fill-rule:evenodd;stroke:none"
       id="rect9789"
       width="29.048302"
       height="20"
       x="615.91461"
       y="295.68958"
       inkscape:connector-avoid="true" />
    <path
       sodipodi:nodetypes="csc"
       style="fill:none;stroke:#000000;stroke-width:1px;stroke-linecap:butt;stroke-linejoin:miter;stroke-opacity:1"
       d="m 802.51236,136.88633 c -4.56409,0 -20.51997,1.89069 -55.49452,1.89069 -43.64482,0 -126.45149,12.56565 -131.69659,12.56565"
       id="path9889"
       inkscape:connector-curvature="0"
       transform="translate(-128.48318,155.03173)" />
    <path
       transform="translate(-128.48318,155.03173)"
       inkscape:connector-curvature="0"
       id="path9891"
       d="m 802.51236,136.88633 c -4.89805,0 -20.20268,-0.18248 -55.96023,-0.18248 -43.32532,0 -126.22581,-11.30846 -131.23088,-11.30846"
       style="fill:none;stroke:#000000;stroke-width:1px;stroke-linecap:butt;stroke-linejoin:miter;stroke-opacity:1"
       sodipodi:nodetypes="csc" />
    <rect
       rx="2.4425821"
       style="fill:#e580ff;fill-rule:evenodd;stroke:none"
       id="rect9779"
       width="29.048302"
       height="20"
       x="458.30005"
       y="270.48367"
       inkscape:connector-avoid="true" />
    <rect
       inkscape:connector-avoid="true"
       y="270.48367"
       x="615.91461"
       height="20"
       width="29.048302"
       id="rect9787"
       style="fill:#e580ff;fill-rule:evenodd;stroke:none"
       rx="2.4425821" />
    <path
       style="fill:none;stroke:#000000;stroke-width:1px;stroke-linecap:butt;stroke-linejoin:miter;stroke-opacity:1"
       d="m 183.11367,250.31301 c 20.38716,0 25.94729,-29.28336 40.7743,-29.28336"
       id="path9893"
       inkscape:connector-curvature="0"
       transform="translate(-128.48318,155.03173)"
       sodipodi:nodetypes="cc" />
    <path
       transform="translate(-128.48318,155.03173)"
       inkscape:connector-curvature="0"
       id="path9895"
       d="m 183.11367,250.31301 c 11.12027,0 27.05932,0 41.88633,0"
       style="fill:none;stroke:#000000;stroke-width:1px;stroke-linecap:butt;stroke-linejoin:miter;stroke-opacity:1"
       sodipodi:nodetypes="cc" />
    <path
       sodipodi:nodetypes="csc"
       style="fill:none;stroke:#000000;stroke-width:1px;stroke-linecap:butt;stroke-linejoin:miter;stroke-opacity:1"
       d="m 183.11367,250.31301 c 15.11665,0 16.8994,13.38469 40.86279,19.2865 37.05692,9.12655 90.61894,12.22091 99.62321,12.22091"
       id="path9897"
       inkscape:connector-curvature="0"
       transform="translate(-128.48318,155.03173)" />
    <path
       style="fill:none;stroke:#000000;stroke-width:1px;stroke-linecap:butt;stroke-linejoin:miter;stroke-opacity:1"
       d="m 436.65568,254.39044 c -15.19769,0 -21.86985,-33.73146 -38.17957,-33.73146"
       id="path9899"
       inkscape:connector-curvature="0"
       transform="translate(-128.48318,155.03173)" />
    <path
       transform="translate(-128.48318,155.03173)"
       inkscape:connector-curvature="0"
       id="path9901"
       d="m 436.65568,254.39044 c -15.19769,0 -113.05601,-2.59472 -129.36573,-2.59472"
       style="fill:none;stroke:#000000;stroke-width:1px;stroke-linecap:butt;stroke-linejoin:miter;stroke-opacity:1"
       sodipodi:nodetypes="cc" />
    <rect
       rx="1.6144793"
       y="395.69012"
       x="96.438705"
       height="20"
       width="83.642288"
       id="rect9767"
       style="fill:#76c5d9;fill-rule:evenodd;stroke:none;fill-opacity:1"
       inkscape:connector-avoid="true" />
    <path
       sodipodi:nodetypes="cc"
       style="fill:none;stroke:#000000;stroke-width:1px;stroke-linecap:butt;stroke-linejoin:miter;stroke-opacity:1"
       d="m 436.65568,254.39044 c -15.19769,0 -31.87809,27.42999 -48.18781,27.42999"
       id="path9903"
       inkscape:connector-curvature="0"
       transform="translate(-128.48318,155.03173)" />
    <rect
       inkscape:connector-avoid="true"
       style="fill:#76c5d9;fill-rule:evenodd;stroke:none;fill-opacity:1"
       id="rect9769"
       width="65.826569"
       height="20"
       x="194.73224"
       y="425.79251"
       rx="1.6144793" />
    <path
       style="fill:none;stroke:#000000;stroke-width:1px;stroke-linecap:butt;stroke-linejoin:miter;stroke-opacity:1"
       d="m 518.57496,254.39044 c 10.74959,0 20.75782,-17.05107 32.99011,-17.05107"
       id="path9905"
       inkscape:connector-curvature="0"
       transform="translate(-128.48318,155.03173)" />
    <path
       transform="translate(-128.48318,155.03173)"
       inkscape:connector-curvature="0"
       id="path9907"
       d="m 518.57496,254.39044 c 10.74959,0 20.75782,8.52554 32.99011,8.52554"
       style="fill:none;stroke:#000000;stroke-width:1px;stroke-linecap:butt;stroke-linejoin:miter;stroke-opacity:1"
       sodipodi:nodetypes="cc" />
    <path
       sodipodi:nodetypes="csc"
       style="fill:none;stroke:#000000;stroke-width:1px;stroke-linecap:butt;stroke-linejoin:miter;stroke-opacity:1"
       d="m 518.57496,254.39044 c 6.71374,0 14.51854,20.00597 41.89619,22.50309 16.45762,1.50111 56.55906,-13.97755 61.15158,-13.97755"
       id="path9909"
       inkscape:connector-curvature="0"
       transform="translate(-128.48318,155.03173)" />
    <path
       transform="translate(-128.48318,155.03173)"
       inkscape:connector-curvature="0"
       id="path9911"
       d="m 518.57496,254.39044 c 6.76897,0 11.66288,-27.51885 39.37543,-32.52613 16.29692,-2.94463 59.88401,15.47506 64.41369,15.47506"
       style="fill:none;stroke:#000000;stroke-width:1px;stroke-linecap:butt;stroke-linejoin:miter;stroke-opacity:1"
       sodipodi:nodetypes="csc" />
    <path
       style="fill:none;stroke:#000000;stroke-width:1px;stroke-linecap:butt;stroke-linejoin:miter;stroke-opacity:1"
       d="M 686.86161,248.45964 C 675.37068,248.08896 664.99176,237.71005 650.9061,237.71005"
       id="path9913"
       inkscape:connector-curvature="0"
       transform="translate(-128.48318,155.03173)" />
    <path
       transform="translate(-128.48318,155.03173)"
       inkscape:connector-curvature="0"
       id="path9915"
       d="m 686.86161,248.45964 c -11.49093,-0.37068 -21.86985,14.45634 -35.95551,14.45634"
       style="fill:none;stroke:#000000;stroke-width:1px;stroke-linecap:butt;stroke-linejoin:miter;stroke-opacity:1"
       sodipodi:nodetypes="cc" />
    <path
       sodipodi:nodetypes="csc"
       style="fill:none;stroke:#000000;stroke-width:1px;stroke-linecap:butt;stroke-linejoin:miter;stroke-opacity:1"
       d="m 686.86161,248.45964 c -6.44154,-0.20779 -37.34779,2.04642 -63.67283,2.04642 -20.41385,0 -36.52144,11.66857 -42.71102,11.66857"
       id="path9917"
       inkscape:connector-curvature="0"
       transform="translate(-128.48318,155.03173)" />
    <path
       transform="translate(-128.48318,155.03173)"
       inkscape:connector-curvature="0"
       id="path9919"
       d="m 686.86161,248.45964 c -6.7941,-0.21917 -36.64881,-0.36798 -64.08343,-0.36798 -18.83516,0 -36.91369,-11.12296 -42.6711,-11.12296"
       style="fill:none;stroke:#000000;stroke-width:1px;stroke-linecap:butt;stroke-linejoin:miter;stroke-opacity:1"
       sodipodi:nodetypes="csc" />
  </g>
</svg>
