<?xml version="1.0" encoding="UTF-8" standalone="no"?>
<!-- Created with Inkscape (http://www.inkscape.org/) -->

<svg
   xmlns:dc="http://purl.org/dc/elements/1.1/"
   xmlns:cc="http://creativecommons.org/ns#"
   xmlns:rdf="http://www.w3.org/1999/02/22-rdf-syntax-ns#"
   xmlns:svg="http://www.w3.org/2000/svg"
   xmlns="http://www.w3.org/2000/svg"
   xmlns:xlink="http://www.w3.org/1999/xlink"
   xmlns:sodipodi="http://sodipodi.sourceforge.net/DTD/sodipodi-0.dtd"
   xmlns:inkscape="http://www.inkscape.org/namespaces/inkscape"
   width="900.40002"
   height="310.57001"
   id="svg2"
   version="1.1"
   inkscape:version="0.48.2 r9819"
   sodipodi:docname="triggerable.svg">
  <defs
     id="defs4">
    <linearGradient
       inkscape:collect="always"
       id="linearGradient5513">
      <stop
         style="stop-color:#000000;stop-opacity:1;"
         offset="0"
         id="stop5515" />
      <stop
         style="stop-color:#000000;stop-opacity:0;"
         offset="1"
         id="stop5517" />
    </linearGradient>
    <marker
       inkscape:stockid="Arrow1Mend"
       orient="auto"
       refY="0"
       refX="0"
       id="Arrow1Mend"
       style="overflow:visible">
      <path
         id="path3886"
         d="M 0,0 5,-5 -12.5,0 5,5 0,0 z"
         style="fill-rule:evenodd;stroke:#000000;stroke-width:1pt"
         transform="matrix(-0.4,0,0,-0.4,-4,0)"
         inkscape:connector-curvature="0" />
    </marker>
    <marker
       inkscape:stockid="Arrow2Lend"
       orient="auto"
       refY="0"
       refX="0"
       id="Arrow2Lend"
       style="overflow:visible">
      <path
         id="path3898"
         style="fill-rule:evenodd;stroke-width:0.625;stroke-linejoin:round"
         d="M 8.7185878,4.0337352 -2.2072895,0.01601326 8.7185884,-4.0017078 c -1.7454984,2.3720609 -1.7354408,5.6174519 -6e-7,8.035443 z"
         transform="matrix(-1.1,0,0,-1.1,-1.1,0)"
         inkscape:connector-curvature="0" />
    </marker>
    <linearGradient
       inkscape:collect="always"
       xlink:href="#linearGradient5513"
       id="linearGradient5519"
       x1="-104.35545"
       y1="220.96759"
       x2="-242.31973"
       y2="325.20728"
       gradientUnits="userSpaceOnUse" />
  </defs>
  <sodipodi:namedview
     id="base"
     pagecolor="#ffffff"
     bordercolor="#666666"
     borderopacity="1.0"
     inkscape:pageopacity="0.0"
     inkscape:pageshadow="2"
     inkscape:zoom="1.2316748"
     inkscape:cx="468.87378"
     inkscape:cy="-39.571629"
     inkscape:document-units="px"
     inkscape:current-layer="layer1"
     showgrid="true"
     inkscape:snap-grids="false"
     inkscape:window-width="1596"
     inkscape:window-height="861"
     inkscape:window-x="736"
     inkscape:window-y="633"
     inkscape:window-maximized="0"
     fit-margin-top="0"
     fit-margin-left="0"
     fit-margin-right="0"
     fit-margin-bottom="0"
     inkscape:snap-global="true"
     showguides="true"
     inkscape:guide-bbox="true">
    <inkscape:grid
       type="xygrid"
       id="grid3039"
       empspacing="5"
       visible="true"
       enabled="true"
       snapvisiblegridlinesonly="true"
       originx="128.48318px"
       originy="-568.24046px" />
    <sodipodi:guide
       orientation="1,0"
       position="520.71039,202.08385"
       id="guide17645" />
  </sodipodi:namedview>
  <metadata
     id="metadata7">
    <rdf:RDF>
      <cc:Work
         rdf:about="">
        <dc:format>image/svg+xml</dc:format>
        <dc:type
           rdf:resource="http://purl.org/dc/dcmitype/StillImage" />
        <dc:title />
      </cc:Work>
    </rdf:RDF>
  </metadata>
  <g
     inkscape:label="Layer 1"
     inkscape:groupmode="layer"
     id="layer1"
     transform="translate(128.48318,-173.5517)">
    <rect
       inkscape:transform-center-y="175.41181"
       inkscape:transform-center-x="-154.38924"
       inkscape:connector-avoid="true"
       rx="24.050842"
       y="177.3851"
       x="-7.9762192"
       height="249.62451"
       width="131.93262"
       id="rect6289"
       style="fill:none;stroke:none">
      <desc
         id="desc6291">to push connector lines around</desc>
    </rect>
    <rect
       inkscape:connector-avoid="true"
       rx="2.1890156"
       y="447.36215"
       x="-115"
       height="20"
       width="780.00739"
       id="rect4809"
       style="fill:#ffffff;fill-opacity:1;fill-rule:evenodd;stroke:#000000;stroke-opacity:1" />
    <path
       inkscape:connector-curvature="3"
       inkscape:connector-type="orthogonal"
       id="path4815"
       d="m -12.851321,457.7093 0,0"
       style="fill:none;stroke:#000000;stroke-width:1px;stroke-linecap:butt;stroke-linejoin:miter;stroke-opacity:1;display:inline" />
    <g
       style="font-size:18px;font-style:normal;font-variant:normal;font-weight:normal;font-stretch:normal;line-height:125%;letter-spacing:0px;word-spacing:0px;fill:#000000;fill-opacity:1;stroke:none;font-family:Bitstream Vera Sans;-inkscape-font-specification:Bitstream Vera Sans"
       id="text17619">
      <path
         d="m -36.415436,457.14471 1.854492,0 0,2.23243 -1.854492,0 0,-2.23243"
         style=""
         id="path12528" />
      <path
         d="m -30.684967,457.14471 1.854492,0 0,2.23243 -1.854492,0 0,-2.23243"
         style=""
         id="path12530" />
      <path
         d="m -24.954498,457.14471 1.854492,0 0,2.23243 -1.854492,0 0,-2.23243"
         style=""
         id="path12532" />
    </g>
    <rect
       style="fill:#d3d3d3;fill-opacity:1;stroke:#000000;stroke-width:1;stroke-miterlimit:4;stroke-opacity:1;stroke-dasharray:none;stroke-dashoffset:0"
       id="rect17627"
       width="320"
       height="20"
       x="178.48318"
       y="273.81046"
       transform="translate(-128.48318,173.5517)" />
    <g
       style="font-size:14px;font-style:normal;font-variant:normal;font-weight:normal;font-stretch:normal;line-height:125%;letter-spacing:0px;word-spacing:0px;fill:#000000;fill-opacity:1;stroke:none;font-family:Bitstream Vera Sans;-inkscape-font-specification:Bitstream Vera Sans"
       id="text17623">
      <path
         d="m 61.292175,451.39438 0,2.17383 2.590821,0 0,0.97754 -2.590821,0 0,4.15625 c -2e-6,0.62435 0.08431,1.02539 0.25293,1.20312 0.173174,0.17774 0.521807,0.2666 1.045898,0.2666 l 1.291993,0 0,1.05274 -1.291993,0 c -0.970706,0 -1.640627,-0.18002 -2.009765,-0.54004 -0.369142,-0.36458 -0.553712,-1.02539 -0.553711,-1.98242 l 0,-4.15625 -0.922852,0 0,-0.97754 0.922852,0 0,-2.17383 1.264648,0"
         style=""
         id="path12513" />
      <path
         d="m 69.980652,454.74399 c -0.141282,-0.082 -0.29623,-0.14127 -0.464844,-0.17774 -0.164068,-0.041 -0.346359,-0.0615 -0.546875,-0.0615 -0.710941,1e-5 -1.257816,0.23243 -1.640625,0.69727 -0.378258,0.46029 -0.567385,1.12337 -0.567383,1.98925 l 0,4.03321 -1.264648,0 0,-7.65625 1.264648,0 0,1.18945 c 0.26432,-0.46484 0.608396,-0.80891 1.032227,-1.03223 0.423824,-0.22785 0.938797,-0.34179 1.544922,-0.34179 0.08658,0 0.182286,0.007 0.287109,0.0205 0.104812,0.009 0.221023,0.0251 0.348633,0.0479 l 0.0068,1.29199"
         style=""
         id="path12515" />
      <path
         d="m 71.31366,453.56821 1.257812,0 0,7.65625 -1.257812,0 0,-7.65625 m 0,-2.98047 1.257812,0 0,1.59277 -1.257812,0 0,-1.59277"
         style=""
         id="path12517" />
      <path
         d="m 80.234558,457.30746 c -6e-6,-0.91145 -0.189134,-1.61783 -0.567383,-2.11914 -0.373703,-0.50129 -0.90007,-0.75194 -1.579101,-0.75195 -0.674483,10e-6 -1.20085,0.25066 -1.579102,0.75195 -0.3737,0.50131 -0.560549,1.20769 -0.560547,2.11914 -2e-6,0.90691 0.186847,1.61101 0.560547,2.11231 0.378252,0.5013 0.904619,0.75195 1.579102,0.75195 0.679031,0 1.205398,-0.25065 1.579101,-0.75195 0.378249,-0.5013 0.567377,-1.2054 0.567383,-2.11231 m 1.257813,2.9668 c -8e-6,1.30339 -0.289396,2.27181 -0.868164,2.90527 -0.578783,0.63802 -1.465175,0.95703 -2.65918,0.95704 -0.442061,-1e-5 -0.859053,-0.0342 -1.250977,-0.10254 -0.391929,-0.0638 -0.772463,-0.16407 -1.141601,-0.30078 l 0,-1.22364 c 0.369138,0.20052 0.733721,0.34863 1.09375,0.44434 0.360023,0.0957 0.726884,0.14355 1.100586,0.14355 0.824865,0 1.442377,-0.21647 1.852539,-0.64941 0.41015,-0.42839 0.615228,-1.0778 0.615234,-1.94824 l 0,-0.62207 c -0.259772,0.45117 -0.592454,0.78841 -0.998047,1.01172 -0.405604,0.2233 -0.890955,0.33496 -1.456054,0.33496 -0.938806,0 -1.695315,-0.35775 -2.269532,-1.07325 -0.57422,-0.71549 -0.861329,-1.6634 -0.861328,-2.84375 -10e-7,-1.18489 0.287108,-2.13508 0.861328,-2.85058 0.574217,-0.71549 1.330726,-1.07324 2.269532,-1.07324 0.565099,0 1.05045,0.11166 1.456054,0.33496 0.405593,0.22331 0.738275,0.56055 0.998047,1.01172 l 0,-1.16211 1.257813,0 0,6.70605"
         style=""
         id="path12519" />
      <path
         d="m 89.121277,457.30746 c -7e-6,-0.91145 -0.189134,-1.61783 -0.567383,-2.11914 -0.373703,-0.50129 -0.90007,-0.75194 -1.579102,-0.75195 -0.674482,10e-6 -1.200849,0.25066 -1.579101,0.75195 -0.3737,0.50131 -0.560549,1.20769 -0.560547,2.11914 -2e-6,0.90691 0.186847,1.61101 0.560547,2.11231 0.378252,0.5013 0.904619,0.75195 1.579101,0.75195 0.679032,0 1.205399,-0.25065 1.579102,-0.75195 0.378249,-0.5013 0.567376,-1.2054 0.567383,-2.11231 m 1.257812,2.9668 c -7e-6,1.30339 -0.289395,2.27181 -0.868164,2.90527 -0.578782,0.63802 -1.465174,0.95703 -2.659179,0.95704 -0.442061,-1e-5 -0.859053,-0.0342 -1.250977,-0.10254 -0.391929,-0.0638 -0.772463,-0.16407 -1.141602,-0.30078 l 0,-1.22364 c 0.369139,0.20052 0.733722,0.34863 1.09375,0.44434 0.360023,0.0957 0.726885,0.14355 1.100586,0.14355 0.824865,0 1.442378,-0.21647 1.852539,-0.64941 0.410151,-0.42839 0.615228,-1.0778 0.615235,-1.94824 l 0,-0.62207 c -0.259772,0.45117 -0.592454,0.78841 -0.998047,1.01172 -0.405604,0.2233 -0.890955,0.33496 -1.456055,0.33496 -0.938805,0 -1.695314,-0.35775 -2.269531,-1.07325 -0.57422,-0.71549 -0.861329,-1.6634 -0.861328,-2.84375 -10e-7,-1.18489 0.287108,-2.13508 0.861328,-2.85058 0.574217,-0.71549 1.330726,-1.07324 2.269531,-1.07324 0.5651,0 1.050451,0.11166 1.456055,0.33496 0.405593,0.22331 0.738275,0.56055 0.998047,1.01172 l 0,-1.16211 1.257812,0 0,6.70605"
         style=""
         id="path12521" />
      <path
         d="m 99.518738,457.08188 0,0.61523 -5.783203,0 c 0.05469,0.86589 0.31445,1.5267 0.779297,1.98242 0.469397,0.45118 1.121089,0.67676 1.955078,0.67676 0.483067,0 0.950189,-0.0592 1.401367,-0.17773 0.455722,-0.11849 0.906894,-0.29622 1.353515,-0.5332 l 0,1.18945 c -0.451179,0.1914 -0.913743,0.33724 -1.387695,0.4375 -0.473964,0.10026 -0.954758,0.15039 -1.442383,0.15039 -1.221357,0 -2.189781,-0.35547 -2.905273,-1.06641 -0.710939,-0.71093 -1.066407,-1.67252 -1.066406,-2.88476 -10e-7,-1.25325 0.337238,-2.24674 1.011718,-2.98047 0.679034,-0.73828 1.59277,-1.10742 2.741211,-1.10742 1.029943,0 1.843418,0.33269 2.44043,0.99804 0.601555,0.66082 0.902336,1.56088 0.902344,2.7002 m -1.257813,-0.36914 c -0.0091,-0.68815 -0.202806,-1.2373 -0.581054,-1.64746 -0.373704,-0.41015 -0.870448,-0.61523 -1.490235,-0.61524 -0.701827,10e-6 -1.264651,0.19825 -1.688476,0.59473 -0.419274,0.39649 -0.66081,0.95476 -0.72461,1.6748 l 4.484375,-0.007"
         style=""
         id="path12523" />
      <path
         d="m 106.01971,454.74399 c -0.14128,-0.082 -0.29623,-0.14127 -0.46484,-0.17774 -0.16407,-0.041 -0.34636,-0.0615 -0.54687,-0.0615 -0.71095,1e-5 -1.25782,0.23243 -1.64063,0.69727 -0.37826,0.46029 -0.56738,1.12337 -0.56738,1.98925 l 0,4.03321 -1.26465,0 0,-7.65625 1.26465,0 0,1.18945 c 0.26432,-0.46484 0.60839,-0.80891 1.03222,-1.03223 0.42383,-0.22785 0.9388,-0.34179 1.54493,-0.34179 0.0866,0 0.18228,0.007 0.28711,0.0205 0.10481,0.009 0.22102,0.0251 0.34863,0.0479 l 0.007,1.29199"
         style=""
         id="path12525" />
    </g>
    <path
       style="fill:none;stroke:#000000;stroke-width:1px;stroke-linecap:butt;stroke-linejoin:miter;stroke-opacity:1"
       d="m 183.48318,273.81047 c 0,-20 1.00771,-17.47855 10.09124,-17.47855"
       id="path17629"
       inkscape:connector-curvature="0"
       transform="translate(-128.48318,173.5517)" />
    <rect
       rx="1.6144793"
       y="382.30267"
       x="64.637024"
       height="20"
       width="190.7709"
       id="rect7388"
       style="fill:#76c5d9;fill-rule:evenodd;stroke:none;fill-opacity:1"
       inkscape:connector-avoid="true" />
    <path
       transform="translate(-128.48318,173.5517)"
       inkscape:connector-curvature="0"
       id="path17631"
       d="m 183.48318,273.81047 c 0,-20 -9.32612,-54.79517 10.09124,-54.79517"
       style="fill:none;stroke:#000000;stroke-width:1px;stroke-linecap:butt;stroke-linejoin:miter;stroke-opacity:1"
       sodipodi:nodetypes="cc" />
    <path
       sodipodi:nodetypes="cc"
       style="fill:none;stroke:#000000;stroke-width:1px;stroke-linecap:butt;stroke-linejoin:miter;stroke-opacity:1"
       d="m 183.48318,273.81047 c 0,-20 -8.75202,-92.11179 10.09124,-92.11179"
       id="path17633"
       inkscape:connector-curvature="0"
       transform="translate(-128.48318,173.5517)" />
    <path
       transform="translate(-128.48318,173.5517)"
       inkscape:connector-curvature="0"
       id="path17635"
       d="m 183.48318,273.81047 c 0,-20 -9.90023,-130.00251 10.09124,-130.00251"
       style="fill:none;stroke:#000000;stroke-width:1px;stroke-linecap:butt;stroke-linejoin:miter;stroke-opacity:1"
       sodipodi:nodetypes="cc" />
    <path
       style="fill:none;stroke:#000000;stroke-width:1px;stroke-linecap:butt;stroke-linejoin:miter;stroke-opacity:1"
       d="m 494.3017,273.82749 c -0.5741,-20.09357 -5.74101,-17.79716 -14.35254,-17.79716"
       id="path17637"
       inkscape:connector-curvature="0"
       transform="translate(-128.48318,173.5517)"
       sodipodi:nodetypes="cc" />
    <rect
       inkscape:connector-avoid="true"
       style="fill:#76c5d9;fill-rule:evenodd;stroke:none;fill-opacity:1"
       id="rect4811"
       width="288.36298"
       height="20"
       x="64.637024"
       y="419.63159"
       rx="1.6144793" />
    <path
       transform="translate(-128.48318,173.5517)"
       inkscape:connector-curvature="0"
       id="path17639"
       d="m 494.3017,273.82749 c -0.34507,-12.07758 -1.83191,-55.51552 -26.40868,-55.51552 -21.99982,0 -78.78331,0 -84.96707,0"
       style="fill:none;stroke:#000000;stroke-width:1px;stroke-linecap:butt;stroke-linejoin:miter;stroke-opacity:1"
       sodipodi:nodetypes="csc" />
    <path
       sodipodi:nodetypes="csc"
       style="fill:none;stroke:#000000;stroke-width:1px;stroke-linecap:butt;stroke-linejoin:miter;stroke-opacity:1"
       d="m 494.3017,273.82749 c -0.44082,-15.42879 -1.12348,-91.3806 -26.40868,-91.3806 -37.1855,0 -180.68815,0 -184.28669,0"
       id="path17641"
       inkscape:connector-curvature="0"
       transform="translate(-128.48318,173.5517)" />
    <path
       transform="translate(-128.48318,173.5517)"
       inkscape:connector-curvature="0"
       id="path17643"
       d="m 494.3017,273.82749 c -0.27754,-9.714 -0.72366,-130.01468 -26.40868,-130.01468 -61.09033,0 -198.33931,0 -206.34641,0"
       style="fill:none;stroke:#000000;stroke-width:1px;stroke-linecap:butt;stroke-linejoin:miter;stroke-opacity:1"
       sodipodi:nodetypes="csc" />
    <rect
       rx="1.6144793"
       y="-364.97379"
       x="-157.89616"
       height="20"
       width="93.259132"
       id="rect8241"
       style="fill:#e580ff;fill-opacity:1;fill-rule:evenodd;stroke:none"
       inkscape:connector-avoid="true"
       transform="scale(-1,-1)" />
    <g
       style="font-size:18px;font-style:normal;font-variant:normal;font-weight:normal;font-stretch:normal;line-height:125%;letter-spacing:0px;word-spacing:0px;fill:#000000;fill-opacity:1;stroke:none;font-family:Bitstream Vera Sans;-inkscape-font-specification:Bitstream Vera Sans"
       id="text17647">
      <path
         d="m 517.9671,457.14471 1.85449,0 0,2.23243 -1.85449,0 0,-2.23243"
         style=""
         id="path12506" />
      <path
         d="m 523.69757,457.14471 1.85449,0 0,2.23243 -1.85449,0 0,-2.23243"
         style=""
         id="path12508" />
      <path
         d="m 529.42804,457.14471 1.85449,0 0,2.23243 -1.85449,0 0,-2.23243"
         style=""
         id="path12510" />
    </g>
    <rect
       style="fill:none;stroke:#787878;stroke-width:1;stroke-miterlimit:4;stroke-opacity:1;stroke-dasharray:3, 3;stroke-dashoffset:0"
       id="rect17651"
       width="99.864021"
       height="64.952209"
       x="61.878223"
       y="303.4436" />
    <rect
       transform="scale(-1,-1)"
       inkscape:connector-avoid="true"
       style="fill:#e580ff;fill-opacity:1;fill-rule:evenodd;stroke:none"
       id="rect8243"
       width="71.095985"
       height="20"
       x="-135.73302"
       y="-327.64487"
       rx="1.6144793" />
    <rect
       y="378.95056"
       x="61.878223"
       height="64.952209"
       width="294.72067"
       id="rect17655"
       style="fill:none;stroke:#787878;stroke-width:1;stroke-miterlimit:4;stroke-opacity:1;stroke-dasharray:3, 3;stroke-dashoffset:0" />
  </g>
</svg>
