<?xml version="1.0" encoding="UTF-8"?>
<svg id="svg2" width="750" height="150" version="1.1" xml:space="preserve" xmlns="http://www.w3.org/2000/svg" xmlns:xlink="http://www.w3.org/1999/xlink"><defs id="defs6"><marker id="TriangleOutS" overflow="visible" orient="auto"><path id="path7398" transform="scale(.2)" d="m5.77 0-8.65 5v-10z" fill-rule="evenodd" stroke="#000" stroke-width="1pt"/></marker>





<marker id="TriangleOutS-5" overflow="visible" orient="auto"><path id="path7398-6" transform="scale(.2)" d="m5.77 0-8.65 5v-10z" fill-rule="evenodd" stroke="#000" stroke-width="1pt"/></marker><marker id="TriangleOutS-5-8" overflow="visible" orient="auto"><path id="path7398-6-7" transform="scale(.2)" d="m5.77 0-8.65 5v-10z" fill-rule="evenodd" stroke="#000" stroke-width="1pt"/></marker><marker id="TriangleOutS-5-8-8" overflow="visible" orient="auto"><path id="path7398-6-7-2" transform="scale(.2)" d="m5.77 0-8.65 5v-10z" fill-rule="evenodd" stroke="#000" stroke-width="1pt"/></marker><marker id="TriangleOutS-5-8-8-9" overflow="visible" orient="auto"><path id="path7398-6-7-2-6" transform="scale(.2)" d="m5.77 0-8.65 5v-10z" fill-rule="evenodd" stroke="#000" stroke-width="1pt"/></marker></defs><g id="g10" transform="matrix(1.25 0 0 -1.25 0 249.8)"><path id="path16354" d="m135.79 170.8h20.8" fill="none" marker-end="url(#TriangleOutS)" stroke="#000" stroke-width="2.4"/>































































































































































































<path id="rect9839-6-2" transform="scale(1,-1)" d="m161.48-127.16h125.05c0.69525 0 1.255 0.55971 1.255 1.255v37.052c0 0.69525-0.55971 1.255-1.255 1.255h-125.05c-0.69525 0-1.255-0.55971-1.255-1.255v-37.052c0-0.69525 0.55972-1.255 1.255-1.255z" fill="#e6e6e6" stroke="#303539" stroke-linejoin="round" stroke-miterlimit="0" stroke-width=".87593"/><g id="text1342-6-3-4-9-0-4" transform="scale(1,-1)" style="font-feature-settings:normal;font-variant-caps:normal;font-variant-ligatures:normal;font-variant-numeric:normal" aria-label="REST API endpoint"><path id="path85097" d="m172-114.35q1.9285 0 2.8331 0.8704 0.9216 0.85333 0.9216 2.5941 0 1.1776-0.42667 1.9968-0.42666 0.8192-1.3995 1.2971l2.4747 5.4272h-1.8773l-2.1163-5.0005h-1.0581v5.0005h-1.7067v-12.186zm0.0171 1.5019h-0.6656v4.2837h0.78507q1.8773 0 1.8773-2.2357 0-1.0752-0.49493-1.5531-0.47787-0.49494-1.5019-0.49494z" style="font-feature-settings:normal;font-variant-caps:small-caps;font-variant-ligatures:normal;font-variant-numeric:normal"/><path id="path85099" d="m182.81-102.17h-5.0347v-12.186h5.0347v1.4848h-3.328v3.6011h3.1232v1.5019h-3.1232v4.0789h3.328z" style="font-feature-settings:normal;font-variant-caps:small-caps;font-variant-ligatures:normal;font-variant-numeric:normal"/><path id="path85101" d="m190.13-105.58q0 1.0581-0.42666 1.8603-0.4096 0.80213-1.1605 1.2629-0.73386 0.4608-1.7408 0.4608-0.75093 0-1.3995-0.13653-0.64854-0.13653-1.2288-0.42667v-1.7579q0.6144 0.3584 1.2971 0.54613 0.68267 0.18773 1.2629 0.18773 0.80213 0 1.2288-0.52906 0.44373-0.54614 0.44373-1.2971 0-0.52907-0.17067-0.90453-0.1536-0.39254-0.54613-0.7168-0.39253-0.32427-1.0923-0.69974-0.7168-0.4096-1.2459-0.85333-0.52907-0.44373-0.8192-1.0752-0.27307-0.63147-0.27307-1.5872-0.0171-0.9728 0.37547-1.7067 0.4096-0.75093 1.1435-1.1605 0.73387-0.42667 1.6896-0.4096 0.73387 0 1.3824 0.18773 0.6656 0.17067 1.1947 0.4608l-0.512 1.536q-1.0581-0.59733-2.0139-0.59733-0.73386 0-1.1435 0.4608-0.39254 0.44373-0.39254 1.1435 0 0.5632 0.1536 0.93866 0.17067 0.37547 0.5632 0.68267 0.39254 0.3072 1.1093 0.69973 1.1605 0.64854 1.7408 1.4507 0.58026 0.80213 0.58026 1.9797z" style="font-feature-settings:normal;font-variant-caps:small-caps;font-variant-ligatures:normal;font-variant-numeric:normal"/><path id="path85103" d="m194.94-102.17h-1.6896v-10.667h-2.3381v-1.5189h6.3488v1.5189h-2.3211z" style="font-feature-settings:normal;font-variant-caps:small-caps;font-variant-ligatures:normal;font-variant-numeric:normal"/><path id="path85105" d="m206.85-102.17-0.8192-3.5499h-2.816l-0.80213 3.5499h-1.8261l2.9525-12.186h2.0992l3.0037 12.186zm-1.1093-5.0859-0.83627-3.7717q-0.1024-0.512-0.18773-0.98987-0.0683-0.47787-0.11947-0.88747-0.0853 0.85334-0.3072 1.8603l-0.80213 3.7888z" style="font-feature-settings:normal;font-variant-caps:small-caps;font-variant-ligatures:normal;font-variant-numeric:normal"/><path id="path85107" d="m212.35-114.35q1.8091 0 2.6795 0.90453 0.88747 0.90453 0.88747 2.7477 0 1.8603-0.90453 2.8843-0.88747 1.024-2.7136 1.024h-0.75094v4.6251h-1.7067v-12.186zm-0.0853 1.4848h-0.7168v4.608h0.58027q1.0752 0 1.5701-0.5632 0.49494-0.5632 0.49494-1.8603 0-1.1605-0.47787-1.6725-0.4608-0.512-1.4507-0.512z" style="font-feature-settings:normal;font-variant-caps:small-caps;font-variant-ligatures:normal;font-variant-numeric:normal"/><path id="path85109" d="m220.93-102.17h-3.9253v-0.95574l1.1093-0.34133v-9.5915l-1.1093-0.34133v-0.95573h3.9253v0.95573l-1.1264 0.34133v9.5915l1.1264 0.34133z" style="font-feature-settings:normal;font-variant-caps:small-caps;font-variant-ligatures:normal;font-variant-numeric:normal"/><path id="path85111" d="m225.46-111.96h4.2496v1.3995h-2.6112v2.6283h2.4405v1.3995h-2.4405v2.9525h2.6112v1.4165h-4.2496z" style="font-feature-settings:normal;font-variant-caps:small-caps;font-variant-ligatures:normal;font-variant-numeric:normal"/><path id="path85113" d="m237.59-111.96v9.7963h-2.1675l-2.9696-7.6629h-0.0341q0.0171 0.52907 0.0512 1.1947 0.0341 0.64853 0.0341 1.2459v5.2224h-1.5189v-9.7963h2.1675l2.9525 7.5776h0.0341q-0.0341-0.44373-0.0512-1.0581-0.0171-0.63147-0.0171-1.2629v-5.2565z" style="font-feature-settings:normal;font-variant-caps:small-caps;font-variant-ligatures:normal;font-variant-numeric:normal"/><path id="path85115" d="m245.29-107.22q0 2.5088-0.98987 3.7888-0.98987 1.2629-2.7477 1.2629h-2.304v-9.7963h2.4405q1.7579 0 2.6795 1.2288 0.9216 1.2117 0.9216 3.5157zm-1.6555 0.0683q0-3.3621-1.9456-3.3621h-0.8192v6.8779h0.68267q2.0821 0 2.0821-3.5157z" style="font-feature-settings:normal;font-variant-caps:small-caps;font-variant-ligatures:normal;font-variant-numeric:normal"/><path id="path85117" d="m248.96-111.96q1.3653 0 2.048 0.768 0.68267 0.75093 0.68267 2.2016 0 1.4336-0.64854 2.3211-0.63146 0.88746-2.0992 0.88746h-0.7168v3.6181h-1.6384v-9.7963zm-0.75093 4.7616h0.58026q0.5632 0 0.88747-0.37547 0.34133-0.39253 0.34133-1.3141 0-1.6725-1.1264-1.6725h-0.68266z" style="font-feature-settings:normal;font-variant-caps:small-caps;font-variant-ligatures:normal;font-variant-numeric:normal"/><path id="path85119" d="m259.54-107.08q0 1.5019-0.3584 2.6453-0.34133 1.1435-1.1093 1.7749-0.75094 0.63147-1.9797 0.63147-1.1947 0-1.9456-0.63147-0.75093-0.63146-1.1093-1.7749t-0.3584-2.6624q0-1.5019 0.3584-2.6283t1.1093-1.7579q0.768-0.63147 1.9627-0.63147 1.2117 0 1.9627 0.63147 0.768 0.63146 1.1093 1.7749 0.3584 1.1264 0.3584 2.6283zm-5.2053 0q0 1.6896 0.44373 2.6624 0.44373 0.95573 1.3312 0.95573 0.9216 0 1.3483-0.95573 0.42666-0.95574 0.42666-2.6624 0-1.7579-0.44373-2.6795-0.42667-0.93867-1.3312-0.93867t-1.3483 0.95574q-0.42666 0.93866-0.42666 2.6624z" style="font-feature-settings:normal;font-variant-caps:small-caps;font-variant-ligatures:normal;font-variant-numeric:normal"/><path id="path85121" d="m260.48-102.17v-1.0069l0.88747-0.34133v-7.1168l-0.88747-0.3072v-1.024h3.4475v1.024l-0.9216 0.3072v7.1168l0.9216 0.34133v1.0069z" style="font-feature-settings:normal;font-variant-caps:small-caps;font-variant-ligatures:normal;font-variant-numeric:normal"/><path id="path85123" d="m271.72-111.96v9.7963h-2.1675l-2.9696-7.6629h-0.0341q0.0171 0.52907 0.0512 1.1947 0.0341 0.64853 0.0341 1.2459v5.2224h-1.5189v-9.7963h2.1675l2.9525 7.5776h0.0341q-0.0341-0.44373-0.0512-1.0581-0.0171-0.63147-0.0171-1.2629v-5.2565z" style="font-feature-settings:normal;font-variant-caps:small-caps;font-variant-ligatures:normal;font-variant-numeric:normal"/><path id="path85125" d="m278.19-111.96v1.4848h-1.8944v8.3115h-1.6896v-8.3115h-1.8944v-1.4848z" style="font-feature-settings:normal;font-variant-caps:small-caps;font-variant-ligatures:normal;font-variant-numeric:normal"/></g>






















































<g id="g85558" transform="translate(-8.209 -80.245)"><path id="rect9839-6-9" transform="scale(1,-1)" d="m473.25-239.4h125.05c0.69525 0 1.255 0.55972 1.255 1.255v37.052c0 0.69525-0.55972 1.255-1.255 1.255h-125.05c-0.69525 0-1.255-0.55972-1.255-1.255v-37.052c0-0.69525 0.55971-1.255 1.255-1.255z" fill="#e6e6e6" stroke="#303539" stroke-linejoin="round" stroke-miterlimit="0" stroke-width=".87593"/><g id="text1342-6-3-4-9-0-4-9" transform="scale(1,-1)" style="font-feature-settings:normal;font-variant-caps:normal;font-variant-ligatures:normal;font-variant-numeric:normal" aria-label="Role "><path id="path85129" d="m525.56-226.56q1.9285 0 2.8331 0.8704 0.9216 0.85333 0.9216 2.5941 0 1.1776-0.42666 1.9968-0.42667 0.8192-1.3995 1.2971l2.4747 5.4272h-1.8773l-2.1163-5.0005h-1.0581v5.0005h-1.7067v-12.186zm0.0171 1.5019h-0.6656v4.2837h0.78507q1.8773 0 1.8773-2.2357 0-1.0752-0.49493-1.5531-0.47787-0.49494-1.5019-0.49494z" style="font-feature-settings:normal;font-variant-caps:small-caps;font-variant-ligatures:normal;font-variant-numeric:normal"/><path id="path85131" d="m537.38-219.29q0 1.5019-0.3584 2.6453-0.34133 1.1435-1.1093 1.7749-0.75094 0.63147-1.9797 0.63147-1.1947 0-1.9456-0.63147-0.75093-0.63146-1.1093-1.7749t-0.3584-2.6624q0-1.5019 0.3584-2.6283t1.1093-1.7579q0.768-0.63147 1.9627-0.63147 1.2117 0 1.9627 0.63147 0.768 0.63146 1.1093 1.7749 0.3584 1.1264 0.3584 2.6283zm-5.2053 0q0 1.6896 0.44373 2.6624 0.44373 0.95573 1.3312 0.95573 0.9216 0 1.3483-0.95573 0.42666-0.95574 0.42666-2.6624 0-1.7579-0.44373-2.6795-0.42667-0.93867-1.3312-0.93867t-1.3483 0.95574q-0.42666 0.93866-0.42666 2.6624z" style="font-feature-settings:normal;font-variant-caps:small-caps;font-variant-ligatures:normal;font-variant-numeric:normal"/><path id="path85133" d="m540.42-224.18v8.3285h2.9867v1.4677h-4.6251v-9.7963z" style="font-feature-settings:normal;font-variant-caps:small-caps;font-variant-ligatures:normal;font-variant-numeric:normal"/><path id="path85135" d="m544.52-224.18h4.2496v1.3995h-2.6112v2.6283h2.4405v1.3995h-2.4405v2.9525h2.6112v1.4165h-4.2496z" style="font-feature-settings:normal;font-variant-caps:small-caps;font-variant-ligatures:normal;font-variant-numeric:normal"/></g>
</g><g id="g85572" transform="translate(-8.209 -80.245)"><path id="rect9839-6-6" transform="scale(1,-1)" d="m340.22-271.4h88c10.959 0 19.781 8.8223 19.781 19.781 0 10.959-8.8223 19.781-19.781 19.781h-88c-10.959 0-19.781-8.8223-19.781-19.781 0-10.959 8.8223-19.781 19.781-19.781z" fill="#e6e6e6" stroke="#303539" stroke-linejoin="round" stroke-miterlimit="0" stroke-width=".87593"/><g id="text1342-6-3-4-9-0-4-9-1-3" transform="scale(1,-1)" style="font-feature-settings:normal;font-variant-caps:normal;font-variant-ligatures:normal;font-variant-numeric:normal" aria-label="RoleMatcher "><path id="path85139" d="m352.76-257q1.9285 0 2.8331 0.8704 0.9216 0.85333 0.9216 2.5941 0 1.1776-0.42667 1.9968t-1.3995 1.2971l2.4747 5.4272h-1.8773l-2.1163-5.0005h-1.0581v5.0005h-1.7067v-12.186zm0.0171 1.5019h-0.6656v4.2837h0.78506q1.8773 0 1.8773-2.2357 0-1.0752-0.49494-1.5531-0.47786-0.49493-1.5019-0.49493z" style="font-feature-settings:normal;font-variant-caps:normal;font-variant-ligatures:normal;font-variant-numeric:normal"/><path id="path85141" d="m364.45-249.44q0 1.3995-0.34133 2.4747-0.32427 1.0752-1.0411 1.7067-0.7168 0.6144-1.8603 0.6144-1.0581 0-1.7749-0.6144t-1.0752-1.6896q-0.34133-1.0923-0.34133-2.4917 0-2.2187 0.768-3.4816 0.78507-1.28 2.4576-1.28 1.5189 0 2.3552 1.2117 0.85333 1.2117 0.85333 3.5499zm-4.7616 0.0171q0 1.6555 0.37547 2.5088t1.1776 0.85333q0.8192 0 1.1776-0.83626 0.37547-0.83627 0.37547-2.5429 0-1.6725-0.37547-2.5088-0.3584-0.83626-1.1776-0.83626t-1.1947 0.83626q-0.3584 0.83627-0.3584 2.5259z" style="font-feature-settings:normal;font-variant-caps:normal;font-variant-ligatures:normal;font-variant-numeric:normal"/><path id="path85143" d="m367.84-244.81h-1.6384v-12.971h1.6384z" style="font-feature-settings:normal;font-variant-caps:normal;font-variant-ligatures:normal;font-variant-numeric:normal"/><path id="path85145" d="m372.65-254.18q0.9728 0 1.6213 0.52907 0.64854 0.52906 0.9728 1.4677 0.32427 0.9216 0.32427 2.0992v1.0411h-4.3861q0.0512 3.0379 1.9627 3.0379 0.512 0 1.0069-0.1536 0.512-0.1536 1.0411-0.49493v1.4165q-0.98986 0.59734-2.2528 0.59734-1.2117 0-1.9456-0.59734-0.73386-0.6144-1.0752-1.6725-0.34133-1.0752-0.34133-2.4405 0-2.3381 0.768-3.584 0.78507-1.2459 2.304-1.2459zm0 1.3141q-0.64853 0-1.024 0.63147-0.37547 0.6144-0.42667 1.9456h2.8501q0-1.0752-0.34134-1.8261-0.34133-0.75094-1.0581-0.75094z" style="font-feature-settings:normal;font-variant-caps:normal;font-variant-ligatures:normal;font-variant-numeric:normal"/><path id="path85147" d="m381.75-244.81-2.7648-9.8645h-0.0683q0.0512 0.85333 0.0853 1.4848 0.0341 0.63146 0.0341 1.024v7.3557h-1.6213v-12.186h2.3893l2.6624 9.472h0.0512l2.6624-9.472h2.3893v12.186h-1.6384v-7.3387q0-0.42666 0.0171-1.0581t0.0683-1.4507h-0.0683l-2.7648 9.8475z" style="font-feature-settings:normal;font-variant-caps:normal;font-variant-ligatures:normal;font-variant-numeric:normal"/><path id="path85149" d="m392.55-254.2q1.3141 0 1.9115 0.83627 0.59734 0.8192 0.59734 2.3723v6.1781h-1.2288l-0.256-1.2629h-0.0341q-0.37546 0.7168-0.90453 1.0752-0.512 0.3584-1.2459 0.3584-0.73386 0-1.1947-0.39254-0.46081-0.39253-0.68267-1.024-0.2048-0.63146-0.2048-1.3653 0-1.3995 0.78506-2.1504 0.78507-0.75093 2.2528-0.8192l1.0752-0.0512v-0.52907q0-0.9728-0.27307-1.4336t-0.88747-0.4608q-0.768 0-1.792 0.59734l-0.49493-1.2288q1.1435-0.69974 2.5771-0.69974zm0.88746 4.9152-0.768 0.0341q-1.7067 0.1024-1.7067 1.7749 0 1.5189 1.024 1.5189 0.6656 0 1.0581-0.64853t0.39253-1.792z" style="font-feature-settings:normal;font-variant-caps:normal;font-variant-ligatures:normal;font-variant-numeric:normal"/><path id="path85151" d="m399.65-246.08q0.4096 0 0.88747-0.2048v1.3141q-0.29014 0.1536-0.64854 0.23893-0.34133 0.0853-0.768 0.0853-0.98986 0-1.4507-0.63147-0.4608-0.64853-0.4608-1.9627v-5.4272h-0.8704v-0.88746l0.9728-0.42667 0.42666-2.0821h1.1093v2.0309h1.5701v1.3653h-1.5701v5.2907q0 0.64853 0.17066 0.9728 0.17067 0.32427 0.63147 0.32427z" style="font-feature-settings:normal;font-variant-caps:normal;font-variant-ligatures:normal;font-variant-numeric:normal"/><path id="path85153" d="m404.67-244.64q-3.1744 0-3.1744-4.7275 0-2.2187 0.78507-3.5157 0.78507-1.3141 2.4235-1.3141 0.58026 0 1.0411 0.13654 0.47787 0.11946 0.8704 0.34133l-0.47786 1.3312q-0.69974-0.37547-1.3141-0.37547-1.6725 0-1.6725 3.3963 0 3.3109 1.6896 3.3109 0.78507 0 1.6555-0.512v1.3824q-0.39254 0.27307-0.88747 0.4096-0.49493 0.13654-0.93867 0.13654z" style="font-feature-settings:normal;font-variant-caps:normal;font-variant-ligatures:normal;font-variant-numeric:normal"/><path id="path85155" d="m409.67-257.78v3.4304q0 0.85334-0.11947 1.536h0.1024q0.256-0.6656 0.78507-1.024 0.52906-0.3584 1.1947-0.3584 1.1947 0 1.7579 0.8192t0.5632 2.3723v6.1952h-1.6384v-5.8197q0-1.1093-0.256-1.6043-0.23893-0.49493-0.8192-0.49493-0.85333 0-1.2117 0.78506-0.3584 0.78507-0.3584 2.4576v4.6763h-1.6384v-12.971z" style="font-feature-settings:normal;font-variant-caps:normal;font-variant-ligatures:normal;font-variant-numeric:normal"/><path id="path85157" d="m418.75-254.18q0.9728 0 1.6213 0.52907 0.64853 0.52906 0.9728 1.4677 0.32427 0.9216 0.32427 2.0992v1.0411h-4.3861q0.0512 3.0379 1.9627 3.0379 0.512 0 1.0069-0.1536 0.512-0.1536 1.0411-0.49493v1.4165q-0.98987 0.59734-2.2528 0.59734-1.2117 0-1.9456-0.59734-0.73387-0.6144-1.0752-1.6725-0.34133-1.0752-0.34133-2.4405 0-2.3381 0.768-3.584 0.78506-1.2459 2.304-1.2459zm0 1.3141q-0.64854 0-1.024 0.63147-0.37547 0.6144-0.42667 1.9456h2.8501q0-1.0752-0.34133-1.8261-0.34133-0.75094-1.0581-0.75094z" style="font-feature-settings:normal;font-variant-caps:normal;font-variant-ligatures:normal;font-variant-numeric:normal"/><path id="path85159" d="m426.79-254.2q0.39253 0 0.78506 0.11947l-0.2048 1.7067q-0.29013-0.11947-0.7168-0.11947-0.73386 0-1.1947 0.8192-0.44374 0.8192-0.44374 2.0821v4.7787h-1.6213v-9.216h1.2629l0.22187 1.5531h0.0853q0.29014-0.75094 0.75094-1.2288 0.4608-0.49494 1.0752-0.49494z" style="font-feature-settings:normal;font-variant-caps:normal;font-variant-ligatures:normal;font-variant-numeric:normal"/></g>
</g><path id="rect9839-6" transform="scale(1,-1)" d="m331.97-127.16h88.07c10.939 0 19.746 8.8067 19.746 19.746v0.0702c0 10.939-8.8067 19.746-19.746 19.746h-88.07c-10.939 0-19.746-8.8067-19.746-19.746v-0.0702c0-10.939 8.8067-19.746 19.746-19.746z" fill="#e6e6e6" stroke="#303539" stroke-linejoin="round" stroke-miterlimit="0" stroke-width=".87593"/><g id="text1342-6-3-4-9-0-4-9-1-39" transform="scale(1,-1)" style="font-feature-settings:normal;font-variant-caps:normal;font-variant-ligatures:normal;font-variant-numeric:normal" aria-label="EndpointMatcher "><path id="path85163" d="m328.03-101.29h-5.0347v-12.186h5.0347v1.4848h-3.328v3.6011h3.1232v1.5019h-3.1232v4.0789h3.328z" style="font-feature-settings:normal;font-variant-caps:normal;font-variant-ligatures:normal;font-variant-numeric:normal"/><path id="path85165" d="m333.46-110.68q2.304 0 2.304 3.1915v6.1952h-1.6384v-5.8197q0-1.0411-0.256-1.5701-0.23893-0.54614-0.83627-0.54614-0.83626 0-1.1947 0.768-0.3584 0.75094-0.3584 2.4917v4.6763h-1.6384v-9.216h1.3141l0.17067 1.2288h0.1024q0.29013-0.6656 0.8192-1.024 0.54613-0.37547 1.2117-0.37547z" style="font-feature-settings:normal;font-variant-caps:normal;font-variant-ligatures:normal;font-variant-numeric:normal"/><path id="path85167" d="m340.19-101.12q-1.3312 0-2.0309-1.2288-0.68266-1.2459-0.68266-3.5499 0-2.2869 0.68266-3.5328 0.69974-1.2459 1.9627-1.2459 0.63147 0 1.1605 0.34134 0.54614 0.34133 0.88747 1.0069h0.0683q-0.0171-0.42667-0.0341-0.75093-0.0171-0.34134-0.0171-0.59734v-3.584h1.6384v12.971h-1.3141l-0.22186-1.1264h-0.1024q-0.37547 0.64854-0.85334 0.9728-0.47786 0.32427-1.1435 0.32427zm0.42666-1.3824q1.5701 0 1.5701-3.0208v-0.512q0-1.6555-0.39254-2.4235-0.37546-0.78507-1.2117-0.78507-0.75093 0-1.0923 0.87041-0.34133 0.85333-0.34133 2.4747 0 3.3963 1.4677 3.3963z" style="font-feature-settings:normal;font-variant-caps:normal;font-variant-ligatures:normal;font-variant-numeric:normal"/><path id="path85169" d="m349.56-110.68q1.3141 0 2.0139 1.2117 0.69973 1.2117 0.69973 3.5669 0 2.2699-0.69973 3.5328-0.68267 1.2459-1.9285 1.2459-0.6656 0-1.2117-0.3584-0.52907-0.3584-0.8704-1.0411h-0.0683q0.0341 0.4096 0.0512 0.75094 0.0171 0.32426 0.0171 0.58026v3.9936h-1.6384v-13.312h1.3312l0.22187 1.2459h0.0853q0.39253-0.768 0.88747-1.0923 0.49493-0.32427 1.1093-0.32427zm-0.42667 1.3995q-0.80213 0-1.1947 0.75094-0.37547 0.75093-0.37547 2.3552v0.37546q0 1.6896 0.37547 2.4747 0.39253 0.78507 1.2117 0.78507 0.73387 0 1.0923-0.8192t0.3584-2.5259q0-1.6896-0.34134-2.5429-0.34133-0.85334-1.1264-0.85334z" style="font-feature-settings:normal;font-variant-caps:normal;font-variant-ligatures:normal;font-variant-numeric:normal"/><path id="path85171" d="m360.05-105.92q0 1.3995-0.34133 2.4747-0.32427 1.0752-1.0411 1.7067-0.7168 0.6144-1.8603 0.6144-1.0581 0-1.7749-0.6144t-1.0752-1.6896q-0.34133-1.0923-0.34133-2.4917 0-2.2187 0.768-3.4816 0.78507-1.28 2.4576-1.28 1.5189 0 2.3552 1.2117 0.85333 1.2117 0.85333 3.5499zm-4.7616 0.0171q0 1.6555 0.37547 2.5088 0.37547 0.85334 1.1776 0.85334 0.8192 0 1.1776-0.83627 0.37547-0.83627 0.37547-2.5429 0-1.6725-0.37547-2.5088-0.3584-0.83627-1.1776-0.83627t-1.1947 0.83627q-0.3584 0.83626-0.3584 2.5259z" style="font-feature-settings:normal;font-variant-caps:normal;font-variant-ligatures:normal;font-variant-numeric:normal"/><path id="path85173" d="m362.65-114.02q0.9216 0 0.9216 1.0752 0 1.0581-0.9216 1.0581t-0.9216-1.0581q0-1.0752 0.9216-1.0752zm0.80213 3.5157v9.216h-1.6213v-9.216z" style="font-feature-settings:normal;font-variant-caps:normal;font-variant-ligatures:normal;font-variant-numeric:normal"/><path id="path85175" d="m369.2-110.68q2.304 0 2.304 3.1915v6.1952h-1.6384v-5.8197q0-1.0411-0.256-1.5701-0.23894-0.54614-0.83627-0.54614-0.83627 0-1.1947 0.768-0.3584 0.75094-0.3584 2.4917v4.6763h-1.6384v-9.216h1.3141l0.17066 1.2288h0.1024q0.29014-0.6656 0.8192-1.024 0.54614-0.37547 1.2117-0.37547z" style="font-feature-settings:normal;font-variant-caps:normal;font-variant-ligatures:normal;font-variant-numeric:normal"/><path id="path85177" d="m376.09-102.56q0.4096 0 0.88747-0.2048v1.3141q-0.29014 0.1536-0.64854 0.23894-0.34133 0.0853-0.768 0.0853-0.98986 0-1.4507-0.63147-0.4608-0.64853-0.4608-1.9627v-5.4272h-0.8704v-0.88746l0.9728-0.42667 0.42666-2.0821h1.1093v2.0309h1.5701v1.3653h-1.5701v5.2907q0 0.64854 0.17066 0.9728 0.17067 0.32427 0.63147 0.32427z" style="font-feature-settings:normal;font-variant-caps:normal;font-variant-ligatures:normal;font-variant-numeric:normal"/><path id="path85179" d="m382.77-101.29-2.7648-9.8645h-0.0683q0.0512 0.85333 0.0853 1.4848 0.0341 0.63146 0.0341 1.024v7.3557h-1.6213v-12.186h2.3893l2.6624 9.472h0.0512l2.6624-9.472h2.3893v12.186h-1.6384v-7.3387q0-0.42667 0.0171-1.0581t0.0683-1.4507h-0.0683l-2.7648 9.8475z" style="font-feature-settings:normal;font-variant-caps:normal;font-variant-ligatures:normal;font-variant-numeric:normal"/><path id="path85181" d="m393.57-110.68q1.3141 0 1.9115 0.83627 0.59733 0.8192 0.59733 2.3723v6.1781h-1.2288l-0.256-1.2629h-0.0341q-0.37547 0.7168-0.90454 1.0752-0.512 0.3584-1.2459 0.3584-0.73387 0-1.1947-0.39253-0.4608-0.39254-0.68267-1.024-0.2048-0.63147-0.2048-1.3653 0-1.3995 0.78507-2.1504 0.78507-0.75093 2.2528-0.8192l1.0752-0.0512v-0.52906q0-0.9728-0.27307-1.4336-0.27306-0.46081-0.88746-0.46081-0.768 0-1.792 0.59734l-0.49494-1.2288q1.1435-0.69974 2.5771-0.69974zm0.88747 4.9152-0.768 0.0341q-1.7067 0.1024-1.7067 1.7749 0 1.5189 1.024 1.5189 0.6656 0 1.0581-0.64854 0.39254-0.64853 0.39254-1.792z" style="font-feature-settings:normal;font-variant-caps:normal;font-variant-ligatures:normal;font-variant-numeric:normal"/><path id="path85183" d="m400.67-102.56q0.4096 0 0.88746-0.2048v1.3141q-0.29013 0.1536-0.64853 0.23894-0.34133 0.0853-0.768 0.0853-0.98987 0-1.4507-0.63147-0.4608-0.64853-0.4608-1.9627v-5.4272h-0.8704v-0.88746l0.9728-0.42667 0.42667-2.0821h1.1093v2.0309h1.5701v1.3653h-1.5701v5.2907q0 0.64854 0.17067 0.9728 0.17067 0.32427 0.63147 0.32427z" style="font-feature-settings:normal;font-variant-caps:normal;font-variant-ligatures:normal;font-variant-numeric:normal"/><path id="path85185" d="m405.69-101.12q-3.1744 0-3.1744-4.7275 0-2.2187 0.78506-3.5157 0.78507-1.3141 2.4235-1.3141 0.58027 0 1.0411 0.13654 0.47786 0.11946 0.8704 0.34133l-0.47787 1.3312q-0.69973-0.37547-1.3141-0.37547-1.6725 0-1.6725 3.3963 0 3.3109 1.6896 3.3109 0.78507 0 1.6555-0.512v1.3824q-0.39253 0.27306-0.88747 0.4096-0.49493 0.13653-0.93866 0.13653z" style="font-feature-settings:normal;font-variant-caps:normal;font-variant-ligatures:normal;font-variant-numeric:normal"/><path id="path85187" d="m410.69-114.26v3.4304q0 0.85334-0.11947 1.536h0.1024q0.256-0.6656 0.78507-1.024 0.52906-0.3584 1.1947-0.3584 1.1947 0 1.7579 0.8192t0.5632 2.3723v6.1952h-1.6384v-5.8197q0-1.1093-0.256-1.6043-0.23893-0.49493-0.8192-0.49493-0.85333 0-1.2117 0.78507-0.3584 0.78506-0.3584 2.4576v4.6763h-1.6384v-12.971z" style="font-feature-settings:normal;font-variant-caps:normal;font-variant-ligatures:normal;font-variant-numeric:normal"/><path id="path85189" d="m419.77-110.66q0.9728 0 1.6213 0.52907 0.64853 0.52906 0.9728 1.4677 0.32426 0.9216 0.32426 2.0992v1.0411h-4.3861q0.0512 3.0379 1.9627 3.0379 0.512 0 1.0069-0.1536 0.512-0.1536 1.0411-0.49494v1.4165q-0.98987 0.59733-2.2528 0.59733-1.2117 0-1.9456-0.59733-0.73387-0.6144-1.0752-1.6725-0.34134-1.0752-0.34134-2.4405 0-2.3381 0.768-3.584 0.78507-1.2459 2.304-1.2459zm0 1.3141q-0.64853 0-1.024 0.63147-0.37546 0.6144-0.42666 1.9456h2.8501q0-1.0752-0.34133-1.8261-0.34134-0.75094-1.0581-0.75094z" style="font-feature-settings:normal;font-variant-caps:normal;font-variant-ligatures:normal;font-variant-numeric:normal"/><path id="path85191" d="m427.81-110.68q0.39254 0 0.78507 0.11947l-0.2048 1.7067q-0.29013-0.11947-0.7168-0.11947-0.73387 0-1.1947 0.8192-0.44373 0.8192-0.44373 2.0821v4.7787h-1.6213v-9.216h1.2629l0.22187 1.5531h0.0853q0.29013-0.75094 0.75093-1.2288 0.4608-0.49494 1.0752-0.49494z" style="font-feature-settings:normal;font-variant-caps:normal;font-variant-ligatures:normal;font-variant-numeric:normal"/></g>

<g id="g95461"><path id="rect9839-6-9-4-7" transform="scale(1,-1)" d="m9.4839-183.16h125.05c0.69525 0 1.255 0.55971 1.255 1.255v21.052c0 0.69525-0.55971 1.255-1.255 1.255h-125.05c-0.69525 0-1.255-0.55971-1.255-1.255v-21.052c0-0.69525 0.55971-1.255 1.255-1.255z" fill="#e6e6e6" stroke="#303539" stroke-linejoin="round" stroke-miterlimit="0" stroke-width=".87593"/><g id="text1342-6-3-4-9-0-4-9-0" transform="scale(1,-1)" style="font-feature-settings:normal;font-variant-caps:normal;font-variant-ligatures:normal;font-variant-numeric:normal" aria-label="User "><path id="path85196" d="m62.208-178.35v8.3115q0 2.0821-0.8704 3.072-0.8704 0.9728-2.5771 0.9728-1.6725 0-2.56-0.98987-0.88747-0.98987-0.88747-3.0379v-8.3285h1.7067v8.3285q0 1.3312 0.44373 1.9115 0.4608 0.58027 1.3141 0.58027t1.28-0.58027q0.44373-0.58027 0.44373-1.9285v-8.3115z" style="font-feature-settings:normal;font-variant-caps:small-caps;font-variant-ligatures:normal;font-variant-numeric:normal"/><path id="path85198" d="m68.779-168.95q0 1.2629-0.68267 2.0992-0.6656 0.8192-1.9968 0.8192-0.8192 0-1.3312-0.11946-0.49493-0.11947-0.9728-0.39254v-1.5872q0.54613 0.3072 1.1264 0.47787t1.0581 0.17067q0.512 0 0.8192-0.32427 0.32427-0.34133 0.32427-0.98987 0-0.6656-0.37547-1.0069-0.3584-0.3584-1.0923-0.73387-0.59733-0.3072-1.0069-0.6656-0.39253-0.3584-0.59733-0.8704-0.2048-0.52906-0.2048-1.3312 0-1.3141 0.73387-1.9968 0.73387-0.69973 1.8432-0.69973 0.73387 0 1.2971 0.18773 0.5632 0.17067 1.0069 0.42667l-0.512 1.3995q-0.4608-0.29014-0.9216-0.44374t-0.83627-0.1536q-0.4608 0-0.7168 0.3072t-0.256 0.90454q0 0.44373 0.13653 0.7168 0.13653 0.27306 0.44373 0.512 0.32427 0.22186 0.8704 0.512 0.54613 0.29013 0.95573 0.63146 0.42667 0.34134 0.64853 0.85334 0.23893 0.512 0.23893 1.2971z" style="font-feature-settings:normal;font-variant-caps:small-caps;font-variant-ligatures:normal;font-variant-numeric:normal"/><path id="path85200" d="m70.059-175.96h4.2496v1.3995h-2.6112v2.6283h2.4405v1.3995h-2.4405v2.9525h2.6112v1.4165h-4.2496z" style="font-feature-settings:normal;font-variant-caps:small-caps;font-variant-ligatures:normal;font-variant-numeric:normal"/><path id="path85202" d="m77.841-175.96q2.9184 0 2.9184 2.7989 0 0.93866-0.3072 1.6213t-1.0069 1.0411l1.9456 4.3349h-1.7749l-1.5531-3.8912h-0.83627v3.8912h-1.6384v-9.7963zm-0.6144 4.5227h0.69973q0.512 0 0.83627-0.37547 0.34133-0.37546 0.34133-1.1947 0-0.85334-0.3072-1.2117-0.3072-0.37546-0.93867-0.37546h-0.63147z" style="font-feature-settings:normal;font-variant-caps:small-caps;font-variant-ligatures:normal;font-variant-numeric:normal"/></g>
</g><g id="g85548" transform="translate(-71.771 -43.856)"><path id="rect9839-6-9-4" transform="scale(1,-1)" d="m233.25-227.02h125.05c0.69525 0 1.255 0.55972 1.255 1.255v21.052c0 0.69525-0.55972 1.255-1.255 1.255h-125.05c-0.69525 0-1.255-0.55972-1.255-1.255v-21.052c0-0.69525 0.55971-1.255 1.255-1.255z" fill="#e6e6e6" stroke="#303539" stroke-linejoin="round" stroke-miterlimit="0" stroke-width=".87593"/><g id="text1342-6-3-4-9-0-4-9-00" transform="scale(1,-1)" style="font-feature-settings:normal;font-variant-caps:normal;font-variant-ligatures:normal;font-variant-numeric:normal" aria-label="Authenticated User "><path id="path85206" d="m243.1-210.06-0.8192-3.5499h-2.816l-0.80213 3.5499h-1.8261l2.9525-12.186h2.0992l3.0037 12.186zm-1.1093-5.0859-0.83627-3.7717q-0.1024-0.512-0.18773-0.98986-0.0683-0.47787-0.11947-0.88747-0.0853 0.85333-0.3072 1.8603l-0.80213 3.7888z" style="font-feature-settings:normal;font-variant-caps:small-caps;font-variant-ligatures:normal;font-variant-numeric:normal"/><path id="path85208" d="m251.65-219.85v6.1952q0 1.792-0.75093 2.7648-0.73387 0.9728-2.2357 0.9728-1.4677 0-2.2357-0.93867-0.75093-0.95573-0.75093-2.7819v-6.2123h1.6384v6.1099q0 1.2117 0.34133 1.7749 0.3584 0.54613 1.024 0.54613 0.68267 0 1.0069-0.54613 0.34133-0.54613 0.34133-1.7408v-6.144z" style="font-feature-settings:normal;font-variant-caps:small-caps;font-variant-ligatures:normal;font-variant-numeric:normal"/><path id="path85210" d="m258.1-219.85v1.4848h-1.8944v8.3115h-1.6896v-8.3115h-1.8944v-1.4848z" style="font-feature-settings:normal;font-variant-caps:small-caps;font-variant-ligatures:normal;font-variant-numeric:normal"/><path id="path85212" d="m265.03-219.85v9.7963h-1.6213v-4.3861h-2.6624v4.3861h-1.6384v-9.7963h1.6384v3.9595h2.6624v-3.9595z" style="font-feature-settings:normal;font-variant-caps:small-caps;font-variant-ligatures:normal;font-variant-numeric:normal"/><path id="path85214" d="m266.7-219.85h4.2496v1.3995h-2.6112v2.6283h2.4405v1.3995h-2.4405v2.9525h2.6112v1.4165h-4.2496z" style="font-feature-settings:normal;font-variant-caps:small-caps;font-variant-ligatures:normal;font-variant-numeric:normal"/><path id="path85216" d="m278.84-219.85v9.7963h-2.1675l-2.9696-7.6629h-0.0341q0.0171 0.52907 0.0512 1.1947 0.0341 0.64853 0.0341 1.2459v5.2224h-1.5189v-9.7963h2.1675l2.9525 7.5776h0.0341q-0.0341-0.44373-0.0512-1.0581-0.0171-0.63147-0.0171-1.2629v-5.2565z" style="font-feature-settings:normal;font-variant-caps:small-caps;font-variant-ligatures:normal;font-variant-numeric:normal"/><path id="path85218" d="m285.3-219.85v1.4848h-1.8944v8.3115h-1.6896v-8.3115h-1.8944v-1.4848z" style="font-feature-settings:normal;font-variant-caps:small-caps;font-variant-ligatures:normal;font-variant-numeric:normal"/><path id="path85220" d="m285.85-210.06v-1.0069l0.88747-0.34133v-7.1168l-0.88747-0.3072v-1.024h3.4475v1.024l-0.9216 0.3072v7.1168l0.9216 0.34133v1.0069z" style="font-feature-settings:normal;font-variant-caps:small-caps;font-variant-ligatures:normal;font-variant-numeric:normal"/><path id="path85222" d="m293.7-218.54q-0.83626 0-1.3483 0.9728-0.49494 0.9728-0.49494 2.6283 0 1.6725 0.49494 2.6112 0.49493 0.9216 1.4336 0.9216 0.47786 0 0.90453-0.11947 0.44373-0.13653 0.88747-0.37546v1.5189q-0.88747 0.4608-1.9968 0.4608-1.1605 0-1.9115-0.63147-0.75093-0.63146-1.1093-1.7579-0.3584-1.1435-0.3584-2.6453 0-1.4848 0.4096-2.6112 0.4096-1.1435 1.1947-1.7749 0.78507-0.64854 1.9115-0.64854 0.512 0 1.0752 0.1536 0.5632 0.13654 1.0923 0.4608l-0.512 1.3995q-0.4096-0.27307-0.8192-0.4096-0.39254-0.1536-0.85334-0.1536z" style="font-feature-settings:normal;font-variant-caps:small-caps;font-variant-ligatures:normal;font-variant-numeric:normal"/><path id="path85224" d="m296.12-210.06 2.4747-9.8304h2.1845l2.4747 9.8304h-1.8432l-0.58026-2.5771h-2.2869l-0.58026 2.5771zm4.4544-4.0448-0.512-2.3211q-0.11947-0.52907-0.22187-1.0581-0.0853-0.52906-0.13653-0.9728-0.0683 0.42667-0.17067 0.98987-0.0853 0.54613-0.2048 1.0581l-0.52907 2.304z" style="font-feature-settings:normal;font-variant-caps:small-caps;font-variant-ligatures:normal;font-variant-numeric:normal"/><path id="path85226" d="m308.65-219.85v1.4848h-1.8944v8.3115h-1.6896v-8.3115h-1.8944v-1.4848z" style="font-feature-settings:normal;font-variant-caps:small-caps;font-variant-ligatures:normal;font-variant-numeric:normal"/><path id="path85228" d="m309.66-219.85h4.2496v1.3995h-2.6112v2.6283h2.4405v1.3995h-2.4405v2.9525h2.6112v1.4165h-4.2496z" style="font-feature-settings:normal;font-variant-caps:small-caps;font-variant-ligatures:normal;font-variant-numeric:normal"/><path id="path85230" d="m321.23-215.11q0 2.5088-0.98986 3.7888-0.98987 1.2629-2.7477 1.2629h-2.304v-9.7963h2.4405q1.7579 0 2.6795 1.2288 0.9216 1.2117 0.9216 3.5157zm-1.6555 0.0683q0-3.3621-1.9456-3.3621h-0.8192v6.8779h0.68266q2.0821 0 2.0821-3.5157z" style="font-feature-settings:normal;font-variant-caps:small-caps;font-variant-ligatures:normal;font-variant-numeric:normal"/><path id="path85232" d="m332.82-222.24v8.3115q0 2.0821-0.8704 3.072-0.8704 0.9728-2.5771 0.9728-1.6725 0-2.56-0.98986-0.88747-0.98987-0.88747-3.0379v-8.3285h1.7067v8.3285q0 1.3312 0.44373 1.9115 0.4608 0.58026 1.3141 0.58026 0.85333 0 1.28-0.58026 0.44373-0.58027 0.44373-1.9285v-8.3115z" style="font-feature-settings:normal;font-variant-caps:small-caps;font-variant-ligatures:normal;font-variant-numeric:normal"/><path id="path85234" d="m339.39-212.84q0 1.2629-0.68266 2.0992-0.6656 0.8192-1.9968 0.8192-0.8192 0-1.3312-0.11947-0.49494-0.11946-0.9728-0.39253v-1.5872q0.54613 0.3072 1.1264 0.47787 0.58026 0.17066 1.0581 0.17066 0.512 0 0.8192-0.32426 0.32427-0.34134 0.32427-0.98987 0-0.6656-0.37547-1.0069-0.3584-0.3584-1.0923-0.73387-0.59733-0.3072-1.0069-0.6656-0.39253-0.3584-0.59733-0.8704-0.2048-0.52907-0.2048-1.3312 0-1.3141 0.73386-1.9968 0.73387-0.69974 1.8432-0.69974 0.73387 0 1.2971 0.18774 0.5632 0.17066 1.0069 0.42666l-0.512 1.3995q-0.4608-0.29013-0.9216-0.44373t-0.83626-0.1536q-0.4608 0-0.7168 0.3072t-0.256 0.90453q0 0.44373 0.13653 0.7168t0.44373 0.512q0.32427 0.22187 0.8704 0.512 0.54614 0.29013 0.95574 0.63147 0.42666 0.34133 0.64853 0.85333 0.23893 0.512 0.23893 1.2971z" style="font-feature-settings:normal;font-variant-caps:small-caps;font-variant-ligatures:normal;font-variant-numeric:normal"/><path id="path85236" d="m340.67-219.85h4.2496v1.3995h-2.6112v2.6283h2.4405v1.3995h-2.4405v2.9525h2.6112v1.4165h-4.2496z" style="font-feature-settings:normal;font-variant-caps:small-caps;font-variant-ligatures:normal;font-variant-numeric:normal"/><path id="path85238" d="m348.45-219.85q2.9184 0 2.9184 2.7989 0 0.93867-0.3072 1.6213-0.3072 0.68267-1.0069 1.0411l1.9456 4.3349h-1.7749l-1.5531-3.8912h-0.83626v3.8912h-1.6384v-9.7963zm-0.6144 4.5227h0.69973q0.512 0 0.83627-0.37546 0.34133-0.37547 0.34133-1.1947 0-0.85333-0.3072-1.2117-0.3072-0.37547-0.93867-0.37547h-0.63146z" style="font-feature-settings:normal;font-variant-caps:small-caps;font-variant-ligatures:normal;font-variant-numeric:normal"/></g>
</g><path id="path16354-9" d="m287.79 170.8h20.8" fill="none" marker-end="url(#TriangleOutS-5)" stroke="#000" stroke-width="2.4"/><path id="path16354-9-2" d="m287.79 106.8h20.8" fill="none" marker-end="url(#TriangleOutS-5-8)" stroke="#000" stroke-width="2.4"/><path id="path16354-9-2-9" d="m439.79 111.6 20.8 10.6" fill="none" marker-end="url(#TriangleOutS-5-8-8)" stroke="#000" stroke-width="2.4"/><path id="path16354-9-2-9-0" d="m439.15 166.69 21.445-8.6916" fill="none" marker-end="url(#TriangleOutS-5-8-8-9)" stroke="#000" stroke-width="2.4"/><g id="text1342-6-3-4-9-0-4-9-0-7" transform="scale(1,-1)" style="font-feature-settings:normal;font-variant-caps:normal;font-variant-ligatures:normal;font-variant-numeric:normal" aria-label="Auth  "><path id="path85241" d="m139.67-148.78-0.8192-3.5499h-2.816l-0.80213 3.5499h-1.8261l2.9525-12.186h2.0992l3.0037 12.186zm-1.1093-5.0859-0.83627-3.7717q-0.1024-0.512-0.18773-0.98986-0.0683-0.47787-0.11947-0.88747-0.0853 0.85333-0.3072 1.8603l-0.80213 3.7888z" style="font-feature-settings:normal;font-variant-caps:small-caps;font-variant-ligatures:normal;font-variant-numeric:normal"/><path id="path85243" d="m148.22-158.58v6.1952q0 1.792-0.75093 2.7648-0.73387 0.9728-2.2357 0.9728-1.4677 0-2.2357-0.93867-0.75093-0.95573-0.75093-2.7819v-6.2123h1.6384v6.1099q0 1.2117 0.34133 1.7749 0.3584 0.54613 1.024 0.54613 0.68267 0 1.0069-0.54613 0.34134-0.54614 0.34134-1.7408v-6.144z" style="font-feature-settings:normal;font-variant-caps:small-caps;font-variant-ligatures:normal;font-variant-numeric:normal"/><path id="path85245" d="m154.67-158.58v1.4848h-1.8944v8.3115h-1.6896v-8.3115h-1.8944v-1.4848z" style="font-feature-settings:normal;font-variant-caps:small-caps;font-variant-ligatures:normal;font-variant-numeric:normal"/><path id="path85247" d="m161.6-158.58v9.7963h-1.6213v-4.3861h-2.6624v4.3861h-1.6384v-9.7963h1.6384v3.9595h2.6624v-3.9595z" style="font-feature-settings:normal;font-variant-caps:small-caps;font-variant-ligatures:normal;font-variant-numeric:normal"/></g>
</g></svg>
