<?xml version="1.0" encoding="UTF-8" standalone="no"?>
<svg
   xmlns:dc="http://purl.org/dc/elements/1.1/"
   xmlns:cc="http://creativecommons.org/ns#"
   xmlns:rdf="http://www.w3.org/1999/02/22-rdf-syntax-ns#"
   xmlns:svg="http://www.w3.org/2000/svg"
   xmlns="http://www.w3.org/2000/svg"
   xmlns:sodipodi="http://sodipodi.sourceforge.net/DTD/sodipodi-0.dtd"
   xmlns:inkscape="http://www.inkscape.org/namespaces/inkscape"
   width="210"
   height="50"
   aria-label="Nut"
   version="1.1"
   id="svg1660"
   sodipodi:docname="full_logo.svg"
   inkscape:version="0.92.2 (5c3e80d, 2017-08-06)"
   style="fill-rule:evenodd;stroke:#000000;stroke-width:5;stroke-linejoin:round;enable-background:new"
   enable-background="new">
  <metadata
     id="metadata1664">
    <rdf:RDF>
      <cc:Work
         rdf:about="">
        <dc:format>image/svg+xml</dc:format>
        <dc:type
           rdf:resource="http://purl.org/dc/dcmitype/StillImage" />
        <dc:title></dc:title>
      </cc:Work>
    </rdf:RDF>
  </metadata>
  <sodipodi:namedview
     pagecolor="#cccccc"
     bordercolor="#666666"
     borderopacity="1"
     objecttolerance="10"
     gridtolerance="10"
     guidetolerance="10"
     inkscape:pageopacity="0"
     inkscape:pageshadow="2"
     inkscape:window-width="1293"
     inkscape:window-height="741"
     id="namedview1662"
     showgrid="false"
     inkscape:zoom="1.4142136"
     inkscape:cx="176.85798"
     inkscape:cy="-17.452667"
     inkscape:window-x="0"
     inkscape:window-y="23"
     inkscape:window-maximized="0"
     inkscape:current-layer="svg1660" />
  <defs
     id="defs1642">
    <linearGradient
       id="a"
       x1="61.299999"
       x2="61.299999"
       y1="31.700001"
       y2="194.3"
       gradientTransform="matrix(0.21205,0,0,0.125835,4.3595,1.232496)"
       gradientUnits="userSpaceOnUse">
      <stop
         offset="0%"
         stop-color="#8da6d8"
         id="stop1623" />
      <stop
         offset="100%"
         stop-color="#2e5cb8"
         id="stop1625" />
    </linearGradient>
    <filter
       id="c"
       style="color-interpolation-filters:sRGB">
      <feFlood
         flood-opacity=".76"
         flood-color="#000"
         result="flood"
         id="feFlood1628" />
      <feComposite
         in="flood"
         in2="SourceGraphic"
         operator="in"
         result="composite1"
         id="feComposite1630" />
      <feGaussianBlur
         in="composite1"
         stdDeviation="3"
         result="blur"
         id="feGaussianBlur1632" />
      <feOffset
         dx="3.4"
         dy="3.4"
         result="offset"
         id="feOffset1634" />
      <feComposite
         in="SourceGraphic"
         in2="offset"
         result="composite2"
         id="feComposite1636" />
    </filter>
    <filter
       id="b"
       style="color-interpolation-filters:sRGB">
      <feBlend
         mode="overlay"
         in2="BackgroundImage"
         id="feBlend1639" />
    </filter>
    <filter
       inkscape:collect="always"
       style="color-interpolation-filters:sRGB"
       id="filter5492"
       x="-0.003586616"
       width="1.0071732"
       y="-0.018342233"
       height="1.0366845">
      <feGaussianBlur
         inkscape:collect="always"
         stdDeviation="1.2595"
         id="feGaussianBlur5494" />
      <feBlend
         inkscape:collect="always"
         mode="overlay"
         in2="BackgroundImage"
         id="feBlend5496" />
    </filter>
  </defs>
  <path
     d="m 5.8745,35.042496 v -7.095 l 16.815,15.1 v 7.01 z"
     id="path1644"
     inkscape:connector-curvature="0"
     style="fill:#24478f;stroke-width:0.81" />
  <path
     d="m 22.7045,43.062496 22.935,-5.56 v 7.125 l -22.935,5.53 z"
     id="path1646"
     inkscape:connector-curvature="0"
     style="fill:#2e5cb8;stroke-width:0.81" />
  <path
     d="m 45.6595,37.502496 v 7.125 l 6.13,-20.625 v -7.095 z"
     id="path1648"
     inkscape:connector-curvature="0"
     style="fill:#193366;stroke-width:0.81" />
  <path
     d="m 34.9995,1.812496 16.8,15.1 -6.14,20.59 -22.97,5.525 -16.8,-15.08 6.145,-20.605 z m -0.58,11.98 c 5.28,2.75 7.1,8.840001 4.03,13.61 -3.04,4.75 -9.835,6.385001 -15.15,3.63 -5.28,-2.719999 -7.095,-8.845 -4.025,-13.595 3.02,-4.77 9.8,-6.42 15.13,-3.665 z"
     id="path1650"
     inkscape:connector-curvature="0"
     style="fill:#8da6d8;stroke-width:0.81" />
  <path
     d="m 18.2195,25.242497 a 9.04,9.04 0 0 1 0.99,-7.805 c 3.1,-4.770001 9.9,-6.400001 15.18,-3.630001 4.535,2.36 6.535,7.16 5.065,11.465001 a 10.2,10.2 0 0 0 -5.05,-5.775001 c -5.315,-2.735 -12.11,-1.099999 -15.18,3.665 a 9.47,9.47 0 0 0 -0.99,2.110001 z"
     id="path1652"
     inkscape:connector-curvature="0"
     style="fill:url(#a);stroke-width:0.81" />
  <path
     style="font-weight:700;font-size:226.66999817000001372px;font-family:'Helvetica Neue';-inkscape-font-specification:'Helvetica Neue, Bold';font-variant-ligatures:normal;font-variant-caps:normal;font-variant-numeric:normal;font-feature-settings:normal;text-align:start;letter-spacing:0;word-spacing:0;fill:#999999;filter:url(#filter5492);stroke:#000000;stroke-opacity:1;stroke-width:6.06060606;stroke-miterlimit:4;stroke-dasharray:none;fill-opacity:1;stroke-linejoin:round"
     d="M 360.35,110.85 V 73 h 33.32 q 4.76,0 9.07,0.9 4.53,0.68 7.93,2.72 3.4,2.04 5.44,5.67 2.04,3.63 2.04,9.3 0,10.2 -6.12,14.73 -6.12,4.53 -15.64,4.53 z m -35.59,-65.5 v 161.83 h 78.43 q 10.88,0 21.08,-2.72 10.43,-2.72 18.36,-8.38 8.16,-5.67 12.92,-14.5 4.76,-9.08 4.76,-21.32 0,-15.18 -7.48,-25.84 -7.25,-10.88 -22.21,-15.18 10.88,-5.22 16.32,-13.38 5.66,-8.16 5.66,-20.4 0,-11.33 -3.85,-19.04 -3.63,-7.7 -10.43,-12.24 -6.8,-4.76 -16.32,-6.8 -9.52,-2.04 -21.08,-2.04 z m 35.59,134.18 V 135.1 h 38.76 q 11.56,0 18.59,5.44 7.02,5.22 7.02,17.68 0,6.35 -2.26,10.43 -2.04,4.08 -5.67,6.57 -3.63,2.27 -8.39,3.4 -4.76,0.91 -9.97,0.91 z m 226.34,27.65 V 90 H 554.5 v 61.42 q 0,17.91 -5.9,25.84 -5.89,7.71 -19.03,7.71 -11.56,0 -16.1,-7.03 -4.53,-7.25 -4.53,-21.76 V 90 h -32.19 v 72.08 q 0,10.88 1.82,19.94 2.04,8.84 6.8,15.2 4.76,6.11 12.92,9.51 8.38,3.4 21.3,3.4 10.2,0 19.95,-4.53 9.75,-4.54 15.87,-14.74 h 0.68 v 16.32 z M 636.02,71.86 V 45.34 H 603.83 V 71.86 Z M 603.83,90 v 117.18 h 32.19 V 90 Z M 654.3,45.34 v 161.84 h 32.19 V 45.34 Z m 132.75,102.91 q 0,7.25 -1.36,14.05 -1.36,6.8 -4.53,12.24 -3.18,5.22 -8.62,8.4 -5.21,3.16 -13.14,3.16 -7.48,0 -12.92,-3.17 -5.22,-3.4 -8.84,-8.61 -3.4,-5.44 -5,-12.24 -1.58,-6.8 -1.58,-13.6 0,-7.26 1.36,-13.83 1.59,-6.8 4.76,-12.01 3.4,-5.22 8.84,-8.39 5.44,-3.17 13.38,-3.17 7.93,0 13.14,3.17 5.22,3.17 8.39,8.39 3.4,4.98 4.76,11.78 1.36,6.58 1.36,13.83 z m 0.45,43.97 v 14.96 h 30.6 V 45.34 h -32.18 v 58.94 h -0.46 q -5.44,-8.62 -14.96,-12.92 -9.3,-4.54 -19.72,-4.54 -12.92,0 -22.66,5.22 -9.75,4.98 -16.32,13.37 -6.35,8.39 -9.75,19.5 -3.17,10.87 -3.17,22.66 0,12.24 3.17,23.57 3.4,11.34 9.75,20.18 6.57,8.61 16.54,13.82 9.98,5 23.12,5 11.56,0 20.63,-4.09 9.3,-4.3 14.96,-13.83 z M 924.35,148.7 q 0,7.26 -1.58,14.06 -1.59,6.8 -4.99,12.01 -3.4,5.21 -8.61,8.39 -4.99,2.94 -12.24,2.94 -7.03,0 -12.24,-2.94 -5.22,-3.18 -8.62,-8.39 -3.4,-5.21 -4.98,-12.01 -1.59,-6.8 -1.59,-14.06 0,-7.48 1.59,-14.28 1.58,-6.8 4.98,-12 3.4,-5.22 8.62,-8.17 5.21,-3.17 12.24,-3.17 7.25,0 12.24,3.17 5.21,2.95 8.61,8.16 3.4,5.21 4.99,12.01 1.58,6.8 1.58,14.28 z M 838.45,45.34 v 161.84 h 30.6 v -14.96 h 0.45 q 5.21,9.75 15.41,13.83 10.2,4.08 23.12,4.08 8.84,0 17.46,-3.63 8.61,-3.62 15.41,-11.1 7.03,-7.48 11.33,-19.04 4.31,-11.79 4.31,-27.88 0,-16.1 -4.3,-27.66 -4.31,-11.78 -11.34,-19.26 -6.8,-7.48 -15.41,-11.1 -8.62,-3.64 -17.46,-3.64 -10.88,0 -21.08,4.31 -9.97,4.08 -15.86,13.15 h -0.46 V 45.34 Z m 163.14,103.36 q 0,-7.02 1.36,-13.82 1.36,-6.8 4.53,-12.02 3.4,-5.2 8.84,-8.38 5.44,-3.4 13.6,-3.4 8.16,0 13.6,3.4 5.67,3.17 8.84,8.38 3.4,5.22 4.76,12.02 1.36,6.8 1.36,13.82 0,7.03 -1.36,13.83 -1.36,6.57 -4.76,12.01 -3.17,5.22 -8.84,8.4 -5.44,3.16 -13.6,3.16 -8.16,0 -13.6,-3.17 -5.44,-3.17 -8.84,-8.39 -3.17,-5.44 -4.53,-12 -1.36,-6.8 -1.36,-13.84 z m -32.19,0 q 0,14.06 4.3,25.4 4.32,11.32 12.25,19.48 7.93,7.94 19.04,12.24 11.1,4.31 24.93,4.31 13.83,0 24.94,-4.3 11.33,-4.31 19.26,-12.25 7.94,-8.16 12.24,-19.49 4.3,-11.33 4.3,-25.39 0,-14.05 -4.3,-25.38 -4.3,-11.56 -12.24,-19.5 -7.93,-8.16 -19.26,-12.46 -11.11,-4.54 -24.94,-4.54 -13.82,0 -24.93,4.54 -11.1,4.3 -19.04,12.46 -7.93,7.94 -12.24,19.5 -4.3,11.33 -4.3,25.38 z M 1143.99,90 V 54.86 h -32.2 V 90 h -19.48 v 21.53 h 19.49 v 69.13 q 0,8.84 2.95,14.28 2.94,5.44 7.93,8.4 5.21,2.94 11.79,3.84 6.8,1.14 14.28,1.14 4.76,0 9.74,-0.23 4.99,-0.23 9.07,-0.9 v -24.94 q -2.27,0.45 -4.76,0.68 -2.5,0.23 -5.21,0.23 -8.16,0 -10.88,-2.72 -2.72,-2.72 -2.72,-10.88 v -58.03 h 23.57 V 90 Z"
     aria-label="Buildbot"
     transform="matrix(0.165,0,0,0.165,4.1095,1.152496)"
     font-weight="700"
     font-size="226.67"
     letter-spacing="0"
     word-spacing="0"
     id="path1654"
     inkscape:connector-curvature="0" />
  <g
     style="line-height:1.25;-inkscape-font-specification:'Helvetica Neue, Normal';font-variant-ligatures:normal;font-variant-caps:normal;font-variant-numeric:normal;font-feature-settings:normal;text-align:start;fill:#000000;fill-opacity:1"
     id="g1658"
     transform="matrix(0.5,0,0,0.5,2.5895,-0.007504)">
    <path
       d="m 109.94,81.58 v 0.92 h 3.96 V 93 H 115 V 82.5 h 3.98 v -0.92 z m 10.19,0 V 93 h 1.01 v -4.82 q 0.02,-0.6 0.2,-1.12 0.18,-0.52 0.5,-0.9 0.34,-0.38 0.8,-0.58 0.48,-0.23 1.1,-0.23 0.6,0 1,0.2 0.42,0.19 0.66,0.52 0.24,0.34 0.33,0.8 0.1,0.45 0.1,0.98 V 93 h 1 v -5.31 q 0,-0.74 -0.14,-1.33 -0.14,-0.6 -0.5,-1 -0.35,-0.4 -0.94,-0.63 -0.57,-0.23 -1.44,-0.23 -0.88,0 -1.61,0.47 -0.74,0.45 -1.03,1.2 h -0.03 v -4.6 z m 14.86,6.72 h -5.34 q 0.06,-0.56 0.25,-1.1 0.21,-0.54 0.55,-0.94 0.33,-0.41 0.81,-0.65 0.48,-0.26 1.1,-0.26 0.61,0 1.1,0.26 0.47,0.24 0.81,0.65 0.34,0.4 0.51,0.93 0.2,0.53 0.21,1.1 z m -5.34,0.84 H 136 q 0.03,-0.86 -0.16,-1.7 -0.2,-0.84 -0.64,-1.48 -0.43,-0.66 -1.14,-1.06 -0.7,-0.4 -1.7,-0.4 -0.97,0 -1.69,0.39 -0.7,0.37 -1.15,0.99 -0.45,0.6 -0.67,1.4 -0.21,0.78 -0.21,1.6 0,0.87 0.2,1.67 0.23,0.79 0.68,1.4 0.45,0.59 1.15,0.94 0.72,0.33 1.7,0.33 1.56,0 2.41,-0.76 0.87,-0.77 1.19,-2.18 h -1.01 q -0.24,0.96 -0.87,1.54 -0.62,0.57 -1.72,0.57 -0.72,0 -1.24,-0.3 -0.5,-0.3 -0.84,-0.77 -0.34,-0.46 -0.5,-1.04 -0.14,-0.6 -0.14,-1.14 z m 20.98,-4.11 h 1.09 q -0.12,-0.9 -0.55,-1.58 -0.41,-0.69 -1.05,-1.15 -0.63,-0.48 -1.41,-0.72 -0.77,-0.24 -1.59,-0.24 -1.34,0 -2.36,0.5 -1.01,0.47 -1.68,1.3 -0.68,0.82 -1.01,1.9 -0.34,1.06 -0.34,2.25 0,1.18 0.34,2.25 0.33,1.08 1,1.9 0.68,0.8 1.69,1.3 1.02,0.48 2.36,0.48 1.01,0 1.83,-0.32 0.83,-0.32 1.44,-0.9 0.6,-0.6 1,-1.45 0.37,-0.85 0.49,-1.9 h -1.1 q -0.07,0.77 -0.36,1.44 -0.29,0.65 -0.75,1.15 -0.47,0.5 -1.1,0.78 -0.65,0.3 -1.45,0.3 -1.13,0 -1.95,-0.44 -0.81,-0.43 -1.34,-1.14 -0.51,-0.72 -0.77,-1.61 -0.24,-0.91 -0.24,-1.84 0,-0.95 0.24,-1.84 0.26,-0.9 0.77,-1.6 0.53,-0.72 1.34,-1.15 0.82,-0.44 1.95,-0.44 0.63,0 1.19,0.2 0.57,0.17 1.04,0.52 0.48,0.36 0.8,0.88 0.33,0.52 0.48,1.17 z m 6.51,0.32 q 0.72,0 1.26,0.3 0.54,0.31 0.9,0.8 0.36,0.5 0.54,1.14 0.2,0.63 0.2,1.28 0,0.66 -0.2,1.3 -0.18,0.62 -0.54,1.12 -0.36,0.5 -0.9,0.8 -0.54,0.3 -1.26,0.3 -0.72,0 -1.27,-0.3 -0.54,-0.3 -0.91,-0.8 -0.35,-0.5 -0.54,-1.12 -0.18,-0.64 -0.18,-1.3 0,-0.65 0.18,-1.28 0.19,-0.64 0.54,-1.13 0.37,-0.5 0.91,-0.8 0.55,-0.3 1.27,-0.3 z m 0,-0.85 q -0.95,0 -1.68,0.36 -0.72,0.35 -1.22,0.94 -0.5,0.6 -0.75,1.4 -0.26,0.78 -0.26,1.67 0,0.9 0.26,1.7 0.25,0.78 0.75,1.37 0.5,0.6 1.22,0.95 0.73,0.33 1.68,0.33 0.94,0 1.66,-0.33 0.74,-0.35 1.23,-0.95 0.5,-0.59 0.75,-1.37 0.26,-0.8 0.26,-1.7 0,-0.9 -0.26,-1.68 -0.25,-0.8 -0.75,-1.39 -0.5,-0.6 -1.23,-0.94 -0.72,-0.36 -1.66,-0.36 z m 5.68,0.24 V 93 h 1 v -4.82 q 0.02,-0.6 0.2,-1.12 0.2,-0.52 0.51,-0.9 0.34,-0.38 0.8,-0.58 0.48,-0.23 1.09,-0.23 0.6,0 1,0.2 0.42,0.19 0.66,0.52 0.24,0.34 0.34,0.8 0.1,0.45 0.1,0.98 V 93 h 1 v -5.31 q 0,-0.74 -0.14,-1.33 -0.14,-0.6 -0.5,-1 -0.35,-0.4 -0.94,-0.63 -0.58,-0.23 -1.44,-0.23 -0.88,0 -1.62,0.47 -0.73,0.45 -1.02,1.2 h -0.03 v -1.43 z m 10.52,0 v -2.48 h -1 v 2.48 h -1.45 v 0.85 h 1.44 v 5.65 q -0.01,1.06 0.39,1.46 0.4,0.38 1.4,0.38 0.23,0 0.45,-0.02 l 0.45,-0.01 V 92.2 q -0.43,0.05 -0.86,0.05 -0.55,-0.03 -0.7,-0.3 -0.12,-0.3 -0.12,-0.79 v -5.57 h 1.68 v -0.85 z m 3.45,-3.16 v 1.61 h 1 v -1.61 z m 0,3.16 V 93 h 1 v -8.26 z m 3.53,0 V 93 h 1 v -4.82 q 0.02,-0.6 0.2,-1.12 0.2,-0.52 0.51,-0.9 0.34,-0.38 0.8,-0.58 0.48,-0.23 1.09,-0.23 0.6,0 1,0.2 0.42,0.19 0.66,0.52 0.24,0.34 0.34,0.8 0.1,0.45 0.1,0.98 V 93 h 1 v -5.31 q 0,-0.74 -0.14,-1.33 -0.14,-0.6 -0.5,-1 -0.35,-0.4 -0.94,-0.63 -0.58,-0.23 -1.44,-0.23 -0.88,0 -1.62,0.47 -0.73,0.45 -1.02,1.2 h -0.03 V 84.74 Z M 195.93,93 v -8.26 h -1 v 4.34 q 0,0.62 -0.15,1.23 -0.15,0.6 -0.45,1.06 -0.3,0.46 -0.77,0.75 -0.46,0.27 -1.12,0.27 -1.2,0 -1.7,-0.57 -0.47,-0.58 -0.5,-1.7 v -5.38 h -1.01 v 5.36 q 0,0.74 0.16,1.32 0.16,0.57 0.5,0.97 0.34,0.4 0.89,0.61 0.56,0.22 1.34,0.22 0.93,0 1.68,-0.43 0.77,-0.45 1.17,-1.28 H 195 V 93 Z m 5.71,-7.65 q 0.72,0 1.26,0.3 0.54,0.31 0.9,0.8 0.36,0.5 0.54,1.14 0.2,0.63 0.2,1.28 0,0.66 -0.2,1.3 -0.18,0.62 -0.54,1.12 -0.36,0.5 -0.9,0.8 -0.54,0.3 -1.26,0.3 -0.72,0 -1.27,-0.3 -0.54,-0.3 -0.91,-0.8 -0.35,-0.5 -0.54,-1.12 -0.18,-0.64 -0.18,-1.3 0,-0.65 0.18,-1.28 0.19,-0.64 0.54,-1.13 0.37,-0.5 0.91,-0.8 0.55,-0.3 1.27,-0.3 z m 0,-0.85 q -0.95,0 -1.68,0.36 -0.72,0.35 -1.22,0.94 -0.5,0.6 -0.75,1.4 -0.26,0.78 -0.26,1.67 0,0.9 0.26,1.7 0.25,0.78 0.75,1.37 0.5,0.6 1.22,0.95 0.73,0.33 1.68,0.33 0.94,0 1.66,-0.33 0.74,-0.35 1.23,-0.95 0.5,-0.59 0.75,-1.37 0.26,-0.8 0.26,-1.7 0,-0.9 -0.26,-1.68 -0.25,-0.8 -0.75,-1.39 -0.5,-0.6 -1.23,-0.94 -0.72,-0.36 -1.66,-0.36 z m 12.38,8.5 v -8.26 h -1 v 4.34 q 0,0.62 -0.15,1.23 -0.14,0.6 -0.45,1.06 -0.3,0.46 -0.77,0.75 -0.46,0.27 -1.12,0.27 -1.2,0 -1.7,-0.57 -0.47,-0.58 -0.5,-1.7 v -5.38 h -1.01 v 5.36 q 0,0.74 0.16,1.32 0.16,0.57 0.5,0.97 0.35,0.4 0.9,0.61 0.55,0.22 1.33,0.22 0.93,0 1.68,-0.43 0.77,-0.45 1.17,-1.28 h 0.03 V 93 Z m 7.17,-5.84 h 1 q -0.03,-0.67 -0.27,-1.17 -0.24,-0.5 -0.65,-0.83 -0.4,-0.34 -0.95,-0.5 -0.53,-0.16 -1.15,-0.16 -0.54,0 -1.1,0.13 -0.55,0.13 -1,0.4 -0.44,0.27 -0.73,0.72 -0.27,0.45 -0.27,1.07 0,0.53 0.17,0.9 0.18,0.35 0.48,0.6 0.32,0.25 0.74,0.42 0.41,0.16 0.9,0.3 l 1.3,0.28 q 0.34,0.08 0.66,0.2 0.34,0.1 0.6,0.28 0.25,0.16 0.4,0.42 0.15,0.24 0.15,0.6 0,0.44 -0.22,0.74 -0.2,0.29 -0.54,0.48 -0.34,0.2 -0.74,0.27 -0.38,0.08 -0.75,0.08 -1.01,0 -1.7,-0.51 -0.67,-0.53 -0.73,-1.55 h -1.01 q 0.13,1.52 1.02,2.2 0.91,0.7 2.37,0.7 0.58,0 1.17,-0.13 0.59,-0.13 1.05,-0.42 0.48,-0.3 0.79,-0.77 0.3,-0.48 0.3,-1.15 0,-0.54 -0.2,-0.94 -0.21,-0.4 -0.55,-0.68 -0.32,-0.27 -0.75,-0.43 -0.42,-0.17 -0.85,-0.24 l -1.34,-0.3 -0.56,-0.16 q -0.3,-0.11 -0.56,-0.27 -0.26,-0.16 -0.44,-0.39 -0.16,-0.24 -0.16,-0.57 0,-0.4 0.18,-0.68 0.18,-0.27 0.46,-0.43 0.3,-0.17 0.63,-0.24 0.35,-0.08 0.69,-0.08 0.43,0 0.81,0.11 0.39,0.1 0.67,0.32 0.3,0.23 0.48,0.58 0.18,0.34 0.2,0.8 z m 7.76,-5.58 V 93 h 1.09 V 81.58 Z m 3.87,3.16 V 93 h 1 v -4.82 q 0.02,-0.6 0.2,-1.12 0.2,-0.52 0.51,-0.9 0.34,-0.38 0.8,-0.58 0.48,-0.23 1.09,-0.23 0.6,0 1,0.2 0.42,0.19 0.66,0.52 0.24,0.34 0.34,0.8 0.1,0.45 0.1,0.98 V 93 h 1 v -5.31 q 0,-0.74 -0.14,-1.33 -0.14,-0.6 -0.5,-1 -0.35,-0.4 -0.94,-0.63 -0.58,-0.23 -1.44,-0.23 -0.88,0 -1.62,0.47 -0.73,0.45 -1.02,1.2 h -0.03 v -1.43 z m 10.52,0 v -2.48 h -1 v 2.48 h -1.45 v 0.85 h 1.44 v 5.65 q -0.01,1.06 0.39,1.46 0.4,0.38 1.4,0.38 0.23,0 0.45,-0.02 l 0.45,-0.01 V 92.2 q -0.43,0.05 -0.86,0.05 -0.55,-0.03 -0.7,-0.3 -0.12,-0.3 -0.12,-0.79 v -5.57 h 1.68 v -0.85 z m 9.36,3.56 h -5.34 q 0.07,-0.56 0.26,-1.1 0.2,-0.54 0.54,-0.94 0.34,-0.41 0.82,-0.65 0.48,-0.26 1.1,-0.26 0.61,0 1.1,0.26 0.47,0.24 0.8,0.65 0.34,0.4 0.52,0.93 0.2,0.53 0.2,1.1 z m -5.34,0.84 h 6.36 q 0.03,-0.86 -0.16,-1.7 -0.2,-0.84 -0.64,-1.48 -0.44,-0.66 -1.14,-1.06 -0.7,-0.4 -1.7,-0.4 -0.97,0 -1.7,0.39 -0.7,0.37 -1.14,0.99 -0.45,0.6 -0.68,1.4 -0.2,0.78 -0.2,1.6 0,0.87 0.2,1.67 0.23,0.79 0.68,1.4 0.44,0.59 1.15,0.94 0.72,0.33 1.7,0.33 1.56,0 2.41,-0.76 0.86,-0.77 1.18,-2.18 h -1 q -0.24,0.96 -0.87,1.54 -0.62,0.57 -1.73,0.57 -0.72,0 -1.23,-0.3 -0.51,-0.3 -0.85,-0.77 -0.33,-0.46 -0.5,-1.04 -0.14,-0.6 -0.14,-1.14 z m 14.98,3.19 v -7.59 h -1 v 1.43 h -0.04 q -0.14,-0.34 -0.41,-0.64 -0.26,-0.3 -0.6,-0.53 -0.33,-0.24 -0.75,-0.37 -0.4,-0.13 -0.86,-0.13 -0.9,0 -1.6,0.34 -0.69,0.32 -1.17,0.9 -0.46,0.56 -0.72,1.32 -0.24,0.76 -0.24,1.6 0,0.88 0.2,1.67 0.22,0.77 0.66,1.34 0.47,0.58 1.17,0.91 0.7,0.32 1.7,0.32 0.91,0 1.58,-0.46 0.69,-0.46 1.04,-1.23 h 0.03 v 1.12 q 0,1.5 -0.62,2.3 -0.62,0.8 -2.03,0.8 -0.42,0 -0.82,-0.1 -0.4,-0.07 -0.73,-0.27 -0.32,-0.19 -0.56,-0.5 -0.23,-0.31 -0.3,-0.78 h -1.02 q 0.05,0.66 0.36,1.12 0.32,0.48 0.78,0.79 0.48,0.3 1.07,0.45 0.6,0.14 1.22,0.14 1,0 1.7,-0.27 0.7,-0.27 1.13,-0.79 0.43,-0.5 0.62,-1.24 0.21,-0.74 0.21,-1.65 z m -3.66,-0.27 q -0.7,0 -1.22,-0.28 -0.51,-0.28 -0.85,-0.73 -0.33,-0.47 -0.5,-1.06 -0.15,-0.59 -0.15,-1.21 0,-0.64 0.14,-1.25 0.16,-0.63 0.5,-1.1 0.33,-0.49 0.85,-0.77 0.5,-0.3 1.23,-0.3 0.72,0 1.21,0.3 0.52,0.3 0.84,0.8 0.32,0.5 0.46,1.1 0.14,0.6 0.14,1.22 0,0.62 -0.17,1.21 -0.16,0.6 -0.5,1.06 -0.33,0.45 -0.83,0.73 -0.5,0.28 -1.15,0.28 z m 5.87,-7.32 V 93 h 1.01 v -4.4 q 0,-0.66 0.23,-1.2 0.22,-0.56 0.62,-0.96 0.42,-0.4 0.98,-0.6 0.56,-0.23 1.24,-0.2 v -1 q -1.12,-0.06 -1.93,0.49 -0.8,0.54 -1.19,1.55 h -0.03 v -1.94 z m 5.22,2.53 h 1 q 0.04,-1 0.65,-1.45 0.6,-0.47 1.57,-0.47 0.44,0 0.83,0.08 0.4,0.07 0.69,0.26 0.3,0.19 0.46,0.53 0.18,0.32 0.18,0.83 0,0.33 -0.1,0.54 -0.08,0.21 -0.24,0.34 -0.16,0.11 -0.4,0.16 -0.24,0.05 -0.56,0.08 l -1.62,0.2 q -0.78,0.1 -1.42,0.36 -0.62,0.25 -1,0.75 -0.4,0.48 -0.4,1.34 0,0.63 0.22,1.1 0.22,0.44 0.59,0.74 0.38,0.3 0.88,0.42 0.51,0.14 1.09,0.14 0.6,0 1.04,-0.1 0.44,-0.12 0.78,-0.33 0.35,-0.2 0.62,-0.51 0.3,-0.32 0.56,-0.72 h 0.04 q 0,0.32 0.03,0.6 0.05,0.25 0.17,0.44 0.13,0.2 0.36,0.3 0.24,0.1 0.62,0.1 0.2,0 0.34,-0.02 l 0.32,-0.04 v -0.85 q -0.15,0.06 -0.32,0.06 -0.6,0 -0.6,-0.6 v -4.39 q 0,-0.83 -0.27,-1.34 -0.27,-0.53 -0.7,-0.82 -0.43,-0.29 -0.98,-0.38 -0.54,-0.12 -1.09,-0.12 -0.72,0 -1.3,0.16 -0.6,0.16 -1.05,0.5 -0.43,0.34 -0.69,0.86 -0.25,0.53 -0.3,1.25 z m 5.38,1.22 v 1.31 q 0,0.6 -0.24,1.09 -0.23,0.48 -0.63,0.81 -0.38,0.34 -0.91,0.52 -0.53,0.17 -1.1,0.17 -0.36,0 -0.7,-0.11 -0.33,-0.11 -0.58,-0.32 -0.26,-0.22 -0.42,-0.51 -0.14,-0.3 -0.14,-0.69 0,-0.6 0.35,-0.93 0.37,-0.33 0.93,-0.51 0.56,-0.18 1.23,-0.26 l 1.33,-0.2 0.48,-0.12 q 0.27,-0.08 0.36,-0.25 z m 4.91,-3.75 v -2.48 h -1 v 2.48 h -1.45 v 0.85 h 1.44 v 5.65 q -0.01,1.06 0.39,1.46 0.4,0.38 1.4,0.38 0.23,0 0.45,-0.02 l 0.45,-0.01 V 92.2 q -0.43,0.05 -0.86,0.05 -0.55,-0.03 -0.7,-0.3 -0.12,-0.3 -0.12,-0.79 v -5.57 h 1.68 v -0.85 z m 3.44,-3.16 v 1.61 h 1.02 v -1.61 z m 0,3.16 V 93 h 1.02 v -8.26 z m 7.04,0.61 q 0.72,0 1.27,0.3 0.54,0.31 0.9,0.8 0.36,0.5 0.54,1.14 0.19,0.63 0.19,1.28 0,0.66 -0.2,1.3 -0.17,0.62 -0.54,1.12 -0.35,0.5 -0.9,0.8 -0.54,0.3 -1.26,0.3 -0.72,0 -1.26,-0.3 -0.55,-0.3 -0.91,-0.8 -0.36,-0.5 -0.55,-1.12 -0.17,-0.64 -0.17,-1.3 0,-0.65 0.17,-1.28 0.2,-0.64 0.55,-1.13 0.36,-0.5 0.9,-0.8 0.55,-0.3 1.27,-0.3 z m 0,-0.85 q -0.94,0 -1.68,0.36 -0.72,0.35 -1.21,0.94 -0.5,0.6 -0.76,1.4 -0.25,0.78 -0.25,1.67 0,0.9 0.25,1.7 0.26,0.78 0.76,1.37 0.5,0.6 1.21,0.95 0.74,0.33 1.68,0.33 0.95,0 1.67,-0.33 0.73,-0.35 1.23,-0.95 0.5,-0.59 0.75,-1.37 0.26,-0.8 0.26,-1.7 0,-0.9 -0.26,-1.68 -0.26,-0.8 -0.75,-1.39 -0.5,-0.6 -1.23,-0.94 -0.72,-0.36 -1.67,-0.36 z m 5.69,0.24 V 93 h 1 v -4.82 q 0.02,-0.6 0.2,-1.12 0.19,-0.52 0.5,-0.9 0.34,-0.38 0.8,-0.58 0.49,-0.23 1.1,-0.23 0.6,0 1,0.2 0.42,0.19 0.66,0.52 0.24,0.34 0.34,0.8 0.1,0.45 0.1,0.98 V 93 h 1 v -5.31 q 0,-0.74 -0.14,-1.33 -0.15,-0.6 -0.5,-1 -0.35,-0.4 -0.94,-0.63 -0.58,-0.23 -1.44,-0.23 -0.88,0 -1.62,0.47 -0.74,0.45 -1.02,1.2 h -0.04 v -1.43 z m 13.55,-3.16 V 93 h 1.09 v -5.44 h 5.47 v -0.93 h -5.47 V 82.5 h 6.16 v -0.92 z m 8.99,3.16 V 93 h 1.01 v -4.4 q 0,-0.66 0.22,-1.2 0.23,-0.56 0.63,-0.96 0.41,-0.4 0.97,-0.6 0.56,-0.23 1.25,-0.2 v -1 q -1.12,-0.06 -1.93,0.49 -0.8,0.54 -1.19,1.55 h -0.03 v -1.94 z m 5.22,2.53 h 1 q 0.04,-1 0.65,-1.45 0.6,-0.47 1.56,-0.47 0.45,0 0.84,0.08 0.4,0.07 0.68,0.26 0.3,0.19 0.47,0.53 0.17,0.32 0.17,0.83 0,0.33 -0.1,0.54 -0.07,0.21 -0.23,0.34 -0.16,0.11 -0.4,0.16 -0.24,0.05 -0.56,0.08 l -1.62,0.2 q -0.78,0.1 -1.42,0.36 -0.63,0.25 -1,0.75 -0.4,0.48 -0.4,1.34 0,0.63 0.21,1.1 0.23,0.44 0.6,0.74 0.38,0.3 0.88,0.42 0.5,0.14 1.08,0.14 0.61,0 1.04,-0.1 0.45,-0.12 0.79,-0.33 0.35,-0.2 0.62,-0.51 0.3,-0.32 0.56,-0.72 h 0.03 q 0,0.32 0.04,0.6 0.04,0.25 0.17,0.44 0.13,0.2 0.35,0.3 0.24,0.1 0.63,0.1 0.2,0 0.33,-0.02 l 0.32,-0.04 v -0.85 q -0.14,0.06 -0.32,0.06 -0.59,0 -0.59,-0.6 v -4.39 q 0,-0.83 -0.27,-1.34 -0.27,-0.53 -0.7,-0.82 -0.43,-0.29 -0.98,-0.38 -0.54,-0.12 -1.09,-0.12 -0.72,0 -1.3,0.16 -0.6,0.16 -1.05,0.5 -0.43,0.34 -0.69,0.86 -0.25,0.53 -0.3,1.25 z m 5.37,1.22 v 1.31 q 0,0.6 -0.24,1.09 -0.22,0.48 -0.62,0.81 -0.38,0.34 -0.91,0.52 -0.53,0.17 -1.1,0.17 -0.36,0 -0.7,-0.11 -0.33,-0.11 -0.59,-0.32 -0.25,-0.22 -0.41,-0.51 -0.15,-0.3 -0.15,-0.69 0,-0.6 0.36,-0.93 0.36,-0.33 0.92,-0.51 0.56,-0.18 1.24,-0.26 l 1.32,-0.2 q 0.21,-0.04 0.48,-0.12 0.28,-0.08 0.37,-0.25 z m 3.32,-3.75 V 93 h 1 v -4.6 q 0,-0.66 0.15,-1.2 0.14,-0.57 0.43,-0.97 0.3,-0.41 0.77,-0.64 0.48,-0.24 1.12,-0.24 0.48,0 0.82,0.16 0.33,0.16 0.52,0.45 0.21,0.27 0.3,0.66 0.09,0.36 0.09,0.78 V 93 h 1 v -4.67 q 0,-0.58 0.1,-1.1 0.11,-0.55 0.37,-0.97 0.26,-0.41 0.69,-0.65 0.43,-0.26 1.09,-0.26 1.08,0 1.52,0.55 0.43,0.52 0.43,1.55 V 93 h 1 v -5.6 q 0,-2.9 -2.73,-2.9 -0.82,0 -1.54,0.4 -0.72,0.4 -1.08,1.22 -0.23,-0.82 -0.9,-1.22 -0.66,-0.4 -1.47,-0.4 -1,0 -1.67,0.44 -0.64,0.43 -1.04,1.2 h -0.04 v -1.4 z m 19.59,3.56 h -5.34 q 0.06,-0.56 0.25,-1.1 0.21,-0.54 0.55,-0.94 0.33,-0.41 0.81,-0.65 0.48,-0.26 1.1,-0.26 0.61,0 1.1,0.26 0.47,0.24 0.81,0.65 0.34,0.4 0.51,0.93 0.2,0.53 0.21,1.1 z m -5.34,0.84 h 6.35 q 0.03,-0.86 -0.16,-1.7 -0.2,-0.84 -0.64,-1.48 -0.43,-0.66 -1.14,-1.06 -0.7,-0.4 -1.7,-0.4 -0.97,0 -1.69,0.39 -0.7,0.37 -1.15,0.99 -0.45,0.6 -0.67,1.4 -0.21,0.78 -0.21,1.6 0,0.87 0.2,1.67 0.23,0.79 0.68,1.4 0.45,0.59 1.15,0.94 0.72,0.33 1.7,0.33 1.56,0 2.41,-0.76 0.87,-0.77 1.19,-2.18 h -1.01 q -0.24,0.96 -0.87,1.54 -0.62,0.57 -1.72,0.57 -0.72,0 -1.23,-0.3 -0.52,-0.3 -0.85,-0.77 -0.34,-0.46 -0.5,-1.04 -0.14,-0.6 -0.14,-1.14 z m 7.17,-4.4 2.65,8.26 h 1.1 l 2.02,-6.94 h 0.03 l 2.04,6.94 h 1.1 l 2.66,-8.26 h -1.08 l -2.1,7.08 h -0.04 l -2.02,-7.08 h -1.13 l -2.02,7.08 h -0.03 l -2.11,-7.08 z m 16.44,0.61 q 0.72,0 1.27,0.3 0.54,0.31 0.9,0.8 0.36,0.5 0.54,1.14 0.19,0.63 0.19,1.28 0,0.66 -0.2,1.3 -0.17,0.62 -0.54,1.12 -0.35,0.5 -0.9,0.8 -0.54,0.3 -1.26,0.3 -0.72,0 -1.26,-0.3 -0.55,-0.3 -0.91,-0.8 -0.36,-0.5 -0.55,-1.12 -0.17,-0.64 -0.17,-1.3 0,-0.65 0.17,-1.28 0.2,-0.64 0.55,-1.13 0.36,-0.5 0.9,-0.8 0.55,-0.3 1.27,-0.3 z m 0,-0.85 q -0.94,0 -1.68,0.36 -0.72,0.35 -1.21,0.94 -0.5,0.6 -0.76,1.4 -0.25,0.78 -0.25,1.67 0,0.9 0.25,1.7 0.26,0.78 0.76,1.37 0.5,0.6 1.21,0.95 0.74,0.33 1.68,0.33 0.95,0 1.67,-0.33 0.73,-0.35 1.23,-0.95 0.5,-0.59 0.75,-1.37 0.26,-0.8 0.26,-1.7 0,-0.9 -0.26,-1.68 -0.26,-0.8 -0.75,-1.39 -0.5,-0.6 -1.23,-0.94 -0.72,-0.36 -1.67,-0.36 z m 5.7,0.24 V 93 h 1 v -4.4 q 0,-0.66 0.23,-1.2 0.23,-0.56 0.63,-0.96 0.41,-0.4 0.97,-0.6 0.56,-0.23 1.25,-0.2 v -1 q -1.12,-0.06 -1.93,0.49 -0.8,0.54 -1.19,1.55 h -0.03 v -1.94 z m 5.31,-3.16 V 93 h 1.01 v -3.14 l 1.63,-1.36 3.27,4.5 h 1.26 l -3.76,-5.2 3.52,-3.06 h -1.34 l -4.58,4 v -7.16 z"
       style="font-weight:300;font-size:16px;font-family:'Helvetica Neue';-inkscape-font-specification:'Helvetica Neue, Light';font-variant-ligatures:normal;font-variant-caps:normal;font-variant-numeric:normal;font-feature-settings:normal;text-align:start;letter-spacing:0;word-spacing:0;fill:#000000;fill-opacity:1;stroke:none;filter:url(#b)"
       aria-label="The Continuous Integration Framework"
       font-weight="300"
       font-size="16"
       letter-spacing="0"
       word-spacing="0"
       id="path1656"
       inkscape:connector-curvature="0" />
  </g>
</svg>
