<svg fill-rule="evenodd" height="300" width="300" xmlns="http://www.w3.org/2000/svg"><g transform="matrix(.87322 0 0 .90243 26.256 17.504)"><path d="m0 205.6v-44l103.9 93.4v44z"/><path d="m103.9 255 141.9-34.2v44l-142 34.2v-44zm141.9-34.2v44l38-127.5v-44z"/><path d="m180 0 103.8 93.3-38 127.5-142 34.2-103.8-93.4 38-127.4zm-3.8 74.1c32.8 17 44 54.7 25 84.2-18.8 29.4-60.8 39.5-93.6 22.5s-44-54.7-25-84.1c18.7-29.5 60.7-39.7 93.5-22.7z" fill="#1ac833"/><path d="m76.2 145a56 56 0 0 1 6.3-48.3c19-29.5 61-39.6 93.7-22.6 28 14.6 40.3 44.3 31.4 71a63 63 0 0 0 -31.4-35.8c-32.8-17-74.8-6.9-93.7 22.6a58.6 58.6 0 0 0 -6.3 13.1z"/><ellipse cx="197.113" cy="50.647" fill="#fff" rx="18.686" ry="18.858"/></g></svg>